<svg xmlns="http://www.w3.org/2000/svg" xmlns:xlink="http://www.w3.org/1999/xlink" width="212.224" height="139.523" viewBox="0 0 212.224 139.523">
  <defs>
    <clipPath id="clip-path">
      <rect id="Rectángulo_421147" data-name="Rectángulo 421147" width="212.224" height="139.523" fill="none"/>
    </clipPath>
  </defs>
  <g id="Grupo_1175229" data-name="Grupo 1175229" transform="translate(-635.12 -1008)">
    <circle id="Elipse_12768" data-name="Elipse 12768" cx="52" cy="52" r="52" transform="translate(643.017 1008)" fill="#ffd256"/>
    <g id="Grupo_1175226" data-name="Grupo 1175226" transform="translate(635.12 1008)">
      <g id="Grupo_1175227" data-name="Grupo 1175227" clip-path="url(#clip-path)">
        <path id="Trazado_1038695" data-name="Trazado 1038695" d="M16.05,111.174a.435.435,0,0,1-.429-.36l-.487-2.774a10.579,10.579,0,0,1-2.783,0l-.487,2.774a.436.436,0,0,1-.179.281.447.447,0,0,1-.326.071,13.774,13.774,0,0,1-4.484-1.634.434.434,0,0,1-.159-.594l1.4-2.422a10.6,10.6,0,0,1-2.149-1.783l-2.136,1.791a.449.449,0,0,1-.318.1.437.437,0,0,1-.3-.155,13.787,13.787,0,0,1-2.378-4.133.435.435,0,0,1,.26-.558l2.572-.938a10.433,10.433,0,0,1-.511-2.764H.435A.435.435,0,0,1,0,97.64a13.973,13.973,0,0,1,.839-4.7.435.435,0,0,1,.558-.259L3.9,93.6a10.445,10.445,0,0,1,1.4-2.47l-2.028-1.7a.435.435,0,0,1-.056-.61,13.435,13.435,0,0,1,3.66-3.064.434.434,0,0,1,.594.159L8.777,88.17a10.406,10.406,0,0,1,2.68-.982l-.451-2.567a.435.435,0,0,1,.37-.507q.181-.025.362-.055a7.691,7.691,0,0,1,.824-.1l1.158-.056,1.2.056a7.657,7.657,0,0,1,.825.1c.12.02.241.038.362.055a.435.435,0,0,1,.37.507l-.451,2.567a10.415,10.415,0,0,1,2.681.982l1.308-2.261a.434.434,0,0,1,.594-.159,13.424,13.424,0,0,1,3.659,3.064.435.435,0,0,1-.055.61l-2.028,1.7a10.443,10.443,0,0,1,1.4,2.47l2.506-.914a.435.435,0,0,1,.558.259,13.95,13.95,0,0,1,.839,4.7.435.435,0,0,1-.435.439H24.324a10.4,10.4,0,0,1-.511,2.764l2.572.938a.435.435,0,0,1,.26.558,13.771,13.771,0,0,1-2.378,4.133.437.437,0,0,1-.3.155.449.449,0,0,1-.318-.1l-2.135-1.791a10.6,10.6,0,0,1-2.15,1.783l1.4,2.422a.434.434,0,0,1-.159.594,13.781,13.781,0,0,1-4.484,1.634.443.443,0,0,1-.076.007M7.691,108.99a12.874,12.874,0,0,0,3.392,1.236l.484-2.756a.428.428,0,0,1,.5-.352,9.779,9.779,0,0,0,3.343,0,.428.428,0,0,1,.5.352l.484,2.756a12.877,12.877,0,0,0,3.392-1.236L18.4,106.581a.434.434,0,0,1,.16-.595,9.728,9.728,0,0,0,2.581-2.14.434.434,0,0,1,.611-.051l2.12,1.778a12.9,12.9,0,0,0,1.8-3.126l-2.561-.934a.436.436,0,0,1-.259-.562,9.569,9.569,0,0,0,.614-3.311.435.435,0,0,1,.435-.433h2.7a13.088,13.088,0,0,0-.634-3.555l-2.5.91a.435.435,0,0,1-.56-.265,9.58,9.58,0,0,0-1.667-2.954.436.436,0,0,1,.055-.611l2.015-1.692a12.558,12.558,0,0,0-2.769-2.314l-1.3,2.25a.434.434,0,0,1-.6.158,9.527,9.527,0,0,0-3.2-1.173.435.435,0,0,1-.354-.5l.448-2.55a6.453,6.453,0,0,0-.666-.081l-1.157-.056-1.115.056a6.475,6.475,0,0,0-.666.081l.448,2.55a.436.436,0,0,1-.355.5,9.519,9.519,0,0,0-3.2,1.173.444.444,0,0,1-.331.045.436.436,0,0,1-.265-.2l-1.3-2.25a12.538,12.538,0,0,0-2.769,2.314l2.015,1.692a.436.436,0,0,1,.056.611A9.6,9.6,0,0,0,4.571,94.3a.437.437,0,0,1-.224.25.442.442,0,0,1-.336.016l-2.5-.91a13.1,13.1,0,0,0-.634,3.555h2.7a.435.435,0,0,1,.435.433,9.561,9.561,0,0,0,.613,3.311.435.435,0,0,1-.259.562l-2.561.934a12.887,12.887,0,0,0,1.8,3.126l2.12-1.778a.432.432,0,0,1,.611.051,9.741,9.741,0,0,0,2.581,2.14.435.435,0,0,1,.161.595Z" transform="translate(0 -46.373)" fill="#29275f"/>
        <path id="Trazado_1038696" data-name="Trazado 1038696" d="M21.915,112.706a7.127,7.127,0,1,1,7.128-7.128,7.137,7.137,0,0,1-7.128,7.128m0-13.383a6.256,6.256,0,1,0,6.258,6.255,6.264,6.264,0,0,0-6.258-6.255" transform="translate(-8.172 -54.415)" fill="#29275f"/>
        <path id="Trazado_1038697" data-name="Trazado 1038697" d="M83.2,34.4h3.908A21.459,21.459,0,0,0,85.821,27.2l-3.654,1.332a17.037,17.037,0,0,0-2.979-5.16l2.988-2.506a20.871,20.871,0,0,0-5.6-4.688l-1.945,3.365a17.09,17.09,0,0,0-5.6-2.033l.675-3.829c-.614-.088-1.209-.21-1.823-.246l-1.831-.087-1.831.087c-.613.035-1.218.158-1.823.246l.675,3.829a17.086,17.086,0,0,0-5.6,2.033L55.53,16.18a20.734,20.734,0,0,0-5.6,4.688l2.988,2.506a17.037,17.037,0,0,0-2.979,5.16L46.286,27.2A21.458,21.458,0,0,0,45,34.4h3.908a17.158,17.158,0,0,0,1.034,5.87L46.286,41.6a21.126,21.126,0,0,0,3.645,6.326l2.988-2.506a17.278,17.278,0,0,0,4.556,3.829L55.53,52.621a21.362,21.362,0,0,0,6.87,2.5l.675-3.838a17.031,17.031,0,0,0,5.958,0l.675,3.838a21.362,21.362,0,0,0,6.87-2.5l-1.954-3.373a17.142,17.142,0,0,0,4.565-3.829l2.988,2.506A21.126,21.126,0,0,0,85.821,41.6l-3.654-1.332A17.157,17.157,0,0,0,83.2,34.4M66.053,43.369a9.134,9.134,0,1,1,9.13-9.139,9.139,9.139,0,0,1-9.13,9.139" transform="translate(-24.871 -7.379)" fill="#fff"/>
        <path id="Trazado_1038698" data-name="Trazado 1038698" d="M69.17,55.016a.437.437,0,0,1-.249-.078.432.432,0,0,1-.179-.281l-.6-3.412a17.656,17.656,0,0,1-5.25,0l-.6,3.412a.435.435,0,0,1-.179.281.448.448,0,0,1-.326.072,21.654,21.654,0,0,1-7.01-2.548.435.435,0,0,1-.16-.595l1.731-3a17.637,17.637,0,0,1-4.015-3.373l-2.658,2.23a.435.435,0,0,1-.613-.054A21.427,21.427,0,0,1,45.34,41.21a.436.436,0,0,1,.26-.558l3.25-1.184a17.544,17.544,0,0,1-.911-5.174H44.461a.434.434,0,0,1-.435-.439,21.805,21.805,0,0,1,1.314-7.339.436.436,0,0,1,.558-.26l3.249,1.184a17.422,17.422,0,0,1,2.626-4.547l-2.659-2.229a.436.436,0,0,1-.055-.611,21.069,21.069,0,0,1,5.716-4.786.434.434,0,0,1,.594.159L57.1,18.417a17.444,17.444,0,0,1,4.934-1.791l-.6-3.4a.43.43,0,0,1,.076-.33.437.437,0,0,1,.29-.177l.509-.079a13.3,13.3,0,0,1,1.351-.17l1.835-.087,1.872.087a12.416,12.416,0,0,1,1.33.167c.177.028.355.056.533.082a.437.437,0,0,1,.367.507l-.6,3.4a17.452,17.452,0,0,1,4.935,1.791l1.73-2.992a.434.434,0,0,1,.264-.2.442.442,0,0,1,.331.044,21.166,21.166,0,0,1,5.716,4.786.434.434,0,0,1-.055.611L79.26,22.892a17.446,17.446,0,0,1,2.626,4.547l3.25-1.184a.434.434,0,0,1,.557.259,21.81,21.81,0,0,1,1.315,7.34.435.435,0,0,1-.435.439H83.094a17.545,17.545,0,0,1-.912,5.174l3.25,1.184a.434.434,0,0,1,.26.557,21.4,21.4,0,0,1-3.719,6.457.433.433,0,0,1-.3.155.438.438,0,0,1-.318-.1l-2.66-2.23a17.442,17.442,0,0,1-4.022,3.373l1.738,3a.434.434,0,0,1-.16.6,21.654,21.654,0,0,1-7.01,2.548.441.441,0,0,1-.076.007M68.5,50.308a.439.439,0,0,1,.249.078.432.432,0,0,1,.179.281l.6,3.4a20.776,20.776,0,0,0,5.92-2.152l-1.733-2.991a.434.434,0,0,1,.16-.6,16.6,16.6,0,0,0,4.449-3.73.435.435,0,0,1,.613-.054l2.651,2.223a20.534,20.534,0,0,0,3.14-5.452l-3.241-1.181a.435.435,0,0,1-.26-.558,16.679,16.679,0,0,0,1.008-5.722.435.435,0,0,1,.435-.435h3.465a20.909,20.909,0,0,0-1.11-6.2l-3.241,1.181a.433.433,0,0,1-.333-.014.441.441,0,0,1-.225-.246,16.541,16.541,0,0,0-2.9-5.03.435.435,0,0,1,.054-.613l2.653-2.225A20.313,20.313,0,0,0,76.2,16.242l-1.724,2.983a.433.433,0,0,1-.594.159A16.611,16.611,0,0,0,68.42,17.4a.434.434,0,0,1-.354-.5l.6-3.392-.1-.016a12.257,12.257,0,0,0-1.237-.157L65.5,13.247l-1.79.088a12.23,12.23,0,0,0-1.257.161l-.081.013.6,3.392a.433.433,0,0,1-.353.5,16.622,16.622,0,0,0-5.457,1.98.434.434,0,0,1-.594-.159l-1.725-2.983a20.183,20.183,0,0,0-4.828,4.036L52.662,22.5a.435.435,0,0,1,.054.613,16.562,16.562,0,0,0-2.9,5.03.434.434,0,0,1-.558.26l-3.241-1.181a20.928,20.928,0,0,0-1.109,6.2h3.465a.435.435,0,0,1,.435.435,16.707,16.707,0,0,0,1.007,5.722.435.435,0,0,1-.259.558L46.31,41.32a20.536,20.536,0,0,0,3.142,5.452l2.65-2.223a.433.433,0,0,1,.613.054,16.775,16.775,0,0,0,4.442,3.731.436.436,0,0,1,.159.594L55.59,51.919a20.776,20.776,0,0,0,5.92,2.152l.6-3.4a.434.434,0,0,1,.18-.281.449.449,0,0,1,.326-.072,16.631,16.631,0,0,0,5.8,0,.523.523,0,0,1,.078-.007" transform="translate(-24.334 -6.841)" fill="#29275f"/>
        <path id="Trazado_1038699" data-name="Trazado 1038699" d="M80.24,57.784a9.57,9.57,0,1,1,9.565-9.574,9.585,9.585,0,0,1-9.565,9.574m0-18.269a8.7,8.7,0,1,0,8.694,8.695,8.709,8.709,0,0,0-8.694-8.695" transform="translate(-39.058 -21.359)" fill="#29275f"/>
        <path id="Trazado_1038700" data-name="Trazado 1038700" d="M196.185,44.408v3.034h-94.75V44.408a7.806,7.806,0,0,1,7.8-7.808h79.138a7.807,7.807,0,0,1,7.808,7.808" transform="translate(-56.064 -20.229)" fill="#7ecfe7"/>
        <path id="Trazado_1038701" data-name="Trazado 1038701" d="M196.185,60.841V150.6a7.806,7.806,0,0,1-7.808,7.8H109.238a7.805,7.805,0,0,1-7.8-7.8V60.841Z" transform="translate(-56.064 -33.627)" fill="#fff"/>
        <path id="Trazado_1038702" data-name="Trazado 1038702" d="M187.839,144.906H108.7a8.247,8.247,0,0,1-8.239-8.238v-92.8a8.25,8.25,0,0,1,8.239-8.244h79.138a8.253,8.253,0,0,1,8.244,8.244v92.8a8.25,8.25,0,0,1-8.244,8.238M108.7,36.5a7.379,7.379,0,0,0-7.368,7.373v92.8a7.377,7.377,0,0,0,7.368,7.368h79.138a7.379,7.379,0,0,0,7.373-7.368v-92.8a7.382,7.382,0,0,0-7.373-7.373Z" transform="translate(-55.526 -19.691)" fill="#29275f"/>
        <path id="Trazado_1038703" data-name="Trazado 1038703" d="M239.279,60.738H179.838a.435.435,0,1,1,0-.87h59.441a.435.435,0,1,1,0,.87" transform="translate(-99.158 -33.09)" fill="#29275f"/>
        <path id="Trazado_1038704" data-name="Trazado 1038704" d="M117.061,60.738H100.9a.435.435,0,1,1,0-.87h16.163a.435.435,0,0,1,0,.87" transform="translate(-55.526 -33.09)" fill="#29275f"/>
        <path id="Trazado_1038705" data-name="Trazado 1038705" d="M223.083,45.337a2.457,2.457,0,1,1-2.457-2.457,2.457,2.457,0,0,1,2.457,2.457" transform="translate(-120.584 -23.7)" fill="#7351fa"/>
        <path id="Trazado_1038706" data-name="Trazado 1038706" d="M273.085,47.691a2.892,2.892,0,1,1,2.892-2.891,2.895,2.895,0,0,1-2.892,2.891m0-4.913a2.022,2.022,0,1,0,2.022,2.022,2.024,2.024,0,0,0-2.022-2.022" transform="translate(-149.338 -23.162)" fill="#29275f"/>
        <path id="Trazado_1038707" data-name="Trazado 1038707" d="M249.079,46.032a2.457,2.457,0,1,1-2.457-2.457,2.457,2.457,0,0,1,2.457,2.457" transform="translate(-134.953 -24.084)" fill="#ecb85e"/>
        <path id="Trazado_1038708" data-name="Trazado 1038708" d="M61.3,158.389l.054.054c1.629,1.629,4,1.9,5.294.6s1.026-3.665-.6-5.294c1.629,1.629,4,1.9,5.3.6s1.026-3.665-.6-5.295c1.629,1.629,4,1.9,5.294.6s1.028-3.668-.6-5.3l-.054-.054-.013,0-18.569-4.5,4.371,18.034Z" transform="translate(-31.389 -77.273)" fill="#fff"/>
        <path id="Trazado_1038709" data-name="Trazado 1038709" d="M165.623,263.409l2.282,2.282-.289.289a1.615,1.615,0,0,0,0,2.274l.576.576a1.614,1.614,0,0,0,2.271,0l15.343-15.343a1.612,1.612,0,0,0,0-2.271l-.575-.575a1.613,1.613,0,0,0-2.274,0l-.286.286-2.282-2.281.287-.287a1.612,1.612,0,0,0,0-2.274l-.575-.576a1.609,1.609,0,0,0-2.269,0l-15.343,15.343a1.611,1.611,0,0,0,0,2.269l.576.576a1.615,1.615,0,0,0,2.274,0Z" transform="translate(-89.549 -135.435)" fill="#fff"/>
        <path id="Trazado_1038710" data-name="Trazado 1038710" d="M66.975,164.078l43.613,43.613,14.08-14.08L81.055,150c1.629,1.629,1.9,4,.6,5.3s-3.665,1.026-5.295-.6c1.629,1.629,1.9,4,.6,5.294s-3.668,1.028-5.3-.6c1.629,1.629,1.9,4,.6,5.295s-3.665,1.026-5.294-.6Z" transform="translate(-37.018 -82.905)" fill="#ecb85e"/>
        <path id="Trazado_1038711" data-name="Trazado 1038711" d="M58.982,148.879s2.209.354,4.716-2.153c2.44-2.44,2.171-4.6,2.158-4.716l-9.047-2.191-.025-.007Z" transform="translate(-31.385 -77.275)" fill="#29275f"/>
        <path id="Trazado_1038712" data-name="Trazado 1038712" d="M181.915,279.514l5.044,5.044s4.752,3.647,11.486-3.087,3.09-11.489,3.09-11.489l-5.044-5.044Z" transform="translate(-100.546 -146.433)" fill="#7351fa"/>
        <path id="Trazado_1038713" data-name="Trazado 1038713" d="M64.01,159.76a5.054,5.054,0,0,1-3.506-1.546.743.743,0,0,1-.169-.258l-4.5-18.581a.435.435,0,0,1,.525-.526l18.569,4.5a.484.484,0,0,1,.218.119c1.849,1.849,2.119,4.5.654,5.966a3.74,3.74,0,0,1-4.081.61,3.47,3.47,0,0,1-4.689,4.694,4.69,4.69,0,0,1,.305,1.2,3.423,3.423,0,0,1-.92,2.879,3.341,3.341,0,0,1-2.4.942m-2.858-2.13c1.455,1.428,3.531,1.686,4.647.573a2.575,2.575,0,0,0,.67-2.166,4.3,4.3,0,0,0-1.275-2.513.435.435,0,0,1,.615-.615c1.457,1.456,3.556,1.727,4.682.6s.853-3.222-.6-4.679a.435.435,0,0,1,.615-.615,4.3,4.3,0,0,0,2.514,1.273,2.558,2.558,0,0,0,2.165-.67c1.117-1.117.859-3.194-.569-4.649l-17.769-4.307Z" transform="translate(-30.851 -76.737)" fill="#29275f"/>
        <path id="Trazado_1038714" data-name="Trazado 1038714" d="M168.79,269.194a2.028,2.028,0,0,1-1.443-.594l-.575-.576a2.048,2.048,0,0,1-.021-2.871l-1.666-1.666a2.044,2.044,0,0,1-2.87-.021l-.576-.575a2.044,2.044,0,0,1,0-2.884l15.343-15.343a2.044,2.044,0,0,1,2.884,0l.576.575a2.046,2.046,0,0,1,.024,2.868l1.666,1.666a2.045,2.045,0,0,1,2.868.024l.575.576a2.046,2.046,0,0,1,0,2.887L170.233,268.6a2.024,2.024,0,0,1-1.442.594Zm-3.706-6.757a.434.434,0,0,1,.308.128l2.281,2.281a.435.435,0,0,1,0,.615l-.289.289a1.176,1.176,0,0,0,0,1.659l.575.576a1.174,1.174,0,0,0,1.656,0l15.343-15.343a1.175,1.175,0,0,0,0-1.657l-.576-.575a1.174,1.174,0,0,0-1.658,0l-.287.287a.435.435,0,0,1-.615,0l-2.282-2.281a.435.435,0,0,1,0-.615l.287-.287a1.174,1.174,0,0,0,0-1.658l-.575-.575a1.172,1.172,0,0,0-1.653,0l-15.343,15.343a1.174,1.174,0,0,0,0,1.653l.576.575a1.173,1.173,0,0,0,1.658,0l.289-.289a.434.434,0,0,1,.308-.128" transform="translate(-89.01 -134.898)" fill="#29275f"/>
        <path id="Trazado_1038715" data-name="Trazado 1038715" d="M110.05,207.588a.437.437,0,0,1-.308-.127L66.129,163.847a.435.435,0,0,1,0-.615l0,0a.435.435,0,0,1,.615,0c1.455,1.456,3.556,1.727,4.679.6a2.575,2.575,0,0,0,.67-2.166,4.3,4.3,0,0,0-1.274-2.513.435.435,0,0,1,.615-.615c1.457,1.456,3.556,1.726,4.682.6s.853-3.222-.6-4.679a.435.435,0,0,1,.615-.615c1.458,1.458,3.556,1.727,4.679.6s.855-3.225-.6-4.681a.435.435,0,0,1,.615-.615l43.613,43.613a.435.435,0,0,1,0,.615l-14.079,14.08a.435.435,0,0,1-.308.127M68.825,165.312l41.226,41.226,13.464-13.465L82.292,151.85a3.527,3.527,0,0,1-.866,3.215,3.74,3.74,0,0,1-4.081.61,3.47,3.47,0,0,1-4.689,4.694,4.686,4.686,0,0,1,.305,1.2,3.422,3.422,0,0,1-.92,2.88,3.524,3.524,0,0,1-3.217.863" transform="translate(-36.48 -82.367)" fill="#29275f"/>
        <path id="Trazado_1038716" data-name="Trazado 1038716" d="M58.747,148.794a2.523,2.523,0,0,1-.371-.022.436.436,0,0,1-.354-.327l-2.2-9.068a.436.436,0,0,1,.12-.416.441.441,0,0,1,.419-.107l9.059,2.194a.437.437,0,0,1,.33.373c.049.418.17,2.623-2.282,5.075a6.809,6.809,0,0,1-4.722,2.3m-1.909-8.929,1.954,8.06a5.98,5.98,0,0,0,4.062-2.045,6.042,6.042,0,0,0,2.045-4.063Z" transform="translate(-30.847 -76.737)" fill="#29275f"/>
        <path id="Trazado_1038717" data-name="Trazado 1038717" d="M189.894,285.424a6.606,6.606,0,0,1-3.738-1.054l-5.086-5.081a.435.435,0,0,1,0-.615L195.645,264.1a.449.449,0,0,1,.615,0l5.044,5.044c.076.094,3.837,5.179-3.089,12.105-3.311,3.311-6.2,4.179-8.321,4.179m-7.9-6.443,4.736,4.736c.138.1,4.509,3.273,10.871-3.087s3.189-10.736,3.051-10.919l-4.7-4.692Z" transform="translate(-100.008 -145.901)" fill="#29275f"/>
        <path id="Trazado_1038718" data-name="Trazado 1038718" d="M106.627,179.591a.434.434,0,0,1-.308-.127l-19.2-19.2a.435.435,0,1,1,.615-.615l19.2,19.2a.435.435,0,0,1-.308.743" transform="translate(-48.079 -88.167)" fill="#29275f"/>
        <path id="Trazado_1038719" data-name="Trazado 1038719" d="M163.976,236.94a.434.434,0,0,1-.308-.127l-16.956-16.957a.435.435,0,0,1,.615-.615L164.283,236.2a.435.435,0,0,1-.308.743" transform="translate(-81.018 -121.106)" fill="#29275f"/>
        <path id="Trazado_1038720" data-name="Trazado 1038720" d="M111.009,204.961a.435.435,0,0,1-.308-.127l-34.08-34.08a.435.435,0,0,1,.615-.615l34.08,34.08a.435.435,0,0,1-.308.743" transform="translate(-42.279 -93.967)" fill="#29275f"/>
        <path id="Trazado_1038721" data-name="Trazado 1038721" d="M169.538,267.4a.435.435,0,0,1-.308-.743l15.055-15.054a.435.435,0,1,1,.615.615l-15.055,15.054a.434.434,0,0,1-.308.128" transform="translate(-93.465 -138.995)" fill="#29275f"/>
        <path id="Trazado_1038722" data-name="Trazado 1038722" d="M173.993,273.147a.435.435,0,0,1-.308-.743l15.057-15.057a.435.435,0,0,1,.615.615L174.3,273.02a.435.435,0,0,1-.308.127" transform="translate(-95.927 -142.168)" fill="#29275f"/>
        <path id="Trazado_1038723" data-name="Trazado 1038723" d="M163.32,95.646a25.614,25.614,0,1,1-25.614-25.614A25.614,25.614,0,0,1,163.32,95.646" transform="translate(-61.955 -38.707)" fill="#7ecfe7"/>
        <path id="Trazado_1038724" data-name="Trazado 1038724" d="M289.123,30.1c-4.48.726-7.96,4.54-10.148,10.433v0c-1.865,5.015-2.8,11.534-2.614,18.928a87.652,87.652,0,0,0,3.646,22.523c2.161,7.074,5.1,12.962,8.452,17.132,3.936,4.906,8.441,7.428,12.922,6.7,10.15-1.643,15.169-19.16,11.675-40.742S299.273,28.458,289.123,30.1m11.232,69.387c-3.842.622-10.152-6.281-14.126-19.12a80.683,80.683,0,0,1-3.452-21.323c-.28-13.442,3.53-21.983,7.372-22.605,4.787-.775,13.408,10.137,16.569,29.671s-1.576,32.6-6.363,33.378" transform="translate(-152.735 -16.569)" fill="#7351fa"/>
        <path id="Trazado_1038725" data-name="Trazado 1038725" d="M314.656,74.044c3.161,19.529-1.576,32.6-6.364,33.378-3.841.622-10.152-6.281-14.126-19.12a47.965,47.965,0,0,1,4.854-.761,4.192,4.192,0,0,0,3.624-3.048,19.412,19.412,0,0,0-2.684-16.58,4.18,4.18,0,0,0-4.4-1.744,47.926,47.926,0,0,1-4.847.81c-.28-13.442,3.53-21.983,7.372-22.605,4.787-.775,13.408,10.137,16.57,29.671" transform="translate(-160.672 -24.504)" fill="#fff"/>
        <path id="Trazado_1038726" data-name="Trazado 1038726" d="M303.207,102.753a20.571,20.571,0,0,1-.545,8.593,4.192,4.192,0,0,1-3.624,3.048,47.731,47.731,0,0,0-4.855.761,80.69,80.69,0,0,1-3.452-21.324,47.824,47.824,0,0,0,4.847-.81,4.18,4.18,0,0,1,4.4,1.744,20.6,20.6,0,0,1,3.229,7.987" transform="translate(-160.69 -51.357)" fill="#7351fa"/>
        <path id="Trazado_1038727" data-name="Trazado 1038727" d="M234.931,95.037c2.161,7.074,5.1,12.962,8.452,17.132-8.692-2.175-19.191-5.72-35.744-5.867-2.025-.023-4.051.01-6.056.1,0,0-4.262-3.892-6.148-15.544-1.844-11.393.806-16.465.925-16.689l0-.006c17.753-5.015,29.049-15.187,37.536-20.583-1.865,5.015-2.8,11.534-2.614,18.928a87.643,87.643,0,0,0,3.646,22.523" transform="translate(-107.659 -29.617)" fill="#fff"/>
        <path id="Trazado_1038728" data-name="Trazado 1038728" d="M179.026,131.849a86.889,86.889,0,0,0-8.674.809c-1.651.247-3.279.546-4.867.9A6.12,6.12,0,0,1,159.043,131a28.4,28.4,0,0,1-3.93-24.278,6.114,6.114,0,0,1,5.307-4.456A79.5,79.5,0,0,0,173.8,99.616c-.119.225-2.77,5.3-.925,16.689,1.886,11.651,6.148,15.544,6.148,15.544" transform="translate(-85.102 -55.059)" fill="#7351fa"/>
        <path id="Trazado_1038729" data-name="Trazado 1038729" d="M211.885,193.9s-1.577,7.039-6.348,9.8l-4.52-.789s-4.036-1.723-7.717-16.026a81.841,81.841,0,0,1-2.708-14.535,86.754,86.754,0,0,1,8.674-.809c2.006-.095,4.031-.127,6.056-.105.545,2.843,2.233,3.906,2.695,5.922-2.559,6.6-1.6,12.356,3.868,16.539" transform="translate(-105.342 -94.75)" fill="#fff"/>
        <path id="Trazado_1038730" data-name="Trazado 1038730" d="M299.3,105.846c-4,0-8.024-2.389-11.715-6.991-3.431-4.269-6.38-10.243-8.529-17.277a88.155,88.155,0,0,1-3.665-22.64c-.18-7.339.728-13.927,2.627-19.054a.327.327,0,0,1,.013-.041c2.331-6.274,5.957-9.979,10.487-10.711,5.086-.829,10.373,2.359,14.891,8.964,4.453,6.509,7.841,15.876,9.541,26.379,3.533,21.828-1.64,39.558-12.034,41.24a10.035,10.035,0,0,1-1.616.131M278.859,40.11a.27.27,0,0,1-.013.041c-1.871,5.03-2.765,11.52-2.586,18.766a87.143,87.143,0,0,0,3.628,22.407c2.116,6.928,5.011,12.8,8.374,16.986,3.982,4.963,8.308,7.228,12.513,6.547,9.9-1.6,14.769-18.9,11.316-40.243-1.68-10.378-5.019-19.621-9.4-26.027-4.318-6.31-9.3-9.359-14.033-8.6-4.195.679-7.582,4.177-9.8,10.119m9.727-10.548h0Z" transform="translate(-152.198 -16.03)" fill="#29275f"/>
        <path id="Trazado_1038731" data-name="Trazado 1038731" d="M307.279,107.36c-4,0-10.081-6.588-14.066-19.465a81.127,81.127,0,0,1-3.471-21.443c-.294-14.106,3.767-22.4,7.737-23.043,4.881-.782,13.739,9.457,17.069,30.03s-1.861,33.09-6.723,33.877a3.355,3.355,0,0,1-.545.043m-9.231-63.126a2.771,2.771,0,0,0-.43.033c-3.659.593-7.28,9.046-7.006,22.167a80.18,80.18,0,0,0,3.432,21.2c3.881,12.537,10,19.4,13.641,18.82,4.5-.729,9.076-13.9,6-32.88-2.979-18.393-11.049-29.345-15.641-29.345" transform="translate(-160.134 -23.969)" fill="#29275f"/>
        <path id="Trazado_1038732" data-name="Trazado 1038732" d="M307.279,107.36c-4,0-10.081-6.588-14.067-19.465a.435.435,0,0,1,.327-.554,48.435,48.435,0,0,1,4.9-.768,3.74,3.74,0,0,0,3.249-2.731A18.969,18.969,0,0,0,299.06,67.62a3.727,3.727,0,0,0-3.942-1.561,48.33,48.33,0,0,1-4.892.817.435.435,0,0,1-.485-.423c-.294-14.107,3.767-22.4,7.737-23.044,4.881-.782,13.739,9.457,17.069,30.031s-1.862,33.09-6.723,33.877a3.405,3.405,0,0,1-.545.043M294.187,88.1c3.886,12.245,9.905,18.924,13.5,18.361,4.5-.73,9.075-13.9,6-32.88s-11.582-30.029-16.071-29.311c-3.614.586-7.191,8.841-7.014,21.687,1.5-.189,2.949-.439,4.325-.745a4.591,4.591,0,0,1,4.856,1.927,19.846,19.846,0,0,1,2.742,16.936,4.6,4.6,0,0,1-4,3.366c-1.4.144-2.861.365-4.34.659" transform="translate(-160.134 -23.969)" fill="#29275f"/>
        <path id="Trazado_1038733" data-name="Trazado 1038733" d="M293.647,115.05a.435.435,0,0,1-.416-.306A81.14,81.14,0,0,1,289.76,93.3a.436.436,0,0,1,.385-.441,47.109,47.109,0,0,0,4.8-.8,4.592,4.592,0,0,1,4.856,1.927,19.846,19.846,0,0,1,2.742,16.936,4.6,4.6,0,0,1-4,3.366,47.984,47.984,0,0,0-4.811.754.4.4,0,0,1-.088.009m-3.008-21.374a80.458,80.458,0,0,0,3.308,20.433c1.536-.307,3.051-.538,4.51-.687a3.74,3.74,0,0,0,3.249-2.731,18.969,18.969,0,0,0-2.626-16.223,3.726,3.726,0,0,0-3.942-1.561c-1.431.318-2.942.577-4.5.769" transform="translate(-160.153 -50.817)" fill="#29275f"/>
        <path id="Trazado_1038734" data-name="Trazado 1038734" d="M242.84,112.067a.441.441,0,0,1-.1-.013c-1.314-.329-2.669-.689-4.08-1.064-7.824-2.079-17.563-4.667-31.563-4.79-2.061-.024-4.091.013-6.032.1a.423.423,0,0,1-.314-.113c-.178-.163-4.4-4.129-6.284-15.8-1.825-11.269.679-16.413.971-16.963a.572.572,0,0,1,.269-.22c13.733-3.879,23.464-10.777,31.282-16.319,2.182-1.546,4.241-3.006,6.139-4.212a.435.435,0,0,1,.642.518c-1.871,5.03-2.765,11.52-2.587,18.766a87.162,87.162,0,0,0,3.628,22.407c2.116,6.929,5.011,12.8,8.374,16.987a.435.435,0,0,1-.34.708m-36.95-6.744c.4,0,.806,0,1.211.007,14.108.125,23.906,2.728,31.777,4.82.975.259,1.922.51,2.847.75a54.2,54.2,0,0,1-7.752-16.272h0a88.116,88.116,0,0,1-3.665-22.639,54.211,54.211,0,0,1,2.218-17.881c-1.581,1.047-3.27,2.244-5.038,3.5C219.65,63.16,209.9,70.069,196.122,74c-.4.853-2.472,5.934-.8,16.258,1.656,10.231,5.193,14.427,5.891,15.17,1.516-.069,3.085-.1,4.677-.1" transform="translate(-107.116 -29.079)" fill="#29275f"/>
        <path id="Trazado_1038735" data-name="Trazado 1038735" d="M163.574,133.606a6.5,6.5,0,0,1-5.429-2.9,28.841,28.841,0,0,1-3.987-24.634,6.514,6.514,0,0,1,5.683-4.774,79.177,79.177,0,0,0,13.31-2.638.435.435,0,0,1,.5.623c-.111.208-2.69,5.24-.88,16.416,1.833,11.325,5.971,15.255,6.012,15.293a.435.435,0,0,1-.275.755,86.413,86.413,0,0,0-8.63.8c-1.663.249-3.291.549-4.835.893a6.808,6.808,0,0,1-1.47.162m8.932-33.865a78.826,78.826,0,0,1-12.578,2.422A5.649,5.649,0,0,0,155,106.3a27.96,27.96,0,0,0,3.872,23.922,5.66,5.66,0,0,0,5.986,2.37c1.565-.347,3.212-.651,4.9-.9,2.5-.365,5.121-.623,7.8-.767-1.288-1.588-4.17-6-5.639-15.085-1.466-9.056-.138-14.157.593-16.1" transform="translate(-84.567 -54.52)" fill="#29275f"/>
        <path id="Trazado_1038736" data-name="Trazado 1038736" d="M205,203.6a.421.421,0,0,1-.075-.007l-4.52-.789a.437.437,0,0,1-.1-.028c-.173-.074-4.276-1.973-7.969-16.317a82.37,82.37,0,0,1-2.721-14.616.436.436,0,0,1,.372-.459c2.784-.406,5.718-.679,8.717-.812,1.957-.092,4-.128,6.081-.106a.436.436,0,0,1,.423.353,9.124,9.124,0,0,0,1.494,3.4,7.874,7.874,0,0,1,1.2,2.51.432.432,0,0,1-.019.254c-2.615,6.744-1.362,12.14,3.727,16.035a.436.436,0,0,1,.161.441c-.066.295-1.675,7.258-6.554,10.084a.438.438,0,0,1-.218.059m-4.38-1.641,4.3.75c3.938-2.382,5.6-7.9,5.939-9.177-5.135-4.067-6.46-9.846-3.831-16.736a7.466,7.466,0,0,0-1.053-2.112,10.282,10.282,0,0,1-1.54-3.35c-1.943-.012-3.851.021-5.683.108-2.829.126-5.6.376-8.231.747a84.616,84.616,0,0,0,2.666,14.053c3.363,13.068,7.031,15.486,7.436,15.717" transform="translate(-104.803 -94.213)" fill="#29275f"/>
        <path id="Trazado_1038737" data-name="Trazado 1038737" d="M412.685,64.981,394.1,73.713l3.157,6.586-34.568,3.023,22.552-9.04L382.28,68.1Z" transform="translate(-200.461 -35.916)" fill="#ecb85e"/>
        <path id="Trazado_1038738" data-name="Trazado 1038738" d="M404.423,128.3l-13.344-2.634-.657,4.941L370.39,118.348l15.629,4.063.616-4.636Z" transform="translate(-204.718 -65.095)" fill="#ecb85e"/>
        <path id="Trazado_1038739" data-name="Trazado 1038739" d="M383.754,23.286,376.4,35.718l4.03,2.388L362.2,53.859l9.459-14.219-3.781-2.24Z" transform="translate(-200.189 -12.87)" fill="#ecb85e"/>
        <path id="Trazado_1038740" data-name="Trazado 1038740" d="M17.411,26.7a.435.435,0,0,1-.435-.435V21.5a.435.435,0,0,1,.87,0v4.768a.435.435,0,0,1-.435.435" transform="translate(-9.383 -11.641)" fill="#29275f"/>
        <path id="Trazado_1038741" data-name="Trazado 1038741" d="M16.85,27.262H12.081a.435.435,0,0,1,0-.87H16.85a.435.435,0,0,1,0,.87" transform="translate(-6.437 -14.587)" fill="#29275f"/>
        <path id="Trazado_1038742" data-name="Trazado 1038742" d="M9.775,50.769a1.592,1.592,0,0,0,0,3.183,1.592,1.592,0,0,0,0-3.183" transform="translate(-4.553 -28.06)" fill="#29275f"/>
        <path id="Trazado_1038743" data-name="Trazado 1038743" d="M389.5,195.832a.435.435,0,0,1-.435-.435v-4.769a.435.435,0,0,1,.87,0V195.4a.435.435,0,0,1-.435.435" transform="translate(-215.038 -105.121)" fill="#29275f"/>
        <path id="Trazado_1038744" data-name="Trazado 1038744" d="M388.935,196.4h-4.768a.435.435,0,1,1,0-.87h4.768a.435.435,0,0,1,0,.87" transform="translate(-212.092 -108.068)" fill="#29275f"/>
        <path id="Trazado_1038745" data-name="Trazado 1038745" d="M386.671,166.32a1.593,1.593,0,0,0,0,3.183,1.593,1.593,0,0,0,0-3.183" transform="translate(-212.867 -91.926)" fill="#29275f"/>
        <path id="Trazado_1038746" data-name="Trazado 1038746" d="M404.528,177.137c-3.413,0-3.419,5.305,0,5.305s3.42-5.305,0-5.305" transform="translate(-222.17 -97.905)" fill="#29275f"/>
        <path id="Trazado_1038747" data-name="Trazado 1038747" d="M359.934,39.96a1.592,1.592,0,0,0,0,3.183,1.592,1.592,0,0,0,0-3.183" transform="translate(-198.089 -22.086)" fill="#29275f"/>
        <path id="Trazado_1038748" data-name="Trazado 1038748" d="M342.182,15.167c-3.414,0-3.42,5.305,0,5.305s3.419-5.305,0-5.305" transform="translate(-187.71 -8.383)" fill="#29275f"/>
        <path id="Trazado_1038749" data-name="Trazado 1038749" d="M360.646,0c-3.414,0-3.42,5.305,0,5.305S364.065,0,360.646,0" transform="translate(-197.916)" fill="#29275f"/>
        <path id="Trazado_1038750" data-name="Trazado 1038750" d="M50.446,246.465a.435.435,0,0,1-.435-.435v-4.769a.435.435,0,0,1,.87,0v4.769a.435.435,0,0,1-.435.435" transform="translate(-27.642 -133.107)" fill="#29275f"/>
        <path id="Trazado_1038751" data-name="Trazado 1038751" d="M49.884,247.028H45.115a.435.435,0,0,1,0-.87h4.769a.435.435,0,0,1,0,.87" transform="translate(-24.695 -136.054)" fill="#29275f"/>
        <path id="Trazado_1038752" data-name="Trazado 1038752" d="M47.619,216.953a1.593,1.593,0,0,0,0,3.183,1.593,1.593,0,0,0,0-3.183" transform="translate(-25.47 -119.912)" fill="#29275f"/>
        <path id="Trazado_1038753" data-name="Trazado 1038753" d="M65.477,227.77c-3.414,0-3.419,5.305,0,5.305s3.42-5.305,0-5.305" transform="translate(-34.773 -125.89)" fill="#29275f"/>
        <path id="Trazado_1038754" data-name="Trazado 1038754" d="M265.876,229.667v12.394a8.837,8.837,0,0,0,8.811,8.811h9.824l-2.812,7.893,12.46-7.893H313.58a8.837,8.837,0,0,0,8.811-8.811V229.667a8.837,8.837,0,0,0-8.811-8.811H274.687a8.837,8.837,0,0,0-8.811,8.811" transform="translate(-146.952 -122.069)" fill="#fff"/>
        <path id="Trazado_1038755" data-name="Trazado 1038755" d="M281.161,258.663a.435.435,0,0,1-.41-.581l2.605-7.311h-9.207a9.257,9.257,0,0,1-9.246-9.246V229.13a9.257,9.257,0,0,1,9.246-9.246h38.894a9.256,9.256,0,0,1,9.246,9.246v12.394a9.257,9.257,0,0,1-9.246,9.246H293.748L281.394,258.6a.44.44,0,0,1-.233.067m-7.012-37.909a8.384,8.384,0,0,0-8.376,8.376v12.394a8.385,8.385,0,0,0,8.376,8.376h9.825a.436.436,0,0,1,.41.581l-2.389,6.7,11.393-7.218a.443.443,0,0,1,.233-.068h19.421a8.385,8.385,0,0,0,8.375-8.376V229.13a8.384,8.384,0,0,0-8.375-8.376Z" transform="translate(-146.414 -121.532)" fill="#29275f"/>
        <path id="Trazado_1038756" data-name="Trazado 1038756" d="M353.849,248.614a4.211,4.211,0,1,0,4.211-4.211,4.211,4.211,0,0,0-4.211,4.211" transform="translate(-195.575 -135.084)" fill="#7351fa"/>
        <path id="Trazado_1038757" data-name="Trazado 1038757" d="M321.551,248.614a4.211,4.211,0,1,0,4.211-4.211,4.211,4.211,0,0,0-4.211,4.211" transform="translate(-177.724 -135.084)" fill="#7351fa"/>
        <path id="Trazado_1038758" data-name="Trazado 1038758" d="M289.254,248.614a4.211,4.211,0,1,0,4.211-4.211,4.211,4.211,0,0,0-4.211,4.211" transform="translate(-159.873 -135.084)" fill="#7351fa"/>
      </g>
    </g>
  </g>
</svg>
