<svg xmlns="http://www.w3.org/2000/svg" xmlns:xlink="http://www.w3.org/1999/xlink" width="200.264" height="134.699" viewBox="0 0 200.264 134.699">
  <defs>
    <clipPath id="clip-path">
      <rect id="Rect치ngulo_421144" data-name="Rect치ngulo 421144" width="182.264" height="134.699" fill="none"/>
    </clipPath>
    <clipPath id="clip-path-2">
      <path id="Trazado_1038677" data-name="Trazado 1038677" d="M91.645,27.26v26.9H25.623v87.81a7.63,7.63,0,0,0,7.628,7.634H110.67a7.633,7.633,0,0,0,7.641-7.634v-10.3H186.98V27.26Z" transform="translate(-25.623 -27.26)" fill="none"/>
    </clipPath>
  </defs>
  <g id="Grupo_1186068" data-name="Grupo 1186068" transform="translate(-340 -1003.676)">
    <circle id="Elipse_12767" data-name="Elipse 12767" cx="52" cy="52" r="52" transform="translate(340 1008)" fill="#ffd256"/>
    <g id="Grupo_1175220" data-name="Grupo 1175220" transform="translate(358 1003.676)">
      <g id="Grupo_1175221" data-name="Grupo 1175221">
        <g id="Grupo_1175220-2" data-name="Grupo 1175220" clip-path="url(#clip-path)">
          <path id="Trazado_1038632" data-name="Trazado 1038632" d="M118.308,72.152V75.12H25.616V72.152a7.637,7.637,0,0,1,7.633-7.639h77.42a7.638,7.638,0,0,1,7.639,7.639" transform="translate(-14.411 -36.294)" fill="#7ecfe7"/>
          <path id="Trazado_1038633" data-name="Trazado 1038633" d="M118.308,88.762v87.813a7.637,7.637,0,0,1-7.639,7.633H33.249a7.635,7.635,0,0,1-7.633-7.633V88.762Z" transform="translate(-14.411 -49.935)" fill="#fff"/>
          <path id="Trazado_1038634" data-name="Trazado 1038634" d="M110.122,170.444H32.7a8.069,8.069,0,0,1-8.06-8.06V71.6a8.071,8.071,0,0,1,8.06-8.065h77.419a8.074,8.074,0,0,1,8.064,8.065v90.781a8.071,8.071,0,0,1-8.064,8.06M32.7,64.391A7.219,7.219,0,0,0,25.494,71.6v90.781a7.216,7.216,0,0,0,7.208,7.208h77.419a7.219,7.219,0,0,0,7.213-7.208V71.6a7.222,7.222,0,0,0-7.213-7.213Z" transform="translate(-13.864 -35.746)" fill="#29275f"/>
          <path id="Trazado_1038635" data-name="Trazado 1038635" d="M162.186,88.64H104.037a.426.426,0,0,1,0-.852h58.149a.426.426,0,0,1,0,.852" transform="translate(-58.289 -49.388)" fill="#29275f"/>
          <path id="Trazado_1038636" data-name="Trazado 1038636" d="M40.88,88.64H25.068a.426.426,0,1,1,0-.852H40.88a.426.426,0,0,1,0,.852" transform="translate(-13.863 -49.388)" fill="#29275f"/>
          <path id="Trazado_1038637" data-name="Trazado 1038637" d="M147.2,73.2a2.4,2.4,0,1,1-2.4-2.4,2.4,2.4,0,0,1,2.4,2.4" transform="translate(-80.106 -39.828)" fill="#7351fa"/>
          <path id="Trazado_1038638" data-name="Trazado 1038638" d="M197.262,75.48a2.829,2.829,0,1,1,2.829-2.829,2.833,2.833,0,0,1-2.829,2.829m0-4.807a1.978,1.978,0,1,0,1.977,1.978,1.98,1.98,0,0,0-1.977-1.978" transform="translate(-109.383 -39.28)" fill="#29275f"/>
          <path id="Trazado_1038639" data-name="Trazado 1038639" d="M173.2,73.894a2.4,2.4,0,1,1-2.4-2.4,2.4,2.4,0,0,1,2.4,2.4" transform="translate(-94.736 -40.219)" fill="#ecb85e"/>
          <path id="Trazado_1038640" data-name="Trazado 1038640" d="M48.651,83.023v21.8a5.635,5.635,0,0,1-5.619,5.618h-10.1l3.094,8.687-13.709-8.687H13.142a5.635,5.635,0,0,1-5.618-5.618v-21.8A5.64,5.64,0,0,1,13.142,77.4h29.89a5.64,5.64,0,0,1,5.619,5.618" transform="translate(-4.233 -43.546)" fill="#fff"/>
          <path id="Trazado_1038641" data-name="Trazado 1038641" d="M36.329,105.421l-8.749,4.6,1.671-9.742-7.078-6.9,9.782-1.421,4.375-8.864L40.7,91.958l9.782,1.421-7.078,6.9,1.671,9.742Z" transform="translate(-12.474 -46.747)" fill="#ffd256"/>
          <path id="Trazado_1038642" data-name="Trazado 1038642" d="M27.032,109.925a.427.427,0,0,1-.419-.5l1.633-9.521-6.918-6.743a.426.426,0,0,1,.236-.727l9.56-1.39L35.4,82.383a.444.444,0,0,1,.763,0l4.275,8.663L50,92.436a.426.426,0,0,1,.235.727l-6.918,6.743,1.634,9.521a.426.426,0,0,1-.618.449l-8.552-4.495-8.551,4.495a.419.419,0,0,1-.2.049M22.54,93.154,29,99.452a.427.427,0,0,1,.122.378L27.6,108.72l7.986-4.2a.425.425,0,0,1,.4,0l7.986,4.2L42.44,99.829a.428.428,0,0,1,.123-.378l6.461-6.3-8.929-1.3a.429.429,0,0,1-.321-.233l-3.993-8.09-3.993,8.09a.427.427,0,0,1-.32.233Z" transform="translate(-11.926 -46.225)" fill="#29275f"/>
          <path id="Trazado_1038643" data-name="Trazado 1038643" d="M35.476,119.006a.417.417,0,0,1-.228-.066l-13.605-8.621H12.595a6.051,6.051,0,0,1-6.044-6.044v-21.8a6.051,6.051,0,0,1,6.044-6.044H42.486a6.051,6.051,0,0,1,6.044,6.044v21.8a6.051,6.051,0,0,1-6.044,6.044h-9.5l2.892,8.119a.425.425,0,0,1-.4.569M12.595,77.282A5.2,5.2,0,0,0,7.4,82.474v21.8a5.2,5.2,0,0,0,5.193,5.193h9.171a.43.43,0,0,1,.228.066l12.666,8.026-2.681-7.524a.426.426,0,0,1,.4-.569H42.486a5.2,5.2,0,0,0,5.193-5.193v-21.8a5.2,5.2,0,0,0-5.193-5.193Z" transform="translate(-3.685 -42.998)" fill="#29275f"/>
          <path id="Trazado_1038644" data-name="Trazado 1038644" d="M83.917,9.322V21.066a8.374,8.374,0,0,0,8.349,8.349h5.185l-2.664,7.479,11.806-7.479h4.383a8.374,8.374,0,0,0,8.349-8.349V9.322A8.374,8.374,0,0,0,110.976.973H92.266a8.374,8.374,0,0,0-8.349,8.349" transform="translate(-47.21 -0.547)" fill="#fff"/>
          <path id="Trazado_1038645" data-name="Trazado 1038645" d="M94.239,36.773a.425.425,0,0,1-.4-.569l2.462-6.91H91.719a8.785,8.785,0,0,1-8.775-8.775V8.775A8.785,8.785,0,0,1,91.719,0h18.71A8.785,8.785,0,0,1,119.2,8.775V20.519a8.784,8.784,0,0,1-8.775,8.775H106.17l-11.7,7.413a.427.427,0,0,1-.227.066M91.719.852A7.932,7.932,0,0,0,83.8,8.775V20.519a7.932,7.932,0,0,0,7.923,7.923H96.9a.426.426,0,0,1,.4.569l-2.25,6.316,10.764-6.819a.433.433,0,0,1,.228-.066h4.383a7.932,7.932,0,0,0,7.923-7.923V8.775A7.933,7.933,0,0,0,110.429.852Z" transform="translate(-46.662)" fill="#29275f"/>
          <path id="Trazado_1038646" data-name="Trazado 1038646" d="M97.22,19.035c0,.079.012.185.024.3a6.888,6.888,0,0,0,.591,2.363c1.057,2.783,3.958,7,11.8,9.959,7.844-2.955,10.745-7.175,11.8-9.959a8.848,8.848,0,0,0,.615-2.666c.009-.145.009-.226.009-.226a7.032,7.032,0,0,0-12.426-4.519,7.032,7.032,0,0,0-12.426,4.519s0,.081.009.226" transform="translate(-54.689 -6.621)" fill="#7351fa"/>
          <path id="Trazado_1038647" data-name="Trazado 1038647" d="M109.089,31.538a.428.428,0,0,1-.15-.028c-7.884-2.971-10.9-7.19-12.051-10.206a7.274,7.274,0,0,1-.617-2.484c-.011-.113-.02-.224-.024-.308-.01-.161-.01-.251-.01-.251A7.458,7.458,0,0,1,109.09,13.1a7.457,7.457,0,0,1,12.851,5.157s0,.091-.01.252a9.216,9.216,0,0,1-.642,2.792c-1.146,3.016-4.166,7.235-12.05,10.206a.428.428,0,0,1-.15.028m-5.4-19.892a6.618,6.618,0,0,0-6.606,6.615c0,.006,0,.077.008.2v0c0,.074.012.173.024.283a6.478,6.478,0,0,0,.554,2.229c1.087,2.859,3.941,6.826,11.415,9.68,7.474-2.855,10.328-6.822,11.4-9.655a8.3,8.3,0,0,0,.587-2.534c.008-.13.009-.2.009-.208a6.606,6.606,0,0,0-11.675-4.243.426.426,0,0,1-.326.151h0a.426.426,0,0,1-.326-.153,6.584,6.584,0,0,0-5.069-2.369" transform="translate(-54.141 -6.073)" fill="#29275f"/>
          <path id="Trazado_1038648" data-name="Trazado 1038648" d="M111.492,189.082q0-.373-.036-.734v0a15.03,15.03,0,0,0,2.37-1.155,9.774,9.774,0,0,0-1.452-3.505,15.326,15.326,0,0,0-2.495.858,7.554,7.554,0,0,0-1.042-1.047,15.089,15.089,0,0,0,.858-2.49,9.653,9.653,0,0,0-3.505-1.448,15.371,15.371,0,0,0-1.155,2.366c-.245-.024-.489-.036-.737-.036s-.493.012-.738.036a15.331,15.331,0,0,0-1.155-2.366,9.651,9.651,0,0,0-3.5,1.448,15.089,15.089,0,0,0,.858,2.49,7.554,7.554,0,0,0-1.042,1.047,15.084,15.084,0,0,0-2.495-.858,9.766,9.766,0,0,0-1.451,3.505,15.185,15.185,0,0,0,2.37,1.155c-.024.241-.036.489-.036.738s.012.5.036.738a15.545,15.545,0,0,0-2.37,1.155,9.733,9.733,0,0,0,1.451,3.505,15.086,15.086,0,0,0,2.495-.858,7.556,7.556,0,0,0,1.042,1.047,15.089,15.089,0,0,0-.858,2.49,9.728,9.728,0,0,0,3.5,1.452,15.32,15.32,0,0,0,1.155-2.37c.245.024.489.036.738.036s.493-.012.737-.036a15.321,15.321,0,0,0,1.155,2.37,9.73,9.73,0,0,0,3.505-1.452,15.089,15.089,0,0,0-.858-2.49,7.556,7.556,0,0,0,1.042-1.047,15.327,15.327,0,0,0,2.495.858,9.742,9.742,0,0,0,1.452-3.505,15.382,15.382,0,0,0-2.37-1.155c.024-.241.036-.489.036-.738m-10.623,0a3.429,3.429,0,1,1,3.429,3.429,3.43,3.43,0,0,1-3.429-3.429" transform="translate(-53.315 -101.015)" fill="#7ecfe7"/>
          <path id="Trazado_1038649" data-name="Trazado 1038649" d="M176.137,267.8a.424.424,0,0,1-.419-.352l-.484-2.754a10.434,10.434,0,0,1-2.768,0l-.484,2.754a.426.426,0,0,1-.175.276.44.44,0,0,1-.318.07,13.606,13.606,0,0,1-4.442-1.619.424.424,0,0,1-.156-.581l1.39-2.4a10.486,10.486,0,0,1-2.138-1.773l-2.121,1.779a.443.443,0,0,1-.311.1.426.426,0,0,1-.289-.151,13.678,13.678,0,0,1-2.357-4.094.425.425,0,0,1,.255-.545l2.555-.932a10.33,10.33,0,0,1-.508-2.749H160.66a.426.426,0,0,1-.426-.429,13.828,13.828,0,0,1,.831-4.653.425.425,0,0,1,.545-.254l2.491.907a10.373,10.373,0,0,1,1.388-2.457l-2.014-1.692a.425.425,0,0,1-.055-.6,13.289,13.289,0,0,1,3.626-3.036.423.423,0,0,1,.581.156l1.3,2.246a10.264,10.264,0,0,1,2.665-.976l-.447-2.551a.426.426,0,0,1,.362-.5l.355-.054a7.758,7.758,0,0,1,.819-.1l1.149-.056,1.189.056a7.733,7.733,0,0,1,.82.1l.357.054a.426.426,0,0,1,.362.5l-.448,2.55a10.292,10.292,0,0,1,2.666.977l1.3-2.246a.426.426,0,0,1,.581-.156,13.289,13.289,0,0,1,3.626,3.036.426.426,0,0,1-.055.6l-2.015,1.692a10.38,10.38,0,0,1,1.388,2.457l2.49-.907a.423.423,0,0,1,.545.254,13.855,13.855,0,0,1,.832,4.653.424.424,0,0,1-.426.429h-2.707a10.275,10.275,0,0,1-.508,2.75l2.555.931a.425.425,0,0,1,.254.545,13.637,13.637,0,0,1-2.356,4.094.426.426,0,0,1-.289.151.444.444,0,0,1-.311-.1l-2.121-1.779a10.486,10.486,0,0,1-2.138,1.773l1.39,2.4a.424.424,0,0,1-.156.581,13.587,13.587,0,0,1-4.442,1.619.433.433,0,0,1-.075.007m-.556-4.015a.425.425,0,0,1,.418.352l.482,2.737a12.787,12.787,0,0,0,3.374-1.229l-1.383-2.393a.425.425,0,0,1,.157-.582,9.657,9.657,0,0,0,2.559-2.123.425.425,0,0,1,.6-.05l2.105,1.766a12.781,12.781,0,0,0,1.79-3.11l-2.544-.928a.426.426,0,0,1-.253-.55,9.454,9.454,0,0,0,.608-3.283.426.426,0,0,1,.426-.423H186.6a12.99,12.99,0,0,0-.631-3.536l-2.48.9a.432.432,0,0,1-.328-.015.427.427,0,0,1-.22-.245,9.53,9.53,0,0,0-1.655-2.931.426.426,0,0,1,.055-.6l2-1.681a12.472,12.472,0,0,0-2.755-2.3L179.3,245.8a.425.425,0,0,1-.259.2.429.429,0,0,1-.325-.044,9.464,9.464,0,0,0-3.173-1.163.424.424,0,0,1-.347-.493l.445-2.534a6.382,6.382,0,0,0-.668-.08l-1.146-.056-1.106.056a6.388,6.388,0,0,0-.665.08l.444,2.534a.424.424,0,0,1-.346.492,9.458,9.458,0,0,0-3.172,1.163.442.442,0,0,1-.325.044.425.425,0,0,1-.259-.2l-1.292-2.235a12.462,12.462,0,0,0-2.755,2.3l2,1.681a.426.426,0,0,1,.055.6,9.543,9.543,0,0,0-1.654,2.931.425.425,0,0,1-.547.259l-2.481-.9a12.962,12.962,0,0,0-.63,3.536h2.685a.426.426,0,0,1,.426.423,9.5,9.5,0,0,0,.608,3.284.426.426,0,0,1-.253.55l-2.544.928a12.8,12.8,0,0,0,1.79,3.11l2.105-1.766a.423.423,0,0,1,.6.05,9.657,9.657,0,0,0,2.559,2.123.425.425,0,0,1,.157.582l-1.383,2.393a12.765,12.765,0,0,0,3.374,1.229l.481-2.737a.422.422,0,0,1,.493-.345,9.649,9.649,0,0,0,3.314,0,.392.392,0,0,1,.075-.007" transform="translate(-90.144 -135.456)" fill="#29275f"/>
          <path id="Trazado_1038650" data-name="Trazado 1038650" d="M182.281,269.644a7.058,7.058,0,1,1,7.061-7.061,7.068,7.068,0,0,1-7.061,7.061m0-13.266a6.207,6.207,0,1,0,6.21,6.2,6.214,6.214,0,0,0-6.21-6.2" transform="translate(-98.575 -143.754)" fill="#29275f"/>
          <path id="Trazado_1038651" data-name="Trazado 1038651" d="M135.643,124.379H138.3a14.6,14.6,0,0,0-.875-4.887l-2.482.9a11.573,11.573,0,0,0-2.024-3.506l2.03-1.7a14.181,14.181,0,0,0-3.8-3.185l-1.321,2.286a11.6,11.6,0,0,0-3.8-1.381l.458-2.6c-.417-.059-.821-.143-1.238-.167l-1.244-.059-1.244.059c-.417.024-.828.107-1.238.167l.458,2.6a11.6,11.6,0,0,0-3.8,1.381L116.844,112a14.094,14.094,0,0,0-3.8,3.185l2.03,1.7a11.573,11.573,0,0,0-2.024,3.506l-2.482-.9a14.586,14.586,0,0,0-.875,4.887h2.655a11.649,11.649,0,0,0,.7,3.988l-2.482.905a14.35,14.35,0,0,0,2.476,4.3l2.03-1.7a11.728,11.728,0,0,0,3.1,2.6l-1.321,2.292a14.52,14.52,0,0,0,4.667,1.7l.458-2.607a11.566,11.566,0,0,0,4.048,0l.458,2.607a14.519,14.519,0,0,0,4.667-1.7l-1.328-2.292a11.64,11.64,0,0,0,3.1-2.6l2.03,1.7a14.35,14.35,0,0,0,2.476-4.3l-2.482-.905a11.649,11.649,0,0,0,.7-3.988m-11.649,6.1a6.206,6.206,0,1,1,6.2-6.209,6.209,6.209,0,0,1-6.2,6.209" transform="translate(-61.709 -61.929)" fill="#fff"/>
          <path id="Trazado_1038652" data-name="Trazado 1038652" d="M125.929,138.337a.429.429,0,0,1-.244-.077.423.423,0,0,1-.175-.275l-.386-2.195a12.038,12.038,0,0,1-3.355,0l-.386,2.195a.421.421,0,0,1-.175.275.442.442,0,0,1-.318.07,14.849,14.849,0,0,1-4.8-1.747.426.426,0,0,1-.156-.582l1.113-1.93a12.068,12.068,0,0,1-2.565-2.155l-1.71,1.433a.427.427,0,0,1-.6-.052,14.655,14.655,0,0,1-2.549-4.427.425.425,0,0,1,.255-.545l2.089-.762a12.033,12.033,0,0,1-.582-3.306h-2.237a.426.426,0,0,1-.426-.429,14.92,14.92,0,0,1,.9-5.029.426.426,0,0,1,.545-.254l2.088.761a11.96,11.96,0,0,1,1.678-2.9l-1.709-1.433a.425.425,0,0,1-.055-.6,14.459,14.459,0,0,1,3.918-3.283.425.425,0,0,1,.582.155l1.113,1.924a11.971,11.971,0,0,1,3.151-1.144l-.385-2.19a.425.425,0,0,1,.358-.5l.335-.052a9.159,9.159,0,0,1,.94-.117l1.248-.06,1.285.06a9.034,9.034,0,0,1,.926.115l.353.055a.425.425,0,0,1,.358.5l-.385,2.19a11.98,11.98,0,0,1,3.152,1.144l1.113-1.924a.426.426,0,0,1,.259-.2.446.446,0,0,1,.324.043,14.513,14.513,0,0,1,3.917,3.283.424.424,0,0,1-.054.6l-1.709,1.433a11.988,11.988,0,0,1,1.678,2.9l2.089-.761a.425.425,0,0,1,.545.254,14.938,14.938,0,0,1,.9,5.029.426.426,0,0,1-.426.429h-2.237a12.055,12.055,0,0,1-.582,3.306l2.09.762a.425.425,0,0,1,.255.545,14.707,14.707,0,0,1-2.55,4.426.427.427,0,0,1-.6.052l-1.709-1.433a11.98,11.98,0,0,1-2.569,2.156L130.964,136a.427.427,0,0,1-.156.583,14.853,14.853,0,0,1-4.8,1.747.49.49,0,0,1-.075.007m-.458-3.459a.429.429,0,0,1,.244.077.422.422,0,0,1,.175.275l.383,2.181a13.975,13.975,0,0,0,3.737-1.359l-1.11-1.915a.425.425,0,0,1,.157-.583,11.144,11.144,0,0,0,2.987-2.506.424.424,0,0,1,.289-.15.431.431,0,0,1,.311.1l1.7,1.424a13.789,13.789,0,0,0,1.984-3.442l-2.077-.756a.425.425,0,0,1-.255-.545,11.226,11.226,0,0,0,.677-3.843.426.426,0,0,1,.426-.426h2.22a14.046,14.046,0,0,0-.7-3.913l-2.077.757a.426.426,0,0,1-.546-.255,11.092,11.092,0,0,0-1.949-3.377.422.422,0,0,1-.1-.311.427.427,0,0,1,.15-.289l1.7-1.426a13.666,13.666,0,0,0-3.048-2.548l-1.106,1.912a.424.424,0,0,1-.581.156,11.146,11.146,0,0,0-3.663-1.331.425.425,0,0,1-.346-.493l.382-2.174c-.255-.041-.509-.08-.767-.095l-1.241-.059-1.2.059c-.255.015-.51.054-.764.095l.383,2.174a.425.425,0,0,1-.346.493,11.146,11.146,0,0,0-3.663,1.331.425.425,0,0,1-.581-.156l-1.106-1.912a13.6,13.6,0,0,0-3.048,2.548l1.7,1.426a.425.425,0,0,1,.052.6,11.11,11.11,0,0,0-1.949,3.377.429.429,0,0,1-.22.241.418.418,0,0,1-.326.014l-2.076-.757a14.052,14.052,0,0,0-.7,3.913h2.22a.426.426,0,0,1,.426.426,11.216,11.216,0,0,0,.677,3.843.425.425,0,0,1-.255.545l-2.076.756a13.775,13.775,0,0,0,1.983,3.442l1.7-1.424a.432.432,0,0,1,.311-.1.423.423,0,0,1,.288.15,11.266,11.266,0,0,0,2.983,2.507.425.425,0,0,1,.155.581l-1.1,1.916a13.973,13.973,0,0,0,3.737,1.359l.384-2.181a.42.42,0,0,1,.175-.275.434.434,0,0,1,.319-.07,11.192,11.192,0,0,0,3.9,0,.491.491,0,0,1,.076-.007" transform="translate(-61.161 -61.382)" fill="#29275f"/>
          <path id="Trazado_1038653" data-name="Trazado 1038653" d="M133.859,140.618a6.632,6.632,0,1,1,6.628-6.634,6.641,6.641,0,0,1-6.628,6.634m0-12.411a5.78,5.78,0,1,0,5.776,5.777,5.787,5.787,0,0,0-5.776-5.777" transform="translate(-71.574 -71.647)" fill="#29275f"/>
          <path id="Trazado_1038654" data-name="Trazado 1038654" d="M50.08,186a7.693,7.693,0,0,0-10.88,0,7.985,7.985,0,0,0-.6.671,7.693,7.693,0,0,0,10.805,10.805,7.439,7.439,0,0,0,.673-.6,7.694,7.694,0,0,0,0-10.881m-9.129,9.129a5.216,5.216,0,1,1,7.376,0,5.216,5.216,0,0,1-7.376,0" transform="translate(-20.785 -103.372)" fill="#ffd256"/>
        </g>
      </g>
      <g id="Grupo_1175223" data-name="Grupo 1175223" transform="translate(11.208 11.924)">
        <g id="Grupo_1175222" data-name="Grupo 1175222" clip-path="url(#clip-path-2)">
          <path id="Trazado_1038655" data-name="Trazado 1038655" d="M99.464,209.478l-20.156-30.3L16.734,210.457v24.619H66.5l34.99-22.544Z" transform="translate(-20.622 -112.727)" fill="#7351fa"/>
          <path id="Trazado_1038656" data-name="Trazado 1038656" d="M267.66,184.84l-.865.658a.469.469,0,0,1-.127.085Z" transform="translate(-161.229 -115.911)" fill="#fff"/>
          <path id="Trazado_1038657" data-name="Trazado 1038657" d="M271.291,116.84l-12.925,12.121A34.73,34.73,0,0,1,201.844,115.2l2.966,1.684a4.516,4.516,0,1,0,4.461-7.854l-8.434-4.792a4.264,4.264,0,0,0-.97-.4,28.854,28.854,0,0,1,.165-3.59,34.523,34.523,0,0,1,10.785-21.978L223.737,66.15l13.414,14.3-8.612,8.08a4.536,4.536,0,0,0-4.671.47l-7.736,5.847a4.521,4.521,0,0,0,3.346,8.084c-.015.266-.02.517-.01.779a4.53,4.53,0,0,0-.433,5.932,4.475,4.475,0,0,0,2.512,1.654,16.182,16.182,0,0,0,1.042,1.541,4.514,4.514,0,0,0,6.45,6l-1.5,1.131a4.521,4.521,0,1,0,5.449,7.215l7.743-5.841a4.523,4.523,0,0,0,1.637-4.751,14.522,14.522,0,0,0,2.58-1.94l12.912-12.119.007.005Z" transform="translate(-123.648 -49.139)" fill="#fff"/>
          <path id="Trazado_1038658" data-name="Trazado 1038658" d="M279.076,56.4l-11.222,10.52-13.414-14.3,11.214-10.525Z" transform="translate(-154.351 -35.602)" fill="#7351fa"/>
          <rect id="Rect치ngulo_421145" data-name="Rect치ngulo 421145" width="15.38" height="19.608" transform="matrix(0.729, -0.684, 0.684, 0.729, 134.225, 53.405)" fill="#ffd256"/>
          <path id="Trazado_1038659" data-name="Trazado 1038659" d="M265.384,162.529l-1.639,1.238-.023.017-5.209,3.934-.992.743a.129.129,0,0,1-.046.033,4.514,4.514,0,0,1-6.45-6,4.419,4.419,0,0,1,1.174-1.331l.493-.374.005-.007a4.3,4.3,0,0,0,1.111-.6l7.243-5.473.005-.007a4.541,4.541,0,0,1,4.264.565,4.458,4.458,0,0,1,.944.928,4.536,4.536,0,0,1-.882,6.338" transform="translate(-152.082 -98.789)" fill="#fff"/>
          <path id="Trazado_1038660" data-name="Trazado 1038660" d="M274.033,181.893l-7.743,5.841a4.521,4.521,0,1,1-5.449-7.215l1.5-1.132a.124.124,0,0,0,.046-.033.47.47,0,0,0,.128-.084l.864-.658.013,0,5.2-3.932.023-.017a4.525,4.525,0,0,1,5.351-.033,4.475,4.475,0,0,1,1.712,2.514,4.522,4.522,0,0,1-1.637,4.75" transform="translate(-156.944 -109.683)" fill="#fff"/>
          <path id="Trazado_1038661" data-name="Trazado 1038661" d="M256.6,143.8l-.487.367-.005.007a4.375,4.375,0,0,0-1.117.609l-7.238,5.465-.005.007a4.532,4.532,0,0,1-5.222-1.491,4.53,4.53,0,0,1,.433-5.932,3.5,3.5,0,0,1,.456-.4l1.575-1.2a.371.371,0,0,0,.082-.052l6.161-4.651a4.537,4.537,0,0,1,5.3.007,4.482,4.482,0,0,1,.952.933,4.528,4.528,0,0,1-.884,6.326" transform="translate(-147.138 -88.255)" fill="#fff"/>
          <path id="Trazado_1038662" data-name="Trazado 1038662" d="M247.936,124.446l-1.575,1.2-6.161,4.651a.357.357,0,0,1-.082.052,4.44,4.44,0,0,1-2.021.818,4.521,4.521,0,0,1-3.346-8.084l7.736-5.847a4.537,4.537,0,0,1,4.671-.47,5.03,5.03,0,0,1,.71.426,4.514,4.514,0,0,1,.068,7.259" transform="translate(-142.266 -77.365)" fill="#fff"/>
          <path id="Trazado_1038663" data-name="Trazado 1038663" d="M198.276,179.357l-18.335,10.372-20.156-30.3a19.423,19.423,0,0,1,2.833-3.009c2.758-2.155,14.86-12.347,14.86-12.347l.007.005a28.943,28.943,0,0,0-.165,3.59,4.258,4.258,0,0,1,.97.4l8.434,4.792a4.516,4.516,0,1,1-4.461,7.854l-2.966-1.684a34.689,34.689,0,0,0,18.98,20.319" transform="translate(-101.099 -92.978)" fill="#fff"/>
          <path id="Trazado_1038664" data-name="Trazado 1038664" d="M57.817,234.953a.426.426,0,0,1-.231-.783l34.627-22.31L70.476,179.182,1.912,213.452a.426.426,0,1,1-.381-.762l68.9-34.439a.425.425,0,0,1,.545.145l22.185,33.352a.424.424,0,0,1-.124.593L58.047,234.885a.415.415,0,0,1-.23.068" transform="translate(-11.937 -112.179)" fill="#29275f"/>
          <path id="Trazado_1038665" data-name="Trazado 1038665" d="M266.12,185.462a.426.426,0,0,1-.255-.767l.992-.743a.426.426,0,0,1,.513.679l-.865.659a.775.775,0,0,1-.216.137.42.42,0,0,1-.169.035" transform="translate(-160.682 -115.364)" fill="#29275f"/>
          <path id="Trazado_1038666" data-name="Trazado 1038666" d="M234.052,138.239a35.229,35.229,0,0,1-13.944-2.879A35.1,35.1,0,0,1,200.9,114.791a.425.425,0,0,1,.612-.51l2.966,1.685a4.091,4.091,0,0,0,4.041-7.113l-8.434-4.793a3.767,3.767,0,0,0-.877-.365.426.426,0,0,1-.308-.4,29.189,29.189,0,0,1,.168-3.644,35.029,35.029,0,0,1,10.917-22.241L222.9,65.293a.423.423,0,0,1,.6.019l13.414,14.3a.424.424,0,0,1-.019.6l-8.612,8.08a.427.427,0,0,1-.472.075,4.094,4.094,0,0,0-4.232.425l-7.736,5.846a4.1,4.1,0,0,0-.8,5.73,4.13,4.13,0,0,0,3.835,1.592.417.417,0,0,1,.345.111.423.423,0,0,1,.136.336c-.014.252-.019.49-.009.739a.426.426,0,0,1-.127.319,4.08,4.08,0,0,0,1.882,6.87.425.425,0,0,1,.264.194,16.019,16.019,0,0,0,1.015,1.5.426.426,0,0,1,.03.474,4.088,4.088,0,0,0,5.841,5.435.426.426,0,0,1,.5.691l-1.5,1.132a4.095,4.095,0,1,0,4.935,6.536l7.744-5.841a4.121,4.121,0,0,0,1.482-4.3.426.426,0,0,1,.2-.476,14.146,14.146,0,0,0,2.5-1.883l12.913-12.121a.425.425,0,0,1,.552-.026L271.053,116a.424.424,0,0,1-.019.6L258.11,128.724a35.126,35.126,0,0,1-24.057,9.515M202.1,115.6a34.28,34.28,0,0,0,18.344,18.983,34.335,34.335,0,0,0,37.083-6.475l12.614-11.831L257.3,102.591,244.7,114.42a14.941,14.941,0,0,1-2.386,1.835,4.916,4.916,0,0,1-1.864,4.885l-7.744,5.842a4.947,4.947,0,0,1-6.443-7.479,4.94,4.94,0,0,1-4.721-7.172c-.282-.382-.555-.788-.812-1.21A4.931,4.931,0,0,1,218.491,103c0-.05,0-.1,0-.148a5,5,0,0,1-4.128-1.963,4.953,4.953,0,0,1,.966-6.923l7.735-5.845a4.931,4.931,0,0,1,4.841-.634l8.1-7.6L223.17,66.2l-12.61,11.822A34.185,34.185,0,0,0,199.91,99.734a28.456,28.456,0,0,0-.167,3.239,4.3,4.3,0,0,1,.762.348l8.429,4.789a4.942,4.942,0,0,1-4.883,8.594Z" transform="translate(-123.099 -48.591)" fill="#29275f"/>
          <path id="Trazado_1038667" data-name="Trazado 1038667" d="M267.308,66.8a.421.421,0,0,1-.311-.135l-13.414-14.3a.425.425,0,0,1,.019-.6L264.817,41.23a.487.487,0,0,1,.3-.115.427.427,0,0,1,.3.135l13.421,14.31a.425.425,0,0,1-.019.6L267.6,66.682a.426.426,0,0,1-.291.115M254.5,52.086l12.83,13.683,10.6-9.937L265.089,42.143Z" transform="translate(-153.803 -35.055)" fill="#29275f"/>
          <path id="Trazado_1038668" data-name="Trazado 1038668" d="M345.347,149.988a.42.42,0,0,1-.31-.135l-13.419-14.3a.424.424,0,0,1,.019-.6l11.215-10.526a.478.478,0,0,1,.3-.115.428.428,0,0,1,.3.135l13.419,14.3a.424.424,0,0,1-.019.6l-11.214,10.525a.42.42,0,0,1-.291.115m-12.817-14.7,12.837,13.676,10.593-9.942-12.837-13.676Z" transform="translate(-197.703 -81.86)" fill="#29275f"/>
          <path id="Trazado_1038669" data-name="Trazado 1038669" d="M254.379,169.174a4.947,4.947,0,0,1-4.277-7.441,4.853,4.853,0,0,1,1.285-1.454l.471-.358a.439.439,0,0,1,.136-.084,3.864,3.864,0,0,0,1-.541l7.221-5.456a.4.4,0,0,1,.132-.082,5,5,0,0,1,4.666.617,4.958,4.958,0,0,1,.07,7.951l-7.865,5.933h0a.684.684,0,0,1-.111.074,4.811,4.811,0,0,1-2.73.843m-2.019-8.565-.458.349a3.991,3.991,0,0,0-1.062,1.2,4.088,4.088,0,0,0,5.84,5.439l7.893-5.952a4.1,4.1,0,0,0-.056-6.582,4.136,4.136,0,0,0-3.8-.535l-7.207,5.445a4.648,4.648,0,0,1-1.151.634m12.469,1.377h0Z" transform="translate(-151.527 -98.246)" fill="#29275f"/>
          <path id="Trazado_1038670" data-name="Trazado 1038670" d="M263.013,188.538a4.945,4.945,0,0,1-2.983-8.894l1.5-1.131c.044-.058.068-.055.135-.084l.9-.691a.474.474,0,0,1,.063-.04l5.148-3.895a4.93,4.93,0,0,1,7.755,2.695,4.918,4.918,0,0,1-1.792,5.2h0l-7.742,5.841a4.927,4.927,0,0,1-2.979,1m-.97-9.349a.6.6,0,0,1-.07.044l-1.429,1.09a4.095,4.095,0,1,0,4.935,6.536l7.744-5.841a4.118,4.118,0,0,0,.793-5.735,4.06,4.06,0,0,0-.861-.844,4.122,4.122,0,0,0-4.847.028l-5.218,3.947a.335.335,0,0,1-.06.038l-.816.621a.7.7,0,0,1-.171.115m11.436,2.169h0Z" transform="translate(-156.39 -109.147)" fill="#29275f"/>
          <path id="Trazado_1038671" data-name="Trazado 1038671" d="M245.585,150.423a4.935,4.935,0,0,1-3.476-8.451,3.966,3.966,0,0,1,.5-.44l1.573-1.192a.4.4,0,0,1,.1-.057l6.141-4.646a4.943,4.943,0,0,1,5.88,7.946h0l-.465.35a.439.439,0,0,1-.136.083,3.947,3.947,0,0,0-1.008.549l-7.216,5.449a.435.435,0,0,1-.129.081,4.887,4.887,0,0,1-1.765.328m-.92-9.381-1.545,1.172a3.161,3.161,0,0,0-.4.355,4.089,4.089,0,0,0,4.262,6.758l7.2-5.441a4.771,4.771,0,0,1,1.156-.641l.454-.342a4.09,4.09,0,0,0-.06-6.574,4.132,4.132,0,0,0-4.8-.007l-6.154,4.645a.982.982,0,0,1-.112.075m11.383,2.2h0Z" transform="translate(-146.586 -87.7)" fill="#29275f"/>
          <path id="Trazado_1038672" data-name="Trazado 1038672" d="M236.953,131.072a4.98,4.98,0,0,1-3.974-1.965,4.953,4.953,0,0,1,.966-6.923l7.735-5.845a4.941,4.941,0,0,1,5.11-.517,5.5,5.5,0,0,1,.778.467,4.937,4.937,0,0,1,.076,7.943l-7.737,5.847a1,1,0,0,1-.117.077,4.848,4.848,0,0,1-2.182.873,5.089,5.089,0,0,1-.655.042m7.7-14.879a4.045,4.045,0,0,0-2.455.825l-7.736,5.846a4.1,4.1,0,0,0-.8,5.73,4.13,4.13,0,0,0,3.834,1.592,4.006,4.006,0,0,0,1.825-.738.437.437,0,0,1,.1-.053l7.715-5.841a4.1,4.1,0,0,0,.8-5.73,4.025,4.025,0,0,0-.861-.845,4.683,4.683,0,0,0-.651-.391,4.161,4.161,0,0,0-1.768-.4" transform="translate(-141.717 -76.813)" fill="#29275f"/>
          <path id="Trazado_1038673" data-name="Trazado 1038673" d="M179.394,189.606a.426.426,0,0,1-.354-.189l-20.156-30.3a.427.427,0,0,1,.021-.5,19.323,19.323,0,0,1,2.9-3.078c2.72-2.126,14.728-12.236,14.848-12.338a.426.426,0,0,1,.535-.01.441.441,0,0,1,.17.388,28.478,28.478,0,0,0-.166,3.232,4.306,4.306,0,0,1,.762.348l8.429,4.789a4.942,4.942,0,0,1-4.882,8.594l-1.952-1.109A34.28,34.28,0,0,0,197.9,178.418a.425.425,0,0,1,.042.762L179.6,189.551a.425.425,0,0,1-.21.055m-19.629-30.7,19.764,29.708,17.255-9.761a35.112,35.112,0,0,1-18.436-20.224.425.425,0,0,1,.612-.51l2.966,1.685a4.091,4.091,0,0,0,4.041-7.113l-8.434-4.793a3.79,3.79,0,0,0-.877-.365.426.426,0,0,1-.309-.4c-.013-.882.012-1.759.074-2.618-2.729,2.295-11.765,9.882-14.089,11.7a17.849,17.849,0,0,0-2.568,2.7" transform="translate(-100.552 -92.43)" fill="#29275f"/>
          <path id="Trazado_1038674" data-name="Trazado 1038674" d="M261.851,86.515a.426.426,0,0,1-.294-.733l16.569-15.858a.426.426,0,0,1,.589.615L262.145,86.4a.424.424,0,0,1-.294.118" transform="translate(-158.28 -51.195)" fill="#29275f"/>
          <path id="Trazado_1038675" data-name="Trazado 1038675" d="M308.941,157.331a.426.426,0,0,1-.3-.732l21.63-20.946a.426.426,0,0,1,.592.612l-21.629,20.946a.424.424,0,0,1-.3.12" transform="translate(-184.772 -88.173)" fill="#29275f"/>
          <path id="Trazado_1038676" data-name="Trazado 1038676" d="M195.085,196.183a.426.426,0,0,1-.32-.707c7.97-9.091,3.816-17.465,3.773-17.549a.425.425,0,0,1,.757-.389c.046.089,4.457,8.977-3.89,18.5a.425.425,0,0,1-.32.145" transform="translate(-120.719 -111.673)" fill="#29275f"/>
        </g>
      </g>
      <g id="Grupo_1175225" data-name="Grupo 1175225">
        <g id="Grupo_1175224" data-name="Grupo 1175224" clip-path="url(#clip-path)">
          <path id="Trazado_1038678" data-name="Trazado 1038678" d="M358.066,28.995,343.93,43.173l5.116,4.415L318.3,62.782l17.678-15.889-4.8-4.142Z" transform="translate(-179.071 -16.312)" fill="#ffd256"/>
          <path id="Trazado_1038679" data-name="Trazado 1038679" d="M373.845,89.526l-12.389,5.233,2.062,4.044-22.976,1.653,15.026-5.4-1.935-3.794Z" transform="translate(-191.581 -50.365)" fill="#ffd256"/>
          <path id="Trazado_1038680" data-name="Trazado 1038680" d="M328,14.515l-2.573,13.2,4.506.546L318.478,48.248l3.907-15.481-4.228-.512Z" transform="translate(-178.988 -8.166)" fill="#ffd256"/>
          <path id="Trazado_1038681" data-name="Trazado 1038681" d="M9.169,193.84a.425.425,0,0,1-.426-.426v-4.666a.426.426,0,1,1,.851,0v4.666a.425.425,0,0,1-.426.426" transform="translate(-4.919 -105.946)" fill="#29275f"/>
          <path id="Trazado_1038682" data-name="Trazado 1038682" d="M8.5,194.508H3.836a.426.426,0,0,1,0-.852H8.5a.426.426,0,0,1,0,.852" transform="translate(-1.918 -108.946)" fill="#29275f"/>
          <path id="Trazado_1038683" data-name="Trazado 1038683" d="M1.5,218.04a1.558,1.558,0,0,0,0,3.114,1.558,1.558,0,0,0,0-3.114" transform="translate(0 -122.664)" fill="#29275f"/>
          <path id="Trazado_1038684" data-name="Trazado 1038684" d="M227.942,41.857a.425.425,0,0,1-.426-.426V36.766a.426.426,0,1,1,.851,0v4.666a.425.425,0,0,1-.426.426" transform="translate(-127.995 -20.444)" fill="#29275f"/>
          <path id="Trazado_1038685" data-name="Trazado 1038685" d="M227.274,42.523H222.61a.426.426,0,0,1,0-.852h4.665a.426.426,0,0,1,0,.852" transform="translate(-124.996 -23.443)" fill="#29275f"/>
          <path id="Trazado_1038686" data-name="Trazado 1038686" d="M225.089,12.458a1.558,1.558,0,0,0,0,3.114,1.558,1.558,0,0,0,0-3.114" transform="translate(-125.784 -7.009)" fill="#29275f"/>
          <path id="Trazado_1038687" data-name="Trazado 1038687" d="M242.93,23.278c-3.34,0-3.345,5.19,0,5.19s3.345-5.19,0-5.19" transform="translate(-135.257 -13.096)" fill="#29275f"/>
          <path id="Trazado_1038688" data-name="Trazado 1038688" d="M50.9,40.567a1.558,1.558,0,0,0,0,3.114,1.558,1.558,0,0,0,0-3.114" transform="translate(-27.789 -22.822)" fill="#29275f"/>
          <path id="Trazado_1038689" data-name="Trazado 1038689" d="M33.12,15.765c-3.34,0-3.345,5.19,0,5.19s3.345-5.19,0-5.19" transform="translate(-17.222 -8.869)" fill="#29275f"/>
          <path id="Trazado_1038690" data-name="Trazado 1038690" d="M51.591.593c-3.34,0-3.345,5.19,0,5.19s3.345-5.19,0-5.19" transform="translate(-27.614 -0.334)" fill="#29275f"/>
          <path id="Trazado_1038691" data-name="Trazado 1038691" d="M270.875,280.355a.425.425,0,0,1-.426-.426v-4.665a.426.426,0,1,1,.851,0v4.665a.425.425,0,0,1-.426.426" transform="translate(-152.148 -154.618)" fill="#29275f"/>
          <path id="Trazado_1038692" data-name="Trazado 1038692" d="M270.206,281.022h-4.666a.426.426,0,0,1,0-.852h4.666a.426.426,0,0,1,0,.852" transform="translate(-149.148 -157.617)" fill="#29275f"/>
          <path id="Trazado_1038693" data-name="Trazado 1038693" d="M268.022,250.956a1.558,1.558,0,0,0,0,3.114,1.558,1.558,0,0,0,0-3.114" transform="translate(-149.937 -141.182)" fill="#29275f"/>
          <path id="Trazado_1038694" data-name="Trazado 1038694" d="M285.863,261.777c-3.339,0-3.345,5.19,0,5.19s3.345-5.19,0-5.19" transform="translate(-159.41 -147.27)" fill="#29275f"/>
        </g>
      </g>
    </g>
  </g>
</svg>
