<svg xmlns="http://www.w3.org/2000/svg" xmlns:xlink="http://www.w3.org/1999/xlink" width="200.264" height="134.699" viewBox="0 0 200.264 134.699">
  <defs>
    <clipPath id="clip-path">
      <rect id="Rectángulo_421146" data-name="Rectángulo 421146" width="182.264" height="134.699" fill="none"/>
    </clipPath>
    <clipPath id="clip-path-2">
      <rect id="Rectángulo_425749" data-name="Rectángulo 425749" width="137.69" height="132.034" fill="none"/>
    </clipPath>
    <clipPath id="clip-path-4">
      <rect id="Rectángulo_425747" data-name="Rectángulo 425747" width="3.573" height="9.79" fill="none"/>
    </clipPath>
  </defs>
  <g id="Grupo_1186072" data-name="Grupo 1186072" transform="translate(-340 -1003.676)">
    <circle id="Elipse_12767" data-name="Elipse 12767" cx="52" cy="52" r="52" transform="translate(340 1008)" fill="#ffd256"/>
    <g id="Grupo_1175220" data-name="Grupo 1175220" transform="translate(358 1003.676)">
      <g id="Grupo_1175225" data-name="Grupo 1175225">
        <g id="Grupo_1175224" data-name="Grupo 1175224" clip-path="url(#clip-path)">
          <path id="Trazado_1038681" data-name="Trazado 1038681" d="M9.169,193.84a.425.425,0,0,1-.426-.426v-4.666a.426.426,0,1,1,.851,0v4.666a.425.425,0,0,1-.426.426" transform="translate(-4.919 -105.946)" fill="#29275f"/>
          <path id="Trazado_1038682" data-name="Trazado 1038682" d="M8.5,194.508H3.836a.426.426,0,0,1,0-.852H8.5a.426.426,0,0,1,0,.852" transform="translate(-1.918 -108.946)" fill="#29275f"/>
          <path id="Trazado_1038683" data-name="Trazado 1038683" d="M1.5,218.04a1.558,1.558,0,0,0,0,3.114,1.558,1.558,0,0,0,0-3.114" transform="translate(0 -122.664)" fill="#29275f"/>
          <path id="Trazado_1038684" data-name="Trazado 1038684" d="M227.942,41.857a.425.425,0,0,1-.426-.426V36.766a.426.426,0,1,1,.851,0v4.666a.425.425,0,0,1-.426.426" transform="translate(-127.995 -20.444)" fill="#29275f"/>
          <path id="Trazado_1038685" data-name="Trazado 1038685" d="M227.274,42.523H222.61a.426.426,0,0,1,0-.852h4.665a.426.426,0,0,1,0,.852" transform="translate(-124.996 -23.443)" fill="#29275f"/>
          <path id="Trazado_1038686" data-name="Trazado 1038686" d="M225.089,12.458a1.558,1.558,0,0,0,0,3.114,1.558,1.558,0,0,0,0-3.114" transform="translate(-125.784 -7.009)" fill="#29275f"/>
          <path id="Trazado_1038687" data-name="Trazado 1038687" d="M242.93,23.278c-3.34,0-3.345,5.19,0,5.19s3.345-5.19,0-5.19" transform="translate(-135.257 -13.096)" fill="#29275f"/>
          <path id="Trazado_1038688" data-name="Trazado 1038688" d="M50.9,40.567a1.558,1.558,0,0,0,0,3.114,1.558,1.558,0,0,0,0-3.114" transform="translate(-27.789 -22.822)" fill="#29275f"/>
          <path id="Trazado_1038689" data-name="Trazado 1038689" d="M33.12,15.765c-3.34,0-3.345,5.19,0,5.19s3.345-5.19,0-5.19" transform="translate(-17.222 -8.869)" fill="#29275f"/>
          <path id="Trazado_1038690" data-name="Trazado 1038690" d="M51.591.593c-3.34,0-3.345,5.19,0,5.19s3.345-5.19,0-5.19" transform="translate(-27.614 -0.334)" fill="#29275f"/>
          <path id="Trazado_1038691" data-name="Trazado 1038691" d="M270.875,280.355a.425.425,0,0,1-.426-.426v-4.665a.426.426,0,1,1,.851,0v4.665a.425.425,0,0,1-.426.426" transform="translate(-152.148 -154.618)" fill="#29275f"/>
          <path id="Trazado_1038692" data-name="Trazado 1038692" d="M270.206,281.022h-4.666a.426.426,0,0,1,0-.852h4.666a.426.426,0,0,1,0,.852" transform="translate(-149.148 -157.617)" fill="#29275f"/>
          <path id="Trazado_1038693" data-name="Trazado 1038693" d="M268.022,250.956a1.558,1.558,0,0,0,0,3.114,1.558,1.558,0,0,0,0-3.114" transform="translate(-149.937 -141.182)" fill="#29275f"/>
          <path id="Trazado_1038694" data-name="Trazado 1038694" d="M285.863,261.777c-3.339,0-3.345,5.19,0,5.19s3.345-5.19,0-5.19" transform="translate(-159.41 -147.27)" fill="#29275f"/>
          <g id="Grupo_1186082" data-name="Grupo 1186082" transform="translate(5.256 -0.217)">
            <g id="Grupo_1186081" data-name="Grupo 1186081" clip-path="url(#clip-path-2)">
              <g id="Grupo_1186080" data-name="Grupo 1186080">
                <g id="Grupo_1186079" data-name="Grupo 1186079" clip-path="url(#clip-path-2)">
                  <path id="Trazado_1055800" data-name="Trazado 1055800" d="M90.124,281.231q0-.236-.023-.465v0a9.53,9.53,0,0,0,1.5-.732,6.188,6.188,0,0,0-.92-2.221,9.726,9.726,0,0,0-1.581.544,4.792,4.792,0,0,0-.661-.663,9.544,9.544,0,0,0,.544-1.578,6.123,6.123,0,0,0-2.221-.917,9.735,9.735,0,0,0-.732,1.5c-.155-.015-.31-.023-.467-.023s-.313.008-.468.023a9.71,9.71,0,0,0-.732-1.5,6.123,6.123,0,0,0-2.221.917,9.543,9.543,0,0,0,.544,1.578,4.779,4.779,0,0,0-.661.663,9.573,9.573,0,0,0-1.581-.544,6.188,6.188,0,0,0-.92,2.221,9.634,9.634,0,0,0,1.5.732c-.015.153-.023.31-.023.468s.008.315.023.468a9.859,9.859,0,0,0-1.5.732,6.169,6.169,0,0,0,.92,2.221,9.573,9.573,0,0,0,1.581-.544,4.78,4.78,0,0,0,.661.663,9.543,9.543,0,0,0-.544,1.578,6.173,6.173,0,0,0,2.221.92,9.729,9.729,0,0,0,.732-1.5c.155.015.31.023.468.023s.313-.008.467-.023a9.755,9.755,0,0,0,.732,1.5,6.173,6.173,0,0,0,2.221-.92,9.544,9.544,0,0,0-.544-1.578,4.794,4.794,0,0,0,.661-.663,9.729,9.729,0,0,0,1.581.544,6.169,6.169,0,0,0,.92-2.221,9.751,9.751,0,0,0-1.5-.732c.015-.153.023-.31.023-.468m-6.732,0a2.173,2.173,0,1,1,2.173,2.173,2.174,2.174,0,0,1-2.173-2.173" transform="translate(-57.296 -198.269)" fill="#7351fa"/>
                  <path id="Trazado_1055801" data-name="Trazado 1055801" d="M58.639,248.779h1.284a5.539,5.539,0,0,0-.332-1.856l-1.188.433a4.11,4.11,0,0,0-.711-1.26l.959-.806a5.325,5.325,0,0,0-1.444-1.209l-.621,1.073a4.084,4.084,0,0,0-1.364-.5l.214-1.219c-.157-.021-.312-.054-.469-.062l-.472-.023-.472.023c-.157.008-.312.041-.469.062l.214,1.219a4.084,4.084,0,0,0-1.364.5l-.621-1.073a5.325,5.325,0,0,0-1.444,1.209l.959.806a4.11,4.11,0,0,0-.711,1.26l-1.188-.433a5.539,5.539,0,0,0-.332,1.856h1.284a4.084,4.084,0,0,0,.261,1.412l-1.214.443a5.478,5.478,0,0,0,.94,1.632l1-.841a4.162,4.162,0,0,0,1.1.912l-.659,1.139a5.46,5.46,0,0,0,1.771.645l.229-1.3a4.118,4.118,0,0,0,1.425,0l.229,1.3a5.46,5.46,0,0,0,1.771-.645l-.659-1.139a4.158,4.158,0,0,0,1.1-.912l1,.841a5.478,5.478,0,0,0,.94-1.632l-1.214-.443a4.084,4.084,0,0,0,.261-1.412M54.5,251.465a2.73,2.73,0,1,1,2.73-2.73,2.73,2.73,0,0,1-2.73,2.73" transform="translate(-35.352 -175.326)" fill="#fff"/>
                  <path id="Trazado_1055802" data-name="Trazado 1055802" d="M103.382,222.143h1.477a8.121,8.121,0,0,0-.486-2.718l-1.381.5a6.44,6.44,0,0,0-1.125-1.95l1.129-.947a7.886,7.886,0,0,0-2.116-1.772l-.735,1.272a6.457,6.457,0,0,0-2.116-.768l.255-1.447c-.232-.033-.457-.08-.689-.093l-.692-.033-.692.033c-.232.013-.46.06-.689.093l.255,1.447a6.453,6.453,0,0,0-2.116.768l-.735-1.272a7.827,7.827,0,0,0-2.116,1.772l1.129.947a6.434,6.434,0,0,0-1.125,1.95l-1.381-.5a8.1,8.1,0,0,0-.487,2.718h1.477a6.481,6.481,0,0,0,.391,2.218l-1.381.5a7.981,7.981,0,0,0,1.378,2.391l1.129-.947a6.524,6.524,0,0,0,1.722,1.447l-.735,1.275a8.078,8.078,0,0,0,2.6.944l.255-1.451a6.419,6.419,0,0,0,2.252,0l.255,1.451a8.081,8.081,0,0,0,2.6-.944l-.739-1.275a6.478,6.478,0,0,0,1.726-1.447l1.129.947a7.993,7.993,0,0,0,1.378-2.391l-1.381-.5a6.481,6.481,0,0,0,.391-2.218m-6.48,3.39a3.452,3.452,0,1,1,3.45-3.453,3.454,3.454,0,0,1-3.45,3.453" transform="translate(-64.082 -154.316)" fill="#7ecfe7"/>
                  <path id="Trazado_1055803" data-name="Trazado 1055803" d="M86.067,286.842a.271.271,0,0,1-.232-.132,10.069,10.069,0,0,1-.678-1.356,5.015,5.015,0,0,1-.579,0,10.071,10.071,0,0,1-.678,1.356.269.269,0,0,1-.285.126,6.473,6.473,0,0,1-2.319-.961.27.27,0,0,1-.112-.29,9.865,9.865,0,0,1,.479-1.438,5.164,5.164,0,0,1-.409-.411,9.871,9.871,0,0,1-1.44.479.272.272,0,0,1-.29-.112,6.472,6.472,0,0,1-.96-2.319.27.27,0,0,1,.127-.285,10.188,10.188,0,0,1,1.355-.677c-.006-.1-.008-.193-.008-.289s0-.193.008-.289a10.029,10.029,0,0,1-1.355-.678.27.27,0,0,1-.127-.286,6.484,6.484,0,0,1,.96-2.319.27.27,0,0,1,.29-.112,9.8,9.8,0,0,1,1.44.479,5.125,5.125,0,0,1,.41-.411,9.887,9.887,0,0,1-.479-1.438.271.271,0,0,1,.112-.29,6.437,6.437,0,0,1,2.32-.958.273.273,0,0,1,.284.127,10.183,10.183,0,0,1,.677,1.352,5.258,5.258,0,0,1,.579,0,10.183,10.183,0,0,1,.677-1.352.271.271,0,0,1,.284-.127,6.434,6.434,0,0,1,2.32.958.271.271,0,0,1,.112.29,9.831,9.831,0,0,1-.479,1.438,5.071,5.071,0,0,1,.409.411,10.015,10.015,0,0,1,1.439-.479.27.27,0,0,1,.291.112,6.48,6.48,0,0,1,.96,2.319.27.27,0,0,1-.126.285,9.929,9.929,0,0,1-1.356.678c.005.092.008.19.008.289s0,.194-.008.29a10.023,10.023,0,0,1,1.356.678.27.27,0,0,1,.126.285,6.471,6.471,0,0,1-.96,2.319.273.273,0,0,1-.291.112,10.049,10.049,0,0,1-1.439-.479,5.116,5.116,0,0,1-.409.411,9.808,9.808,0,0,1,.479,1.438.27.27,0,0,1-.112.29,6.468,6.468,0,0,1-2.319.961.261.261,0,0,1-.053.005m-.732-2.043a.271.271,0,0,1,.253.173,9.479,9.479,0,0,0,.614,1.293,5.94,5.94,0,0,0,1.776-.736,9.279,9.279,0,0,0-.48-1.347.271.271,0,0,1,.075-.319,4.553,4.553,0,0,0,.624-.626.27.27,0,0,1,.319-.075,9.445,9.445,0,0,0,1.35.479,5.941,5.941,0,0,0,.735-1.775,9.545,9.545,0,0,0-1.293-.614.27.27,0,0,1-.172-.279c.014-.144.022-.292.022-.441s-.007-.295-.022-.439a.274.274,0,0,1,.173-.282A9.18,9.18,0,0,0,90.6,279.2a5.949,5.949,0,0,0-.735-1.775,9.408,9.408,0,0,0-1.35.479.27.27,0,0,1-.319-.075,4.506,4.506,0,0,0-.624-.626.271.271,0,0,1-.075-.319,9.3,9.3,0,0,0,.48-1.347A5.9,5.9,0,0,0,86.2,274.8a9.416,9.416,0,0,0-.614,1.291.272.272,0,0,1-.279.172,4.424,4.424,0,0,0-.882,0,.272.272,0,0,1-.279-.172,9.416,9.416,0,0,0-.614-1.291,5.9,5.9,0,0,0-1.776.733,9.3,9.3,0,0,0,.48,1.347.271.271,0,0,1-.075.319,4.506,4.506,0,0,0-.624.626.271.271,0,0,1-.319.075,9.4,9.4,0,0,0-1.35-.48,5.959,5.959,0,0,0-.735,1.775,9.039,9.039,0,0,0,1.292.614.271.271,0,0,1,.174.28,4.464,4.464,0,0,0,0,.881.27.27,0,0,1-.172.279,9.392,9.392,0,0,0-1.293.615,5.939,5.939,0,0,0,.735,1.775,9.38,9.38,0,0,0,1.35-.48.271.271,0,0,1,.319.076,4.553,4.553,0,0,0,.624.626.271.271,0,0,1,.075.319,9.293,9.293,0,0,0-.48,1.347,5.937,5.937,0,0,0,1.776.735,9.492,9.492,0,0,0,.614-1.293.27.27,0,0,1,.279-.172,4.57,4.57,0,0,0,.883,0h.026m-.467-1.823a2.443,2.443,0,1,1,2.443-2.443,2.446,2.446,0,0,1-2.443,2.443m0-4.346a1.9,1.9,0,1,0,1.9,1.9,1.9,1.9,0,0,0-1.9-1.9" transform="translate(-56.599 -197.571)" fill="#29275f"/>
                  <path id="Trazado_1055804" data-name="Trazado 1055804" d="M97.586,229.548a.271.271,0,0,1-.267-.224l-.209-1.188a6.774,6.774,0,0,1-1.811,0l-.209,1.188a.271.271,0,0,1-.314.219,8.3,8.3,0,0,1-2.683-.975.27.27,0,0,1-.126-.164.273.273,0,0,1,.027-.206l.6-1.046a6.765,6.765,0,0,1-1.385-1.163l-.926.777a.268.268,0,0,1-.2.062.272.272,0,0,1-.184-.1,8.193,8.193,0,0,1-1.424-2.472.27.27,0,0,1,.162-.346l1.132-.413a6.722,6.722,0,0,1-.314-1.785H88.248a.271.271,0,0,1-.27-.273,8.339,8.339,0,0,1,.5-2.809.27.27,0,0,1,.347-.161l1.131.412a6.669,6.669,0,0,1,.906-1.568l-.926-.777a.271.271,0,0,1-.035-.38,8.076,8.076,0,0,1,2.188-1.833.271.271,0,0,1,.37.1l.6,1.042a6.7,6.7,0,0,1,1.7-.618l-.209-1.186a.27.27,0,0,1,.227-.314l.187-.029a5.178,5.178,0,0,1,.526-.066l.694-.034.718.033a5.047,5.047,0,0,1,.518.065l.2.03a.27.27,0,0,1,.228.315l-.209,1.186a6.687,6.687,0,0,1,1.7.618l.6-1.042a.271.271,0,0,1,.165-.126.268.268,0,0,1,.205.028,8.116,8.116,0,0,1,2.188,1.832.271.271,0,0,1-.035.38l-.926.777a6.676,6.676,0,0,1,.906,1.568l1.131-.412a.27.27,0,0,1,.347.161,8.339,8.339,0,0,1,.5,2.809.271.271,0,0,1-.27.273H102.95a6.718,6.718,0,0,1-.314,1.784l1.132.413a.27.27,0,0,1,.162.346,8.2,8.2,0,0,1-1.424,2.472.271.271,0,0,1-.381.034l-.926-.777a6.706,6.706,0,0,1-1.388,1.164l.605,1.045a.27.27,0,0,1-.1.37,8.3,8.3,0,0,1-2.683.975.273.273,0,0,1-.048,0m-.255-1.991a.27.27,0,0,1,.266.224l.207,1.179a7.761,7.761,0,0,0,2.005-.729l-.6-1.036a.271.271,0,0,1,.1-.37,6.169,6.169,0,0,0,1.653-1.386.272.272,0,0,1,.381-.034l.918.77a7.665,7.665,0,0,0,1.064-1.846l-1.123-.409a.27.27,0,0,1-.161-.347,6.2,6.2,0,0,0,.374-2.126.27.27,0,0,1,.27-.271h1.2a7.791,7.791,0,0,0-.376-2.1l-1.122.409a.27.27,0,0,1-.347-.162,6.161,6.161,0,0,0-1.078-1.868.269.269,0,0,1-.062-.2.272.272,0,0,1,.1-.184l.919-.771a7.572,7.572,0,0,0-1.636-1.366l-.6,1.033a.271.271,0,0,1-.37.1,6.161,6.161,0,0,0-2.027-.736.27.27,0,0,1-.22-.313l.207-1.175c-.129-.02-.258-.039-.389-.047l-.69-.033-.666.033c-.129.008-.258.026-.388.047l.207,1.176a.27.27,0,0,1-.22.313,6.168,6.168,0,0,0-2.027.736.271.271,0,0,1-.37-.1l-.6-1.033A7.532,7.532,0,0,0,90.5,216.3l.919.771a.272.272,0,0,1,.1.184.269.269,0,0,1-.062.2,6.149,6.149,0,0,0-1.079,1.868.27.27,0,0,1-.347.162l-1.122-.409a7.785,7.785,0,0,0-.376,2.1h1.2a.27.27,0,0,1,.27.271,6.2,6.2,0,0,0,.374,2.126.27.27,0,0,1-.161.347l-1.123.409a7.648,7.648,0,0,0,1.064,1.846l.918-.77a.272.272,0,0,1,.381.034,6.243,6.243,0,0,0,1.65,1.387.27.27,0,0,1,.1.369l-.6,1.036a7.742,7.742,0,0,0,2.005.729l.207-1.179a.272.272,0,0,1,.112-.175.267.267,0,0,1,.2-.044,6.186,6.186,0,0,0,2.155,0,.237.237,0,0,1,.048,0M96.2,225.108a3.722,3.722,0,1,1,3.721-3.724,3.728,3.728,0,0,1-3.721,3.724m0-6.9a3.181,3.181,0,1,0,3.18,3.18,3.185,3.185,0,0,0-3.18-3.18" transform="translate(-63.385 -153.62)" fill="#29275f"/>
                  <path id="Trazado_1055805" data-name="Trazado 1055805" d="M54.74,253.695a.271.271,0,0,1-.267-.224l-.183-1.044a4.377,4.377,0,0,1-.983,0l-.183,1.044a.272.272,0,0,1-.112.175.275.275,0,0,1-.2.045,5.723,5.723,0,0,1-1.859-.678.27.27,0,0,1-.1-.37l.527-.911a4.4,4.4,0,0,1-.759-.63l-.8.674a.264.264,0,0,1-.2.062.269.269,0,0,1-.184-.1,5.718,5.718,0,0,1-.986-1.713.27.27,0,0,1,.161-.346l.966-.352a4.355,4.355,0,0,1-.181-.978H48.371a.271.271,0,0,1-.271-.273,5.779,5.779,0,0,1,.348-1.947.271.271,0,0,1,.347-.161l.938.342a4.367,4.367,0,0,1,.494-.875l-.76-.638a.271.271,0,0,1-.035-.379,5.567,5.567,0,0,1,1.518-1.271.27.27,0,0,1,.369.1l.489.845a4.319,4.319,0,0,1,.95-.348l-.169-.96a.27.27,0,0,1,.23-.315l.146-.022a3.3,3.3,0,0,1,.346-.042l.473-.023.5.023a3.287,3.287,0,0,1,.347.042l.146.022a.27.27,0,0,1,.23.315l-.169.96a4.324,4.324,0,0,1,.95.348l.489-.845a.269.269,0,0,1,.369-.1,5.571,5.571,0,0,1,1.518,1.271.271.271,0,0,1-.035.379l-.76.638a4.368,4.368,0,0,1,.494.875l.938-.342a.271.271,0,0,1,.347.161,5.787,5.787,0,0,1,.348,1.947.27.27,0,0,1-.27.273H58.2a4.355,4.355,0,0,1-.181.978l.966.352a.27.27,0,0,1,.161.346,5.719,5.719,0,0,1-.986,1.713.271.271,0,0,1-.382.034l-.8-.674a4.421,4.421,0,0,1-.759.63l.527.911a.27.27,0,0,1-.1.37,5.722,5.722,0,0,1-1.859.678.245.245,0,0,1-.047,0m-3.281-1.021a5.135,5.135,0,0,0,1.18.43l.18-1.028a.27.27,0,0,1,.313-.22,3.859,3.859,0,0,0,1.331,0,.27.27,0,0,1,.313.22l.18,1.028a5.135,5.135,0,0,0,1.18-.43l-.519-.9a.27.27,0,0,1,.1-.37,3.894,3.894,0,0,0,1.028-.853.27.27,0,0,1,.379-.032l.79.663a5.158,5.158,0,0,0,.626-1.087l-.953-.348a.271.271,0,0,1-.161-.349,3.81,3.81,0,0,0,.244-1.319.271.271,0,0,1,.271-.269h1a5.23,5.23,0,0,0-.22-1.236l-.927.338a.274.274,0,0,1-.209-.01.271.271,0,0,1-.139-.155,3.831,3.831,0,0,0-.664-1.177.27.27,0,0,1,.035-.379l.748-.628a5.029,5.029,0,0,0-.964-.8l-.482.834a.27.27,0,0,1-.37.1,3.81,3.81,0,0,0-1.274-.467.27.27,0,0,1-.22-.313l.166-.947c-.056-.008-.112-.015-.169-.017l-.471-.023-.446.023c-.056,0-.112.009-.168.017l.166.947a.27.27,0,0,1-.22.313,3.81,3.81,0,0,0-1.274.467.275.275,0,0,1-.206.028.272.272,0,0,1-.165-.126l-.482-.834a5.02,5.02,0,0,0-.964.8l.748.628a.27.27,0,0,1,.035.379,3.833,3.833,0,0,0-.664,1.177.271.271,0,0,1-.348.165l-.927-.338a5.235,5.235,0,0,0-.221,1.236h1a.271.271,0,0,1,.271.269,3.816,3.816,0,0,0,.244,1.319.271.271,0,0,1-.16.349l-.953.348a5.168,5.168,0,0,0,.626,1.087l.79-.663a.27.27,0,0,1,.38.032,3.887,3.887,0,0,0,1.028.853.27.27,0,0,1,.1.37Zm2.339-1.634a3,3,0,1,1,3-3,3,3,0,0,1-3,3m0-5.459a2.459,2.459,0,1,0,2.46,2.458,2.462,2.462,0,0,0-2.46-2.458" transform="translate(-34.654 -174.63)" fill="#29275f"/>
                  <path id="Trazado_1055806" data-name="Trazado 1055806" d="M200.57,259.67v1.755H107.161V259.67a4.514,4.514,0,0,1,4.512-4.515h84.381a4.515,4.515,0,0,1,4.515,4.515" transform="translate(-77.206 -183.83)" fill="#7351fa"/>
                  <path id="Trazado_1055807" data-name="Trazado 1055807" d="M200.57,277.585v49.657a4.514,4.514,0,0,1-4.515,4.512H111.673a4.513,4.513,0,0,1-4.512-4.512V277.585Z" transform="translate(-77.206 -199.991)" fill="#fff"/>
                  <path id="Trazado_1055808" data-name="Trazado 1055808" d="M195.358,315.167H110.977a4.788,4.788,0,0,1-4.783-4.783V258.973a4.79,4.79,0,0,1,4.783-4.786h84.381a4.791,4.791,0,0,1,4.786,4.786v51.411a4.79,4.79,0,0,1-4.786,4.783m-84.381-60.439a4.248,4.248,0,0,0-4.242,4.245v51.411a4.246,4.246,0,0,0,4.242,4.242h84.381a4.248,4.248,0,0,0,4.245-4.242V258.973a4.25,4.25,0,0,0-4.245-4.245Z" transform="translate(-76.509 -183.133)" fill="#29275f"/>
                  <path id="Trazado_1055809" data-name="Trazado 1055809" d="M324.373,277.158h-45.1a.27.27,0,1,1,0-.541h45.1a.27.27,0,0,1,0,.541" transform="translate(-201.009 -199.293)" fill="#29275f"/>
                  <path id="Trazado_1055810" data-name="Trazado 1055810" d="M133.4,277.158h-26.94a.27.27,0,0,1,0-.541H133.4a.27.27,0,0,1,0,.541" transform="translate(-76.509 -199.293)" fill="#29275f"/>
                  <path id="Trazado_1055811" data-name="Trazado 1055811" d="M370.9,262.387a1.421,1.421,0,1,1-1.421-1.421,1.42,1.42,0,0,1,1.421,1.421" transform="translate(-265.172 -188.017)" fill="#7ecfe7"/>
                  <path id="Trazado_1055812" data-name="Trazado 1055812" d="M417.818,263.38a1.691,1.691,0,1,1,1.691-1.691,1.693,1.693,0,0,1-1.691,1.691m0-2.841a1.15,1.15,0,1,0,1.151,1.15,1.152,1.152,0,0,0-1.151-1.15" transform="translate(-299.805 -187.32)" fill="#29275f"/>
                  <path id="Trazado_1055813" data-name="Trazado 1055813" d="M394.952,263.029a1.421,1.421,0,1,1-1.421-1.421,1.421,1.421,0,0,1,1.421,1.421" transform="translate(-282.503 -188.48)" fill="#ecb85e"/>
                  <path id="Trazado_1055814" data-name="Trazado 1055814" d="M221.753,39.2v6.433A4.586,4.586,0,0,1,217.18,50.2h-2.84l1.459,4.1-6.467-4.1h-2.4a4.586,4.586,0,0,1-4.573-4.573V39.2a4.586,4.586,0,0,1,4.573-4.573H217.18a4.586,4.586,0,0,1,4.573,4.573" transform="translate(-145.793 -24.945)" fill="#fff"/>
                  <path id="Trazado_1055815" data-name="Trazado 1055815" d="M215.1,53.871a.272.272,0,0,1-.145-.042l-6.4-4.055h-2.322a4.849,4.849,0,0,1-4.843-4.843V38.5a4.849,4.849,0,0,1,4.843-4.843h10.248a4.849,4.849,0,0,1,4.843,4.843v6.433a4.849,4.849,0,0,1-4.843,4.843h-2.457l1.331,3.736a.27.27,0,0,1-.255.361M206.235,34.2a4.308,4.308,0,0,0-4.3,4.3v6.433a4.307,4.307,0,0,0,4.3,4.3h2.4a.271.271,0,0,1,.145.042l5.8,3.677-1.2-3.357a.271.271,0,0,1,.255-.361h2.84a4.307,4.307,0,0,0,4.3-4.3V38.5a4.307,4.307,0,0,0-4.3-4.3Z" transform="translate(-145.096 -24.247)" fill="#29275f"/>
                  <path id="Trazado_1055816" data-name="Trazado 1055816" d="M225.254,47.857c0,.043-.006.1-.013.166a3.771,3.771,0,0,1-.323,1.295c-.579,1.525-2.168,3.836-6.464,5.455-4.3-1.619-5.886-3.93-6.465-5.455a4.851,4.851,0,0,1-.337-1.46c-.005-.079-.005-.124-.005-.124a3.852,3.852,0,0,1,6.806-2.475,3.851,3.851,0,0,1,6.806,2.475s0,.045-.005.124" transform="translate(-152.484 -31.612)" fill="#7351fa"/>
                  <path id="Trazado_1055817" data-name="Trazado 1055817" d="M217.756,54.345a.268.268,0,0,1-.1-.018c-4.331-1.631-5.991-3.952-6.622-5.612a5.062,5.062,0,0,1-.354-1.545c-.006-.085-.005-.135-.005-.135a4.121,4.121,0,0,1,7.076-2.878,4.122,4.122,0,0,1,7.077,2.878s0,.05-.005.138c0,.046-.008.108-.014.178a4.045,4.045,0,0,1-.346,1.38c-.624,1.644-2.285,3.965-6.616,5.6a.268.268,0,0,1-.1.018M214.8,43.45a3.587,3.587,0,0,0-3.581,3.586s0,.042,0,.107a4.589,4.589,0,0,0,.319,1.381c.587,1.544,2.141,3.7,6.212,5.263,4.071-1.558,5.626-3.718,6.212-5.262a3.517,3.517,0,0,0,.307-1.218c.007-.066.011-.119.013-.159v0c0-.066,0-.1,0-.108a3.581,3.581,0,0,0-6.328-2.3.271.271,0,0,1-.207.1h0a.27.27,0,0,1-.207-.1A3.586,3.586,0,0,0,214.8,43.45" transform="translate(-151.788 -30.914)" fill="#29275f"/>
                  <path id="Trazado_1055818" data-name="Trazado 1055818" d="M392.107,343.528V344.7H361.67v-1.174a3.019,3.019,0,0,1,3.018-3.02h24.4a3.02,3.02,0,0,1,3.02,3.02" transform="translate(-260.571 -245.324)" fill="#7ecfe7"/>
                  <path id="Trazado_1055819" data-name="Trazado 1055819" d="M392.107,355.511v19.2a3.02,3.02,0,0,1-3.02,3.018h-24.4a3.019,3.019,0,0,1-3.018-3.018v-19.2Z" transform="translate(-260.571 -256.134)" fill="#fff"/>
                  <path id="Trazado_1055820" data-name="Trazado 1055820" d="M388.389,366.489h-24.4A3.293,3.293,0,0,1,360.7,363.2V342.83a3.294,3.294,0,0,1,3.289-3.291h24.4a3.3,3.3,0,0,1,3.291,3.291V363.2a3.294,3.294,0,0,1-3.291,3.289m-24.4-26.409a2.752,2.752,0,0,0-2.748,2.75V363.2a2.751,2.751,0,0,0,2.748,2.748h24.4a2.752,2.752,0,0,0,2.75-2.748V342.83a2.753,2.753,0,0,0-2.75-2.75Z" transform="translate(-259.873 -244.626)" fill="#29275f"/>
                  <path id="Trazado_1055821" data-name="Trazado 1055821" d="M446.932,355.086h-8.9a.27.27,0,1,1,0-.541h8.9a.27.27,0,1,1,0,.541" transform="translate(-315.395 -255.438)" fill="#29275f"/>
                  <path id="Trazado_1055822" data-name="Trazado 1055822" d="M372.984,355.086H360.972a.27.27,0,1,1,0-.541h12.013a.27.27,0,0,1,0,.541" transform="translate(-259.873 -255.438)" fill="#29275f"/>
                  <path id="Trazado_1055823" data-name="Trazado 1055823" d="M383.183,390.519h-1.474v9.568h-4.493v-9.568H375.74l3.722-3.972Z" transform="translate(-270.708 -278.494)" fill="#7351fa"/>
                  <path id="Trazado_1055824" data-name="Trazado 1055824" d="M437.3,390.519h-1.474v9.568h-4.493v-9.568h-1.476l3.722-3.972Z" transform="translate(-309.698 -278.494)" fill="#7ecfe7"/>
                  <path id="Trazado_1055825" data-name="Trazado 1055825" d="M410.935,361.8h-1.474l.113,17.6h-4.493l-.113-17.6h-1.475l3.722-3.972Z" transform="translate(-290.703 -257.803)" fill="#ecb85e"/>
                  <path id="Trazado_1055826" data-name="Trazado 1055826" d="M381.012,399.67h-4.493a.27.27,0,0,1-.27-.271v-9.3h-1.205a.27.27,0,0,1-.2-.455l3.721-3.972a.28.28,0,0,1,.395,0l3.721,3.972a.271.271,0,0,1-.2.455h-1.2v9.3a.27.27,0,0,1-.271.271m-4.222-.541h3.952v-9.3a.27.27,0,0,1,.27-.271h.851l-3.1-3.306-3.1,3.306h.851a.27.27,0,0,1,.271.271Z" transform="translate(-270.012 -277.807)" fill="#29275f"/>
                  <path id="Trazado_1055827" data-name="Trazado 1055827" d="M435.129,399.659h-4.493a.27.27,0,0,1-.27-.271v-9.3H429.16a.27.27,0,0,1-.2-.455l3.722-3.972a.271.271,0,0,1,.395,0l3.721,3.972a.27.27,0,0,1-.2.455h-1.2v9.3a.27.27,0,0,1-.271.271m-4.223-.541h3.952v-9.3a.27.27,0,0,1,.27-.271h.851l-3.1-3.306-3.1,3.306h.851a.27.27,0,0,1,.271.271Z" transform="translate(-309 -277.797)" fill="#29275f"/>
                  <path id="Trazado_1055828" data-name="Trazado 1055828" d="M408.877,378.968h-4.493a.27.27,0,0,1-.27-.269L404,361.372h-1.206a.271.271,0,0,1-.2-.455l3.722-3.972a.271.271,0,0,1,.4,0l3.721,3.972a.271.271,0,0,1-.2.455h-1.2l.112,17.323a.271.271,0,0,1-.271.272m-4.224-.541H408.6l-.112-17.323a.273.273,0,0,1,.079-.192.27.27,0,0,1,.192-.08h.85l-3.1-3.306-3.1,3.306h.851a.27.27,0,0,1,.27.269Z" transform="translate(-290.005 -257.105)" fill="#29275f"/>
                  <path id="Trazado_1055829" data-name="Trazado 1055829" d="M358.711,130.79a4.314,4.314,0,0,1-.057,3.851,6.226,6.226,0,0,1-2.844,2.707,5.489,5.489,0,0,1-5.566-.129,6.368,6.368,0,0,1-2.168-4.875,15.005,15.005,0,0,0-.2-2.35,2.96,2.96,0,0,0-1.237-1.937c-1.1-.662-2.554-.2-3.761-.641a3.721,3.721,0,0,1-2.132-2.74,15.421,15.421,0,0,1-.168-3.605,7,7,0,0,0-.674-3.515,3.02,3.02,0,0,0-2.692-1.611,11.6,11.6,0,0,0-.644-1.964l.009,0a4.82,4.82,0,0,1,4.8-1.967,5.444,5.444,0,0,1,3.988,3.425,10.253,10.253,0,0,0,1.162,3.012,4.212,4.212,0,0,0,2.85,1.333c1.069.132,2.159.072,3.216.278a3.586,3.586,0,0,1,2.611,1.7c.749,1.485-.165,3.333.317,4.923.506,1.674,2.375,2.563,3.189,4.111" transform="translate(-242.484 -80.644)" fill="#29275f"/>
                  <path id="Trazado_1055830" data-name="Trazado 1055830" d="M260.111,115.628c6.447,1.3,12.863-1.255,12.863-1.255-2.518,6.614,1.677,9.414,1.677,9.414a3.589,3.589,0,0,1,2.231-.665,3.446,3.446,0,0,1,.79.12,3.594,3.594,0,1,1-1.868,6.941,3.7,3.7,0,0,1-.659-.249c-.027-.012-.054-.027-.081-.039l0,0-.021.087-.009.03-.042.156a6.747,6.747,0,0,1-8.243,4.749l-4.527-1.216a6.733,6.733,0,0,1-4.752-8.246l.4-1.473Z" transform="translate(-185.33 -82.402)" fill="#fff"/>
                  <path id="Trazado_1055831" data-name="Trazado 1055831" d="M286.884,244.234a7.4,7.4,0,0,1-5.384,2.117c-.2,0-.4-.018-.6-.039a7.621,7.621,0,0,1-.808-.138l-2.072-.47-17.873-4.054.446-1.973,1.839-8.108.29-1.272.683-3.012,9.554,2.165-1.123-9.737a7.355,7.355,0,0,1,12.055-6.468s0,0,.006.006a7.31,7.31,0,0,1,2.575,4.779l.683,5.917.273,2.377,1.1,9.588.048.416.224,1.958.012.1a7.358,7.358,0,0,1-1.934,5.854" transform="translate(-187.428 -152.381)" fill="#ecb85e"/>
                  <path id="Trazado_1055832" data-name="Trazado 1055832" d="M272.571,175.213a6.747,6.747,0,0,0,8.243-4.749l.042-.156h0l-2.569,9.546-.057.216a11.252,11.252,0,0,1-7.677.551c-4.048-1.09-5.078-3.572-5.219-3.97l-.015-.054Z" transform="translate(-191.155 -122.701)" fill="#fff"/>
                  <path id="Trazado_1055833" data-name="Trazado 1055833" d="M274.706,109.287s-4.2-2.8-1.677-9.414c0,0-6.417,2.554-12.863,1.255l-2.249,8.351A11.545,11.545,0,0,1,278.841,100a12.115,12.115,0,0,1,.626,1.243,11.6,11.6,0,0,1,.147,8.749,3.566,3.566,0,0,0-1.886-1.246,3.449,3.449,0,0,0-.791-.12,3.588,3.588,0,0,0-2.231.665" transform="translate(-185.385 -67.902)" fill="#29275f"/>
                  <path id="Trazado_1055834" data-name="Trazado 1055834" d="M265.315,185.3l.015.054-.018-.054,1.8-2.848.027-.063a6.742,6.742,0,0,0,.9.311l4.527,1.216Z" transform="translate(-191.148 -131.406)" fill="#29275f"/>
                  <path id="Trazado_1055835" data-name="Trazado 1055835" d="M205.618,356.508a62.456,62.456,0,0,0,12.666-1.093,19.2,19.2,0,0,0,6.614-2.41c-.072,1.057,8.285,32.314,8.285,32.314H211.292l-5-19.2-5.159,19.2h-19.31l6.61-29.955.2-3.431c1.509,1.219,4.493,4.575,16.985,4.575" transform="translate(-130.999 -253.556)" fill="#29275f"/>
                  <path id="Trazado_1055836" data-name="Trazado 1055836" d="M248.4,247.71l-.716.716a2.21,2.21,0,0,1,.716-.716" transform="translate(-178.446 -178.467)" fill="#fff"/>
                  <path id="Trazado_1055837" data-name="Trazado 1055837" d="M229.125,246.481a.377.377,0,0,1,.32.431l-.428,2.907a2.521,2.521,0,0,0,.545,1.97l.389.473,2.213,2.686a1.654,1.654,0,0,0,.764.53l-.29,1.273L230.8,264.86a4.729,4.729,0,0,1-.794-.051l-9.372-1.36a1.368,1.368,0,0,1-1.162-1.386c0-.054.009-.108.015-.162l.012-.081a1.366,1.366,0,0,1,1.545-1.147l-.707-.1a1.367,1.367,0,0,1-1.147-1.545l.012-.078a1.37,1.37,0,0,1,1.548-1.15l-.557-.081a1.363,1.363,0,0,1-1.144-1.545l.012-.081a1.367,1.367,0,0,1,1.548-1.147l-.656-.1a1.4,1.4,0,0,1-.32-.09,1.388,1.388,0,0,1-.584-.461v0a1.357,1.357,0,0,1-.242-.994l.012-.078a1.332,1.332,0,0,1,.449-.82,1.352,1.352,0,0,1,1.1-.326l1.707.243,3.752.536.051-1.7a2.6,2.6,0,0,1,.072-.524l.641-2.44a2.226,2.226,0,0,1,.278-.659l0,0,.716-.716,0,0a2.256,2.256,0,0,1,1.2-.347,2.152,2.152,0,0,1,.338.024" transform="translate(-157.632 -177.564)" fill="#fff"/>
                  <path id="Trazado_1055838" data-name="Trazado 1055838" d="M236.882,230.987l.371,4.833a6.43,6.43,0,0,1-.563.41,19.212,19.212,0,0,1-6.614,2.41,62.455,62.455,0,0,1-12.666,1.093c-1.186,0-2.3-.021-3.348-.063-.979-.036-1.9-.087-2.764-.153a39.536,39.536,0,0,1-8.177-1.362,16.471,16.471,0,0,1-2.707-1.036,8.336,8.336,0,0,1-1.533-.952v0a2.858,2.858,0,0,1-.689-.718l.793-2.9a.011.011,0,0,1,0-.009l1.228-4.725s0,0,0,0l1.347-5.192.641-2.455.931-3.59-.18-.419-.1-.246-.7-1.62c-.153-.353-.29-.713-.413-1.075a15.178,15.178,0,0,1-.629-2.608,14.81,14.81,0,0,1,.26-5.641l.323-1.336v0l1.009-4.147.617-2.53.024-.1a9.233,9.233,0,0,1,7.067-6.8c.191-.042.38-.078.575-.1H211a9.241,9.241,0,0,1,2.195-.048,8.965,8.965,0,0,1,1.3.224l2.473.611c.141.4,1.171,2.881,5.219,3.971a11.254,11.254,0,0,0,7.677-.551l.057-.216,4.988,1.234a9.151,9.151,0,0,1,4.342,2.476,7.36,7.36,0,0,0-12.055,6.468l.721,6.261.4,3.476-9.554-2.165-.683,3.012a1.656,1.656,0,0,1-.763-.53l-2.213-2.686-.389-.473a2.52,2.52,0,0,1-.545-1.97l.428-2.907a.377.377,0,0,0-.32-.431,2.153,2.153,0,0,0-.339-.024,2.256,2.256,0,0,0-1.2.347l0,0a2.207,2.207,0,0,0-.716.716l0,0a2.233,2.233,0,0,0-.279.659l-.641,2.44a2.588,2.588,0,0,0-.072.524l-.039,1.3-.012.4-3.752-.536-1.707-.243a1.352,1.352,0,0,0-1.1.326l0,0a1.335,1.335,0,0,0-.446.817l-.012.078a1.358,1.358,0,0,0,.242.994v0a1.386,1.386,0,0,0,.584.461,1.4,1.4,0,0,0,.32.09l.656.1a1.367,1.367,0,0,0-1.548,1.147l-.012.081a1.363,1.363,0,0,0,1.144,1.545l.557.081a1.37,1.37,0,0,0-1.548,1.15l-.012.078a1.367,1.367,0,0,0,1.147,1.545l.707.1a1.366,1.366,0,0,0-1.545,1.147l-.012.081c-.006.054-.012.108-.015.162v.054a1.367,1.367,0,0,0,1.162,1.333l2.794.4,6.578.955a4.728,4.728,0,0,0,.793.051l-.446,1.973,17.873,4.054,2.072.47a7.692,7.692,0,0,0,.808.138c.2.021.4.036.6.039Z" transform="translate(-142.791 -136.781)" fill="#ecb85e"/>
                  <path id="Trazado_1055839" data-name="Trazado 1055839" d="M165.309,183.572c-.195.027-.383.063-.575.1a9.233,9.233,0,0,0-7.067,6.8l-.024.1-.617,2.53-1.009,4.147v0l-.323,1.336a14.811,14.811,0,0,0-.261,5.641,15.178,15.178,0,0,0,.629,2.608c.123.362.261.722.413,1.075l.7,1.62.1.245a7.244,7.244,0,0,1-2.147,1.934,7.093,7.093,0,0,1-1.06.515,6.856,6.856,0,0,1-1.132.338,7.028,7.028,0,0,1-1.264.159h-.015a7.389,7.389,0,0,1-7.132-4.671l-.306-.746-.695-1.692v0l-.216-.527-3.65-8.884-.91-2.219-3.961-9.647,2.1-.482,9.555-2.189,2.9-.665,4.518,11,6.294-6.294a7.314,7.314,0,0,1,4.509-2.111c.212-.024.425-.033.641-.036" transform="translate(-97.113 -130.411)" fill="#ecb85e"/>
                  <path id="Trazado_1055840" data-name="Trazado 1055840" d="M209.819,119.182a3.666,3.666,0,0,1-.647,1.97c.1-.179.195-.356.276-.53,0,0,0-.006.006-.009.018-.042.036-.084.057-.126s.039-.09.057-.135l0,0c.015-.042.033-.084.048-.129a2.748,2.748,0,0,0,.111-.335c.012-.045.024-.087.033-.129,0-.015.006-.027.009-.039a1.4,1.4,0,0,0,.036-.21c0-.009,0-.018,0-.027a1.709,1.709,0,0,0,.009-.3" transform="translate(-150.701 -85.867)" fill="#fff"/>
                  <path id="Trazado_1055841" data-name="Trazado 1055841" d="M208.787,126.41l.108-.18q-.049.09-.108.18" transform="translate(-150.424 -90.944)" fill="#fff"/>
                  <path id="Trazado_1055842" data-name="Trazado 1055842" d="M194.114,132.261a15.038,15.038,0,0,1-3.973,3.512c-.078.042-.153.081-.228.117.072-.039.147-.078.222-.12a15.711,15.711,0,0,0,3.979-3.509" transform="translate(-136.826 -95.29)" fill="#fff"/>
                  <path id="Trazado_1055843" data-name="Trazado 1055843" d="M185.618,96.7a7.986,7.986,0,0,0,1.94-4.476,7.792,7.792,0,0,1-1.94,4.476" transform="translate(-133.731 -66.442)" fill="#fff"/>
                  <path id="Trazado_1055844" data-name="Trazado 1055844" d="M125.656,69.955a2.245,2.245,0,0,1-.692.066.567.567,0,0,1-.1-.015c-.012,0-.024,0-.033-.006a.607.607,0,0,1-.1-.027h-.006c-.042-.015-.084-.03-.126-.048-3.884-1.928-8.171-3.039-12.339-4.267a32.39,32.39,0,0,0,4.875-3.036q.746-.557,1.506-1.189c.165-.138.332-.278.5-.422a43.544,43.544,0,0,0,6.644-7.027c.1-.138.207-.276.309-.413s.195-.266.29-.4q.359-.494.692-.988a26.331,26.331,0,0,0,2.665-4.994c.036.1.069.195.1.3v0A86.162,86.162,0,0,0,134.277,58.9h0c.072.129.174.3.3.512v0s.006.006,0,.009c.015.024.027.048.042.075a.439.439,0,0,1,.036.087l.009.033c.006.021.012.042.018.066a.5.5,0,0,1,.018.093,7.988,7.988,0,0,1-1.94,4.476q-.081.112-.171.225c-.072.09-.141.183-.219.272s-.147.18-.224.27A23.912,23.912,0,0,1,129,68.075c-.066.057-.135.108-.2.159l-.075.057c-.075.057-.153.117-.228.171l-.165.12h0c-.033.024-.063.048-.093.066l-.1.063c-.087.06-.174.117-.257.174-.033.018-.063.039-.093.057q-.216.139-.422.261c-.075.042-.144.081-.216.12-.153.087-.3.165-.449.236-.036.018-.075.036-.114.054l-.135.063c-.051.021-.1.045-.153.063a.716.716,0,0,1-.072.033c-.03.012-.06.024-.09.033a1.4,1.4,0,0,1-.144.051.334.334,0,0,1-.078.027c-.027.009-.051.018-.078.024-.006,0-.012,0-.018.006l-.165.045Z" transform="translate(-80.875 -33.999)" fill="#fff"/>
                  <path id="Trazado_1055845" data-name="Trazado 1055845" d="M142.8,136.941c.03.021.06.048.09.069s.09.069.132.1c0,0,.009,0,.009.006s0,0,0,0,.006,0,0,0a2.786,2.786,0,0,0,2.476.428.375.375,0,0,1-.207.273l-3.045,1.458a2.52,2.52,0,0,0-1.326,1.551l-.177.59-.985,3.338a1.7,1.7,0,0,0,.1,1.225l.479,1-9.555,2.189a4.847,4.847,0,0,1-.4-.683l-3.94-8.267a1.363,1.363,0,0,1,.641-1.814l.072-.036a1.365,1.365,0,0,1,1.814.638l-.308-.644a1.363,1.363,0,0,1,.641-1.814l.072-.033a1.364,1.364,0,0,1,1.814.638l-.242-.506a1.366,1.366,0,0,1,.641-1.814l.075-.036a1.368,1.368,0,0,1,1.814.641l-.287-.6a1.366,1.366,0,0,1,.641-1.818l.072-.033a1.363,1.363,0,0,1,1.814.641l.359.754,1.871,3.938,1.44-.91a2.755,2.755,0,0,1,.473-.234l.65-.24,1.557-.572c.054.042.108.081.159.117,0,0,0,.006.006.009a.309.309,0,0,0,.06.051,0,0,0,0,0,0,0s0,0,.006,0v0c.024.015.048.036.069.051.1.084.219.168.32.249,0,0,0,0,0,0s.006,0,.009.009.006,0,.006,0a.719.719,0,0,1,.081.063" transform="translate(-91.013 -95.727)" fill="#fff"/>
                  <path id="Trazado_1055846" data-name="Trazado 1055846" d="M183.409,125.308a1.8,1.8,0,0,0,1.539-.18c.063-.027.126-.06.188-.09s.15-.075.228-.117a15.032,15.032,0,0,0,3.973-3.512c.078-.1.153-.191.228-.287.051-.063.1-.129.147-.191.081-.1.156-.21.231-.314.048-.066.093-.132.135-.195.084-.123.162-.243.24-.362.033-.054.066-.1.1-.156s.075-.12.108-.18a3.671,3.671,0,0,0,.647-1.97.475.475,0,0,0-.009-.093.966.966,0,0,0-.069-.255.909.909,0,0,0-.126-.207c.225.252.434.521.659.766,1.521,1.863-.1,4.246-1.413,5.719a8.835,8.835,0,0,1-3.656,2.581,2.786,2.786,0,0,1-2.476-.428s0,0,0,0a0,0,0,0,0,0,0s-.009,0-.009-.006c-.042-.036-.09-.072-.132-.1s-.06-.048-.09-.069a.7.7,0,0,0-.081-.063s0,0-.006,0-.006-.006-.009-.009,0,0,0,0c-.1-.081-.216-.165-.32-.249-.021-.015-.045-.036-.069-.051v0s-.006,0-.006,0a0,0,0,0,1,0,0,.319.319,0,0,1-.06-.051c.042.03.084.063.126.093" transform="translate(-132.049 -84.439)" fill="#fff"/>
                  <path id="Trazado_1055847" data-name="Trazado 1055847" d="M183.261,145.643a1.691,1.691,0,0,0,1.671-.078,1.8,1.8,0,0,1-1.539.179c-.042-.03-.084-.063-.126-.093,0,0,0-.006-.006-.009" transform="translate(-132.033 -104.875)" fill="#fff"/>
                  <path id="Trazado_1055848" data-name="Trazado 1055848" d="M178.987,142.731v0c-.066-.048-.135-.1-.2-.147.069.048.138.1.2.144" transform="translate(-128.808 -102.729)" fill="#fff"/>
                  <path id="Trazado_1055849" data-name="Trazado 1055849" d="M172.175,114.031a23.881,23.881,0,0,0,3.144-3.054,20.546,20.546,0,0,1-3.144,3.054" transform="translate(-124.046 -79.955)" fill="#fff"/>
                  <path id="Trazado_1055850" data-name="Trazado 1055850" d="M162.856,133.809c.21.129.416.261.62.386l.524.338c.362.234.707.461,1.03.677q.162.108.314.216c.287.195.557.383.815.563.069.051.138.1.2.147a12.825,12.825,0,0,1-.668,1.218l-.65.24a2.778,2.778,0,0,0-.473.234l-1.44.91L161.26,134.8a2.952,2.952,0,0,0,.979-1.371c.21.129.416.254.617.38" transform="translate(-116.182 -96.131)" fill="#fff"/>
                  <path id="Trazado_1055851" data-name="Trazado 1055851" d="M106.522,50.449c-1.731,1.345-5.985,4.62-8.387,3.971-1.216-1.222,1.183-5.375,2.018-6.71a41.663,41.663,0,0,1,4-5.147,43.288,43.288,0,0,1,6.836-6.213c1.752-1.156,4.473-2.97,6.417-2.581,1.111.632-.257,3.653-.719,4.59a40.662,40.662,0,0,1-10.168,12.091" transform="translate(-70.46 -24.29)" fill="#fff"/>
                  <path id="Trazado_1055852" data-name="Trazado 1055852" d="M164.762,133.428c.212.126.416.254.617.38-.2-.126-.407-.251-.617-.38" transform="translate(-118.705 -96.13)" fill="#fff"/>
                  <path id="Trazado_1055853" data-name="Trazado 1055853" d="M163.9,124.212c-.069.045-.138.087-.207.129a.243.243,0,0,1-.036.024,7.554,7.554,0,0,1-1.386.707.748.748,0,0,0,.072-.033c.051-.018.1-.042.153-.063l.135-.063.114-.054c.147-.072.3-.15.449-.236l.216-.12q.207-.121.422-.261c.03-.018.06-.039.093-.057.084-.057.171-.114.257-.174l.1-.063c-.024.021-.045.036-.066.051-.1.075-.21.146-.311.212" transform="translate(-116.908 -89.3)" fill="#fff"/>
                  <path id="Trazado_1055854" data-name="Trazado 1055854" d="M156.868,128.694a.582.582,0,0,0,.1.027.469.469,0,0,1-.069-.012.2.2,0,0,1-.036-.015" transform="translate(-113.018 -92.72)" fill="#fff"/>
                  <path id="Trazado_1055855" data-name="Trazado 1055855" d="M157.466,101.465l.165-.045c.006,0,.012,0,.018-.006a.808.808,0,0,0,.078-.024.331.331,0,0,0,.078-.027,1.377,1.377,0,0,0,.144-.051c.03-.009.06-.021.09-.033a7.555,7.555,0,0,0,1.386-.707.225.225,0,0,0,.036-.024c.069-.042.138-.084.207-.129.1-.066.207-.138.311-.213a.771.771,0,0,0,.066-.051c.03-.018.06-.042.093-.066h0l.165-.12c.075-.054.153-.114.228-.171l.075-.057c.066-.051.135-.1.2-.159a20.557,20.557,0,0,0,3.144-3.054q.117-.135.225-.27c.078-.09.146-.183.219-.272s.117-.15.171-.225a7.791,7.791,0,0,0,1.94-4.476.5.5,0,0,0-.018-.093c-.006-.024-.012-.045-.018-.066s-.006-.021-.009-.033a.475.475,0,0,0-.036-.087.732.732,0,0,0-.042-.084,68.037,68.037,0,0,0,5.2,7.327c.006.006.009.012.015.018a.909.909,0,0,1,.126.207.962.962,0,0,1,.069.254.477.477,0,0,1,.009.093,1.716,1.716,0,0,1-.009.3c0,.009,0,.018,0,.027a1.428,1.428,0,0,1-.036.21c0,.012-.006.024-.009.039-.009.042-.021.084-.033.129a2.758,2.758,0,0,1-.111.335c-.015.045-.033.087-.048.129l0,0c-.018.045-.036.09-.057.135s-.039.084-.057.126c0,0-.006.006-.006.009-.081.174-.174.35-.275.53l-.108.179c-.03.051-.063.1-.1.156-.078.12-.155.24-.239.362-.042.063-.087.129-.135.195-.075.1-.15.21-.231.314-.048.063-.1.129-.147.191-.075.1-.15.192-.228.287a15.706,15.706,0,0,1-3.979,3.509c-.075.042-.15.081-.222.12s-.126.063-.188.09a1.691,1.691,0,0,1-1.671.078c-.051-.036-.1-.075-.159-.117q-.413-.306-.889-.647v0c-.066-.048-.135-.1-.2-.144-.257-.179-.527-.368-.814-.563q-.153-.108-.314-.216c-.323-.216-.668-.443-1.03-.677l-.524-.338c-.2-.126-.41-.257-.62-.386s-.4-.254-.617-.38q-1.073-.651-2.339-1.371a1.05,1.05,0,0,0,.126.048h.006a.18.18,0,0,0,.036.015.5.5,0,0,0,.069.012c.009,0,.021,0,.033.006a.568.568,0,0,0,.1.015,2.248,2.248,0,0,0,.692-.066Z" transform="translate(-112.679 -65.508)" fill="#7351fa"/>
                  <path id="Trazado_1055856" data-name="Trazado 1055856" d="M156.4,128.523c.042.018.084.033.126.048a1.053,1.053,0,0,1-.126-.048" transform="translate(-112.679 -92.596)" fill="#fff"/>
                  <path id="Trazado_1055857" data-name="Trazado 1055857" d="M143.514,71.494a43.534,43.534,0,0,1-6.644,7.027,48.077,48.077,0,0,0,6.644-7.027" transform="translate(-98.61 -51.509)" fill="#fff"/>
                  <path id="Trazado_1055858" data-name="Trazado 1055858" d="M93.031,49.145c2.4.65,6.656-2.626,8.387-3.971a40.666,40.666,0,0,0,10.168-12.091c.461-.937,1.83-3.958.719-4.59-1.943-.389-4.665,1.425-6.417,2.581a43.3,43.3,0,0,0-6.836,6.213,41.66,41.66,0,0,0-4,5.147c-.835,1.335-3.234,5.488-2.018,6.71m20-22.583c2.186,1.012,2.039,3.333,1.186,5.638,0,0,0-.009,0-.012a28.679,28.679,0,0,1-3.354,6c-.1.132-.191.266-.29.4s-.207.275-.308.413a48.062,48.062,0,0,1-6.644,7.027c-.168.144-.335.284-.5.422q-.759.633-1.506,1.189a32.4,32.4,0,0,1-4.875,3.036c-1.979.916-3.983,1.288-5.21-.1-3.147-3.548,3.874-12.13,3.874-12.13,3.087-4.06,12.208-13.426,17.63-11.887" transform="translate(-65.356 -19.015)" fill="#7351fa"/>
                  <path id="Trazado_1055859" data-name="Trazado 1055859" d="M157.982,225.653a7.3,7.3,0,0,0-9.019-1.036l.91,2.219a4.951,4.951,0,1,1,3.65,8.884l.216.527v0l.695,1.692a7.239,7.239,0,0,0,2.907-1.392,7.074,7.074,0,0,0,.641-.566,7.306,7.306,0,0,0,0-10.33" transform="translate(-107.323 -161.035)" fill="#fff"/>
                  <path id="Trazado_1055860" data-name="Trazado 1055860" d="M219.441,189.895a9.258,9.258,0,0,0-2.195.048h-.012c-.216,0-.431.012-.644.036a.489.489,0,0,1,.066.069,4.949,4.949,0,0,1-7.09,6.9l-.012-.012a4.97,4.97,0,0,1-.964-1.359l-1.731,1.731a7.3,7.3,0,0,0,10.722,1.859,7.546,7.546,0,0,0,.638-.566,7.31,7.31,0,0,0,1.222-8.71" transform="translate(-149.035 -136.781)" fill="#fff"/>
                  <path id="Trazado_1055861" data-name="Trazado 1055861" d="M200.783,271.593a7.073,7.073,0,0,1-1.06.515,6.9,6.9,0,0,1-1.132.339,7.3,7.3,0,0,1,1.135-7.013,8.09,8.09,0,0,1,.569-.638,7.368,7.368,0,0,1,.791-.685,15.167,15.167,0,0,0,.629,2.608,4.958,4.958,0,0,0-.931,4.875" transform="translate(-142.765 -190.282)" fill="#fff"/>
                  <path id="Trazado_1055862" data-name="Trazado 1055862" d="M283.93,214.1a7.3,7.3,0,0,0-10.328,0,7.654,7.654,0,0,0-.568.637,7.3,7.3,0,0,0,10.256,10.257,7.008,7.008,0,0,0,.639-.567,7.3,7.3,0,0,0,0-10.329m-8.666,8.666a4.951,4.951,0,1,1,7,0,4.952,4.952,0,0,1-7,0" transform="translate(-195.579 -152.71)" fill="#fff"/>
                  <path id="Trazado_1055863" data-name="Trazado 1055863" d="M288.39,303.247a7.3,7.3,0,0,0-10.327,0,7.508,7.508,0,0,0-.568.637,7.3,7.3,0,0,0,10.257,10.257,7.037,7.037,0,0,0,.639-.567,7.3,7.3,0,0,0,0-10.329m-8.666,8.666a4.951,4.951,0,1,1,7,0,4.952,4.952,0,0,1-7,0" transform="translate(-198.793 -216.939)" fill="#fff"/>
                  <path id="Trazado_1055864" data-name="Trazado 1055864" d="M218.387,331.553a7.3,7.3,0,0,0-10.327,0,8.038,8.038,0,0,0-.569.638,7.3,7.3,0,0,0-1.509,5.479,16.484,16.484,0,0,0,2.707,1.036,4.951,4.951,0,1,1,8.177,1.362c.865.066,1.785.117,2.763.153a7.3,7.3,0,0,0-1.243-8.668" transform="translate(-148.359 -237.332)" fill="#fff"/>
                  <path id="Trazado_1055865" data-name="Trazado 1055865" d="M338.669,268.379l-.048-.416a4.951,4.951,0,1,1-1.1-9.587L337.244,256a7.276,7.276,0,0,0-5.434,2.132,7.58,7.58,0,0,0-.569.638,7.3,7.3,0,0,0,7.653,11.57Z" transform="translate(-237.516 -184.434)" fill="#fff"/>
                  <path id="Trazado_1055866" data-name="Trazado 1055866" d="M352.268,137.611a4.866,4.866,0,0,1-2.881-.871c-1.7-1.244-2.18-3.447-2.278-5.077-.012-.2-.021-.4-.029-.6a9.6,9.6,0,0,0-.17-1.7,2.744,2.744,0,0,0-1.112-1.764,3.9,3.9,0,0,0-1.928-.373,5.682,5.682,0,0,1-1.785-.245,3.95,3.95,0,0,1-2.3-2.932,12.012,12.012,0,0,1-.186-2.98c.005-.23.01-.46.012-.689a6.8,6.8,0,0,0-.639-3.38,2.754,2.754,0,0,0-2.435-1.474.265.265,0,0,1-.285-.209,11.323,11.323,0,0,0-.628-1.918.27.27,0,0,1,0-.218.276.276,0,0,1,.058-.082,5.107,5.107,0,0,1,5.05-2.042,5.718,5.718,0,0,1,4.192,3.6c.125.336.221.686.314,1.025a5.142,5.142,0,0,0,.806,1.913,3.871,3.871,0,0,0,2.672,1.233c.438.054.891.076,1.329.1a13.208,13.208,0,0,1,1.906.185,3.826,3.826,0,0,1,2.8,1.842,5.02,5.02,0,0,1,.266,2.785,5.754,5.754,0,0,0,.068,2.18,5.5,5.5,0,0,0,1.623,2.2,7.815,7.815,0,0,1,1.546,1.866h0a4.6,4.6,0,0,1-.054,4.1,6.509,6.509,0,0,1-2.967,2.829,6.713,6.713,0,0,1-2.965.719m-15.544-22.641a3.325,3.325,0,0,1,2.716,1.754,7.285,7.285,0,0,1,.709,3.65c0,.231-.007.464-.012.7a11.612,11.612,0,0,0,.172,2.845,3.419,3.419,0,0,0,1.961,2.547,5.209,5.209,0,0,0,1.617.213,4.355,4.355,0,0,1,2.19.45,3.2,3.2,0,0,1,1.361,2.11,10.226,10.226,0,0,1,.182,1.8c.008.2.016.4.028.593.091,1.513.522,3.553,2.058,4.673a5.2,5.2,0,0,0,5.286.1,5.968,5.968,0,0,0,2.723-2.585,4.05,4.05,0,0,0,.06-3.6,7.4,7.4,0,0,0-1.446-1.731,5.984,5.984,0,0,1-1.762-2.428,6.222,6.222,0,0,1-.089-2.386,4.56,4.56,0,0,0-.211-2.493,3.3,3.3,0,0,0-2.421-1.554,12.76,12.76,0,0,0-1.829-.176c-.448-.022-.911-.044-1.369-.1a4.382,4.382,0,0,1-3.029-1.432,5.624,5.624,0,0,1-.9-2.108c-.09-.327-.183-.666-.3-.979a5.167,5.167,0,0,0-3.784-3.254,4.564,4.564,0,0,0-4.453,1.742,11.959,11.959,0,0,1,.546,1.65" transform="translate(-241.787 -79.947)" fill="#29275f"/>
                  <path id="Trazado_1055867" data-name="Trazado 1055867" d="M267.167,140.312a12.268,12.268,0,0,1-3.2-.427c-4.147-1.116-5.229-3.646-5.4-4.142l-.021-.072a.271.271,0,0,1,.21-.337l6.091-1.162-3.389-.91a7,7,0,0,1-4.942-8.578l2.644-9.824a.268.268,0,0,1,.314-.2c6.29,1.268,12.646-1.215,12.71-1.241a.27.27,0,0,1,.352.347c-2.171,5.7.725,8.428,1.431,8.987a3.86,3.86,0,0,1,2.235-.6,3.719,3.719,0,0,1,.851.129,3.868,3.868,0,0,1,2.726,4.735h0a3.865,3.865,0,0,1-4.736,2.727,4.011,4.011,0,0,1-.491-.169l-2.573,9.564a.27.27,0,0,1-.135.17,10.66,10.66,0,0,1-4.677,1m-7.992-4.508c.322.686,1.515,2.638,4.935,3.558a11.213,11.213,0,0,0,7.377-.479l.025-.1,2.559-9.508a.227.227,0,0,1,.01-.047l.026-.1a.269.269,0,0,1,.2-.2.275.275,0,0,1,.205.034l.02.01a3.62,3.62,0,0,0,.65.249,3.323,3.323,0,0,0,1.727-6.418,3.193,3.193,0,0,0-.73-.111,3.366,3.366,0,0,0-2.064.615.27.27,0,0,1-.307.005c-.043-.029-4.112-2.838-1.974-9.192a25.962,25.962,0,0,1-12.22,1.121l-2.578,9.58a6.459,6.459,0,0,0,4.56,7.915l4.528,1.216a.27.27,0,0,1-.02.527Zm20.342-8.855h0Z" transform="translate(-184.639 -81.705)" fill="#29275f"/>
                  <path id="Trazado_1055868" data-name="Trazado 1055868" d="M281.015,250.408c-.073,0-.146,0-.219,0-.2,0-.41-.018-.619-.04a7.909,7.909,0,0,1-.839-.143L259.392,245.7a.27.27,0,0,1-.2-.323l3.257-14.366a.27.27,0,0,1,.323-.2l9.183,2.081-1.08-9.358a.271.271,0,0,1,.538-.062l1.123,9.737a.27.27,0,0,1-.088.232.275.275,0,0,1-.24.063l-9.291-2.105-3.138,13.839,19.681,4.464a7.186,7.186,0,0,0,.779.133c.191.02.383.035.573.037a7.17,7.17,0,0,0,5.19-2.04,7.083,7.083,0,0,0,1.855-5.63l-2.344-20.352a7.029,7.029,0,0,0-2.48-4.6l-.02-.019a.271.271,0,1,1,.389-.377,7.569,7.569,0,0,1,2.649,4.937l2.344,20.352a7.3,7.3,0,0,1-7.375,8.275" transform="translate(-186.731 -156.165)" fill="#29275f"/>
                  <path id="Trazado_1055869" data-name="Trazado 1055869" d="M278.914,109.565a.27.27,0,0,1-.213-.1,3.286,3.286,0,0,0-1.743-1.151,3.211,3.211,0,0,0-.73-.111,3.366,3.366,0,0,0-2.064.615.27.27,0,0,1-.307.005c-.043-.029-4.112-2.838-1.975-9.191a25.962,25.962,0,0,1-12.22,1.12l-2.183,8.108a.27.27,0,0,1-.517.016,11.692,11.692,0,0,1-.546-5.075,11.815,11.815,0,0,1,21.96-4.631,12.629,12.629,0,0,1,.64,1.271,11.863,11.863,0,0,1,.15,8.955.269.269,0,0,1-.252.173m-2.82-1.909c.052,0,.1,0,.155,0a3.7,3.7,0,0,1,.851.129,3.814,3.814,0,0,1,1.716.988,11.24,11.24,0,0,0-.3-8.125,11.954,11.954,0,0,0-.611-1.213,11.274,11.274,0,0,0-20.954,4.419,11.162,11.162,0,0,0,.254,3.929l2-7.421a.268.268,0,0,1,.314-.195c6.29,1.268,12.646-1.215,12.71-1.241a.27.27,0,0,1,.352.347c-2.171,5.7.725,8.428,1.431,8.987a3.883,3.883,0,0,1,2.08-.607" transform="translate(-184.686 -67.209)" fill="#29275f"/>
                  <path id="Trazado_1055870" data-name="Trazado 1055870" d="M264.632,184.928a.271.271,0,0,1-.256-.184l-.019-.057a.271.271,0,0,1,.029-.228l1.807-2.872a.271.271,0,0,1,.355-.142,6.477,6.477,0,0,0,.862.3l4.528,1.216a.27.27,0,0,1-.02.527l-7.083,1.351a.271.271,0,0,1-.2.091m1.923-2.9-1.381,2.19,5.483-1.046-3.389-.91a6.985,6.985,0,0,1-.713-.234" transform="translate(-190.451 -130.709)" fill="#29275f"/>
                  <path id="Trazado_1055871" data-name="Trazado 1055871" d="M246.983,248a.271.271,0,0,1-.231-.412,2.49,2.49,0,0,1,.8-.8.27.27,0,0,1,.334.42l-.716.716a.27.27,0,0,1-.191.079" transform="translate(-177.748 -177.77)" fill="#29275f"/>
                  <path id="Trazado_1055872" data-name="Trazado 1055872" d="M230,264.426a5.093,5.093,0,0,1-.737-.055l-9.371-1.36a1.635,1.635,0,0,1-1.393-1.661c0-.062.009-.116.015-.171l.015-.1a1.614,1.614,0,0,1,.642-1.068,1.639,1.639,0,0,1-.95-1.728l.012-.079a1.63,1.63,0,0,1,.685-1.1,1.638,1.638,0,0,1-.838-1.675l.012-.08a1.631,1.631,0,0,1,.656-1.08,1.655,1.655,0,0,1-.618-.515.249.249,0,0,1-.019-.029,1.621,1.621,0,0,1-.273-1.167l.012-.079a1.638,1.638,0,0,1,1.851-1.374l5.158.735.042-1.4a2.847,2.847,0,0,1,.079-.579l.642-2.446a2.491,2.491,0,0,1,.312-.735.27.27,0,0,1,.037-.046l.719-.719a.282.282,0,0,1,.05-.041,2.5,2.5,0,0,1,1.724-.362.645.645,0,0,1,.429.258.637.637,0,0,1,.117.484l-.427,2.9a2.251,2.251,0,0,0,.487,1.759l2.6,3.159a1.386,1.386,0,0,0,.641.446.27.27,0,0,1,.178.316l-2.129,9.381a.27.27,0,0,1-.258.211H230m-9.856-4.2a1.09,1.09,0,0,0-.651.217,1.077,1.077,0,0,0-.429.713l-.012.082c0,.046-.01.091-.012.136a1.091,1.091,0,0,0,.931,1.1l9.371,1.359a4.572,4.572,0,0,0,.539.048l2.03-8.946a1.924,1.924,0,0,1-.659-.524l-2.6-3.157a2.793,2.793,0,0,1-.6-2.181l.427-2.907a.105.105,0,0,0-.018-.081.107.107,0,0,0-.073-.043h0a1.972,1.972,0,0,0-1.329.271l-.677.677a1.986,1.986,0,0,0-.229.555l-.642,2.443a2.274,2.274,0,0,0-.063.464l-.051,1.7a.274.274,0,0,1-.1.2.266.266,0,0,1-.212.061l-5.458-.779a1.1,1.1,0,0,0-1.24.918l-.012.08a1.083,1.083,0,0,0,.195.8l.014.022a1.116,1.116,0,0,0,.455.351,1.142,1.142,0,0,0,.259.072l.645.094h.009a.27.27,0,0,1-.079.535h-.007a1.092,1.092,0,0,0-1.234.921l-.012.08a1.092,1.092,0,0,0,.916,1.238l.551.08h.005a.27.27,0,0,1-.078.535h0a1.1,1.1,0,0,0-1.24.923l-.012.079a1.1,1.1,0,0,0,.92,1.237l.706.1a.271.271,0,0,1-.079.535h0a1.073,1.073,0,0,0-.158-.011" transform="translate(-156.935 -176.859)" fill="#29275f"/>
                  <path id="Trazado_1055873" data-name="Trazado 1055873" d="M271.607,197.212a.269.269,0,0,1-.193-.081,8.9,8.9,0,0,0-4.214-2.4l-4.733-1.17a.272.272,0,0,1-.12.129,11.431,11.431,0,0,1-7.874.573c-3.846-1.035-5.056-3.286-5.351-4l-2.336-.577a8.888,8.888,0,0,0-3.395-.171.292.292,0,0,1-.3-.269.249.249,0,0,1,.246-.269h.011a9.293,9.293,0,0,1,3.563.184l2.473.611a.272.272,0,0,1,.19.172c.1.276,1.067,2.731,5.034,3.8a11.211,11.211,0,0,0,7.377-.479l.025-.1a.27.27,0,0,1,.327-.194l4.989,1.233a9.442,9.442,0,0,1,4.469,2.549.271.271,0,0,1-.193.46" transform="translate(-175.142 -136.079)" fill="#29275f"/>
                  <path id="Trazado_1055874" data-name="Trazado 1055874" d="M216.714,257.346c-12.362,0-17.021-2.272-18.7-3.626a.275.275,0,0,1-.025-.023,3.02,3.02,0,0,1-.731-.779.27.27,0,0,1-.024-.2l.794-2.9h0a.1.1,0,0,1,0-.013l1.217-4.684a.258.258,0,0,1,.017-.067l2.888-11.117-.945-2.2a15.157,15.157,0,0,1-.8-9.494l.32-1.321,0-.018,1.65-6.779a.27.27,0,1,1,.526.128l-1.646,6.764,0,.018-.324,1.335a14.616,14.616,0,0,0,.767,9.154l.982,2.285a.27.27,0,0,1,.013.175l-2.915,11.221c0,.007,0,.013,0,.02l-1.228,4.725-.005.018-.759,2.77a3.407,3.407,0,0,0,.565.557l.024.022c1.335,1.064,5.76,3.487,18.335,3.487a62.962,62.962,0,0,0,12.61-1.087,18.943,18.943,0,0,0,6.52-2.372c.162-.106.306-.209.432-.306l-.36-4.687c-.125-.007-.25-.018-.375-.031a7.838,7.838,0,0,1-.839-.143l-19.946-4.525a.27.27,0,0,1-.2-.324l.373-1.648c-.164-.008-.33-.024-.5-.049l-9.371-1.36a1.634,1.634,0,0,1-1.393-1.661c0-.062.009-.116.015-.171l.015-.1a1.613,1.613,0,0,1,.642-1.068,1.639,1.639,0,0,1-.95-1.728l.012-.079a1.631,1.631,0,0,1,.685-1.1,1.638,1.638,0,0,1-.838-1.675l.012-.08a1.632,1.632,0,0,1,.656-1.08,1.655,1.655,0,0,1-.618-.515.247.247,0,0,1-.019-.029,1.62,1.62,0,0,1-.273-1.167l.012-.079a1.638,1.638,0,0,1,1.851-1.374l5.158.735.042-1.4a2.849,2.849,0,0,1,.079-.579l.642-2.446a2.491,2.491,0,0,1,.312-.735l.012-.016a2.487,2.487,0,0,1,.776-.776l.018-.013a2.5,2.5,0,0,1,1.725-.361.646.646,0,0,1,.545.741l-.427,2.9a2.255,2.255,0,0,0,.486,1.759l2.6,3.158a1.379,1.379,0,0,0,.365.318l.609-2.688a.271.271,0,0,1,.323-.2l9.183,2.081-1.08-9.358a.271.271,0,0,1,.538-.062l1.123,9.738a.27.27,0,0,1-.088.232.273.273,0,0,1-.24.063l-9.291-2.105-.623,2.748a.271.271,0,0,1-.349.2,1.916,1.916,0,0,1-.889-.617l-2.6-3.156a2.8,2.8,0,0,1-.6-2.182l.427-2.907a.1.1,0,0,0-.018-.081.108.108,0,0,0-.073-.043,1.943,1.943,0,0,0-1.342.276l-.018.012a1.947,1.947,0,0,0-.628.628l-.015.022a1.979,1.979,0,0,0-.235.565l-.642,2.443a2.275,2.275,0,0,0-.063.464l-.051,1.7a.273.273,0,0,1-.1.2.266.266,0,0,1-.212.061l-5.458-.778a1.1,1.1,0,0,0-1.24.918l-.012.08a1.083,1.083,0,0,0,.195.8l.014.022a1.114,1.114,0,0,0,.454.351,1.142,1.142,0,0,0,.259.072l.643.094.01,0a.27.27,0,0,1-.079.535h-.007a1.093,1.093,0,0,0-1.234.92l-.012.08a1.092,1.092,0,0,0,.916,1.238l.556.081h0a.27.27,0,0,1-.078.535h0a1.1,1.1,0,0,0-1.239.922l-.012.079a1.094,1.094,0,0,0,.92,1.236l.706.105a.27.27,0,0,1-.079.535,1.1,1.1,0,0,0-1.238.918l-.012.082c0,.046-.01.091-.012.136a1.091,1.091,0,0,0,.931,1.1l9.371,1.359a4.409,4.409,0,0,0,.749.048.333.333,0,0,1,.215.1.268.268,0,0,1,.055.231l-.387,1.71,19.681,4.464a7.179,7.179,0,0,0,.779.133c.191.02.383.035.573.037a.271.271,0,0,1,.266.25l.389,5.069a.268.268,0,0,1-.1.229,6.768,6.768,0,0,1-.586.429,19.489,19.489,0,0,1-6.708,2.449,63.454,63.454,0,0,1-12.721,1.1" transform="translate(-142.094 -154.123)" fill="#29275f"/>
                  <path id="Trazado_1055875" data-name="Trazado 1055875" d="M150.713,212.31a7.653,7.653,0,0,1-7.134-4.848l-1-2.433c0-.008-.006-.015-.009-.023l-8.729-21.257a.27.27,0,0,1,.19-.366l14.555-3.336a.268.268,0,0,1,.311.161l4.364,10.628,6.007-6.007a7.6,7.6,0,0,1,5.342-2.226.259.259,0,0,1,.273.268.271.271,0,0,1-.268.273,7.065,7.065,0,0,0-4.964,2.068l-6.293,6.294a.27.27,0,0,1-.441-.088l-4.431-10.792-14.021,3.214,8.616,20.982c0,.008.006.015.008.023l.992,2.417a7.105,7.105,0,0,0,6.873,4.5,7.037,7.037,0,0,0,5.316-2.715l-.74-1.72a15.16,15.16,0,0,1-.8-9.495l.32-1.321a.171.171,0,0,1,0-.018l1.65-6.779a.27.27,0,0,1,.526.128l-1.646,6.764a.172.172,0,0,1,0,.017l-.323,1.335a14.617,14.617,0,0,0,.767,9.154l.8,1.866a.27.27,0,0,1-.032.267,7.577,7.577,0,0,1-5.81,3.055c-.092,0-.183.005-.275.005" transform="translate(-96.415 -129.713)" fill="#29275f"/>
                  <path id="Trazado_1055876" data-name="Trazado 1055876" d="M208.475,120.726a.271.271,0,0,1-.235-.4c.1-.173.188-.343.266-.51h0l.008-.015c.018-.042.037-.085.058-.127s.031-.073.047-.114l.011-.024.035-.093a2.607,2.607,0,0,0,.105-.315l.031-.12a1.44,1.44,0,0,0,.04-.217,1.6,1.6,0,0,0,.011-.285.27.27,0,0,1,.25-.287.266.266,0,0,1,.29.247,3.846,3.846,0,0,1-.683,2.13.27.27,0,0,1-.233.133" transform="translate(-150.005 -85.17)" fill="#29275f"/>
                  <path id="Trazado_1055877" data-name="Trazado 1055877" d="M208.09,125.983a.27.27,0,0,1-.231-.41l.108-.179a.27.27,0,0,1,.469.269c-.036.065-.075.131-.118.2a.27.27,0,0,1-.227.123" transform="translate(-149.727 -90.247)" fill="#29275f"/>
                  <path id="Trazado_1055878" data-name="Trazado 1055878" d="M189.217,135.464a.27.27,0,0,1-.129-.508l.218-.118a15.337,15.337,0,0,0,3.9-3.446.27.27,0,0,1,.418.343,15.246,15.246,0,0,1-4.054,3.579c-.083.045-.162.086-.24.123a.268.268,0,0,1-.117.027" transform="translate(-136.129 -94.593)" fill="#29275f"/>
                  <path id="Trazado_1055879" data-name="Trazado 1055879" d="M184.92,96.271a.271.271,0,0,1-.216-.433,7.7,7.7,0,0,0,1.886-4.306.271.271,0,0,1,.262-.279.288.288,0,0,1,.279.262c.049,1.613-1.058,3.418-2,4.649a.269.269,0,0,1-.215.106" transform="translate(-133.034 -65.745)" fill="#29275f"/>
                  <path id="Trazado_1055880" data-name="Trazado 1055880" d="M124.4,69.6c-.053,0-.107,0-.16-.007a.812.812,0,0,1-.149-.023.844.844,0,0,1-.131-.03l-.034-.01c-.049-.018-.094-.034-.14-.054a63.181,63.181,0,0,0-10.558-3.746q-.878-.254-1.751-.51a.271.271,0,0,1-.037-.5,30.335,30.335,0,0,0,4.563-2.82l.269-.191c.507-.378,1.01-.775,1.489-1.176.164-.137.331-.277.5-.42a43.206,43.206,0,0,0,6.6-6.984l.307-.412c.068-.091.133-.181.2-.271l.091-.126q.356-.49.686-.98a25.906,25.906,0,0,0,2.635-4.937.27.27,0,0,1,.254-.177h0a.271.271,0,0,1,.253.18c.04.114.072.2.1.3,0,.006,0,.012.005.019l.388,1.138a76.862,76.862,0,0,0,4.015,10.186l.014.023.3.51a.248.248,0,0,1,.019.04l.015.027a.779.779,0,0,1,.071.164l.015.055.015.055a.738.738,0,0,1,.025.131c.049,1.6-1.056,3.42-1.993,4.667-.054.075-.113.152-.176.231l-.067.085c-.051.066-.1.132-.159.2-.067.084-.144.177-.225.27a24.08,24.08,0,0,1-3.179,3.088c-.048.042-.106.086-.163.13l-.12.091c-.084.065-.159.122-.231.174l-.165.12-.023.015c-.041.03-.067.048-.093.064l-.406.268c-.179.115-.323.2-.464.287l-.224.124c-.153.087-.307.167-.459.242l-.314.145c-.039.017-.078.033-.116.047a.382.382,0,0,1-.067.031c-.036.014-.072.028-.108.039a1.1,1.1,0,0,1-.137.049.409.409,0,0,1-.1.034.533.533,0,0,1-.064.021l-.018.005-.165.046a.278.278,0,0,1-.04.008,2.767,2.767,0,0,1-.595.074m-.313-.587.029.008a.3.3,0,0,0,.058.015l.058.012.055.006a2.081,2.081,0,0,0,.608-.06l.016,0,.266-.077c.082-.029.119-.04.156-.056.053-.018.074-.027.1-.036l.055-.025c.057-.022.085-.034.112-.046l.288-.133c.143-.071.288-.146.436-.23l.218-.121c.129-.076.266-.161.407-.252.059-.037.084-.053.11-.067l.289-.2.049-.032c.022-.014.037-.025.052-.037a.29.29,0,0,1,.031-.021h0l.163-.118c.07-.051.141-.1.21-.157l.087-.067.044-.034c.048-.037.1-.075.146-.116a23.611,23.611,0,0,0,3.114-3.025c.077-.089.15-.176.219-.263.057-.066.1-.125.148-.183l.07-.09q.086-.107.163-.214a7.712,7.712,0,0,0,1.889-4.31l-.021-.077-.016-.059-.025-.048a.3.3,0,0,1-.023-.044.273.273,0,0,1-.017-.032l-.154-.264c-.043-.074-.082-.139-.115-.2a.278.278,0,0,1-.025-.04,76.969,76.969,0,0,1-4.061-10.29l-.26-.762a28.841,28.841,0,0,1-2.419,4.36q-.338.5-.7,1l-.09.125c-.067.093-.134.186-.2.277l-.307.412a43.737,43.737,0,0,1-6.687,7.074c-.167.143-.335.285-.5.423-.487.406-1,.809-1.517,1.2l-.274.195A34.555,34.555,0,0,1,112.3,64.9l1.082.314a63.5,63.5,0,0,1,10.634,3.775l.074.027" transform="translate(-80.179 -33.301)" fill="#29275f"/>
                  <path id="Trazado_1055881" data-name="Trazado 1055881" d="M130.1,148.751a.27.27,0,0,1-.222-.116,5.138,5.138,0,0,1-.42-.721l-3.94-8.267a1.634,1.634,0,0,1,.768-2.175l.068-.034a1.632,1.632,0,0,1,1.247-.07,1.637,1.637,0,0,1,.9-1.752l.076-.035a1.623,1.623,0,0,1,1.288-.048,1.636,1.636,0,0,1,.92-1.633l.075-.036a1.631,1.631,0,0,1,1.258-.06,1.635,1.635,0,0,1,.91-1.713l.077-.035a1.634,1.634,0,0,1,2.17.77l2.1,4.417,1.182-.747a3.085,3.085,0,0,1,.521-.257l2.21-.813a.272.272,0,0,1,.26.04c.05.039.1.076.148.11a.289.289,0,0,1,.053.05l.012.009a.243.243,0,0,1,.036.028l.027.021.347.269.011.009a.932.932,0,0,1,.094.073l.039.029.044.034c.061.047.1.075.128.1a.3.3,0,0,1,.035.027,2.5,2.5,0,0,0,2.222.368.271.271,0,0,1,.337.31.648.648,0,0,1-.356.467l-3.045,1.458a2.251,2.251,0,0,0-1.184,1.385l-1.161,3.927a1.428,1.428,0,0,0,.081,1.032l.479,1a.27.27,0,0,1-.183.38l-9.554,2.189a.261.261,0,0,1-.061.007m-3.039-10.934a1.083,1.083,0,0,0-.47.107l-.068.034a1.094,1.094,0,0,0-.518,1.456l3.941,8.268a4.478,4.478,0,0,0,.275.494l9.043-2.072-.333-.7a1.969,1.969,0,0,1-.111-1.42l1.162-3.927a2.793,2.793,0,0,1,1.469-1.717l2.309-1.106a3.021,3.021,0,0,1-1.575-.59.218.218,0,0,1-.025-.02l-.007-.006h0l-.171-.134c-.009-.006-.047-.036-.055-.043s-.028-.024-.042-.034a.273.273,0,0,1-.056-.043l-.31-.241,0-.012a.263.263,0,0,1-.04-.019l-.007,0h0a.336.336,0,0,1-.034-.026.543.543,0,0,1-.093-.083l0,0-2.072.762a2.5,2.5,0,0,0-.424.21l-1.438.909a.271.271,0,0,1-.389-.113l-2.231-4.692a1.093,1.093,0,0,0-1.453-.513l-.077.035a1.093,1.093,0,0,0-.508,1.455l.285.59,0,0h0a.27.27,0,0,1-.487.235l0-.005a1.094,1.094,0,0,0-1.452-.509l-.074.036a1.091,1.091,0,0,0-.514,1.453l.243.506h0a.27.27,0,1,1-.488.234h0a1.093,1.093,0,0,0-1.454-.51l-.076.035a1.093,1.093,0,0,0-.51,1.452l.308.643h0a.27.27,0,0,1-.488.234,1.091,1.091,0,0,0-.984-.618m14.951-1.649h0Zm-.392-.294v0l0-.01Zm0-.008h0Z" transform="translate(-90.314 -95.028)" fill="#29275f"/>
                  <path id="Trazado_1055882" data-name="Trazado 1055882" d="M185.012,125.958a3,3,0,0,1-1.792-.6.224.224,0,0,1-.025-.02l-.007-.006h0l-.171-.134-.055-.043c-.014-.012-.028-.024-.042-.034a.255.255,0,0,1-.056-.042l-.31-.241,0-.007,0,0-.016-.012-.019-.01-.007,0v0a.346.346,0,0,1-.034-.026.541.541,0,0,1-.1-.086.27.27,0,0,1,.362-.4l.113.084a1.617,1.617,0,0,0,1.282-.2c.043-.018.08-.037.116-.055l.07-.034c.07-.034.141-.071.216-.111a14.7,14.7,0,0,0,3.891-3.444c.077-.094.15-.189.224-.283.038-.047.072-.092.1-.136l.041-.053c.077-.1.146-.2.217-.295.056-.078.1-.141.139-.2.08-.118.154-.232.228-.345l.1-.161c.042-.064.074-.118.1-.172a3.432,3.432,0,0,0,.614-1.817c0-.006-.008-.075-.008-.081a.69.69,0,0,0-.049-.184.638.638,0,0,0-.087-.142.27.27,0,0,1,.412-.35c.1.117.206.238.307.359.115.138.23.275.349.4,1.259,1.541.768,3.64-1.411,6.082a8.7,8.7,0,0,1-3.787,2.662,3.484,3.484,0,0,1-.914.127m-1.439-1.011a2.5,2.5,0,0,0,2.211.361,8.315,8.315,0,0,0,3.53-2.505c1.37-1.535,2.728-3.712,1.414-5.346a4.76,4.76,0,0,1-.672,1.707c-.032.059-.072.125-.114.19l-.092.15c-.09.138-.165.254-.247.373-.042.063-.089.132-.139.2-.082.115-.155.217-.235.321l-.037.049c-.037.049-.074.1-.113.147-.073.093-.148.19-.227.288a15.252,15.252,0,0,1-4.054,3.579c-.083.045-.161.086-.24.123l-.065.031c-.045.022-.09.044-.135.063a3.585,3.585,0,0,1-.784.267" transform="translate(-131.351 -83.741)" fill="#29275f"/>
                  <path id="Trazado_1055883" data-name="Trazado 1055883" d="M183.162,145.425a1.219,1.219,0,0,1-.6-.141l-.152-.109a.286.286,0,0,1-.043-.038.314.314,0,0,1-.029-.038.27.27,0,0,1,.384-.371c.353.264.957.087,1.4-.108a.271.271,0,0,1,.222.493,2.922,2.922,0,0,1-1.186.312" transform="translate(-131.336 -104.177)" fill="#29275f"/>
                  <path id="Trazado_1055884" data-name="Trazado 1055884" d="M178.291,142.307a.272.272,0,0,1-.159-.051l-.205-.149a.27.27,0,0,1,.316-.439l.207.146a.27.27,0,0,1,.112.219v0a.271.271,0,0,1-.271.27" transform="translate(-128.111 -102.032)" fill="#29275f"/>
                  <path id="Trazado_1055885" data-name="Trazado 1055885" d="M171.478,113.6a.27.27,0,0,1-.169-.481,23.585,23.585,0,0,0,3.107-3.018.27.27,0,0,1,.414.348,20.965,20.965,0,0,1-3.186,3.1.268.268,0,0,1-.165.057" transform="translate(-123.349 -79.258)" fill="#29275f"/>
                  <path id="Trazado_1055886" data-name="Trazado 1055886" d="M162.434,138.309a.267.267,0,0,1-.075-.011.271.271,0,0,1-.169-.144l-1.871-3.937a.27.27,0,0,1,.077-.329,2.68,2.68,0,0,0,.893-1.255.27.27,0,0,1,.394-.134l.155.1q.236.145.464.286l1.147.727c.363.234.708.462,1.033.679q.165.109.32.22c.262.178.514.353.755.522l.266.19a.27.27,0,0,1,.086.333,13.329,13.329,0,0,1-.682,1.245.269.269,0,0,1-.137.113l-.65.24a2.493,2.493,0,0,0-.424.21l-1.438.909a.271.271,0,0,1-.145.042m-1.537-4.134,1.65,3.472,1.182-.747a3.054,3.054,0,0,1,.521-.257l.564-.208c.2-.329.368-.634.507-.911l-.074-.052c-.239-.167-.489-.341-.754-.52-.1-.074-.207-.144-.313-.214-.322-.215-.665-.442-1.026-.675l-1.139-.722h0l-.347-.215a3.132,3.132,0,0,1-.771,1.051" transform="translate(-115.485 -95.433)" fill="#29275f"/>
                  <path id="Trazado_1055887" data-name="Trazado 1055887" d="M98.111,54.076a2.8,2.8,0,0,1-.736-.092.27.27,0,0,1-.121-.07c-1.344-1.351.937-5.376,1.98-7.044a41.793,41.793,0,0,1,4.032-5.185,44.074,44.074,0,0,1,6.88-6.252l.065-.043c1.8-1.19,4.53-2.99,6.561-2.582a.26.26,0,0,1,.081.03c1.239.7.15,3.4-.609,4.944A40.526,40.526,0,0,1,106,49.963l-.005,0c-1.508,1.172-5.289,4.109-7.887,4.109m-.52-.6c2.319.531,6.639-2.825,8.073-3.939a39.965,39.965,0,0,0,10.1-12c.884-1.8,1.483-3.779.86-4.212-1.808-.326-4.4,1.381-6.11,2.513l-.057.038a43.56,43.56,0,0,0-6.786,6.17,41.914,41.914,0,0,0-3.969,5.1c-1.586,2.535-2.829,5.441-2.106,6.331m8.242-3.728h0Z" transform="translate(-69.771 -23.594)" fill="#29275f"/>
                  <path id="Trazado_1055888" data-name="Trazado 1055888" d="M164.682,133.382a.269.269,0,0,1-.143-.041c-.15-.094-.3-.188-.459-.284l-.155-.1a.27.27,0,0,1,.279-.463c.19.112.372.226.552.339l.071.044a.271.271,0,0,1-.144.5" transform="translate(-118.009 -95.433)" fill="#29275f"/>
                  <path id="Trazado_1055889" data-name="Trazado 1055889" d="M161.57,124.643a.271.271,0,0,1-.1-.524c.01,0,.067-.031.077-.035.028-.01.055-.022.083-.034l.288-.133c.143-.07.288-.146.436-.23l.218-.121c.129-.076.266-.161.407-.252.059-.037.084-.053.11-.067l.289-.2.049-.032a.27.27,0,0,1,.324.431l-.082.064c-.113.081-.221.155-.326.223-.071.046-.143.09-.214.133-.008,0-.052.033-.06.037a7.7,7.7,0,0,1-1.411.717.273.273,0,0,1-.092.016" transform="translate(-116.211 -88.602)" fill="#29275f"/>
                  <path id="Trazado_1055890" data-name="Trazado 1055890" d="M156.278,128.294l-.036,0a.7.7,0,0,1-.109-.02.815.815,0,0,1-.078-.031.271.271,0,0,1,.209-.5.3.3,0,0,0,.058.015.271.271,0,0,1-.045.537" transform="translate(-112.323 -92.022)" fill="#29275f"/>
                  <path id="Trazado_1055891" data-name="Trazado 1055891" d="M163.831,106.037a1.273,1.273,0,0,1-.784-.241c-.049-.034-.106-.075-.163-.12-.269-.2-.565-.413-.881-.64a.241.241,0,0,1-.027-.023l-.231-.162c-.239-.167-.488-.341-.754-.52-.1-.074-.207-.144-.312-.214-.323-.215-.666-.442-1.027-.674l-1.212-.768c-.176-.11-.354-.223-.54-.332-.754-.457-1.539-.917-2.334-1.369a.271.271,0,0,1,.24-.484c.027.012.055.024.081.033a.269.269,0,0,1,.063.021.525.525,0,0,1,.069.013l.076.009a2.085,2.085,0,0,0,.608-.06l.016,0,.266-.077c.082-.029.119-.04.157-.056.053-.018.074-.027.1-.036a7.4,7.4,0,0,0,1.346-.686c.1-.066.171-.106.238-.15.1-.064.2-.133.3-.206.012-.011.07-.055.085-.063s.029-.02.045-.032l.032-.021h0l.163-.118c.07-.051.141-.1.21-.157l.087-.067.044-.034c.049-.037.1-.075.146-.116a20.439,20.439,0,0,0,3.112-3.022c.08-.092.152-.179.222-.266.057-.066.1-.125.148-.183l.071-.09c.057-.071.111-.143.163-.214a7.459,7.459,0,0,0,1.889-4.31l-.021-.077-.016-.059c-.005-.009-.02-.039-.023-.049a.457.457,0,0,0-.028-.054.27.27,0,0,1,.465-.275,68.086,68.086,0,0,0,5.174,7.3,1.211,1.211,0,0,1,.18.288,1.246,1.246,0,0,1,.089.329.664.664,0,0,1,.011.127,1.874,1.874,0,0,1-.011.33,1.752,1.752,0,0,1-.045.271c-.015.07-.026.11-.038.153a3.162,3.162,0,0,1-.126.384l-.026.071a.668.668,0,0,1-.027.061h0c-.02.049-.039.1-.063.148s-.038.081-.053.118a.225.225,0,0,1-.017.032c-.082.175-.175.353-.278.533l-.208.344c-.09.138-.165.254-.247.373-.043.063-.09.132-.139.2-.082.115-.155.217-.235.321l-.037.049c-.037.049-.075.1-.113.147-.073.093-.148.19-.228.288a15.9,15.9,0,0,1-4.058,3.575l-.3.159c-.045.022-.09.044-.135.063a2.935,2.935,0,0,1-1.155.287m-1.483-1.421q.461.331.864.628c.056.043.106.08.154.113.358.268.962.09,1.405-.1.039-.016.075-.035.112-.053l.274-.145a15.339,15.339,0,0,0,3.9-3.446c.075-.093.149-.187.223-.282.038-.047.072-.092.1-.136l.04-.053c.077-.1.147-.2.217-.295.056-.078.1-.141.139-.2.08-.118.154-.232.228-.345l.208-.342c.094-.167.184-.338.262-.505h0l.007-.015c.018-.042.037-.085.058-.127s.031-.073.047-.113l.011-.024.035-.093a2.634,2.634,0,0,0,.1-.314l.031-.12a1.441,1.441,0,0,0,.04-.217,1.571,1.571,0,0,0,.011-.284c0-.006-.007-.069-.008-.076a.67.67,0,0,0-.049-.183.635.635,0,0,0-.087-.142,66.979,66.979,0,0,1-4.655-6.461,9.529,9.529,0,0,1-1.947,3.949c-.053.073-.112.151-.175.229l-.067.085c-.051.066-.1.132-.159.2-.067.084-.144.177-.225.27a20.949,20.949,0,0,1-3.182,3.091c-.045.039-.1.084-.16.127l-.12.091c-.084.065-.159.122-.231.174l-.164.12-.023.015c-.041.03-.067.048-.093.064.013,0-.017.017-.042.035-.113.081-.222.155-.327.223-.071.046-.142.089-.213.133-.007,0-.051.033-.06.037a7.723,7.723,0,0,1-1.411.717c-.032.013-.068.027-.1.037a1.112,1.112,0,0,1-.137.049.408.408,0,0,1-.1.034.526.526,0,0,1-.065.021l-.018.005-.165.046-.04.008-.029.006c.477.278.947.557,1.406.835.187.111.369.225.549.338l1.219.772c.362.233.708.462,1.033.678q.165.11.32.22c.263.178.515.353.756.522l.266.187.028.023m-5.579-3.849h0Z" transform="translate(-111.981 -64.811)" fill="#29275f"/>
                  <path id="Trazado_1055892" data-name="Trazado 1055892" d="M155.825,128.144a.257.257,0,0,1-.075-.011,1.394,1.394,0,0,1-.157-.059.271.271,0,0,1,.213-.5c.036.015.072.029.107.041a.271.271,0,0,1-.088.526" transform="translate(-111.981 -91.899)" fill="#29275f"/>
                  <path id="Trazado_1055893" data-name="Trazado 1055893" d="M136.172,78.1A.27.27,0,0,1,136,77.62a47.8,47.8,0,0,0,6.606-6.987.27.27,0,0,1,.431.326,43.728,43.728,0,0,1-6.686,7.072.268.268,0,0,1-.174.064" transform="translate(-97.912 -50.812)" fill="#29275f"/>
                  <path id="Trazado_1055894" data-name="Trazado 1055894" d="M92.987,51.053a3.006,3.006,0,0,1-2.362-1c-3.263-3.679,3.575-12.123,3.867-12.481,2.249-2.958,11.9-13.685,17.913-11.976a.252.252,0,0,1,.04.015c1.378.638,2.727,2.193,1.326,5.977a.238.238,0,0,1-.031.06,28.881,28.881,0,0,1-3.358,5.992l-.092.127c-.067.093-.134.186-.2.277l-.308.411a48.322,48.322,0,0,1-6.685,7.072c-.169.145-.337.287-.5.425-.487.406-1,.809-1.518,1.2l-.274.195a30.752,30.752,0,0,1-4.649,2.87,7.75,7.75,0,0,1-3.163.84m18.064-25.1c-5.24,0-13.1,7.964-16.134,11.951-.075.092-6.846,8.451-3.887,11.787.958,1.079,2.6,1.09,4.894.03a30.307,30.307,0,0,0,4.562-2.82l.269-.191c.507-.378,1.01-.775,1.489-1.176.164-.137.331-.277.5-.42a47.8,47.8,0,0,0,6.605-6.986l.306-.41c.068-.091.133-.181.2-.271l.092-.126a28.244,28.244,0,0,0,3.321-5.94.267.267,0,0,1,.025-.049c.976-2.68.623-4.437-1.05-5.224a4.422,4.422,0,0,0-1.186-.154M93,48.79a2.8,2.8,0,0,1-.735-.092.269.269,0,0,1-.121-.07c-1.344-1.351.938-5.376,1.981-7.044A41.8,41.8,0,0,1,98.153,36.4a44.049,44.049,0,0,1,6.88-6.252l.065-.043c1.8-1.191,4.53-2.99,6.562-2.583a.271.271,0,0,1,.08.03c1.239.7.15,3.4-.609,4.944a40.535,40.535,0,0,1-10.24,12.181C99.378,45.852,95.6,48.79,93,48.79m-.52-.6c2.323.531,6.645-2.829,8.076-3.941a39.963,39.963,0,0,0,10.093-12c.884-1.8,1.483-3.779.86-4.213-1.807-.326-4.4,1.381-6.11,2.513l-.057.038a43.516,43.516,0,0,0-6.786,6.17,41.9,41.9,0,0,0-3.969,5.1C93,44.4,91.755,47.3,92.478,48.2" transform="translate(-64.658 -18.308)" fill="#29275f"/>
                  <path id="Trazado_1055895" data-name="Trazado 1055895" d="M120.487,64.98a1.607,1.607,0,0,1-1.176-.427c-1.008-1.009-.175-3.422,1.9-5.495a8.915,8.915,0,0,1,3.046-2.07,2.264,2.264,0,0,1,2.448.172c1.008,1.008.175,3.422-1.9,5.495a6.965,6.965,0,0,1-4.319,2.325m5.036-7.709a3.174,3.174,0,0,0-1.08.224,8.374,8.374,0,0,0-2.852,1.945c-1.982,1.982-2.582,4.046-1.9,4.73s2.748.084,4.73-1.9,2.581-4.046,1.9-4.73a1.1,1.1,0,0,0-.8-.272m-.908,5.193h0Z" transform="translate(-85.652 -40.871)" fill="#29275f"/>
                  <path id="Trazado_1055896" data-name="Trazado 1055896" d="M132.595,155.447a1.645,1.645,0,0,1-.547-.094,1.62,1.62,0,0,1-.931-.834l-.359-.755a.27.27,0,0,1,.488-.232l.359.754a1.093,1.093,0,0,0,1.454.513l.077-.035a1.093,1.093,0,0,0,.509-1.455l-.284-.589a.023.023,0,0,1,0-.006.27.27,0,1,1,.487-.235l0,.005a1.093,1.093,0,0,0,1.452.508l.074-.035a1.1,1.1,0,0,0,.514-1.454l-.243-.507a.27.27,0,1,1,.488-.233,1.093,1.093,0,0,0,1.454.51l.075-.034a1.094,1.094,0,0,0,.51-1.452l-.308-.643h0a.27.27,0,1,1,.488-.235,1.091,1.091,0,0,0,1.454.511l.068-.034a1.093,1.093,0,0,0,.518-1.456.27.27,0,0,1,.488-.234,1.635,1.635,0,0,1-.768,2.176l-.068.033a1.63,1.63,0,0,1-1.247.07,1.638,1.638,0,0,1-.9,1.753l-.075.035a1.625,1.625,0,0,1-1.289.048,1.635,1.635,0,0,1-.92,1.633l-.074.036a1.63,1.63,0,0,1-1.258.06,1.635,1.635,0,0,1-.91,1.712l-.076.035a1.6,1.6,0,0,1-.694.158" transform="translate(-94.188 -106.301)" fill="#29275f"/>
                  <path id="Trazado_1055897" data-name="Trazado 1055897" d="M152.789,144.846a.27.27,0,0,1-.244-.153l-1.524-3.179a.27.27,0,1,1,.488-.234l1.524,3.179a.27.27,0,0,1-.243.387" transform="translate(-108.786 -101.676)" fill="#29275f"/>
                  <path id="Trazado_1055898" data-name="Trazado 1055898" d="M144.593,150.949a.27.27,0,0,1-.244-.153l-1.51-3.145a.27.27,0,0,1,.488-.234l1.51,3.144a.27.27,0,0,1-.243.387" transform="translate(-102.891 -106.098)" fill="#29275f"/>
                  <path id="Trazado_1055899" data-name="Trazado 1055899" d="M136.586,157.441a.27.27,0,0,1-.244-.153l-1.442-3.007a.27.27,0,1,1,.488-.234l1.442,3.007a.27.27,0,0,1-.243.387" transform="translate(-97.172 -110.875)" fill="#29275f"/>
                  <path id="Trazado_1055900" data-name="Trazado 1055900" d="M69.074,5.922l7.183,7.162,2.237-2.592,7.7,15.575-8.05-8.956-2.1,2.432Z" transform="translate(-49.765 -4.267)" fill="#7ecfe7"/>
                  <path id="Trazado_1055901" data-name="Trazado 1055901" d="M117.062,0l2.651,6.277,2.048-1.045.837,11.64-2.735-7.613-1.922.98Z" transform="translate(-84.339 0)" fill="#7ecfe7"/>
                  <path id="Trazado_1055902" data-name="Trazado 1055902" d="M57.594,57.746l6.688,1.3.276-2.283,10.126,5.8-7.843-1.979-.259,2.142Z" transform="translate(-41.495 -40.898)" fill="#7ecfe7"/>
                  <path id="Trazado_1055903" data-name="Trazado 1055903" d="M291.563,141.152a1.252,1.252,0,1,0,1.5-.934,1.252,1.252,0,0,0-1.5.934" transform="translate(-210.037 -100.998)" fill="#29275f"/>
                  <path id="Trazado_1055904" data-name="Trazado 1055904" d="M268.424,135.747a1.252,1.252,0,1,0,1.5-.934,1.252,1.252,0,0,0-1.5.934" transform="translate(-193.366 -97.104)" fill="#29275f"/>
                  <path id="Trazado_1055905" data-name="Trazado 1055905" d="M272.947,126.014c.329.049.744.1,1.023.127a.791.791,0,0,1,.8.738c0,.371-.309.838-.738.8-.479-.044-.957-.1-1.433-.167a.772.772,0,0,1-.574-.923.788.788,0,0,1,.923-.574" transform="translate(-195.968 -90.781)" fill="#29275f"/>
                  <path id="Trazado_1055906" data-name="Trazado 1055906" d="M295.6,131.382c.318.1.72.213.991.281a.791.791,0,0,1,.678.85c-.058.366-.433.782-.85.678-.467-.116-.931-.24-1.391-.382a.772.772,0,0,1-.427-1,.788.788,0,0,1,1-.427" transform="translate(-212.212 -94.625)" fill="#29275f"/>
                  <path id="Trazado_1055907" data-name="Trazado 1055907" d="M277.13,143.913a.269.269,0,0,1-.147-.043l-1.9-1.23a.27.27,0,0,1-.058-.4l2.275-2.654a.271.271,0,1,1,.411.352l-2.073,2.419,1.645,1.062a.27.27,0,0,1-.147.5" transform="translate(-198.096 -100.496)" fill="#29275f"/>
                  <path id="Trazado_1055908" data-name="Trazado 1055908" d="M278.407,159.505c-.094,0-.191,0-.29-.011a2.472,2.472,0,0,1-1.94-.912,2.228,2.228,0,0,1-.289-1.722.27.27,0,0,1,.255-.2l4.215-.1a.27.27,0,0,1,.275.237,2.824,2.824,0,0,1-.6,2.1,2.144,2.144,0,0,1-1.623.613m-2.028-2.311a1.592,1.592,0,0,0,.242,1.078,1.975,1.975,0,0,0,1.537.682,1.761,1.761,0,0,0,1.478-.434,2.1,2.1,0,0,0,.47-1.417Z" transform="translate(-198.723 -112.793)" fill="#29275f"/>
                  <path id="Trazado_1055909" data-name="Trazado 1055909" d="M297.957,151.546a1.849,1.849,0,1,0,1.986-1.7,1.849,1.849,0,0,0-1.986,1.7" transform="translate(-214.664 -107.955)" fill="#7351fa"/>
                  <path id="Trazado_1055910" data-name="Trazado 1055910" d="M321.166,154.445l-.032,0a.271.271,0,0,1-.238-.3,5.5,5.5,0,0,1,3.009-3.92.271.271,0,0,1,.232.489c-.024.012-2.436,1.185-2.7,3.493a.271.271,0,0,1-.268.239" transform="translate(-231.194 -108.213)" fill="#29275f"/>
                  <path id="Trazado_1055911" data-name="Trazado 1055911" d="M237.677,391.186a.254.254,0,0,1-.056-.006l-10.738-2.247a.27.27,0,0,1-.209-.32.266.266,0,0,1,.32-.209l10.738,2.247a.27.27,0,0,1-.055.535" transform="translate(-163.307 -279.827)" fill="#fff"/>
                  <path id="Trazado_1055912" data-name="Trazado 1055912" d="M334,391.775a.271.271,0,0,1-.264-.212l-6.522-29.633a.27.27,0,1,1,.528-.116l6.522,29.633a.271.271,0,0,1-.206.322.282.282,0,0,1-.058.006" transform="translate(-235.744 -260.522)" fill="#fff"/>
                  <path id="Trazado_1055913" data-name="Trazado 1055913" d="M325.359,393.276a.271.271,0,0,1-.264-.213l-6.294-29.05a.27.27,0,0,1,.528-.114l6.294,29.05a.272.272,0,0,1-.264.327" transform="translate(-229.681 -262.023)" fill="#fff"/>
                  <path id="Trazado_1055914" data-name="Trazado 1055914" d="M146.613,180.459a.27.27,0,0,1-.071-.531c1.307-.359,2.617-.77,3.894-1.221a.27.27,0,0,1,.18.51c-1.289.456-2.611.87-3.931,1.233a.264.264,0,0,1-.072.01" transform="translate(-105.435 -128.741)" fill="#29275f"/>
                  <path id="Trazado_1055915" data-name="Trazado 1055915" d="M252.883,231.87a.263.263,0,0,1-.071-.01.271.271,0,0,1-.19-.332,33.252,33.252,0,0,0,.764-3.555.271.271,0,0,1,.534.085,33.769,33.769,0,0,1-.777,3.613.271.271,0,0,1-.261.2" transform="translate(-181.998 -164.083)" fill="#29275f"/>
                  <path id="Trazado_1055916" data-name="Trazado 1055916" d="M244.634,233.111a.27.27,0,0,1-.256-.183l-1.144-3.337a.27.27,0,1,1,.511-.176l1.144,3.337a.27.27,0,0,1-.168.344.275.275,0,0,1-.088.015" transform="translate(-175.231 -165.154)" fill="#29275f"/>
                  <path id="Trazado_1055917" data-name="Trazado 1055917" d="M240.138,240.417a.27.27,0,0,1-.21-.1l-1.211-1.5a.27.27,0,0,1,.42-.34l1.211,1.5a.27.27,0,0,1-.21.441" transform="translate(-171.944 -171.745)" fill="#29275f"/>
                  <path id="Trazado_1055918" data-name="Trazado 1055918" d="M259.435,236.712a.27.27,0,0,1-.207-.444l1.976-2.349a.271.271,0,1,1,.414.348l-1.976,2.349a.269.269,0,0,1-.207.1" transform="translate(-186.719 -168.461)" fill="#29275f"/>
                  <path id="Trazado_1055919" data-name="Trazado 1055919" d="M261.472,244.8a.271.271,0,0,1-.117-.515l1.209-.578a.271.271,0,1,1,.233.488l-1.209.578a.268.268,0,0,1-.117.027" transform="translate(-188.186 -175.563)" fill="#29275f"/>
                  <path id="Trazado_1055920" data-name="Trazado 1055920" d="M176.161,71.874a.269.269,0,0,1-.205-.094,19.231,19.231,0,0,1-3.984-7.6.27.27,0,1,1,.523-.137,18.687,18.687,0,0,0,3.871,7.381.27.27,0,0,1-.205.447" transform="translate(-123.893 -45.998)" fill="#29275f"/>
                  <path id="Trazado_1055921" data-name="Trazado 1055921" d="M152.4,438.261c.786,2.444-4.5,7.883-6.975,7.11,2.292-.524,6.261-4.982,6.982-6.935l0,0a.372.372,0,0,0,0-.141.013.013,0,0,0,0-.008.1.1,0,0,0,0-.023" transform="translate(-104.77 -315.752)" fill="#fff"/>
                  <path id="Trazado_1055922" data-name="Trazado 1055922" d="M170.373,438.261a.1.1,0,0,1,0,.023.09.09,0,0,1,0-.023" transform="translate(-122.748 -315.752)" fill="#fff"/>
                  <path id="Trazado_1055923" data-name="Trazado 1055923" d="M150.291,436.122a.179.179,0,0,1,.044.07.2.2,0,0,0,.005.032.4.4,0,0,1,0,.141l0,0a17.164,17.164,0,0,1-6.612,6.9c-.392.29-.919-.562-1.169-.729a18.753,18.753,0,0,0,6.979-7.15Z" transform="translate(-102.71 -313.684)" fill="#fff"/>
                  <path id="Trazado_1055924" data-name="Trazado 1055924" d="M170.373,438.261a.1.1,0,0,1,0,.023.09.09,0,0,1,0-.023" transform="translate(-122.748 -315.752)" fill="#fff"/>
                  <path id="Trazado_1055925" data-name="Trazado 1055925" d="M145.426,430.377c1.684,1.567-5.313,8.019-6.95,8.394a1.031,1.031,0,0,1-1.307-1.172.005.005,0,0,0,0-.007,1.74,1.74,0,0,1,.07-.262c.888,1.383,8.42-6.408,6.977-7.149a1.1,1.1,0,0,1,1.209.195" transform="translate(-98.809 -309.863)" fill="#fff"/>
                  <path id="Trazado_1055926" data-name="Trazado 1055926" d="M157.012,434.224a.009.009,0,0,1,0,.007l0,0Z" transform="translate(-113.118 -312.844)" fill="#fff"/>
                  <path id="Trazado_1055927" data-name="Trazado 1055927" d="M157.051,434.182s0,0,0,.005v0Z" transform="translate(-113.148 -312.813)" fill="#fff"/>
                  <path id="Trazado_1055928" data-name="Trazado 1055928" d="M157.076,434.14s0,0,0,.005l0,0Z" transform="translate(-113.166 -312.783)" fill="#fff"/>
                  <path id="Trazado_1055929" data-name="Trazado 1055929" d="M157.111,434.086s0,.005-.005.008l0,0Z" transform="translate(-113.188 -312.744)" fill="#fff"/>
                  <path id="Trazado_1055930" data-name="Trazado 1055930" d="M143.241,429.239c.129,1.609-5.217,7.161-6.978,7.147-.133-.113-.591-.591-.731-.714a18.893,18.893,0,0,0,6.977-7.148c.136.132.606.591.732.715" transform="translate(-97.646 -308.737)" fill="#fff"/>
                  <path id="Trazado_1055931" data-name="Trazado 1055931" d="M136.824,435.019l-.007.007c.022-.015.044-.034.067-.05a.011.011,0,0,1,0-.007c-.022.018-.044.034-.064.05m4.942-5.063a.129.129,0,0,0-.012.022.138.138,0,0,0,.018-.025l-.007,0" transform="translate(-98.572 -309.766)" fill="#fff"/>
                  <path id="Trazado_1055932" data-name="Trazado 1055932" d="M147.336,434.136l0,0m-3.745,3.983,0,0m3.751-3.993,0,0a.009.009,0,0,0,0-.007Zm.012-.015v0s0,0,0-.005Zm.007-.01,0,0s0,0,0-.005Zm.008-.012,0,0s.005-.005.005-.008Z" transform="translate(-103.45 -312.744)" fill="#fff"/>
                  <path id="Trazado_1055933" data-name="Trazado 1055933" d="M138.373,423.465a.989.989,0,0,0-.485-.21c-.52,2.345-5.349,7.3-7.7,7.877.74,2.344,3.835-.912,4.693-1.64,1.01-1.062,5.044-4.784,3.488-6.027m-.683,2.863,0,0,.005-.005a.009.009,0,0,1,0,.007m.018-.025,0,0,0,0a0,0,0,0,1,0,0m.008-.012,0,0,.007-.007s0,.005-.005.008" transform="translate(-93.799 -304.941)" fill="#fff"/>
                  <path id="Trazado_1055934" data-name="Trazado 1055934" d="M157.012,434.224a.009.009,0,0,1,0,.007l0,0Z" transform="translate(-113.118 -312.844)" fill="#fff"/>
                  <path id="Trazado_1055935" data-name="Trazado 1055935" d="M157.051,434.182s0,0,0,.005v0Z" transform="translate(-113.148 -312.813)" fill="#fff"/>
                  <path id="Trazado_1055936" data-name="Trazado 1055936" d="M157.076,434.14s0,0,0,.005l0,0Z" transform="translate(-113.166 -312.783)" fill="#fff"/>
                  <path id="Trazado_1055937" data-name="Trazado 1055937" d="M157.111,434.086s0,.005-.005.008l0,0Z" transform="translate(-113.188 -312.744)" fill="#fff"/>
                  <path id="Trazado_1055938" data-name="Trazado 1055938" d="M79.605,354.968a10.317,10.317,0,0,1,2.984,8.27s0,0,0,0c-.01.094-.02.188-.034.282v0a8.29,8.29,0,0,0,1.278,5.358s0,0,0,.005a2.6,2.6,0,0,1,.756,2.267,18.578,18.578,0,0,1-6.967,7.434c-1.371.619-2.052-.18-3.167-.8a8.312,8.312,0,0,0-4.544-.947c-.138.009-.267.024-.4.044a0,0,0,0,0,0,0,9.93,9.93,0,0,1-3.563-.064l0,0a13.149,13.149,0,0,1-9.506-10.742,13.421,13.421,0,0,1,23.168-11.111" transform="translate(-40.546 -252.594)" fill="#ecb85e"/>
                  <path id="Trazado_1055939" data-name="Trazado 1055939" d="M145.228,445.015a2.043,2.043,0,0,1-.612-.089.279.279,0,0,1,.022-.539c2.143-.49,6.03-4.786,6.771-6.73v-.008a.168.168,0,0,1,0-.018.273.273,0,0,1-.005-.034.283.283,0,0,1,.2-.314.277.277,0,0,1,.338.181c.482,1.5-.992,3.692-2.4,5.111-1.234,1.244-2.932,2.44-4.312,2.44m6.032-5.909a19.725,19.725,0,0,1-4.965,5.105,9,9,0,0,0,2.848-2.03,9.23,9.23,0,0,0,2.116-3.076" transform="translate(-104.05 -315.041)" fill="#29275f"/>
                  <path id="Trazado_1055940" data-name="Trazado 1055940" d="M169.656,437.845a.28.28,0,0,1-.248-.15.349.349,0,0,1-.034-.123.279.279,0,0,1,.552-.084.492.492,0,0,1,.009.078.279.279,0,0,1-.28.28m-.108-.28h0Z" transform="translate(-122.028 -315.033)" fill="#29275f"/>
                  <path id="Trazado_1055941" data-name="Trazado 1055941" d="M142.837,442.891c-.367,0-.712-.376-.939-.625a2.041,2.041,0,0,0-.213-.215.279.279,0,0,1,.026-.481,18.59,18.59,0,0,0,6.856-7.024.279.279,0,0,1,.446-.078l.753.732h0a.452.452,0,0,1,.112.179.272.272,0,0,1,.014.061.631.631,0,0,1,.01.215.317.317,0,0,1-.026.1h0a17.372,17.372,0,0,1-6.717,7.024.555.555,0,0,1-.323.107m-.531-1.007.005.006c.1.113.421.448.525.439a.384.384,0,0,1,.036-.023,16.8,16.8,0,0,0,6.477-6.731l-.453-.441a19.409,19.409,0,0,1-6.59,6.75" transform="translate(-101.99 -312.963)" fill="#29275f"/>
                  <path id="Trazado_1055942" data-name="Trazado 1055942" d="M169.656,437.845a.28.28,0,0,1-.248-.15.349.349,0,0,1-.034-.123.279.279,0,0,1,.552-.084.492.492,0,0,1,.009.078.279.279,0,0,1-.28.28m-.108-.28h0Z" transform="translate(-122.028 -315.033)" fill="#29275f"/>
                  <path id="Trazado_1055943" data-name="Trazado 1055943" d="M137.462,438.374a1.323,1.323,0,0,1-.883-.35,1.247,1.247,0,0,1-.408-1.19c0-.009,0-.017,0-.026a2.012,2.012,0,0,1,.083-.3.28.28,0,0,1,.5-.05c.037.057.182.031.243.018,1.606-.363,6.21-5.118,6.4-6.608.008-.062.01-.14-.027-.159a.279.279,0,0,1,.022-.507,1.373,1.373,0,0,1,1.51.254,1.3,1.3,0,0,1,.268,1.378c-.678,2.528-5.871,7.128-7.337,7.486a1.187,1.187,0,0,1-.37.059m-.756-1.339a.712.712,0,0,0,.249.576.722.722,0,0,0,.711.171l.028-.008c1.251-.287,6.319-4.79,6.936-7.089.155-.578-.047-.766-.113-.828l-.01-.01a.736.736,0,0,0-.56-.2.926.926,0,0,1,.005.292c-.215,1.7-5,6.669-6.83,7.083a1.027,1.027,0,0,1-.415.017" transform="translate(-98.087 -309.138)" fill="#29275f"/>
                  <path id="Trazado_1055944" data-name="Trazado 1055944" d="M156.291,433.8a.278.278,0,0,1-.19-.074.282.282,0,0,1,.291-.47.277.277,0,0,1,.181.247.3.3,0,0,1-.085.215.28.28,0,0,1-.2.082m-.2-.478.191.192Z" transform="translate(-112.4 -312.13)" fill="#29275f"/>
                  <path id="Trazado_1055945" data-name="Trazado 1055945" d="M156.33,433.75a.28.28,0,0,1-.28-.28.287.287,0,0,1,.09-.209.282.282,0,0,1,.3-.051.279.279,0,0,1,.168.255.292.292,0,0,1-.092.21.279.279,0,0,1-.19.074m0-.285-.185-.2Z" transform="translate(-112.429 -312.096)" fill="#29275f"/>
                  <path id="Trazado_1055946" data-name="Trazado 1055946" d="M156.357,433.71a.278.278,0,0,1-.189-.074.282.282,0,0,1-.014-.4.284.284,0,0,1,.308-.067.279.279,0,0,1,.176.257.292.292,0,0,1-.084.2.278.278,0,0,1-.2.082m0-.285-.193-.193Z" transform="translate(-112.448 -312.069)" fill="#29275f"/>
                  <path id="Trazado_1055947" data-name="Trazado 1055947" d="M156.387,433.664a.281.281,0,0,1-.2-.481.286.286,0,0,1,.307-.061.278.278,0,0,1,.174.254.3.3,0,0,1-.079.2.28.28,0,0,1-.205.09Z" transform="translate(-112.469 -312.035)" fill="#29275f"/>
                  <path id="Trazado_1055948" data-name="Trazado 1055948" d="M135.549,435.945h-.008a.277.277,0,0,1-.179-.066c-.079-.067-.235-.224-.4-.389-.136-.137-.27-.272-.334-.328a.28.28,0,0,1,.059-.46,18.539,18.539,0,0,0,6.849-7.016.279.279,0,0,1,.449-.082l.115.112c.194.19.517.5.618.6a.278.278,0,0,1,.082.176c.091,1.141-1.9,3.38-2.516,4.039-1.466,1.575-3.582,3.409-4.734,3.409m-.268-.927.076.076c.1.1.21.21.288.285.811-.1,2.553-1.425,4.229-3.225,1.368-1.47,2.315-2.883,2.368-3.519l-.373-.365a19.935,19.935,0,0,1-6.588,6.747" transform="translate(-96.926 -308.016)" fill="#29275f"/>
                  <path id="Trazado_1055949" data-name="Trazado 1055949" d="M130.434,431.526a1.274,1.274,0,0,1-.331-.042,1.332,1.332,0,0,1-.9-.989.28.28,0,0,1,.2-.356c2.231-.545,6.99-5.417,7.489-7.666a.278.278,0,0,1,.313-.216,1.262,1.262,0,0,1,.619.268h0a1.181,1.181,0,0,1,.456.889c.088,1.506-2.238,3.852-3.487,5.113-.171.173-.318.321-.428.437l-.022.02c-.1.087-.238.211-.4.357-1.168,1.071-2.479,2.186-3.515,2.186m-.589-.938a.651.651,0,0,0,.4.355c.867.234,2.526-1.286,3.323-2.015.16-.147.3-.272.4-.361.111-.116.256-.263.426-.434,1.017-1.026,3.4-3.43,3.326-4.687a.626.626,0,0,0-.246-.484.755.755,0,0,0-.119-.078c-.8,2.417-5.111,6.836-7.514,7.7" transform="translate(-93.078 -304.219)" fill="#29275f"/>
                  <path id="Trazado_1055950" data-name="Trazado 1055950" d="M156.289,433.8a.278.278,0,0,1-.19-.074h0a.28.28,0,0,1-.011-.4.282.282,0,0,1,.3-.068.278.278,0,0,1,.181.248.3.3,0,0,1-.085.215.28.28,0,0,1-.2.082" transform="translate(-112.398 -312.13)" fill="#29275f"/>
                  <path id="Trazado_1055951" data-name="Trazado 1055951" d="M156.355,433.711a.278.278,0,0,1-.19-.074h0a.28.28,0,0,1-.015-.4.291.291,0,0,1,.211-.09.28.28,0,0,1,.207.1.284.284,0,0,1-.015.383.279.279,0,0,1-.2.082m-.2-.477.2.2Z" transform="translate(-112.446 -312.069)" fill="#29275f"/>
                  <path id="Trazado_1055952" data-name="Trazado 1055952" d="M156.385,433.664a.28.28,0,0,1-.2-.089l0,0a.28.28,0,0,1,.01-.39.286.286,0,0,1,.307-.061.278.278,0,0,1,.174.254.3.3,0,0,1-.079.2.28.28,0,0,1-.205.09Z" transform="translate(-112.467 -312.035)" fill="#29275f"/>
                  <path id="Trazado_1055953" data-name="Trazado 1055953" d="M75.967,378.375a3.286,3.286,0,0,1-1.767-.692c-.192-.122-.391-.249-.6-.367a8.083,8.083,0,0,0-4.384-.913c-.137.009-.259.024-.388.042h-.01a10.146,10.146,0,0,1-3.66-.07l-.026-.008A13.37,13.37,0,0,1,55.435,365.4a13.7,13.7,0,0,1,23.65-11.342,10.584,10.584,0,0,1,3.057,8.486v0c-.009.088-.018.175-.03.263a.2.2,0,0,1,0,.023,8.009,8.009,0,0,0,1.236,5.179l0,.008,0,.006a2.833,2.833,0,0,1,.782,2.478.277.277,0,0,1-.015.043c-1.651,3.683-5.139,6.314-7.071,7.555a.261.261,0,0,1-.036.02,2.53,2.53,0,0,1-1.048.249m-6.1-2.559a8.627,8.627,0,0,1,4,1.008c.233.129.439.26.638.387.762.485,1.314.836,2.266.414,1.879-1.21,5.244-3.752,6.835-7.28.191-.77-.221-1.333-.7-1.984l-.019-.026a.253.253,0,0,1-.023-.038,8.562,8.562,0,0,1-1.312-5.491.294.294,0,0,1,0-.041c.013-.087.022-.173.031-.26,0-.007,0-.015,0-.022a10.027,10.027,0,0,0-2.912-8.042l0,0a13.142,13.142,0,0,0-22.685,10.879,12.8,12.8,0,0,0,9.295,10.514l.023.006a9.7,9.7,0,0,0,3.416.058.308.308,0,0,1,.048-.007c.135-.019.264-.034.4-.043q.346-.03.693-.03" transform="translate(-39.82 -251.877)" fill="#29275f"/>
                  <path id="Trazado_1055954" data-name="Trazado 1055954" d="M104.434,423.859a.266.266,0,0,1-.146-.043l-13.2-8.519a.27.27,0,0,1,.293-.455l13.2,8.519a.27.27,0,0,1-.147.5" transform="translate(-65.535 -298.848)" fill="#29275f"/>
                  <path id="Trazado_1055955" data-name="Trazado 1055955" d="M128.3,399.937a.27.27,0,0,1-.22-.113l-9.04-12.62a.27.27,0,0,1,.439-.315l9.04,12.62a.27.27,0,0,1-.062.377.267.267,0,0,1-.157.051" transform="translate(-85.725 -278.659)" fill="#29275f"/>
                  <path id="Trazado_1055956" data-name="Trazado 1055956" d="M92.2,394.346a2.66,2.66,0,0,1-.726-.1.271.271,0,0,1,.147-.521,2.527,2.527,0,0,0,2.094-.415,4.086,4.086,0,0,0,1.374-1.8,5.773,5.773,0,0,0,.443-1.963c-.152-.01-.3-.028-.453-.052a5.652,5.652,0,0,1-4.136-3.061,2.823,2.823,0,0,1-.332-1.218,1.467,1.467,0,0,1,1.887-1.512,3.021,3.021,0,0,1,1.148.6,6.327,6.327,0,0,1,2.231,3.381,6.251,6.251,0,0,1,.2,1.338,5.027,5.027,0,0,0,4.815-5.986.27.27,0,1,1,.531-.1,5.567,5.567,0,0,1-5.347,6.63,6.323,6.323,0,0,1-.486,2.161,4.62,4.62,0,0,1-1.564,2.03,3.229,3.229,0,0,1-1.824.59M92.086,384.2a.949.949,0,0,0-.6.2,1.037,1.037,0,0,0-.333.816,2.311,2.311,0,0,0,.278.987,5.1,5.1,0,0,0,3.735,2.763q.184.029.37.044a5.7,5.7,0,0,0-.18-1.188,5.786,5.786,0,0,0-2.039-3.091,2.442,2.442,0,0,0-.936-.5,1.311,1.311,0,0,0-.288-.033" transform="translate(-65.28 -275.734)" fill="#29275f"/>
                  <g id="Grupo_1186078" data-name="Grupo 1186078" transform="translate(17.144 109.778)" opacity="0.98">
                    <g id="Grupo_1186077" data-name="Grupo 1186077">
                      <g id="Grupo_1186076" data-name="Grupo 1186076" clip-path="url(#clip-path-4)">
                        <path id="Trazado_1055957" data-name="Trazado 1055957" d="M64.634,402.509a.27.27,0,0,1-.188-.076,10.489,10.489,0,0,1-2.905-9.5.27.27,0,1,1,.529.112,9.937,9.937,0,0,0,2.752,9,.271.271,0,0,1-.188.465" transform="translate(-61.332 -392.719)" fill="#29275f"/>
                      </g>
                    </g>
                  </g>
                  <path id="Trazado_1055958" data-name="Trazado 1055958" d="M71.719,333.114a.27.27,0,0,1-.226-.121l-3.621-5.473a.271.271,0,0,1,.451-.3l3.621,5.473a.27.27,0,0,1-.225.42" transform="translate(-48.867 -235.664)" fill="#29275f"/>
                  <path id="Trazado_1055959" data-name="Trazado 1055959" d="M88.229,332.779a.27.27,0,0,1-.267-.228l-.7-4.4a.27.27,0,1,1,.534-.085l.7,4.4a.27.27,0,0,1-.224.31.282.282,0,0,1-.043,0" transform="translate(-62.868 -236.194)" fill="#29275f"/>
                  <path id="Trazado_1055960" data-name="Trazado 1055960" d="M63.975,347.186a.265.265,0,0,1-.146-.043L60,344.673a.27.27,0,1,1,.293-.454l3.827,2.469a.27.27,0,0,1-.147.5" transform="translate(-43.14 -247.967)" fill="#29275f"/>
                  <path id="Trazado_1055961" data-name="Trazado 1055961" d="M129.5,293.549l1.963-2.865-.1,3.472,3.272-1.164-2.118,2.752,3.331.981-3.331.981,2.118,2.752-3.272-1.164.1,3.471L129.5,299.9l-1.963,2.865.1-3.471-3.272,1.164,2.118-2.752-3.331-.981,3.331-.981-2.118-2.752,3.272,1.164-.1-3.472Z" transform="translate(-88.726 -209.428)" fill="#7ecfe7"/>
                  <path id="Trazado_1055962" data-name="Trazado 1055962" d="M417.3,310.366a.555.555,0,0,1-.779-.108l-3-3.967-3,3.967a.569.569,0,0,1-.21.17l-.038.016a.653.653,0,0,1-.076.022l-.048.008a.535.535,0,0,1-.143,0,.482.482,0,0,1-.048-.008.653.653,0,0,1-.076-.022l-.038-.016a.693.693,0,0,1-.1-.062.588.588,0,0,1-.108-.108l-3-3.967-2.94,3.888a.536.536,0,0,1-.167.207.557.557,0,0,1-.335.111.548.548,0,0,1-.444-.221l-3-3.965-2.973,3.931-.025.035c-.015.019-.029.035-.043.051s-.027.027-.041.04-.008.006-.013.01l-.011.009a.461.461,0,0,1-.092.056.614.614,0,0,1-.111.04h-.008a.336.336,0,0,1-.057.01.486.486,0,0,1-.137,0,.3.3,0,0,1-.051-.01.015.015,0,0,1-.011,0,.4.4,0,0,1-.054-.016.487.487,0,0,1-.072-.03c-.014-.008-.029-.016-.043-.025l-.035-.024,0,0a.244.244,0,0,1-.03-.025.266.266,0,0,1-.032-.03c-.014-.016-.029-.032-.043-.051a.287.287,0,0,1-.025-.035l-2.973-3.931-3,3.965a.557.557,0,1,1-.889-.671l3.443-4.552a.557.557,0,0,1,.889,0l3,3.966,3-3.966a.556.556,0,0,1,.887,0l2.992,3.956,3.005-3.975a.556.556,0,0,1,.887,0l3,3.967,3-3.967a.556.556,0,0,1,.887,0l3.443,4.554a.556.556,0,0,1-.108.779" transform="translate(-280.168 -219.607)" fill="#ecb85e"/>
                  <path id="Trazado_1055963" data-name="Trazado 1055963" d="M418.5,286.221a.555.555,0,0,1-.779-.108l-3-3.967-3,3.967a.568.568,0,0,1-.21.17l-.038.016a.7.7,0,0,1-.076.022l-.048.008a.556.556,0,0,1-.143,0l-.048-.008a.7.7,0,0,1-.076-.022l-.038-.016a.67.67,0,0,1-.1-.062.579.579,0,0,1-.108-.108l-3-3.967-2.94,3.887a.532.532,0,0,1-.167.207.558.558,0,0,1-.335.112.547.547,0,0,1-.444-.221l-3-3.966-2.973,3.931-.025.035c-.015.019-.029.035-.043.051l-.041.039s-.008.006-.013.01l-.011.009a.441.441,0,0,1-.092.056.555.555,0,0,1-.111.04l-.008,0a.332.332,0,0,1-.057.01.51.51,0,0,1-.137,0,.3.3,0,0,1-.051-.01s-.008,0-.011,0a.369.369,0,0,1-.054-.016.475.475,0,0,1-.072-.03.435.435,0,0,1-.043-.026l-.035-.024,0,0a.3.3,0,0,1-.03-.025.353.353,0,0,1-.032-.03c-.014-.016-.029-.032-.043-.051a.27.27,0,0,1-.025-.035l-2.973-3.931-3,3.966a.557.557,0,1,1-.889-.671l3.443-4.552a.557.557,0,0,1,.889,0l3,3.965,3-3.965a.556.556,0,0,1,.887,0l2.992,3.956,3.005-3.975a.556.556,0,0,1,.887,0l3,3.967,3-3.967a.556.556,0,0,1,.887,0l3.443,4.554a.556.556,0,0,1-.108.779" transform="translate(-281.029 -202.211)" fill="#ecb85e"/>
                  <path id="Trazado_1055964" data-name="Trazado 1055964" d="M178.449,340.881a.27.27,0,0,1-.271-.271v-3.1a.27.27,0,0,1,.541,0v3.1a.27.27,0,0,1-.27.271" transform="translate(-128.371 -242.971)" fill="#29275f"/>
                  <path id="Trazado_1055965" data-name="Trazado 1055965" d="M176,343.325h-3.1a.27.27,0,1,1,0-.541H176a.27.27,0,0,1,0,.541" transform="translate(-124.377 -246.964)" fill="#29275f"/>
                  <path id="Trazado_1055966" data-name="Trazado 1055966" d="M170.045,368.09a1.035,1.035,0,0,0,0,2.069,1.035,1.035,0,0,0,0-2.069" transform="translate(-121.792 -265.196)" fill="#29275f"/>
                  <path id="Trazado_1055967" data-name="Trazado 1055967" d="M7.6,311.054a.27.27,0,0,1-.27-.271v-3.1a.27.27,0,0,1,.541,0v3.1a.27.27,0,0,1-.271.271" transform="translate(-5.28 -221.481)" fill="#29275f"/>
                  <path id="Trazado_1055968" data-name="Trazado 1055968" d="M5.155,313.5h-3.1a.27.27,0,1,1,0-.541h3.1a.27.27,0,0,1,0,.541" transform="translate(-1.286 -225.476)" fill="#29275f"/>
                  <path id="Trazado_1055969" data-name="Trazado 1055969" d="M4.2,282.543a1.035,1.035,0,0,0,0,2.069,1.035,1.035,0,0,0,0-2.069" transform="translate(-2.304 -203.563)" fill="#29275f"/>
                  <path id="Trazado_1055970" data-name="Trazado 1055970" d="M22.368,293.791a1.725,1.725,0,0,0,0,3.448,1.725,1.725,0,0,0,0-3.448" transform="translate(-14.915 -211.666)" fill="#29275f"/>
                  <path id="Trazado_1055971" data-name="Trazado 1055971" d="M436.919,240.593a1.035,1.035,0,0,0,0,2.069,1.035,1.035,0,0,0,0-2.069" transform="translate(-314.065 -173.339)" fill="#29275f"/>
                  <path id="Trazado_1055972" data-name="Trazado 1055972" d="M418.058,214.81a1.725,1.725,0,0,0,0,3.448,1.725,1.725,0,0,0,0-3.448" transform="translate(-299.996 -154.763)" fill="#29275f"/>
                  <path id="Trazado_1055973" data-name="Trazado 1055973" d="M437.26,199.037a1.725,1.725,0,0,0,0,3.448,1.725,1.725,0,0,0,0-3.448" transform="translate(-313.831 -143.399)" fill="#29275f"/>
                  <path id="Trazado_1055974" data-name="Trazado 1055974" d="M387.107,110.277a.27.27,0,0,1-.27-.27v-3.1a.27.27,0,0,1,.541,0v3.1a.27.27,0,0,1-.271.27" transform="translate(-278.703 -76.828)" fill="#29275f"/>
                  <path id="Trazado_1055975" data-name="Trazado 1055975" d="M384.662,112.721h-3.1a.27.27,0,1,1,0-.541h3.1a.27.27,0,0,1,0,.541" transform="translate(-274.709 -80.822)" fill="#29275f"/>
                  <path id="Trazado_1055976" data-name="Trazado 1055976" d="M383.706,81.765a1.035,1.035,0,0,0,0,2.069,1.035,1.035,0,0,0,0-2.069" transform="translate(-275.727 -58.909)" fill="#29275f"/>
                  <path id="Trazado_1055977" data-name="Trazado 1055977" d="M401.876,93.014a1.725,1.725,0,0,0,0,3.448,1.725,1.725,0,0,0,0-3.448" transform="translate(-288.338 -67.013)" fill="#29275f"/>
                  <path id="Trazado_1055978" data-name="Trazado 1055978" d="M448.131,115.51a5.836,5.836,0,0,0-8.253,0,6.08,6.08,0,0,0-.454.51,5.836,5.836,0,0,0,8.2,8.2,5.683,5.683,0,0,0,.511-.453,5.836,5.836,0,0,0,0-8.255m-6.925,6.925a3.957,3.957,0,1,1,5.6,0,3.958,3.958,0,0,1-5.6,0" transform="translate(-315.685 -81.99)" fill="#ecb85e"/>
                  <path id="Trazado_1055979" data-name="Trazado 1055979" d="M20.053,190.163a5.836,5.836,0,0,0-8.253,0,6.073,6.073,0,0,0-.454.509,5.836,5.836,0,0,0,8.2,8.2,5.638,5.638,0,0,0,.51-.453,5.836,5.836,0,0,0,0-8.255m-6.925,6.925a3.957,3.957,0,1,1,5.6,0,3.958,3.958,0,0,1-5.6,0" transform="translate(-7.269 -135.775)" fill="#9ae1b4"/>
                  <path id="Trazado_1055980" data-name="Trazado 1055980" d="M28.432,161.314a.555.555,0,0,1-.779-.108l-3-3.967-3,3.967a.569.569,0,0,1-.21.17l-.038.016a.638.638,0,0,1-.076.022.456.456,0,0,1-.048.008.534.534,0,0,1-.143,0,.474.474,0,0,1-.048-.008.653.653,0,0,1-.076-.022l-.038-.016a.663.663,0,0,1-.1-.062.583.583,0,0,1-.108-.108l-3-3.967-2.94,3.888a.536.536,0,0,1-.167.207.558.558,0,0,1-.335.112.549.549,0,0,1-.444-.221l-3-3.966-2.973,3.931-.025.035c-.014.019-.029.035-.043.051s-.027.027-.041.04-.008.006-.013.01l-.011.01a.447.447,0,0,1-.092.056.6.6,0,0,1-.111.04H7.566a.337.337,0,0,1-.057.009.486.486,0,0,1-.137,0,.3.3,0,0,1-.051-.009.014.014,0,0,1-.011,0,.4.4,0,0,1-.054-.016.5.5,0,0,1-.072-.03c-.014-.008-.029-.016-.043-.025l-.035-.024,0,0a.243.243,0,0,1-.03-.025.263.263,0,0,1-.032-.03c-.014-.016-.029-.032-.043-.051a.26.26,0,0,1-.025-.035L4,157.258l-3,3.966a.557.557,0,1,1-.889-.671L3.555,156a.557.557,0,0,1,.889,0l3,3.965,3-3.965a.556.556,0,0,1,.887,0l2.992,3.956,3.005-3.975a.556.556,0,0,1,.887,0l3,3.967,3-3.967a.556.556,0,0,1,.887,0l3.442,4.554a.556.556,0,0,1-.108.779" transform="translate(0 -112.22)" fill="#7351fa"/>
                  <path id="Trazado_1055981" data-name="Trazado 1055981" d="M29.627,137.169a.555.555,0,0,1-.779-.108l-3-3.967-3,3.967a.569.569,0,0,1-.21.17l-.038.016a.657.657,0,0,1-.077.022.464.464,0,0,1-.048.008.557.557,0,0,1-.143,0,.47.47,0,0,1-.048-.008.653.653,0,0,1-.076-.022l-.038-.016a.664.664,0,0,1-.1-.062.583.583,0,0,1-.108-.108l-3-3.967-2.94,3.888a.536.536,0,0,1-.167.207.557.557,0,0,1-.335.111.548.548,0,0,1-.444-.221l-3-3.966-2.973,3.931-.025.035c-.014.019-.029.035-.043.051s-.027.027-.041.04-.008.006-.013.01l-.011.01a.448.448,0,0,1-.092.056.569.569,0,0,1-.111.04l-.008,0a.339.339,0,0,1-.057.009.486.486,0,0,1-.137,0,.3.3,0,0,1-.051-.009.013.013,0,0,1-.011,0,.359.359,0,0,1-.054-.016.5.5,0,0,1-.072-.03c-.014-.008-.029-.016-.043-.025l-.035-.024,0,0a.262.262,0,0,1-.03-.025.286.286,0,0,1-.032-.03c-.014-.016-.029-.032-.043-.051a.261.261,0,0,1-.025-.035l-2.973-3.931-3,3.966a.557.557,0,1,1-.889-.671l3.442-4.552a.557.557,0,0,1,.889,0l3,3.965,3-3.965a.556.556,0,0,1,.887,0l2.992,3.956,3.005-3.975a.556.556,0,0,1,.887,0l3,3.967,3-3.967a.556.556,0,0,1,.887,0l3.442,4.554a.556.556,0,0,1-.108.779" transform="translate(-0.861 -94.824)" fill="#7351fa"/>
                </g>
              </g>
            </g>
          </g>
        </g>
      </g>
    </g>
  </g>
</svg>
