<svg id="Grupo_1186031" data-name="Grupo 1186031" xmlns="http://www.w3.org/2000/svg" xmlns:xlink="http://www.w3.org/1999/xlink" width="123.145" height="126.994" viewBox="0 0 123.145 126.994">
  <defs>
    <clipPath id="clip-path">
      <rect id="Rectángulo_425723" data-name="Rectángulo 425723" width="123.145" height="126.994" fill="#7351fa"/>
    </clipPath>
  </defs>
  <g id="Grupo_1186030" data-name="Grupo 1186030" clip-path="url(#clip-path)">
    <path id="Trazado_1055636" data-name="Trazado 1055636" d="M207.446.072a15.011,15.011,0,0,1,9.426,5.59c6.271,8.45,1.172,20.68-9.177,21.965-.168,1.7.824,6.193-1.859,6.224-2.99.034-1.944-4.331-2.115-6.224-10.361-1.276-15.416-13.533-9.183-21.971A15.372,15.372,0,0,1,203.971.072a21.042,21.042,0,0,1,3.475,0M204.66,4.114C191.918,5.5,193.688,24.687,206.325,23.9,219.578,23.07,217.9,2.671,204.66,4.114" transform="translate(-144.081 0)" fill="#7351fa"/>
    <path id="Trazado_1055637" data-name="Trazado 1055637" d="M.072,211.974a14.745,14.745,0,0,1,6.97-10.281,13.751,13.751,0,0,1,20.583,10.031c1.755.165,6.1-.8,6.229,1.867.146,3-4.4,1.939-6.229,2.108A13.76,13.76,0,0,1,7.042,225.731a14.746,14.746,0,0,1-6.97-10.281,21.045,21.045,0,0,1,0-3.475m12.851-8.121c-12.742,1.389-10.972,20.573,1.665,19.783,13.253-.828,11.576-21.227-1.665-19.783" transform="translate(0 -150.094)" fill="#7351fa"/>
    <path id="Trazado_1055638" data-name="Trazado 1055638" d="M139.238,220.562l-.122-3.229a24.579,24.579,0,0,1-11.8-19.226,174.946,174.946,0,0,1,0-20.622,20.3,20.3,0,0,1,18.256-18.479,130.921,130.921,0,0,1,17.382-.016c3.639.328,1.536,5.668,2.122,8.179,5.887,1.044,9.532,5.667,9.915,11.555a171.532,171.532,0,0,1,0,19.631,24.559,24.559,0,0,1-11.8,18.981l-.125,3.226h7.57c6.278,0,11.861,7.113,12.3,13.022.32,4.353.855,11.33-4.523,12.623H123.9c-5.37-1.292-4.85-8.266-4.523-12.624.44-5.854,6.07-13.022,12.3-13.022Zm21.842-57.588H145.568c-6.221,0-14.272,7.78-14.272,14.025v6.826c1.243-.714,2.349-2.938,3.853-3,.924-.036,3.84,1.531,5.022,1.94a31.042,31.042,0,0,0,21.783.068c1.128-.394,4.131-1.97,4.965-2.008,1.724-.079,2.747,2.2,4.091,3v-6.081c0-2.436-2.921-5.463-5.144-6.274-1.162-.424-4.784-.478-4.784-1.918Zm-23.989,47.821a19.978,19.978,0,0,0,31.291-4.153c3.065-5.3,2.842-11.152,2.5-17.1l-4.456-4.22a35.856,35.856,0,0,1-26.636,1.555c-.915-.286-3.636-1.728-4.264-1.445a47.945,47.945,0,0,0-4.178,4.28c-.492,7.867-.1,15.243,5.745,21.086m22,8.527a26.538,26.538,0,0,1-15.882,0c-.529,2.5.962,3.4,2.6,4.88,1.517-.255,3.785-1.619,5.226-1.666,1.495-.049,3.905,1.4,5.458,1.666,1.631-1.478,3.129-2.374,2.6-4.88m19.292,22.518a3.467,3.467,0,0,0,.573-1.538c.279-2.512.132-7.313-.784-9.654-2.665-6.811-10.074-6.355-16.174-6.063-1.382.827-3.176,3.874-4.771,3.937-1.651.065-4.3-1.712-5.961-1.766-1.8-.058-4.681,1.963-6.423,1.746-1.383-.172-3.258-3.168-4.541-3.916-6.039-.227-13.133-.853-16,5.738-1.047,2.406-1.348,7.854-.89,10.412a1.981,1.981,0,0,0,1.819,1.655l51.374.029a3.249,3.249,0,0,0,1.779-.579" transform="translate(-89.525 -119.214)" fill="#7351fa"/>
    <path id="Trazado_1055639" data-name="Trazado 1055639" d="M365.5,215.746c-1.657-.142-6.192.761-6.224-1.859-.037-2.987,4.332-1.946,6.224-2.115a13.777,13.777,0,0,1,18.93-10.862c10.063,4.032,11.667,18,2.747,24.225-8.512,5.94-20.373.842-21.677-9.389M378.1,203.9c-12.749,1.39-10.963,20.58,1.665,19.784,13.247-.836,11.56-21.225-1.665-19.784" transform="translate(-269.868 -150.141)" fill="#7351fa"/>
    <path id="Trazado_1055640" data-name="Trazado 1055640" d="M342.691,59.049C358.562,57.148,364.718,77.8,351.51,85c-4.927,2.686-10.4,1.951-15.058-.905-1.27.824-2.445,3.085-4.01,3.2a1.77,1.77,0,0,1-2-.992c-.792-2.4,1.936-3.489,3.076-5.139-2.678-4.451-3.5-9.579-1.246-14.407a14.451,14.451,0,0,1,10.416-7.7m.238,3.962c-11.97,1.861-9.87,21.841,3.848,19.485,12.064-2.072,9.734-21.6-3.848-19.485" transform="translate(-248.108 -44.262)" fill="#7351fa"/>
    <path id="Trazado_1055641" data-name="Trazado 1055641" d="M62.737,59.07C73.157,57.822,81.159,66.831,78.184,77a43.167,43.167,0,0,1-1.949,4.181c1.027,1.152,4.991,4.294,2.541,5.843-2.248,1.421-3.937-1.814-5.47-2.912C67.586,87.767,60.049,87.6,55.1,82.705c-7.9-7.811-3.379-22.315,7.638-23.635m.238,3.962C51.958,64.745,52.61,82.689,64.9,82.689c14,0,12.638-21.921-1.926-19.657" transform="translate(-38.396 -44.283)" fill="#7351fa"/>
    <path id="Trazado_1055642" data-name="Trazado 1055642" d="M242.722,24.8a2.194,2.194,0,0,1,.595,1.268,40.864,40.864,0,0,1-.025,6.45,1.983,1.983,0,0,1-3.9-.044,34.736,34.736,0,0,1-.043-6.38,1.988,1.988,0,0,1,3.371-1.294" transform="translate(-179.694 -18.187)" fill="#7351fa"/>
    <path id="Trazado_1055643" data-name="Trazado 1055643" d="M240.423,72.538c1.626-1.768,4.763.722,2.92,2.8-1.738,1.957-4.564-1.009-2.92-2.8" transform="translate(-180.221 -54.035)" fill="#7351fa"/>
    <path id="Trazado_1055644" data-name="Trazado 1055644" d="M51.22,224.3a2.194,2.194,0,0,1,.6,1.268,40.865,40.865,0,0,1-.025,6.45,1.983,1.983,0,0,1-3.9-.044,34.737,34.737,0,0,1-.043-6.38A1.988,1.988,0,0,1,51.22,224.3" transform="translate(-35.848 -168.039)" fill="#7351fa"/>
    <path id="Trazado_1055645" data-name="Trazado 1055645" d="M48.921,272.035c1.626-1.768,4.762.722,2.92,2.8-1.738,1.957-4.564-1.009-2.92-2.8" transform="translate(-36.375 -203.887)" fill="#7351fa"/>
    <path id="Trazado_1055646" data-name="Trazado 1055646" d="M240.349,458.4c-1.7-1.847,1.149-4.791,2.92-2.8,1.843,2.075-1.294,4.566-2.92,2.8" transform="translate(-180.147 -341.728)" fill="#7351fa"/>
    <path id="Trazado_1055647" data-name="Trazado 1055647" d="M434.233,224.164a3.228,3.228,0,0,1,.583,1.53,38.58,38.58,0,0,1-.021,6.2,1.983,1.983,0,0,1-3.9-.044,34.737,34.737,0,0,1-.043-6.38,1.979,1.979,0,0,1,3.379-1.3" transform="translate(-323.541 -167.915)" fill="#7351fa"/>
    <path id="Trazado_1055648" data-name="Trazado 1055648" d="M431.851,274.866c-1.7-1.847,1.149-4.791,2.919-2.8,1.843,2.075-1.294,4.566-2.919,2.8" transform="translate(-323.993 -203.864)" fill="#7351fa"/>
    <path id="Trazado_1055649" data-name="Trazado 1055649" d="M381.333,83.091a2.069,2.069,0,0,1,2.423.945,45.483,45.483,0,0,1,.076,7.512c-.449,1.945-3.585,1.825-3.919-1.187-.175-1.582-.458-6.84,1.419-7.27" transform="translate(-285.276 -62.363)" fill="#7351fa"/>
    <path id="Trazado_1055650" data-name="Trazado 1055650" d="M382.336,130.781c3.347-1.012,3.615,4.367.371,3.749a1.969,1.969,0,0,1-.371-3.749" transform="translate(-286.281 -98.141)" fill="#7351fa"/>
    <path id="Trazado_1055651" data-name="Trazado 1055651" d="M99.817,83.021a2.488,2.488,0,0,1,2.052.328c1.03.889.921,6.23.64,7.578-.51,2.446-3.6,2.433-3.865.115a44.262,44.262,0,0,1,.01-6.7,2.4,2.4,0,0,1,1.163-1.32" transform="translate(-74.005 -62.295)" fill="#7351fa"/>
    <path id="Trazado_1055652" data-name="Trazado 1055652" d="M100.168,130.772c3.559-1.057,3.654,4.709,0,3.62a1.979,1.979,0,0,1,0-3.62" transform="translate(-74.355 -98.132)" fill="#7351fa"/>
  </g>
</svg>
