<svg xmlns="http://www.w3.org/2000/svg" xmlns:xlink="http://www.w3.org/1999/xlink" width="148" height="115" viewBox="0 0 148 115">
  <defs>
    <clipPath id="clip-path">
      <rect id="Rectángulo_425730" data-name="Rectángulo 425730" width="148" height="115" transform="translate(-0.204 -0.438)" fill="#7351fa"/>
    </clipPath>
  </defs>
  <g id="Grupo_1186040" data-name="Grupo 1186040" transform="translate(0.548 0.34)">
    <g id="Grupo_1186039" data-name="Grupo 1186039" transform="translate(-0.344 0.098)" clip-path="url(#clip-path)">
      <path id="Trazado_1055695" data-name="Trazado 1055695" d="M65.551,0l2.573.428a13.9,13.9,0,0,1,5.345,2.625A15.433,15.433,0,0,1,78.8.45L81.351,0h1.592l2.843.525a13.337,13.337,0,0,1,9.527,13.93h20.271a2.483,2.483,0,0,1,2.133,2.154l.012,13.647a32.169,32.169,0,0,1,29.009,27.765A21.652,21.652,0,0,0,147,60.393v3.553l-.819,5.49c-1.47,6.493-4.1,9.855-7.995,14.911-6.564,8.511-3.879,17.913-4.425,27.915a2.685,2.685,0,0,1-1.7,2.032H98.131a2.67,2.67,0,0,1-1.713-2.268c-.485-4.824.448-10.47.005-15.317a1.245,1.245,0,0,0-1.167-1.284c-2.142-.26-4.634.309-6.808-.174a5.733,5.733,0,0,1-4.4-4.786,6.5,6.5,0,0,1,.84-3.278,7.128,7.128,0,0,1-1.564-2.981c-.06-.336.021-.7-.041-1.061-.09-.52-.528-1.078-.467-1.677-3.887.445-7.012-2.57-5.689-6.5,1.457-4.324,4.084-8.743,5.667-13.074a32.278,32.278,0,0,1,28.994-31.639c.43-.042.978.149,1.285-.185V19.11H94.457a3.056,3.056,0,0,1-.243.921A40.538,40.538,0,0,1,76.822,40.122a10.991,10.991,0,0,1-3.371,1.4c-1.095-.005-4.917-2.363-5.978-3.084a39.423,39.423,0,0,1-14.9-19.333H33.951V30.074c.276.326.769.144,1.163.184A32.31,32.31,0,0,1,64.261,61.99c1.56,4.291,4.13,8.624,5.6,12.9,1.37,3.978-1.7,7.01-5.652,6.583.054.6-.366,1.147-.467,1.676a9.872,9.872,0,0,1-.3,1.9c-.238.665-1.242,1.775-1.3,2.138-.039.24.476,1.07.587,1.45,1.069,3.678-1.916,6.556-5.438,6.8-1.729.118-4.007-.248-5.631,0-1.055.163-1.184,1.227-1.183,2.136.007,4.475.534,9.8.132,14.208a2.675,2.675,0,0,1-1.713,2.513H14.967a2.516,2.516,0,0,1-1.7-1.91c-.57-9.035,1.875-18.535-3.341-26.548-1.167-1.793-2.754-3.307-4-5.068A32.812,32.812,0,0,1,.425,67.4l-.4-3.213c.056-1.3-.076-2.628,0-3.92.056-.957.234-2.117.388-3.1A32.146,32.146,0,0,1,29.3,30.257l.015-13.644a2.464,2.464,0,0,1,2.13-2.157H51.711C51.006,7.234,56.69.356,64.01.113L64.2,0ZM58.858,7.025c-3.612,3.517-2.982,8.757-1.128,12.986A36.984,36.984,0,0,0,71.244,35.405a18.213,18.213,0,0,0,2.117,1.2c.268.067,1.255-.513,1.581-.693,6.972-3.85,16.508-14.821,15.838-23.233-.538-6.752-7.771-10.108-13.508-6.654-1.67,1-2.761,3.443-5,2.137a13.873,13.873,0,0,1-1.517-1.423,9.023,9.023,0,0,0-11.9.284m6.694,69.783-.058-.494L59.758,62.941c-.01-13.525-9.716-25.736-23.209-27.87A27.548,27.548,0,0,0,7.268,74.034C9.5,78.794,13.436,81.872,15.6,86.648c3.021,6.664,2.42,15.2,2.312,22.447a1.586,1.586,0,0,1-.1.488l.154.178H45.954V96.1a6.543,6.543,0,0,1,2.461-4.154c2.874-2.079,6.037-.695,9.107-1.182,1.356-.215.55-1.158.341-1.8a5.229,5.229,0,0,1,.235-4c.21-.465,1.048-1.428,1.082-1.613.061-.327-.034-.727.016-1.086.048-.344.353-.947.348-1.116-.014-.51-.626-.939-.454-2.053a3.026,3.026,0,0,1,2.358-2.3Zm63.567,32.953c.277-6.639-.787-13.661,1.164-20.09,2.209-7.279,7.874-10.913,10.441-17.978a27.526,27.526,0,0,0-26.607-36.954c-15.151.411-26.843,13.226-26.849,28.2L81.531,76.314l-.058.494h3.981A2.97,2.97,0,0,1,87.936,79.1c.187,1.1-.44,1.544-.454,2.053,0,.17.3.773.348,1.116.05.36-.045.761.016,1.087.043.23.867,1.147,1.082,1.612a5.227,5.227,0,0,1,.235,4c-.21.639-1.015,1.582.341,1.8,3.358.533,6.633-1.054,9.631,1.609a6.811,6.811,0,0,1,1.936,3.726v13.659Z" transform="translate(0.295 -0.084)" fill="#7351fa"/>
    </g>
  </g>
</svg>
