<svg id="Page-1" xmlns="http://www.w3.org/2000/svg" width="60" height="60" viewBox="0 0 60 60">
  <g id="_040---Browser-Survey" data-name="040---Browser-Survey">
    <path id="Shape" d="M55,0H5A5.006,5.006,0,0,0,0,5V55a5.006,5.006,0,0,0,5,5H55a5.006,5.006,0,0,0,5-5V5A5.006,5.006,0,0,0,55,0ZM5,2H55a3,3,0,0,1,3,3v7H2V5A3,3,0,0,1,5,2ZM55,58H5a3,3,0,0,1-3-3V14H58V55A3,3,0,0,1,55,58Z" fill="#7ecfe7"/>
    <path id="Shape-2" data-name="Shape" d="M7,10A3,3,0,1,0,4,7,3,3,0,0,0,7,10ZM7,6A1,1,0,1,1,6,7,1,1,0,0,1,7,6Z" fill="#7ecfe7"/>
    <path id="Shape-3" data-name="Shape" d="M15,10a3,3,0,1,0-3-3A3,3,0,0,0,15,10Zm0-4a1,1,0,1,1-1,1A1,1,0,0,1,15,6Z" fill="#7ecfe7"/>
    <path id="Shape-4" data-name="Shape" d="M23,10a3,3,0,1,0-3-3A3,3,0,0,0,23,10Zm0-4a1,1,0,1,1-1,1A1,1,0,0,1,23,6Z" fill="#7ecfe7"/>
    <path id="Shape-5" data-name="Shape" d="M40,33h8a2,2,0,0,0,2-2V23a2,2,0,0,0-2-2H40a2,2,0,0,0-2,2v8A2,2,0,0,0,40,33Zm0-10h8v8H40Z" fill="#7ecfe7"/>
    <path id="Shape-6" data-name="Shape" d="M49,46a1,1,0,0,0-1,1v2H40V41h5a1,1,0,0,0,0-2H40a2,2,0,0,0-2,2v8a2,2,0,0,0,2,2h8a2,2,0,0,0,2-2V47A1,1,0,0,0,49,46Z" fill="#7ecfe7"/>
    <path id="Shape-7" data-name="Shape" d="M9,24h8a1,1,0,0,0,0-2H9a1,1,0,0,0,0,2Z" fill="#7ecfe7"/>
    <path id="Shape-8" data-name="Shape" d="M33,22H21a1,1,0,0,0,0,2H33a1,1,0,0,0,0-2Z" fill="#7ecfe7"/>
    <path id="Shape-9" data-name="Shape" d="M33,26H9a1,1,0,0,0,0,2H33a1,1,0,0,0,0-2Z" fill="#7ecfe7"/>
    <path id="Shape-10" data-name="Shape" d="M9,32H21a1,1,0,0,0,0-2H9a1,1,0,0,0,0,2Z" fill="#7ecfe7"/>
    <path id="Shape-11" data-name="Shape" d="M33,30H25a1,1,0,0,0,0,2h8a1,1,0,0,0,0-2Z" fill="#7ecfe7"/>
    <path id="Shape-12" data-name="Shape" d="M9,42h8a1,1,0,0,0,0-2H9a1,1,0,0,0,0,2Z" fill="#7ecfe7"/>
    <path id="Shape-13" data-name="Shape" d="M33,40H21a1,1,0,0,0,0,2H33a1,1,0,0,0,0-2Z" fill="#7ecfe7"/>
    <path id="Shape-14" data-name="Shape" d="M33,44H9a1,1,0,0,0,0,2H33a1,1,0,0,0,0-2Z" fill="#7ecfe7"/>
    <path id="Shape-15" data-name="Shape" d="M21,48H9a1,1,0,0,0,0,2H21a1,1,0,0,0,0-2Z" fill="#7ecfe7"/>
    <path id="Shape-16" data-name="Shape" d="M33,48H25a1,1,0,0,0,0,2h8a1,1,0,0,0,0-2Z" fill="#7ecfe7"/>
    <path id="Shape-17" data-name="Shape" d="M50.2,37.4l-5.309,7.078-1.184-1.185a1,1,0,0,0-1.414,1.414l2,2A1,1,0,0,0,45,47l.071,0a1,1,0,0,0,.729-.4l6-8a1,1,0,1,0-1.6-1.2Z" fill="#7ecfe7"/>
  </g>
</svg>
