<svg xmlns="http://www.w3.org/2000/svg" width="56" height="55.953" viewBox="0 0 56 55.953">
  <g id="encuesta" transform="translate(-192.961 -49)">
    <g id="Grupo_1163098" data-name="Grupo 1163098" transform="translate(222.154 78.193)">
      <circle id="Elipse_11500" data-name="Elipse 11500" cx="1.5" cy="1.5" r="1.5" transform="translate(-0.193 -0.192)" fill="#7ecfe7"/>
    </g>
    <g id="Grupo_1163099" data-name="Grupo 1163099" transform="translate(209.991 61.164)">
      <path id="Trazado_1014240" data-name="Trazado 1014240" d="M63.356,137.509l2.433,2.433a1.215,1.215,0,0,0,1.72,0l4.865-4.865a1.216,1.216,0,0,0-1.72-1.72l-4.005,4.005-1.573-1.573a1.216,1.216,0,1,0-1.72,1.72Z" transform="translate(-63 -133)" fill="#7ecfe7" fill-rule="evenodd"/>
    </g>
    <g id="Grupo_1163100" data-name="Grupo 1163100" transform="translate(209.991 73.328)">
      <path id="Trazado_1014241" data-name="Trazado 1014241" d="M63.356,137.509l2.433,2.433a1.215,1.215,0,0,0,1.72,0l4.865-4.865a1.216,1.216,0,0,0-1.72-1.72l-4.005,4.005-1.573-1.573a1.216,1.216,0,1,0-1.72,1.72Z" transform="translate(-63 -133)" fill="#7ecfe7" fill-rule="evenodd"/>
    </g>
    <g id="Grupo_1163101" data-name="Grupo 1163101" transform="translate(222.154 61.164)">
      <path id="Trazado_1014242" data-name="Trazado 1014242" d="M74.216,137.433H86.38a1.216,1.216,0,1,0,0-2.433H74.216a1.216,1.216,0,1,0,0,2.433Z" transform="translate(-73 -135)" fill="#7ecfe7" fill-rule="evenodd"/>
    </g>
    <g id="Grupo_1163102" data-name="Grupo 1163102" transform="translate(222.154 73.327)">
      <path id="Trazado_1014243" data-name="Trazado 1014243" d="M74.216,137.433h4.913a1.216,1.216,0,0,0,0-2.433H74.216a1.216,1.216,0,1,0,0,2.433Z" transform="translate(-73 -135)" fill="#7ecfe7" fill-rule="evenodd"/>
    </g>
    <g id="Grupo_1163103" data-name="Grupo 1163103" transform="translate(222.154 66.029)">
      <path id="Trazado_1014244" data-name="Trazado 1014244" d="M74.216,141.433h7.3a1.216,1.216,0,1,0,0-2.433h-7.3a1.216,1.216,0,1,0,0,2.433Z" transform="translate(-73 -139)" fill="#7ecfe7" fill-rule="evenodd"/>
    </g>
    <g id="Grupo_1163104" data-name="Grupo 1163104" transform="translate(202.692 53.865)">
      <path id="Trazado_1014245" data-name="Trazado 1014245" d="M59.433,145.678V128.041a.606.606,0,0,1,.608-.608h3.088a1.216,1.216,0,0,0,0-2.433H60.041A3.04,3.04,0,0,0,57,128.041v17.637a1.216,1.216,0,0,0,2.433,0Z" transform="translate(-57 -125)" fill="#7ecfe7" fill-rule="evenodd"/>
    </g>
    <path id="Trazado_1014246" data-name="Trazado 1014246" d="M223.549,53.865V52.649a3.649,3.649,0,0,0-7.3,0v1.216h-6.034a1.216,1.216,0,0,0,0,2.433h27.321a.608.608,0,0,1,.608.608l.047,5.485a1.216,1.216,0,0,0,2.433-.022l-.047-5.474a3.042,3.042,0,0,0-3.041-3.03Zm-2.433-1.216a1.216,1.216,0,1,0-2.433,0v1.216h2.433Z" transform="translate(3.47)" fill="#7ecfe7" fill-rule="evenodd"/>
    <g id="Grupo_1163105" data-name="Grupo 1163105" transform="translate(217.336 92.789)">
      <path id="Trazado_1014247" data-name="Trazado 1014247" d="M93.366,158.209l-.047,7.914a.606.606,0,0,1-.608.608H70.255a1.216,1.216,0,0,0,0,2.433H92.711a3.04,3.04,0,0,0,3.041-3.041c0,.007.047-7.9.047-7.9a1.216,1.216,0,0,0-2.433-.015Z" transform="translate(-69.039 -157)" fill="#7ecfe7" fill-rule="evenodd"/>
    </g>
    <path id="Trazado_1014248" data-name="Trazado 1014248" d="M198.037,87.679a6.083,6.083,0,0,0-5.076,6v3.041A3.04,3.04,0,0,0,196,99.76h15.813a3.041,3.041,0,0,0,3.041-3.041V93.678a6.084,6.084,0,0,0-5.077-6,8.514,8.514,0,1,0-11.742,0Zm11.953,9.648h1.825a.608.608,0,0,0,.608-.608V93.678a3.649,3.649,0,0,0-3.649-3.649h-9.731a3.649,3.649,0,0,0-3.649,3.649v3.041a.608.608,0,0,0,.608.608h1.825V93.678a1.216,1.216,0,0,1,2.433,0v3.649h7.3V93.678a1.216,1.216,0,1,1,2.433,0Zm-6.082-21.894a6.082,6.082,0,1,1-6.082,6.082A6.085,6.085,0,0,1,203.908,75.433Z" transform="translate(0 5.193)" fill="#7ecfe7" fill-rule="evenodd"/>
    <path id="Trazado_1014249" data-name="Trazado 1014249" d="M237.136,63.89c-1.4,1.4-23.723,23.844-23.723,23.844a1.214,1.214,0,0,0-.353.856v4.865a1.215,1.215,0,0,0,1.216,1.216h4.865a1.216,1.216,0,0,0,.862-.359s11.155-11.228,18.546-18.652l.336.336a.609.609,0,0,1,0,.86l-4.718,4.718a3.041,3.041,0,0,0,0,4.3l1.143,1.142a1.216,1.216,0,1,0,1.72-1.72l-1.143-1.142a.609.609,0,0,1,0-.86l4.718-4.718a3.041,3.041,0,0,0,0-4.3l-.338-.339c1.424-1.43,2.625-2.633,3.453-3.463a3.041,3.041,0,0,0,0-4.3l-2.286-2.286A3.041,3.041,0,0,0,237.136,63.89Zm-5.829,9.3,3.146,3.145c-6.34,6.371-14.081,14.162-15.816,15.909h-3.143V89.093C217.222,87.353,224.964,79.561,231.308,73.186Zm4.862,1.421-3.145-3.144c2.462-2.473,4.575-4.594,5.832-5.852a.609.609,0,0,1,.86,0L242,67.9a.609.609,0,0,1,0,.86C240.743,70.014,238.63,72.135,236.169,74.606Z" transform="translate(4.349 3.029)" fill="#7ecfe7" fill-rule="evenodd"/>
  </g>
</svg>
