<svg xmlns="http://www.w3.org/2000/svg" xmlns:xlink="http://www.w3.org/1999/xlink" width="81.318" height="55.151" viewBox="0 0 81.318 55.151"><defs><clipPath id="a"><rect width="81.318" height="55.151" fill="none"/></clipPath></defs><g clip-path="url(#a)"><path d="M81.605,14.514V31.945A12.428,12.428,0,0,1,69.214,44.337H55.4l3.955,11.1-17.524-11.1H14.515A12.428,12.428,0,0,1,2.123,31.945V14.514A12.428,12.428,0,0,1,14.515,2.122h54.7A12.428,12.428,0,0,1,81.605,14.514" transform="translate(-1.205 -1.204)" fill="#fff"/><path d="M58.147,55.151a.922.922,0,0,1-.491-.142l-17.3-10.958H13.31A13.325,13.325,0,0,1,0,30.74V13.309A13.324,13.324,0,0,1,13.31,0h54.7a13.324,13.324,0,0,1,13.31,13.309V30.74a13.325,13.325,0,0,1-13.31,13.31H55.494l3.519,9.874a.919.919,0,0,1-.865,1.226M13.31,1.836A11.486,11.486,0,0,0,1.836,13.309V30.74A11.487,11.487,0,0,0,13.31,42.214H40.623a.922.922,0,0,1,.491.142l15.274,9.676-3.061-8.592a.919.919,0,0,1,.865-1.226H68.009A11.487,11.487,0,0,0,79.482,30.74V13.309A11.487,11.487,0,0,0,68.009,1.836Z" fill="#29275f"/><path d="M35.263,47.92A6.841,6.841,0,1,1,42.1,41.08a6.848,6.848,0,0,1-6.841,6.84m0-11.845a5,5,0,1,0,5,5,5.011,5.011,0,0,0-5-5" transform="translate(-16.127 -19.427)" fill="#29275f"/><path d="M82.229,47.92a6.841,6.841,0,1,1,6.84-6.84,6.848,6.848,0,0,1-6.84,6.84m0-11.845a5,5,0,1,0,5,5,5.011,5.011,0,0,0-5-5" transform="translate(-42.775 -19.427)" fill="#29275f"/><path d="M129.194,47.92a6.841,6.841,0,1,1,6.84-6.84,6.848,6.848,0,0,1-6.84,6.84m0-11.845a5,5,0,1,0,5,5,5.011,5.011,0,0,0-5-5" transform="translate(-69.422 -19.427)" fill="#29275f"/></g></svg>