<svg xmlns="http://www.w3.org/2000/svg" width="75.333" height="74.751" viewBox="0 0 75.333 74.751"><path d="M43.253,174.742a1.263,1.263,0,0,1-.521-.818l-1.321-7.514a28.942,28.942,0,0,1-7.49,0l-1.32,7.514a1.264,1.264,0,0,1-1.468,1.027,37.736,37.736,0,0,1-12.288-4.478,1.265,1.265,0,0,1-.463-1.73l3.792-6.561a29.1,29.1,0,0,1-5.783-4.8L10.6,162.238a1.266,1.266,0,0,1-1.785-.159A37.752,37.752,0,0,1,2.3,150.754a1.267,1.267,0,0,1,.756-1.622l6.967-2.54a28.581,28.581,0,0,1-1.374-7.441H1.266A1.266,1.266,0,0,1,0,137.874,38.213,38.213,0,0,1,2.3,125a1.266,1.266,0,0,1,1.622-.754l6.787,2.473a28.652,28.652,0,0,1,3.757-6.649l-5.493-4.613a1.264,1.264,0,0,1-.162-1.775,36.809,36.809,0,0,1,10.031-8.4,1.265,1.265,0,0,1,1.729.462l3.54,6.122a28.533,28.533,0,0,1,7.216-2.645l-1.22-6.952a1.265,1.265,0,0,1,1.076-1.473c.326-.045.651-.1.978-.149a21.394,21.394,0,0,1,2.276-.277l3.288-.154,3.173.154a21.133,21.133,0,0,1,2.268.277c.326.052.653.1.981.149a1.265,1.265,0,0,1,1.077,1.473L44,109.224a28.516,28.516,0,0,1,7.214,2.645l3.542-6.122a1.267,1.267,0,0,1,1.729-.462,36.771,36.771,0,0,1,10.028,8.4,1.266,1.266,0,0,1-.161,1.775l-5.492,4.613a28.737,28.737,0,0,1,3.757,6.649l6.788-2.474a1.267,1.267,0,0,1,1.623.755,38.281,38.281,0,0,1,2.3,12.872,1.266,1.266,0,0,1-1.266,1.276H66.685a28.6,28.6,0,0,1-1.376,7.441l6.967,2.54a1.266,1.266,0,0,1,.756,1.622,37.77,37.77,0,0,1-6.519,11.325,1.264,1.264,0,0,1-.86.45,1.282,1.282,0,0,1-.926-.29l-5.786-4.854a29.044,29.044,0,0,1-5.785,4.8l3.794,6.561a1.265,1.265,0,0,1-.463,1.73A37.741,37.741,0,0,1,44.2,174.951a1.268,1.268,0,0,1-.948-.208m7.09-12.369a1.265,1.265,0,0,1,.466-1.732,26.562,26.562,0,0,0,7.041-5.836,1.265,1.265,0,0,1,1.777-.15l5.738,4.813a35.176,35.176,0,0,0,4.834-8.4l-6.932-2.528a1.265,1.265,0,0,1-.752-1.634,26.1,26.1,0,0,0,1.673-9.031,1.266,1.266,0,0,1,1.266-1.257H72.77a35.746,35.746,0,0,0-1.7-9.552l-6.757,2.462a1.265,1.265,0,0,1-1.628-.772,26.241,26.241,0,0,0-4.549-8.061,1.266,1.266,0,0,1,.163-1.773l5.452-4.578a34.2,34.2,0,0,0-7.441-6.216l-3.519,6.086a1.27,1.27,0,0,1-.773.59,1.286,1.286,0,0,1-.963-.131,26.057,26.057,0,0,0-8.725-3.2,1.265,1.265,0,0,1-1.03-1.466l1.211-6.9a17.018,17.018,0,0,0-1.736-.208l-3.046-.154-3.161.154a16.909,16.909,0,0,0-1.74.208l1.211,6.9a1.264,1.264,0,0,1-1.03,1.466,26.046,26.046,0,0,0-8.726,3.2,1.267,1.267,0,0,1-1.736-.459l-3.519-6.086a34.244,34.244,0,0,0-7.441,6.216l5.452,4.578A1.266,1.266,0,0,1,17.2,120.7a26.226,26.226,0,0,0-4.549,8.061,1.266,1.266,0,0,1-1.628.772l-6.756-2.462a35.7,35.7,0,0,0-1.7,9.552H9.879a1.266,1.266,0,0,1,1.266,1.257,26.1,26.1,0,0,0,1.671,9.031,1.264,1.264,0,0,1-.752,1.634l-6.93,2.528a35.149,35.149,0,0,0,4.832,8.4l5.741-4.813a1.264,1.264,0,0,1,1.776.15,26.582,26.582,0,0,0,7.039,5.836,1.266,1.266,0,0,1,.466,1.732l-3.771,6.522a35.161,35.161,0,0,0,9.115,3.319l1.31-7.462a1.261,1.261,0,0,1,.519-.818,1.275,1.275,0,0,1,.946-.21,26.357,26.357,0,0,0,9.118,0,1.263,1.263,0,0,1,1.465,1.028L45,172.214a35.169,35.169,0,0,0,9.112-3.319ZM18.091,137.589a19.576,19.576,0,1,1,19.575,19.575,19.592,19.592,0,0,1-19.575-19.575m2.531,0a17.044,17.044,0,1,0,17.043-17.033,17.063,17.063,0,0,0-17.043,17.033" transform="translate(0 -100.219)" fill="#29275f"/></svg>