<svg xmlns="http://www.w3.org/2000/svg" xmlns:xlink="http://www.w3.org/1999/xlink" width="49.592" height="67.63" viewBox="0 0 49.592 67.63"><defs><clipPath id="a"><rect width="49.592" height="67.63" fill="none"/></clipPath></defs><g transform="translate(0 0)"><g transform="translate(0 0)" clip-path="url(#a)"><path d="M69.157,99.393c-.4,4.595-11.516,10.086-15.39,7.517,5.231-.025,11.948-3.913,15.3-7.23l0,0a.635.635,0,0,0,.076-.23c0-.005,0-.011,0-.014a.152.152,0,0,0,.008-.04" transform="translate(-21.917 -40.516)" fill="#fff"/><path d="M79.742,99.393a.152.152,0,0,1-.008.04.169.169,0,0,1,.008-.04" transform="translate(-32.502 -40.516)" fill="#fff"/><path d="M68.537,98.044a.3.3,0,0,1,.03.139.3.3,0,0,0-.01.054.679.679,0,0,1-.076.231l0,0a28.066,28.066,0,0,1-15.038,7.354c-.409.053-.932-1.6-1.121-1.82a31.644,31.644,0,0,0,15.419-7.58Z" transform="translate(-21.327 -39.306)" fill="#fff"/><path d="M79.742,99.393a.152.152,0,0,1-.008.04.169.169,0,0,1,.008-.04" transform="translate(-32.502 -40.516)" fill="#fff"/><path d="M66.691,92.26c1.51,3.783-12.939,9.773-16.088,9.614a1.773,1.773,0,0,1-1.444-2.65.009.009,0,0,0,0-.011,2.931,2.931,0,0,1,.265-.384c1.261,2.524,16.789-5.216,15.415-7.578a1.9,1.9,0,0,1,1.848,1.01" transform="translate(-19.938 -37.196)" fill="#fff"/><path d="M70.625,92.687a.015.015,0,0,1-.009.009l0,0Z" transform="translate(-28.785 -37.782)" fill="#fff"/><path d="M70.663,92.663c0,.005,0,.005-.006.007l0-.005Z" transform="translate(-28.802 -37.773)" fill="#fff"/><path d="M70.7,92.639c0,.005,0,.005-.005.007l0,0Z" transform="translate(-28.816 -37.763)" fill="#fff"/><path d="M70.739,92.609c0,.005-.005.007-.013.011l0,0Z" transform="translate(-28.829 -37.75)" fill="#fff"/><path d="M65,90.847c-.137,2.147-15.912,11.263-16.191,6a31.677,31.677,0,0,0,15.415-7.578c.144.291.644,1.306.776,1.58" transform="translate(-19.895 -36.388)" fill="#fff"/><path d="M51.429,94.116l-.014.007c.044-.012.089-.029.137-.043,0-.006.006-.007.009-.009-.046.017-.09.029-.133.044m10.919-5.367a.216.216,0,0,0-.031.028.245.245,0,0,0,.044-.03s-.009,0-.013,0" transform="translate(-20.958 -36.176)" fill="#fff"/><path d="M64.843,92.669l0,0m-8.358,4.3,0,0m8.374-4.317,0,0a.015.015,0,0,0,.009-.009Zm.028-.018,0,.005s0,0,.006-.007Zm.017-.012,0,0s0,0,.005-.007Zm.02-.014,0,0c.008,0,.011-.005.013-.011Z" transform="translate(-23.022 -37.75)" fill="#fff"/><path d="M63.108,85.105a1.7,1.7,0,0,0-.666-.619c-3.254,4.107-11.744,8.294-17,8.347.011,4.276,6.632.711,8.55.037,2.351-1.248,10.795-4.686,9.115-7.765m-2.752,4.248,0,0,.011-.005a.015.015,0,0,1-.009.009m.044-.03,0,0,0,0a0,0,0,0,1,0,.005m.02-.014,0,0,.015-.007c0,.005-.005.007-.013.011" transform="translate(-18.524 -34.439)" fill="#fff"/><path d="M70.625,92.687a.015.015,0,0,1-.009.009l0,0Z" transform="translate(-28.785 -37.782)" fill="#fff"/><path d="M70.663,92.663c0,.005,0,.005-.006.007l0-.005Z" transform="translate(-28.802 -37.773)" fill="#fff"/><path d="M70.7,92.639c0,.005,0,.005-.005.007l0,0Z" transform="translate(-28.816 -37.763)" fill="#fff"/><path d="M70.739,92.609c0,.005-.005.007-.013.011l0,0Z" transform="translate(-28.829 -37.75)" fill="#fff"/><path d="M45.326,26.294c2.061,4.76,2.535,10.355.086,15.118,0,0,0,0,0,.006-.07.147-.14.293-.217.438l0,0a14.253,14.253,0,0,0-1.007,9.419c0,.005,0,0,0,.009.418,1.338.83,2.813-.078,4.109-4.068,4.177-10.251,7-15.959,8.06-2.072.146-3.108-1.773-4.277-3.128a14.292,14.292,0,0,0-6.821-4.145c-.229-.065-.447-.114-.678-.161a0,0,0,0,0-.005,0,17.057,17.057,0,0,1-5.739-2.15l0,0C3.27,49.107-.267,39.483,1.392,30.995A23.09,23.09,0,0,1,29.535,12.857l0,0a22.781,22.781,0,0,1,6.534,2.708,23.122,23.122,0,0,1,9.256,10.725" transform="translate(-0.403 -4.973)" fill="#ffd256"/><path d="M56,107.725a5.287,5.287,0,0,1-2.947-.755.577.577,0,0,1,.316-1.057c4.828-.023,11.272-3.536,14.789-6.956a1.094,1.094,0,0,1,.044-.11.266.266,0,0,1,.009-.028.537.537,0,0,1,.629-.451.6.6,0,0,1,.5.656c-.25,2.836-3.85,5.533-6.858,6.982A15.987,15.987,0,0,1,56,107.725m10.548-5.9a29.513,29.513,0,0,1-9.249,4.644,17.925,17.925,0,0,0,9.249-4.644" transform="translate(-21.52 -40.095)" fill="#29275f"/><path d="M79.338,99.594a.5.5,0,0,1-.072,0,.576.576,0,0,1-.5-.52.7.7,0,0,1,.024-.238.553.553,0,0,1,.655-.448.6.6,0,0,1,.474.678.878.878,0,0,1-.036.15.576.576,0,0,1-.543.383" transform="translate(-32.106 -40.1)" fill="#29275f"/><path d="M52.994,106.007c-.631,0-.977-.792-1.343-1.627a3.837,3.837,0,0,0-.2-.424.544.544,0,0,1-.1-.556.574.574,0,0,1,.457-.36A31.087,31.087,0,0,0,66.94,95.6a.576.576,0,0,1,.908.17l.8,1.617a.853.853,0,0,1,.09.409.555.555,0,0,1-.033.179.8.8,0,0,1-.1.326.607.607,0,0,1-.118.172A28.464,28.464,0,0,1,53.094,106a.724.724,0,0,1-.1.007m-.018-1.153h0m-.216-.819a6.285,6.285,0,0,0,.4.8,27.79,27.79,0,0,0,14.392-7.053l-.4-.816a32.518,32.518,0,0,1-14.39,7.072M67.614,97.9h0Z" transform="translate(-20.92 -38.909)" fill="#29275f"/><path d="M79.338,99.594a.5.5,0,0,1-.072,0,.576.576,0,0,1-.5-.52.7.7,0,0,1,.024-.238.553.553,0,0,1,.655-.448.6.6,0,0,1,.474.678.878.878,0,0,1-.036.15.576.576,0,0,1-.543.383" transform="translate(-32.106 -40.1)" fill="#29275f"/><path d="M50.318,102.056c-.05,0-.1,0-.143,0a2.285,2.285,0,0,1-1.949-1.241,2.235,2.235,0,0,1,.026-2.26c.005-.012.014-.025.02-.037a3.686,3.686,0,0,1,.318-.457.553.553,0,0,1,.509-.2.574.574,0,0,1,.446.314c.04.079.243.165.613.179,3.171.1,12.206-4.4,13.661-6.819.132-.221.149-.354.127-.391a.576.576,0,0,1,.472-.865,2.436,2.436,0,0,1,2.4,1.345l.012.027a2.658,2.658,0,0,1-.521,2.594c-2.6,3.639-12.986,7.813-15.989,7.813M49.16,99.3a1.131,1.131,0,0,0,.081.961,1.154,1.154,0,0,0,.97.636c2.619.13,12.736-3.944,15.157-7.328a1.614,1.614,0,0,0,.393-1.482,1.153,1.153,0,0,0-.695-.578,2.194,2.194,0,0,1-.261.615c-1.66,2.757-11.132,7.485-14.694,7.376a2.481,2.481,0,0,1-.953-.2" transform="translate(-19.539 -36.799)" fill="#29275f"/><path d="M70.221,92.878a.579.579,0,0,1-.261-1.095.585.585,0,0,1,.655.089.576.576,0,0,1,.15.636.611.611,0,0,1-.243.287.581.581,0,0,1-.3.084m-.008-.591-.29-.479Z" transform="translate(-28.389 -37.389)" fill="#29275f"/><path d="M70.26,92.851a.575.575,0,0,1-.535-.79.594.594,0,0,1,.217-.271.577.577,0,0,1,.858.691.606.606,0,0,1-.221.274.571.571,0,0,1-.32.1m-.008-.589L69.94,91.8Z" transform="translate(-28.405 -37.377)" fill="#29275f"/><path d="M70.3,92.827a.57.57,0,0,1-.221-.044.579.579,0,1,1,.786-.4.6.6,0,0,1-.307.383.577.577,0,0,1-.258.06m0-.585-.254-.506Z" transform="translate(-28.419 -37.368)" fill="#29275f"/><path d="M70.329,92.8a.584.584,0,0,1-.237-.051.579.579,0,0,1-.007-1.053.585.585,0,0,1,.646.1.571.571,0,0,1,.145.628.616.616,0,0,1-.32.327.591.591,0,0,1-.227.046m0-.595-.22-.514Z" transform="translate(-28.433 -37.358)" fill="#29275f"/><path d="M50.485,98.638h-.027c-2.183-.012-2.581-1.358-2.622-2.16a.575.575,0,0,1,.477-.6,31.218,31.218,0,0,0,15.121-7.433.564.564,0,0,1,.5-.144.575.575,0,0,1,.413.313l.777,1.583a.571.571,0,0,1,.056.288c-.138,2.165-10.209,8.152-14.692,8.152m-1.39-1.73c.14.291.453.524,1.15.569,3.921.259,13.061-5.467,13.746-6.963l-.347-.707a32.724,32.724,0,0,1-14.549,7.1" transform="translate(-19.499 -35.991)" fill="#29275f"/><path d="M47.13,95.08a2.948,2.948,0,0,1-1.647-.421,2.483,2.483,0,0,1-1.014-2.221.577.577,0,0,1,.571-.578c5.048-.05,13.4-4.152,16.554-8.128a.581.581,0,0,1,.72-.153,2.259,2.259,0,0,1,.886.823c.006.01.012.02.017.03a2.292,2.292,0,0,1,.169,1.861c-.723,2.255-4.446,4.218-8.2,6.035-.531.258-.987.479-1.32.655-.361.134-.749.3-1.2.49A16.228,16.228,0,0,1,47.13,95.08m-1.452-2.091a1.019,1.019,0,0,0,.44.707c1.195.79,4.382-.56,6.1-1.285.48-.2.892-.377,1.19-.482.264-.146.732-.374,1.279-.639,2.437-1.179,6.971-3.376,7.6-5.35A1.145,1.145,0,0,0,62.213,85a1.233,1.233,0,0,0-.082-.114c-3.465,3.956-11.208,7.767-16.454,8.1" transform="translate(-18.127 -34.043)" fill="#29275f"/><path d="M70.22,92.878a.577.577,0,0,1-.481-.256l0,0a.58.58,0,1,1,1.026-.111.613.613,0,0,1-.243.287.581.581,0,0,1-.3.084" transform="translate(-28.387 -37.389)" fill="#29275f"/><path d="M70.294,92.828a.585.585,0,0,1-.221-.044.579.579,0,0,1-.326-.351v0a.579.579,0,0,1,1.03-.5.58.58,0,0,1-.224.841.57.57,0,0,1-.258.061m0-.581-.256-.511Z" transform="translate(-28.419 -37.368)" fill="#29275f"/><path d="M70.328,92.8a.579.579,0,0,1-.547-.394v0a.578.578,0,0,1,.305-.706.586.586,0,0,1,.647.1.574.574,0,0,1,.145.629.616.616,0,0,1-.321.326.591.591,0,0,1-.227.046" transform="translate(-28.433 -37.358)" fill="#29275f"/><path d="M70.221,92.878a.579.579,0,0,1-.261-1.095.585.585,0,0,1,.655.089.576.576,0,0,1,.15.636.611.611,0,0,1-.243.287.581.581,0,0,1-.3.084m-.008-.591-.29-.479Z" transform="translate(-28.389 -37.389)" fill="#29275f"/><path d="M70.26,92.851a.575.575,0,0,1-.535-.79.594.594,0,0,1,.217-.271.577.577,0,0,1,.858.691.606.606,0,0,1-.221.274.571.571,0,0,1-.32.1m-.008-.589L69.94,91.8Z" transform="translate(-28.405 -37.377)" fill="#29275f"/><path d="M70.3,92.827a.57.57,0,0,1-.221-.044.579.579,0,1,1,.786-.4.6.6,0,0,1-.307.383.577.577,0,0,1-.258.06m0-.585-.254-.506Z" transform="translate(-28.419 -37.368)" fill="#29275f"/><path d="M70.329,92.8a.584.584,0,0,1-.237-.051.579.579,0,0,1-.007-1.053.585.585,0,0,1,.646.1.571.571,0,0,1,.145.628.616.616,0,0,1-.32.327.591.591,0,0,1-.227.046m0-.595-.22-.514Z" transform="translate(-28.433 -37.358)" fill="#29275f"/><path d="M27.56,63.64c-1.887,0-2.964-1.369-3.921-2.584-.2-.256-.4-.509-.6-.745a13.788,13.788,0,0,0-6.53-3.965c-.227-.065-.431-.11-.648-.154a17.54,17.54,0,0,1-5.94-2.232l-.038-.025C2.542,49.169-1.345,39.536.424,30.49A23.665,23.665,0,0,1,29.269,11.9a.637.637,0,0,1,.068.021,23.414,23.414,0,0,1,6.634,2.76,23.8,23.8,0,0,1,9.483,10.99c2.349,5.425,2.376,11.109.076,15.595l0,0c-.065.137-.131.275-.2.411l-.014.034a13.674,13.674,0,0,0-.963,9.042v.008c.4,1.278.922,3.011-.171,4.566a31.319,31.319,0,0,1-16.326,8.3c-.1.008-.2.011-.293.011M16.033,55.053a.593.593,0,0,1,.124.027c.177.033.407.084.652.154a14.735,14.735,0,0,1,7.084,4.308c.229.264.44.53.653.8.907,1.153,1.76,2.253,3.162,2.144A30.138,30.138,0,0,0,43.294,54.6c.662-.957.381-2.12-.06-3.533a.8.8,0,0,1-.02-.094,14.821,14.821,0,0,1,1.037-9.712.425.425,0,0,1,.03-.068c.07-.134.134-.268.2-.4a.189.189,0,0,1,.017-.035c2.148-4.181,2.112-9.513-.1-14.627l0,0A22.636,22.636,0,0,0,35.373,15.67,22.3,22.3,0,0,0,29,13.027a.576.576,0,0,1-.064-.021,22.517,22.517,0,0,0-27.376,17.7C-.127,39.32,3.567,48.48,10.539,52.988l.033.024a16.577,16.577,0,0,0,5.461,2.041" transform="translate(0 -4.58)" fill="#29275f"/><path d="M39.227,34.053a24.633,24.633,0,0,1,4.864-.075,17.827,17.827,0,0,1,.5,6.939,27.711,27.711,0,0,1-4.79.662,12.38,12.38,0,0,1-.846,2.566,29.031,29.031,0,0,1,3.458,3.382,17.727,17.727,0,0,1-4.526,5.282,26.772,26.772,0,0,1-3.848-2.918c-.39.227-.793.43-1.2.633s-.806.406-1.22.585a29,29,0,0,1,.069,4.822,18.212,18.212,0,0,1-6.975.515,29.114,29.114,0,0,1-.638-4.8,12.33,12.33,0,0,1-2.554-.852,28.768,28.768,0,0,1-3.394,3.464,17.794,17.794,0,0,1-5.27-4.533,29.1,29.1,0,0,1,2.918-3.847c-.239-.385-.466-.776-.668-1.178s-.383-.817-.55-1.238a30.275,30.275,0,0,1-4.822.069,17.586,17.586,0,0,1-.509-6.932,25.229,25.229,0,0,1,4.8-.68,12.327,12.327,0,0,1,.834-2.56,29.1,29.1,0,0,1-3.481-3.369A18.183,18.183,0,0,1,15.943,24.7a29.006,29.006,0,0,1,3.836,2.924c.385-.238.788-.441,1.19-.644s.806-.406,1.226-.573a29.153,29.153,0,0,1-.057-4.828,17.692,17.692,0,0,1,6.932-.509,29.04,29.04,0,0,1,.662,4.791A12.359,12.359,0,0,1,32.3,26.7a24.426,24.426,0,0,1,3.388-3.446,17.637,17.637,0,0,1,5.282,4.526,28.829,28.829,0,0,1-2.959,3.854,7.7,7.7,0,0,1,.68,1.172,7.685,7.685,0,0,1,.538,1.244" transform="translate(-3.704 -8.531)" fill="#fff"/><path d="M26.477,56.756a19.412,19.412,0,0,1-2.225-.13.577.577,0,0,1-.5-.453,29.487,29.487,0,0,1-.626-4.466,12.992,12.992,0,0,1-1.847-.61A28.117,28.117,0,0,1,18.1,54.3a.574.574,0,0,1-.654.062A18.336,18.336,0,0,1,12,49.679a.577.577,0,0,1-.029-.667,30.632,30.632,0,0,1,2.691-3.6c-.165-.28-.326-.562-.472-.851s-.277-.585-.4-.885A30.607,30.607,0,0,1,9.3,43.7a.578.578,0,0,1-.52-.42,18.335,18.335,0,0,1-.521-7.164A.576.576,0,0,1,8.7,35.63a26.362,26.362,0,0,1,4.463-.661,13.191,13.191,0,0,1,.607-1.84,29.258,29.258,0,0,1-3.217-3.16.575.575,0,0,1-.068-.666,18.783,18.783,0,0,1,4.708-5.461.574.574,0,0,1,.666-.03,30.936,30.936,0,0,1,3.6,2.7c.283-.155.572-.3.86-.446s.576-.291.871-.425a30.553,30.553,0,0,1-.025-4.5.576.576,0,0,1,.42-.519,18.355,18.355,0,0,1,7.161-.521.576.576,0,0,1,.489.44A28.048,28.048,0,0,1,29.887,25a13.192,13.192,0,0,1,1.846.607,25.574,25.574,0,0,1,3.188-3.193.581.581,0,0,1,.655-.062,18.343,18.343,0,0,1,5.447,4.68.577.577,0,0,1,.029.667,29.116,29.116,0,0,1-2.709,3.6c.168.281.31.565.451.842.151.3.3.592.425.9a26.07,26.07,0,0,1,4.519-.033.578.578,0,0,1,.509.419,18.347,18.347,0,0,1,.521,7.163.576.576,0,0,1-.439.489,27.367,27.367,0,0,1-4.462.656,13.426,13.426,0,0,1-.611,1.852,28.008,28.008,0,0,1,3.2,3.177.575.575,0,0,1,.062.655,18.318,18.318,0,0,1-4.679,5.447.575.575,0,0,1-.658.035,26.916,26.916,0,0,1-3.613-2.7c-.283.156-.571.3-.859.447s-.581.293-.871.424a30.553,30.553,0,0,1,.025,4.5.576.576,0,0,1-.42.519,18.529,18.529,0,0,1-4.965.668M24.8,55.524a17.641,17.641,0,0,0,5.936-.441,28.3,28.3,0,0,0-.083-4.317A.575.575,0,0,1,31,50.173c.4-.163.783-.357,1.168-.551.406-.2.8-.4,1.17-.627a.572.572,0,0,1,.687.068A26.051,26.051,0,0,0,37.445,51.7a17.2,17.2,0,0,0,3.864-4.5,28.418,28.418,0,0,0-3.122-3.012.577.577,0,0,1-.154-.681,11.924,11.924,0,0,0,.806-2.444.577.577,0,0,1,.534-.456,26.829,26.829,0,0,0,4.3-.564,17.19,17.19,0,0,0-.429-5.918,24.938,24.938,0,0,0-4.34.105.564.564,0,0,1-.613-.394,8.337,8.337,0,0,0-.509-1.151,8.638,8.638,0,0,0-.63-1.111.576.576,0,0,1,.047-.726,26.734,26.734,0,0,0,2.662-3.432,17.22,17.22,0,0,0-4.5-3.861,23.679,23.679,0,0,0-3,3.111.574.574,0,0,1-.692.167,11.815,11.815,0,0,0-2.444-.806.576.576,0,0,1-.456-.528,28.453,28.453,0,0,0-.565-4.3,17.207,17.207,0,0,0-5.91.427,28.316,28.316,0,0,0,.083,4.318.575.575,0,0,1-.354.592c-.405.165-.794.363-1.182.56s-.781.392-1.156.618A.571.571,0,0,1,19,27.643a28.341,28.341,0,0,0-3.42-2.635,17.651,17.651,0,0,0-3.886,4.511,27.3,27.3,0,0,0,3.139,2.992.574.574,0,0,1,.162.689,11.815,11.815,0,0,0-.805,2.442.577.577,0,0,1-.539.457,24.907,24.907,0,0,0-4.292.563,17.181,17.181,0,0,0,.427,5.913,28.268,28.268,0,0,0,4.317-.085.566.566,0,0,1,.593.354c.176.428.337.821.528,1.2s.424.765.65,1.14a.576.576,0,0,1-.068.687,28.129,28.129,0,0,0-2.636,3.421,17.194,17.194,0,0,0,4.5,3.86,28.622,28.622,0,0,0,3.013-3.125.578.578,0,0,1,.683-.152,11.77,11.77,0,0,0,2.441.805.577.577,0,0,1,.457.54,27.507,27.507,0,0,0,.538,4.3" transform="translate(-3.308 -8.135)" fill="#29275f"/><path d="M32.961,53.832a9.052,9.052,0,1,1,4.057-.972,9.031,9.031,0,0,1-4.057.972M32.94,36.915a7.88,7.88,0,1,0,7.05,4.332,7.83,7.83,0,0,0-7.05-4.332" transform="translate(-9.749 -14.575)" fill="#29275f"/><path d="M65.124,9.72a.577.577,0,0,1-.472-.909L69.872,1.4a.577.577,0,0,1,.944.664L65.6,9.476a.577.577,0,0,1-.472.244" transform="translate(-26.312 -0.47)" fill="#29275f"/><path d="M56.167,7.348a.558.558,0,0,1-.063,0,.576.576,0,0,1-.511-.635L56.259.515a.576.576,0,1,1,1.146.124l-.666,6.194a.577.577,0,0,1-.572.515" transform="translate(-22.66 0)" fill="#29275f"/><path d="M46.318,5.917a.578.578,0,0,1-.567-.479l-.7-4.07a.577.577,0,0,1,1.137-.2l.7,4.069a.579.579,0,0,1-.471.667.629.629,0,0,1-.1.008" transform="translate(-18.362 -0.283)" fill="#29275f"/><path d="M72.025,18.062a.576.576,0,0,1-.363-1.025l4.6-3.726a.576.576,0,0,1,.725.9l-4.6,3.726a.572.572,0,0,1-.363.129" transform="translate(-29.125 -5.374)" fill="#29275f"/><path d="M76.763,27.618a.577.577,0,0,1-.21-1.114l3.308-1.294a.577.577,0,1,1,.421,1.074l-3.308,1.294a.584.584,0,0,1-.21.039" transform="translate(-31.056 -10.26)" fill="#29275f"/></g></g></svg>