<svg xmlns="http://www.w3.org/2000/svg" xmlns:xlink="http://www.w3.org/1999/xlink" width="159.087" height="155.372" viewBox="0 0 159.087 155.372">
  <defs>
    <clipPath id="clip-path">
      <rect id="Rect치ngulo_421152" data-name="Rect치ngulo 421152" width="134.74" height="155.372" fill="none"/>
    </clipPath>
    <clipPath id="clip-path-3">
      <rect id="Rect치ngulo_421150" data-name="Rect치ngulo 421150" width="5.36" height="5.99" fill="none"/>
    </clipPath>
  </defs>
  <g id="Grupo_1175233" data-name="Grupo 1175233" transform="translate(-340 -999.283)">
    <circle id="Elipse_12767" data-name="Elipse 12767" cx="52" cy="52" r="52" transform="translate(340 1008)" fill="#ffd256"/>
    <g id="Grupo_1175240" data-name="Grupo 1175240" transform="translate(364.348 999.283)">
      <g id="Grupo_1175239" data-name="Grupo 1175239" clip-path="url(#clip-path)">
        <g id="Grupo_1175238" data-name="Grupo 1175238">
          <g id="Grupo_1175237" data-name="Grupo 1175237" clip-path="url(#clip-path)">
            <path id="Trazado_1038759" data-name="Trazado 1038759" d="M108.651,53.375a3.454,3.454,0,1,0-.3,5.152,3.313,3.313,0,0,0,.3-.268,3.453,3.453,0,0,0,0-4.884m-4.1,4.1a2.341,2.341,0,1,1,3.311,0,2.342,2.342,0,0,1-3.311,0" transform="translate(-58.241 -29.68)" fill="#fcb857"/>
            <path id="Trazado_1038760" data-name="Trazado 1038760" d="M35.529,84.9a.356.356,0,0,1-.357-.356c0-.953.026-1.918.079-2.868a.356.356,0,0,1,.712.039c-.052.937-.078,1.889-.078,2.829a.356.356,0,0,1-.357.356M136.922,82.28a.357.357,0,0,1-.356-.338c-.047-.931-.122-1.88-.222-2.821a.356.356,0,0,1,.317-.392.364.364,0,0,1,.392.316c.1.954.178,1.917.225,2.86a.355.355,0,0,1-.337.374h-.018M35.845,79.21l-.041,0a.357.357,0,0,1-.315-.394c.105-.944.24-1.9.4-2.841a.356.356,0,1,1,.7.118c-.157.928-.289,1.871-.392,2.8a.357.357,0,0,1-.353.317m100.471-2.595a.355.355,0,0,1-.351-.3c-.155-.935-.335-1.87-.538-2.779a.356.356,0,1,1,.7-.155c.205.922.389,1.87.545,2.818a.356.356,0,0,1-.294.409.329.329,0,0,1-.058,0M36.793,73.593a.338.338,0,0,1-.079-.009.356.356,0,0,1-.268-.427c.21-.925.451-1.861.716-2.779a.356.356,0,1,1,.685.2c-.26.906-.5,1.828-.706,2.74a.357.357,0,0,1-.347.277m98.284-2.539a.356.356,0,0,1-.343-.259c-.256-.9-.54-1.811-.847-2.7a.356.356,0,1,1,.674-.233c.311.9.6,1.823.86,2.738a.356.356,0,0,1-.246.44.353.353,0,0,1-.1.013M38.37,68.117a.348.348,0,0,1-.117-.02.356.356,0,0,1-.219-.454c.313-.9.659-1.8,1.027-2.685a.356.356,0,1,1,.658.273c-.363.874-.7,1.765-1.013,2.648a.356.356,0,0,1-.336.238m94.848-2.448a.356.356,0,0,1-.33-.221c-.352-.861-.737-1.73-1.145-2.583a.357.357,0,0,1,.643-.308c.413.866.8,1.747,1.161,2.62a.356.356,0,0,1-.33.492M40.559,62.847a.356.356,0,0,1-.321-.512c.413-.853.858-1.712,1.323-2.551a.356.356,0,1,1,.624.345c-.459.828-.9,1.673-1.305,2.516a.355.355,0,0,1-.321.2m90.207-2.313a.357.357,0,0,1-.313-.185c-.457-.831-.937-1.651-1.429-2.439a.356.356,0,1,1,.6-.377c.5.8.987,1.632,1.45,2.473a.355.355,0,0,1-.312.528M43.327,57.86a.352.352,0,0,1-.19-.055.356.356,0,0,1-.112-.491c.51-.807,1.048-1.609,1.6-2.384a.356.356,0,1,1,.58.414c-.545.765-1.076,1.556-1.579,2.351a.355.355,0,0,1-.3.166m84.425-2.154a.356.356,0,0,1-.291-.151c-.542-.767-1.111-1.529-1.693-2.266a.356.356,0,0,1,.558-.443c.591.747,1.169,1.52,1.717,2.3a.356.356,0,0,1-.291.561M46.636,53.216a.357.357,0,0,1-.279-.579c.6-.746,1.223-1.482,1.857-2.19a.356.356,0,0,1,.53.476c-.625.7-1.241,1.424-1.83,2.16a.358.358,0,0,1-.279.133m77.581-1.975a.355.355,0,0,1-.267-.12c-.622-.7-1.274-1.395-1.937-2.063a.357.357,0,1,1,.507-.5c.672.678,1.333,1.382,1.964,2.093a.357.357,0,0,1-.266.593M50.442,48.973a.356.356,0,0,1-.252-.608c.679-.678,1.381-1.34,2.089-1.97a.356.356,0,0,1,.473.532c-.7.621-1.39,1.274-2.059,1.941a.354.354,0,0,1-.252.1M120.2,47.2a.357.357,0,0,1-.239-.092c-.691-.624-1.417-1.241-2.155-1.835a.357.357,0,0,1,.447-.556c.749.6,1.484,1.229,2.186,1.862a.356.356,0,0,1-.239.621M54.694,45.182a.356.356,0,0,1-.222-.635c.749-.594,1.52-1.174,2.294-1.723a.357.357,0,0,1,.412.583c-.764.54-1.524,1.112-2.262,1.7a.355.355,0,0,1-.222.077m61.065-1.557a.351.351,0,0,1-.208-.067c-.759-.544-1.55-1.077-2.348-1.584a.356.356,0,0,1,.382-.6c.81.514,1.611,1.055,2.381,1.606a.357.357,0,0,1-.207.646M59.34,41.891a.356.356,0,0,1-.189-.658c.805-.505,1.637-.995,2.471-1.456a.356.356,0,0,1,.344.624c-.823.454-1.642.937-2.436,1.435a.352.352,0,0,1-.19.054m51.6-1.322a.354.354,0,0,1-.173-.045c-.819-.457-1.664-.9-2.513-1.31a.356.356,0,0,1,.312-.641c.86.418,1.718.866,2.548,1.329a.356.356,0,0,1-.173.668M64.323,39.144a.357.357,0,0,1-.155-.678c.853-.41,1.733-.8,2.617-1.167a.356.356,0,1,1,.272.658c-.872.36-1.74.747-2.58,1.152a.364.364,0,0,1-.155.035m41.49-1.069a.353.353,0,0,1-.137-.028c-.874-.365-1.764-.708-2.646-1.018a.356.356,0,1,1,.237-.672c.9.316,1.8.663,2.684,1.034a.356.356,0,0,1-.137.685m-36.227-1.1a.357.357,0,0,1-.117-.694c.9-.312,1.818-.6,2.736-.865a.356.356,0,1,1,.2.685c-.905.259-1.813.546-2.7.854a.364.364,0,0,1-.117.019m30.849-.8a.346.346,0,0,1-.1-.014c-.906-.263-1.828-.5-2.739-.712a.356.356,0,1,1,.16-.694c.924.212,1.858.455,2.778.722a.356.356,0,0,1-.1.7m-25.371-.768a.356.356,0,0,1-.078-.7c.92-.208,1.868-.394,2.817-.552a.356.356,0,1,1,.117.7c-.935.157-1.87.34-2.776.544a.352.352,0,0,1-.079.009M94.883,34.9a.372.372,0,0,1-.062,0c-.925-.16-1.868-.294-2.8-.4a.357.357,0,0,1-.314-.4.36.36,0,0,1,.395-.314c.947.108,1.9.244,2.841.405a.356.356,0,0,1-.06.708m-14.2-.428a.356.356,0,0,1-.038-.71c.953-.1,1.916-.182,2.86-.231a.351.351,0,0,1,.375.337.356.356,0,0,1-.337.374c-.931.049-1.88.126-2.821.228a.286.286,0,0,1-.039,0m8.539-.217H89.2c-.937-.053-1.888-.082-2.829-.084a.356.356,0,0,1,0-.712h0c.954,0,1.919.03,2.868.085a.357.357,0,0,1-.02.713" transform="translate(-19.935 -18.963)" fill="#252260"/>
            <path id="Trazado_1038761" data-name="Trazado 1038761" d="M51.52,72.69a3.532,3.532,0,0,0-1.471,3.277h0a12.8,12.8,0,0,0,.995,4.61,21.645,21.645,0,0,0,2.75,4.915A12.792,12.792,0,0,0,57.2,88.752c1.328.8,2.586,1.008,3.563.461,2.215-1.239,1.9-5.726-.738-10.435s-6.294-7.327-8.509-6.088m8.473,15.14c-.838.469-2.885-.6-4.893-3.239a19.917,19.917,0,0,1-2.6-4.653c-1.2-3.094-1.041-5.4-.2-5.866,1.044-.585,3.966,1.216,6.352,5.479s2.392,7.694,1.347,8.278" transform="translate(-28.367 -41.026)" fill="#fcb857"/>
            <path id="Trazado_1038762" data-name="Trazado 1038762" d="M60.714,81.622c2.385,4.261,2.392,7.694,1.347,8.278-.838.469-2.885-.6-4.893-3.239a11.775,11.775,0,0,1,1.062-.587,1.035,1.035,0,0,0,.582-1.013,4.788,4.788,0,0,0-2.024-3.618,1.032,1.032,0,0,0-1.168-.032,11.72,11.72,0,0,1-1.055.6c-1.2-3.094-1.041-5.4-.2-5.866,1.044-.584,3.966,1.217,6.352,5.479" transform="translate(-30.436 -43.096)" fill="#fff"/>
            <path id="Trazado_1038763" data-name="Trazado 1038763" d="M59.346,89.838a5.084,5.084,0,0,1,.6,2.039,1.035,1.035,0,0,1-.583,1.013,11.829,11.829,0,0,0-1.061.587,19.94,19.94,0,0,1-2.6-4.653,11.835,11.835,0,0,0,1.056-.6,1.032,1.032,0,0,1,1.167.032,5.08,5.08,0,0,1,1.424,1.579" transform="translate(-31.569 -49.913)" fill="#fcb857"/>
            <path id="Trazado_1038764" data-name="Trazado 1038764" d="M42.814,90.184a12.792,12.792,0,0,0,3.409,3.258,46.718,46.718,0,0,0-10.2,2.179c-.471.166-.938.345-1.4.537,0,0-1.317-.542-2.74-3.085-1.391-2.486-1.206-3.886-1.2-3.948v0a44.054,44.054,0,0,0,8.38-8.464,12.8,12.8,0,0,0,.995,4.611,21.654,21.654,0,0,0,2.75,4.914" transform="translate(-17.387 -45.717)" fill="#fff"/>
            <path id="Trazado_1038765" data-name="Trazado 1038765" d="M29.752,107.235c-.671.279-1.322.586-1.943.921-.362.2-.714.4-1.053.62a1.511,1.511,0,0,1-1.71-.047,7.011,7.011,0,0,1-2.965-5.3,1.51,1.51,0,0,1,.854-1.482,19.634,19.634,0,0,0,2.879-1.747c-.008.062-.194,1.462,1.2,3.948,1.423,2.542,2.74,3.084,2.74,3.084" transform="translate(-12.513 -56.794)" fill="#fcb857"/>
            <path id="Trazado_1038766" data-name="Trazado 1038766" d="M42.068,119.851a4.178,4.178,0,0,1-.643,2.81l-1.115.2s-1.082-.058-3.145-3.064a20.237,20.237,0,0,1-1.858-3.142,21.354,21.354,0,0,1,1.943-.921c.457-.192.924-.371,1.4-.537.367.613.848.717,1.126,1.145a3.224,3.224,0,0,0,2.3,3.508" transform="translate(-20.012 -65.293)" fill="#fff"/>
            <path id="Trazado_1038767" data-name="Trazado 1038767" d="M59.078,89.414a4.968,4.968,0,0,1-2.526-.823,13.171,13.171,0,0,1-3.509-3.348,21.994,21.994,0,0,1-2.8-5,13.2,13.2,0,0,1-1.02-4.722c0-.007,0-.014,0-.022.01-1.747.582-2.986,1.653-3.587,1.2-.669,2.789-.374,4.478.834a18.9,18.9,0,0,1,6.749,12.059c.146,2.072-.433,3.582-1.631,4.252a2.817,2.817,0,0,1-1.4.355m-9.14-13.93a.188.188,0,0,1,0,.022,12.427,12.427,0,0,0,.97,4.478,20.568,20.568,0,0,0,1.193,2.5,20.827,20.827,0,0,0,1.509,2.327,12.444,12.444,0,0,0,3.308,3.167,3.288,3.288,0,0,0,3.206.455c.944-.528,1.393-1.8,1.268-3.58a18.213,18.213,0,0,0-6.452-11.529c-1.451-1.038-2.771-1.319-3.715-.791a3.274,3.274,0,0,0-1.288,2.948" transform="translate(-27.901 -40.562)" fill="#252260"/>
            <path id="Trazado_1038768" data-name="Trazado 1038768" d="M61.13,89.9c-1.229,0-3.074-1.334-4.712-3.489a20.262,20.262,0,0,1-2.652-4.74c-1.171-3.012-1.19-5.664-.045-6.3,1.359-.759,4.43,1.317,6.837,5.616s2.568,8,1.211,8.764a1.3,1.3,0,0,1-.639.154m.465-.465h0ZM54.37,75.92a.616.616,0,0,0-.3.067c-.6.337-.811,2.41.361,5.425a19.591,19.591,0,0,0,2.555,4.566c1.958,2.576,3.831,3.481,4.436,3.144.743-.416.893-3.544-1.485-7.793-2.127-3.8-4.547-5.409-5.567-5.409" transform="translate(-29.969 -42.629)" fill="#252260"/>
            <path id="Trazado_1038769" data-name="Trazado 1038769" d="M61.13,89.9c-1.229,0-3.074-1.333-4.712-3.489a.358.358,0,0,1,.1-.519,12.118,12.118,0,0,1,1.093-.6.677.677,0,0,0,.383-.664,4.433,4.433,0,0,0-1.88-3.359.672.672,0,0,0-.765-.02,12.349,12.349,0,0,1-1.087.617.356.356,0,0,1-.492-.19c-1.171-3.012-1.19-5.664-.045-6.305,1.36-.759,4.43,1.317,6.837,5.616s2.568,8,1.21,8.764a1.291,1.291,0,0,1-.639.154m-3.9-3.606c1.868,2.335,3.617,3.152,4.19,2.83.743-.416.893-3.544-1.485-7.793s-5.122-5.758-5.866-5.342c-.577.322-.793,2.239.221,5.052.233-.127.458-.259.671-.4a1.379,1.379,0,0,1,1.57.045A5.138,5.138,0,0,1,58.7,84.563a1.382,1.382,0,0,1-.782,1.363c-.228.111-.457.234-.688.366" transform="translate(-29.969 -42.629)" fill="#252260"/>
            <path id="Trazado_1038770" data-name="Trazado 1038770" d="M57.836,93.365a.354.354,0,0,1-.283-.141,20.224,20.224,0,0,1-2.653-4.74.357.357,0,0,1,.172-.447,11.183,11.183,0,0,0,1.023-.579,1.38,1.38,0,0,1,1.57.045,5.144,5.144,0,0,1,2.169,3.875,1.382,1.382,0,0,1-.782,1.363c-.34.166-.686.357-1.029.57a.357.357,0,0,1-.188.054m-2.154-4.842a19.829,19.829,0,0,0,2.246,4.013c.272-.159.544-.3.812-.435a.677.677,0,0,0,.384-.664,4.433,4.433,0,0,0-1.88-3.359.672.672,0,0,0-.765-.02c-.253.162-.519.318-.8.466" transform="translate(-31.103 -49.444)" fill="#252260"/>
            <path id="Trazado_1038771" data-name="Trazado 1038771" d="M34.161,96.047a.36.36,0,0,1-.136-.027c-.058-.024-1.45-.619-2.916-3.24-1.411-2.521-1.261-4.009-1.239-4.17a.348.348,0,0,1,.034-.112.359.359,0,0,1,.11-.131,43.576,43.576,0,0,0,8.306-8.393.357.357,0,0,1,.639.219,12.437,12.437,0,0,0,.97,4.478,20.572,20.572,0,0,0,1.194,2.5A20.827,20.827,0,0,0,42.634,89.5a12.459,12.459,0,0,0,3.309,3.167.356.356,0,0,1-.147.659,46.546,46.546,0,0,0-10.12,2.162c-.466.163-.926.34-1.377.528a.356.356,0,0,1-.138.028m-3.593-7.2a7.391,7.391,0,0,0,1.163,3.585A7.456,7.456,0,0,0,34.178,95.3c.414-.17.835-.33,1.26-.479a46,46,0,0,1,9.331-2.089,14.543,14.543,0,0,1-2.7-2.8,21.959,21.959,0,0,1-2.8-5,14.533,14.533,0,0,1-.971-3.769,43.213,43.213,0,0,1-7.728,7.683" transform="translate(-16.922 -45.25)" fill="#252260"/>
            <path id="Trazado_1038772" data-name="Trazado 1038772" d="M25.465,108.909a1.85,1.85,0,0,1-1.1-.36,7.366,7.366,0,0,1-3.109-5.555,1.855,1.855,0,0,1,1.054-1.833,19.421,19.421,0,0,0,2.826-1.714.356.356,0,0,1,.561.336c-.007.055-.165,1.368,1.155,3.727a6.765,6.765,0,0,0,2.565,2.929.356.356,0,0,1,0,.658,21.125,21.125,0,0,0-1.911.906c-.353.193-.7.4-1.031.607a1.88,1.88,0,0,1-1.015.3m-.46-8.5a19.318,19.318,0,0,1-2.38,1.392,1.147,1.147,0,0,0-.655,1.132,6.655,6.655,0,0,0,2.821,5.039,1.149,1.149,0,0,0,1.307.035q.52-.331,1.075-.632c.431-.233.885-.457,1.356-.669A10.958,10.958,0,0,1,25,100.41" transform="translate(-12.046 -56.327)" fill="#252260"/>
            <path id="Trazado_1038773" data-name="Trazado 1038773" d="M39.845,122.751h-.019c-.21-.011-1.361-.22-3.419-3.217a20.527,20.527,0,0,1-1.89-3.2.356.356,0,0,1,.158-.457,21.728,21.728,0,0,1,1.975-.937c.463-.194.937-.375,1.414-.543a.356.356,0,0,1,.424.153,2.02,2.02,0,0,0,.572.592,2.193,2.193,0,0,1,.547.543.362.362,0,0,1,.057.2,2.882,2.882,0,0,0,2.046,3.161.356.356,0,0,1,.247.294,4.5,4.5,0,0,1-.723,3.084.353.353,0,0,1-.211.123l-1.115.2a.379.379,0,0,1-.062.006m-4.537-6.4a22.274,22.274,0,0,0,1.685,2.783c1.686,2.456,2.668,2.848,2.855,2.9l.914-.164a3.693,3.693,0,0,0,.5-2.221,3.545,3.545,0,0,1-2.317-3.655,2.03,2.03,0,0,0-.324-.286,3.038,3.038,0,0,1-.581-.547c-.378.138-.752.283-1.12.438-.563.234-1.1.486-1.615.749" transform="translate(-19.546 -64.827)" fill="#252260"/>
            <path id="Trazado_1038774" data-name="Trazado 1038774" d="M52.162,62.773a.356.356,0,0,1-.356-.335l-.328-5.587a.356.356,0,1,1,.711-.042l.328,5.587a.356.356,0,0,1-.335.376h-.021" transform="translate(-29.177 -32.009)" fill="#252260"/>
            <path id="Trazado_1038775" data-name="Trazado 1038775" d="M45.9,67.268a.356.356,0,0,1-.28-.136l-2.339-2.975a.356.356,0,1,1,.561-.44l2.339,2.975a.356.356,0,0,1-.281.576" transform="translate(-24.489 -36.036)" fill="#252260"/>
            <path id="Trazado_1038776" data-name="Trazado 1038776" d="M56.494,66.141a.356.356,0,0,1-.326-.5l1.55-3.47a.357.357,0,0,1,.652.291L56.82,65.93a.357.357,0,0,1-.326.211" transform="translate(-31.818 -35.117)" fill="#252260"/>
            <path id="Trazado_1038777" data-name="Trazado 1038777" d="M148.117,25.745a11.609,11.609,0,1,1-11.61-11.61,11.622,11.622,0,0,1,11.61,11.61" transform="translate(-70.793 -8.012)" fill="#fff"/>
            <path id="Trazado_1038778" data-name="Trazado 1038778" d="M136.507,37.355a11.609,11.609,0,1,1,11.609-11.609,11.622,11.622,0,0,1-11.609,11.609m0-21.568a9.96,9.96,0,1,0,9.96,9.96,9.971,9.971,0,0,0-9.96-9.96" transform="translate(-70.791 -8.013)" fill="#7f50fd"/>
            <path id="Trazado_1038779" data-name="Trazado 1038779" d="M141.994,38.647a7.415,7.415,0,1,1,7.415-7.414,7.423,7.423,0,0,1-7.415,7.414m0-13.18a5.766,5.766,0,1,0,5.766,5.766,5.772,5.772,0,0,0-5.766-5.766" transform="translate(-76.279 -13.5)" fill="#7f50fd"/>
            <path id="Trazado_1038780" data-name="Trazado 1038780" d="M147.481,39.941a3.22,3.22,0,1,1,3.221-3.22,3.224,3.224,0,0,1-3.221,3.22m0-4.792a1.571,1.571,0,1,0,1.571,1.571,1.573,1.573,0,0,0-1.571-1.571" transform="translate(-81.766 -18.988)" fill="#7f50fd"/>
            <path id="Trazado_1038781" data-name="Trazado 1038781" d="M136.041,37.243A11.965,11.965,0,1,1,148.007,25.28a11.978,11.978,0,0,1-11.966,11.964m0-23.217A11.252,11.252,0,1,0,147.294,25.28a11.265,11.265,0,0,0-11.253-11.253" transform="translate(-70.326 -7.546)" fill="#252260"/>
            <path id="Trazado_1038782" data-name="Trazado 1038782" d="M151.057,24.045a.488.488,0,0,1-.345-.833L163.5,10.419a.488.488,0,1,1,.69.691L151.4,23.9a.487.487,0,0,1-.345.143" transform="translate(-85.342 -5.824)" fill="#252260"/>
            <path id="Trazado_1038783" data-name="Trazado 1038783" d="M176.116,4.486,175.643.823l-5,5,.477,3.691Z" transform="translate(-96.72 -0.466)" fill="#7f50fd"/>
            <path id="Trazado_1038784" data-name="Trazado 1038784" d="M170.655,9.4a.357.357,0,0,1-.353-.311L169.824,5.4a.358.358,0,0,1,.1-.3l5-5a.356.356,0,0,1,.606.206L176,3.974a.355.355,0,0,1-.1.3l-5,5.026a.358.358,0,0,1-.253.105m-.1-3.919.361,2.8,4.36-4.387-.358-2.772Z" transform="translate(-96.254 0)" fill="#252260"/>
            <path id="Trazado_1038785" data-name="Trazado 1038785" d="M172.8,13.8a.357.357,0,0,1-.353-.311L171.966,9.8a.356.356,0,1,1,.707-.092l.477,3.687a.357.357,0,0,1-.308.4l-.047,0" transform="translate(-97.468 -5.325)" fill="#252260"/>
            <path id="Trazado_1038786" data-name="Trazado 1038786" d="M175.906,10.674a.357.357,0,0,1-.353-.311l-.475-3.677a.356.356,0,0,1,.707-.092l.476,3.678a.356.356,0,0,1-.308.4l-.047,0" transform="translate(-99.231 -3.561)" fill="#252260"/>
            <path id="Trazado_1038787" data-name="Trazado 1038787" d="M179.012,7.547a.357.357,0,0,1-.353-.311l-.473-3.657a.357.357,0,0,1,.308-.4.353.353,0,0,1,.4.308l.473,3.657a.357.357,0,0,1-.308.4l-.047,0" transform="translate(-100.993 -1.8)" fill="#252260"/>
            <path id="Trazado_1038788" data-name="Trazado 1038788" d="M176.771,9.351l3.664.473-5,5-3.691-.477Z" transform="translate(-97.344 -5.3)" fill="#7f50fd"/>
            <path id="Trazado_1038789" data-name="Trazado 1038789" d="M174.97,14.714a.323.323,0,0,1-.046,0l-3.691-.477a.356.356,0,0,1-.205-.606l5.027-5a.365.365,0,0,1,.3-.1L180.016,9a.356.356,0,0,1,.206.606l-5,5a.355.355,0,0,1-.252.1m-2.924-1.093,2.8.361L179.2,9.619l-2.772-.357Z" transform="translate(-96.878 -4.834)" fill="#252260"/>
            <path id="Trazado_1038790" data-name="Trazado 1038790" d="M177.116,19.107l-.047,0-3.688-.476a.357.357,0,0,1,.092-.707l3.688.476a.356.356,0,0,1-.045.71" transform="translate(-98.096 -10.156)" fill="#252260"/>
            <path id="Trazado_1038791" data-name="Trazado 1038791" d="M180.243,16l-.047,0-3.677-.476a.357.357,0,0,1-.308-.4.352.352,0,0,1,.4-.308l3.677.475a.356.356,0,0,1-.045.71" transform="translate(-99.874 -8.393)" fill="#252260"/>
            <path id="Trazado_1038792" data-name="Trazado 1038792" d="M183.377,12.893l-.047,0-3.657-.473a.356.356,0,0,1-.308-.4.352.352,0,0,1,.4-.308l3.657.473a.356.356,0,0,1-.045.71" transform="translate(-101.661 -6.635)" fill="#252260"/>
            <path id="Trazado_1038793" data-name="Trazado 1038793" d="M130.993,31.022h-.014a.358.358,0,0,1-.343-.37c.244-6.162,4.374-8.143,4.549-8.225a.356.356,0,0,1,.3.647c-.159.075-3.911,1.9-4.136,7.606a.357.357,0,0,1-.357.343" transform="translate(-74.044 -12.692)" fill="#252260"/>
            <path id="Trazado_1038794" data-name="Trazado 1038794" d="M258.9,133.309c-.007.009-.013.02-.022.032l-.023.028-.015.019c-.026.028-.053.053-.081.078a.093.093,0,0,1-.016.016c-.022.018-.046.037-.072.056s-.033.022-.054.035a.1.1,0,0,1-.021.014,1.309,1.309,0,0,1-.176.093.131.131,0,0,1-.026.01c-.079.032-.174.068-.249.091l-.033.012-.058.015c-.066.018-.142.036-.228.05l-.072.013c-.063.01-.129.019-.2.027s-.149.014-.232.02l-.081,0-.038,0h-.077c-.057,0-.118,0-.182,0h-.016c-.056,0-.113,0-.169,0h-.02c-.11-.005-.223-.012-.337-.022l-.024,0c-.057,0-.115-.01-.172-.016-.081-.009-.162-.019-.243-.029l-.142-.022c-.062-.007-.124-.017-.185-.029l-.079-.012-.129-.025-.066-.013c-.043-.007-.083-.016-.125-.026l-.137-.029c-.059-.012-.116-.026-.175-.042s-.126-.032-.194-.05c-.13-.034-.26-.071-.387-.11-.036-.012-.072-.024-.109-.035-.125-.041-.248-.084-.369-.129-.022-.007-.041-.015-.06-.023a.64.64,0,0,1-.074-.03l-.12-.048c-.1-.039-.2-.086-.323-.143-.034-.015-.069-.032-.1-.049s-.06-.03-.088-.048c-.117-.061-.217-.119-.3-.169s-.145-.093-.194-.127l-.036-.025c-.013-.012-.027-.021-.039-.031s-.041-.031-.051-.039l-.031-.025c-.042-.035-.089-.075-.133-.113a.731.731,0,0,1-.062-.059l-.029-.028a1.666,1.666,0,0,1-.134-.151c-.011-.015-.022-.028-.034-.043a.078.078,0,0,1-.009-.015l-.019-.024c-.006-.009-.012-.017-.017-.026l-.014-.021a.116.116,0,0,1-.013-.019l-.016-.027a1.232,1.232,0,0,1-.084-.176.385.385,0,0,1-.018-.058.429.429,0,0,1-.015-.062.32.32,0,0,1-.008-.055.136.136,0,0,0,.007.03.176.176,0,0,0,.019.04.307.307,0,0,0,.026.038v0a.717.717,0,0,0,.108.106c.015.012.03.023.048.036a.609.609,0,0,0,.053.038c.057.038.123.079.2.12l.071.038.079.04c.029.014.057.028.086.04s.049.024.077.036l.013,0c.027.013.056.026.085.038.1.043.208.087.325.132a17.327,17.327,0,0,0,5,1.032h.1c.046,0,.089,0,.13,0,.026,0,.051,0,.076-.005a.557.557,0,0,0,.061-.005,1.6,1.6,0,0,0,.311-.052.04.04,0,0,1,.013,0l.025-.01.033-.013h0a.13.13,0,0,1,.03-.014.118.118,0,0,0,.026-.017.069.069,0,0,0,.022-.016.013.013,0,0,0,.009-.009s0,0,0,0a.057.057,0,0,0,.013-.011" transform="translate(-142.741 -74.647)" fill="#fff"/>
            <path id="Trazado_1038795" data-name="Trazado 1038795" d="M268.119,135.412a.056.056,0,0,1-.013.011l0,0,.011-.008" transform="translate(-151.961 -76.751)" fill="#fff"/>
            <path id="Trazado_1038796" data-name="Trazado 1038796" d="M258.924,132.228a.124.124,0,0,1-.025.051l0,0-.011.008,0,0s0,0,0,0,0,.006-.01.008a.173.173,0,0,1-.021.016.152.152,0,0,1-.026.017.132.132,0,0,0-.03.014h0l-.033.013-.026.01a.068.068,0,0,0-.013,0,1.63,1.63,0,0,1-.31.052.571.571,0,0,1-.061,0l-.076.005c-.041,0-.084,0-.13,0h-.1a17.324,17.324,0,0,1-5-1.031c-.117-.045-.226-.089-.325-.133-.029-.012-.058-.024-.085-.038l-.013-.005a.8.8,0,0,1-.077-.036c-.029-.012-.058-.026-.087-.04l-.079-.04-.071-.038a2.232,2.232,0,0,1-.2-.12.61.61,0,0,1-.053-.037c-.018-.013-.033-.024-.048-.036a.722.722,0,0,1-.108-.105v0a.365.365,0,0,1-.026-.039.175.175,0,0,1-.019-.04.132.132,0,0,1-.007-.03.117.117,0,0,1,0-.044l.166-.741h0l.067.049.007.005.035.024a.176.176,0,0,0,.025.015.06.06,0,0,0,.016.011l.065.04c.049.031.106.064.176.1l.042.023a.326.326,0,0,1,.049.024.185.185,0,0,1,.036.019c.015.006.027.012.042.019l.163.076.074.032.042.019.143.058.123.049c.015.005.031.011.047.018.155.058.318.117.494.176.14.046.3.1.505.159l.271.077c.026.008.051.016.077.022l.078.023.043.012.033.008.192.051.089.023.065.016c.312.078.582.136.762.174.019,0,.036.007.053.011.063.011.123.024.185.037l.179.036c.062.011.121.02.181.032s.116.021.174.029.119.021.178.03l.067.01c.048.008.094.016.14.021l.122.018.093.012.069.009c.067.007.134.016.2.024l.113.011c.024,0,.046.006.071.008l.186.016c.032,0,.065,0,.1.006.126.01.246.016.363.019.024,0,.049,0,.074,0h.075c.03,0,.057,0,.083,0A3.5,3.5,0,0,0,259,131.5l.039-.009.047-.01Z" transform="translate(-142.739 -73.62)" fill="#fff"/>
            <path id="Trazado_1038797" data-name="Trazado 1038797" d="M268.119,135.412a.056.056,0,0,1-.013.011l0,0,.011-.008" transform="translate(-151.961 -76.751)" fill="#fff"/>
            <path id="Trazado_1038798" data-name="Trazado 1038798" d="M259.5,129.055a.173.173,0,0,0-.009.03l0,.008a.385.385,0,0,1-.014.043.047.047,0,0,1-.005.015.424.424,0,0,1-.017.044l0,0a.675.675,0,0,1-.036.068c-.01.017-.021.034-.032.049l0,0c-.013.018-.026.036-.041.052l-.015.016-.041.04-.04.035c-.009.007-.017.013-.026.019a.542.542,0,0,1-.053.037.59.59,0,0,1-.055.032.072.072,0,0,0-.018.008.39.39,0,0,1-.063.028l-.062.023-.021.006c-.016.005-.031.01-.05.015l-.051.013-.046.01-.039.008a3.426,3.426,0,0,1-.537.043c-.027,0-.054,0-.083,0h-.016c-.02,0-.039,0-.058,0s-.05,0-.074,0c-.117,0-.237-.009-.363-.019-.034,0-.066-.005-.1-.006l-.186-.016c-.024,0-.047,0-.071-.008l-.113-.011c-.064-.008-.131-.017-.2-.024l-.069-.01-.093-.011-.122-.018-.14-.021-.067-.01c-.058-.009-.118-.019-.178-.03s-.116-.02-.174-.029-.119-.021-.18-.032l-.18-.036c-.061-.013-.122-.026-.185-.037a.466.466,0,0,0-.052-.011c-.181-.038-.451-.1-.762-.174l-.065-.016-.089-.023-.192-.051-.034-.008-.043-.012-.078-.022c-.025-.006-.05-.013-.077-.022-.086-.024-.178-.049-.271-.077-.207-.062-.365-.114-.505-.159-.176-.059-.339-.118-.494-.176-.016-.007-.033-.013-.047-.018l-.123-.049-.142-.058-.042-.019-.074-.032-.163-.076c-.014-.006-.027-.013-.042-.019a.173.173,0,0,0-.036-.019.3.3,0,0,0-.049-.024l-.042-.023c-.071-.038-.127-.071-.176-.1l-.065-.04a.07.07,0,0,1-.015-.011.237.237,0,0,1-.025-.015l-.035-.024-.007-.005-.066-.05h0c-.037-.032-.074-.063-.1-.093,0,0,0,0-.007-.006s-.016-.016-.026-.027a.87.87,0,0,1-.106-.135l-.008-.013a.254.254,0,0,1-.021-.039.031.031,0,0,1-.005-.008.627.627,0,0,1-.041-.1.458.458,0,0,1-.023-.078c0-.011,0-.026-.008-.041a.151.151,0,0,1,0-.022.2.2,0,0,1,0-.024l0-.015a.779.779,0,0,1,.011-.2l.01-.04c.008-.026.016-.053.026-.078a.777.777,0,0,1,.037-.081c.01-.017.019-.036.03-.053a.01.01,0,0,1,0-.006c.012-.019.023-.034.035-.05s.008-.01.013-.015a.059.059,0,0,1,.012-.013.422.422,0,0,1,.038-.041c.019-.019.037-.036.057-.052a.781.781,0,0,1,.165-.1l.043-.018,0,0,.039-.014c.023-.009.048-.016.073-.024s.04-.01.061-.016a.061.061,0,0,1,.017,0l-.042.183c-.04.182.363.464,1.2.781a17.26,17.26,0,0,0,5,1.033c.562,0,.853-.079.885-.219l.042-.185c.021.016.04.033.059.049,0,0,0,0,.006.005l.016.014a.26.26,0,0,0,.022.021l.024.023s.007.007.01.011.023.023.033.035l.006.006c.016.022.032.042.046.061a.809.809,0,0,1,.055.091.29.29,0,0,1,.026.056.172.172,0,0,1,.013.033.092.092,0,0,1,.005.017.211.211,0,0,1,.014.044c0,.013.007.025.009.036a.243.243,0,0,1,.008.046c0,.024.006.049.007.075a.486.486,0,0,1,0,.05.03.03,0,0,1,0,.012c0,.009,0,.018,0,.026s0,.016,0,.023v0c0,.017,0,.035-.009.053s0,.021-.006.031" transform="translate(-142.492 -71.778)" fill="#fff"/>
            <path id="Trazado_1038799" data-name="Trazado 1038799" d="M266.459,129.086a.007.007,0,0,1-.006,0v0Z" transform="translate(-151.024 -73.165)" fill="#fff"/>
            <path id="Trazado_1038800" data-name="Trazado 1038800" d="M266.485,129.088h0Z" transform="translate(-151.04 -73.166)" fill="#fff"/>
            <path id="Trazado_1038801" data-name="Trazado 1038801" d="M266.509,129.09h0v0Z" transform="translate(-151.053 -73.167)" fill="#fff"/>
            <path id="Trazado_1038802" data-name="Trazado 1038802" d="M266.537,129.092s0,0-.007,0v0Z" transform="translate(-151.068 -73.167)" fill="#fff"/>
            <path id="Trazado_1038803" data-name="Trazado 1038803" d="M259.945,127.71c-.032.14-.322.222-.884.219a17.267,17.267,0,0,1-5-1.033c-.833-.318-1.236-.6-1.2-.782l.042-.184.121-.541.124.09a4.15,4.15,0,0,0,.425.237c.084.042.2.093.354.159l.248.1c.313.115.313.115.484.172.339.11.339.11.516.163.359.1.359.1.544.152.165.043.389.1.556.138s.393.088.563.124c.373.075.373.075.557.106.351.06.364.064.542.088.35.049.35.049.518.068.33.03.33.03.485.041.054,0,.1,0,.133.006h0c.172.009.192.01.309.011a3.515,3.515,0,0,0,.678-.052l.045-.01-.121.541Z" transform="translate(-143.318 -71.071)" fill="#fff"/>
            <path id="Trazado_1038804" data-name="Trazado 1038804" d="M255.959,124.431l-.007,0,.057.023a.007.007,0,0,1,.006,0l-.055-.02m5.018,1.129a.093.093,0,0,0-.018,0,.1.1,0,0,0,.023,0l0,0" transform="translate(-145.072 -70.526)" fill="#fff"/>
            <path id="Trazado_1038805" data-name="Trazado 1038805" d="M261.344,128.039h0m-3.893-.8h0m3.9.8v0a.006.006,0,0,0,.005,0Zm.014,0h0Zm.009,0v0h0Zm.01,0v0s.005,0,.007,0Z" transform="translate(-145.919 -72.118)" fill="#fff"/>
            <path id="Trazado_1038806" data-name="Trazado 1038806" d="M260.528,124.744l.007-.071c0-.045,0-.047,0-.07-.006-.044-.007-.046-.008-.069-.011-.045-.011-.045-.016-.069-.016-.046-.016-.046-.023-.069s-.01-.024-.014-.032l-.009,0-.046.021-.014.006-.019.008-.047.019-.033.012a.117.117,0,0,1-.023.007l-.036.013a.07.07,0,0,0-.017,0l-.021.006c-.021.007-.052.014-.1.027a1.312,1.312,0,0,1-.163.029l-.064.008a4.36,4.36,0,0,1-.45.019c-.087,0-.178,0-.273-.008l-.186-.009a.078.078,0,0,1-.023,0,.138.138,0,0,0-.025,0h-.017l-.044,0c-.2-.016-.417-.039-.64-.069-.167-.02-.338-.047-.515-.075-.058-.008-.117-.017-.176-.028-.237-.04-.48-.086-.724-.136-.1-.02-.2-.043-.3-.065a.3.3,0,0,0-.039-.009c-.241-.054-.483-.113-.72-.173-.129-.032-.259-.067-.387-.1-.234-.068-.464-.135-.684-.207l-.163-.055c-.108-.036-.214-.072-.315-.11-.051-.017-.1-.036-.15-.055l-.049-.019-.057-.022c-.062-.024-.118-.048-.175-.072-.087-.035-.169-.072-.246-.108-.133-.062-.246-.121-.345-.178-.05-.029-.095-.056-.134-.083s-.076-.054-.109-.079a.224.224,0,0,1-.025-.022l-.025-.02v0l-.047-.041c-.013-.014-.03-.03-.054-.052l-.037-.037-.021-.023-.057-.065a.03.03,0,0,1-.007-.009l-.027.024c-.032.033-.033.035-.049.052-.028.036-.031.039-.044.057-.025.039-.025.039-.038.06l-.031.062a.679.679,0,0,0-.024.065.356.356,0,0,0-.018.07c-.006.023-.012.055-.016.08,0,.066,0,.07,0,.1a.815.815,0,0,0,.036.206.68.68,0,0,0,.043.1.706.706,0,0,0,.067.108.872.872,0,0,0,.109.123c.049.045.075.071.1.094s.062.045.124.09a4.144,4.144,0,0,0,.425.238c.084.041.2.093.354.159.073.03.156.062.248.1.313.115.313.115.484.172.339.11.339.11.516.163.359.1.359.1.544.152.165.043.389.1.556.138l.563.125c.373.075.373.075.557.106.351.061.364.064.542.088.35.05.35.05.518.068.33.03.33.03.485.041.054,0,.1.005.133.007h0c.172.009.192.01.309.011a3.515,3.515,0,0,0,.678-.052l.045-.011a1.1,1.1,0,0,0,.184-.056.839.839,0,0,0,.134-.065.649.649,0,0,0,.1-.071.85.85,0,0,0,.079-.077.5.5,0,0,0,.062-.083.593.593,0,0,0,.049-.09.565.565,0,0,0,.038-.1c0-.015.01-.036.014-.052.009-.046.009-.046.013-.07m-2.033.668v0h.005a.006.006,0,0,1-.005,0m.023,0v0h0a0,0,0,0,1,0,0m.01,0v0l.006,0s0,0-.007,0" transform="translate(-143.066 -69.491)" fill="#fff"/>
            <path id="Trazado_1038807" data-name="Trazado 1038807" d="M266.459,129.086a.007.007,0,0,1-.006,0v0Z" transform="translate(-151.024 -73.165)" fill="#fff"/>
            <path id="Trazado_1038808" data-name="Trazado 1038808" d="M266.485,129.088h0Z" transform="translate(-151.04 -73.166)" fill="#fff"/>
            <path id="Trazado_1038809" data-name="Trazado 1038809" d="M266.509,129.09h0v0Z" transform="translate(-151.053 -73.167)" fill="#fff"/>
            <path id="Trazado_1038810" data-name="Trazado 1038810" d="M266.537,129.092s0,0-.007,0v0Z" transform="translate(-151.068 -73.167)" fill="#fff"/>
            <path id="Trazado_1038811" data-name="Trazado 1038811" d="M264.328,89.18c-.022.078-.048.164-.076.253-.014.043-.026.086-.041.127s-.031.092-.047.138q-.053.155-.11.3-.095.254-.21.5c-.046.1-.093.2-.138.3-.011.024-.024.048-.034.068l-.1.192c-.043.082-.083.156-.12.222-.015.026-.029.052-.043.075-.031.055-.059.1-.084.143s-.041.068-.058.1-.018.029-.029.045-.033.052-.054.085l-.034.052c-.058.088-.132.2-.224.318l-.047.064a6.462,6.462,0,0,1-.736.81c-.043.039-.084.079-.129.119l-.151.129-.027.022a.212.212,0,0,0-.029.023c-.059.048-.12.094-.179.14l-.009.007c-.067.051-.132.1-.191.139-.1.069-.2.136-.3.2-.025.017-.05.032-.073.047l-.007,0-.035.022-.037.021c-.035.022-.081.048-.134.078l-.056.033c-.016.007-.032.017-.049.026l-.039.021-.085.045c-.016.009-.031.017-.047.024l-.048.023c-.059.032-.119.06-.181.088,0,0,0,0,0,0l-.008,0c-.046.023-.09.044-.138.065l-.042.019v0c-.251.123-.251.123-.382.195-.228.137-.269.162-.375.234-.245.172-.245.172-.365.268-.234.193-.234.193-.35.3-.221.212-.221.212-.326.327-.208.233-.208.233-.306.355-.189.25-.189.25-.279.381-.171.263-.171.263-.25.4-.046.081-.076.138-.1.182-.01.021-.022.039-.032.058s-.02.039-.03.058,0,.013-.008.018l-.01.019c-.007.013-.011.024-.017.036l0,0c-.022.048-.046.1-.066.144-.006.013-.011.024-.016.035a.02.02,0,0,0,0,.008c0,.011-.01.02-.014.03-.035.08-.069.163-.1.244,0,.01-.006.018-.01.028a1.192,1.192,0,0,1-.055.12.814.814,0,0,1-.065.116.963.963,0,0,1-.075.11c-.028.034-.028.034-.086.1a1.1,1.1,0,0,1-.1.094,1.271,1.271,0,0,1-.11.088c-.04.027-.04.029-.121.078-.058.036-.1.053-.136.072l-.046.021-.013.006-.02.008c-.013,0-.027.011-.047.019l-.033.012-.023.007-.037.013a.069.069,0,0,0-.017,0l-.021.006-.095.026c-.047.012-.1.022-.163.03l-.064.008a4.5,4.5,0,0,1-.45.019c-.087,0-.178,0-.273-.008-.063,0-.126-.007-.191-.012a.149.149,0,0,0-.018,0,.106.106,0,0,0-.024,0h-.017l-.044,0c-.2-.016-.416-.039-.64-.067-.168-.02-.339-.047-.515-.075l-.178-.03c-.237-.04-.478-.085-.722-.136l-.3-.063a.3.3,0,0,0-.039-.01c-.241-.054-.483-.113-.72-.173-.13-.035-.259-.068-.386-.1-.235-.066-.465-.135-.684-.207l-.163-.053c-.109-.036-.213-.074-.314-.11l-.15-.057a.415.415,0,0,1-.044-.017l-.055-.02-.182-.073c-.087-.037-.169-.072-.246-.108-.133-.062-.246-.12-.345-.178-.049-.029-.095-.056-.134-.084s-.076-.053-.109-.079a.22.22,0,0,1-.025-.022l-.026-.02v0c-.013-.012-.026-.024-.047-.042s-.03-.03-.053-.052l-.037-.037-.021-.023c-.013-.013-.029-.033-.058-.065l-.007-.009c-.028-.033-.033-.042-.087-.115-.027-.042-.027-.042-.075-.124a.935.935,0,0,1-.061-.124,1.1,1.1,0,0,1-.048-.127,1.073,1.073,0,0,1-.046-.21,1.263,1.263,0,0,1-.011-.134c0-.041,0-.083,0-.126a.161.161,0,0,1-.007-.055c0-.03,0-.063.007-.1,0-.051.005-.1.005-.156s0-.086,0-.125c0-.007,0-.016,0-.023v-.039a.024.024,0,0,0,0-.011v-.03c0-.01,0-.02,0-.029,0-.109,0-.178,0-.228,0-.007,0-.011,0-.018,0-.038-.006-.085-.008-.146a.005.005,0,0,1,0,0c0-.043-.007-.083-.011-.125-.006-.072-.011-.123-.016-.163v-.009c-.007-.044-.013-.1-.024-.182,0-.014,0-.029-.006-.044l0-.028c-.008-.041-.013-.078-.019-.107v-.009c0-.011,0-.02,0-.031s0,0,0-.006a.426.426,0,0,1-.01-.061.039.039,0,0,1,0-.01c-.006-.028-.013-.058-.02-.1a.51.51,0,0,0-.014-.06c0-.017-.007-.036-.01-.054s-.014-.053-.018-.073-.011-.045-.018-.068-.012-.045-.02-.078-.031-.108-.059-.205c0-.008,0-.017-.008-.027-.01-.032-.022-.065-.034-.1-.016-.052-.032-.1-.052-.155,0-.013-.01-.027-.015-.041-.012-.033-.024-.064-.036-.1-.007-.016-.013-.033-.02-.049s-.012-.031-.019-.047c-.019-.052-.042-.1-.068-.156s-.033-.076-.05-.111c-.007-.014-.014-.029-.02-.042s-.014-.03-.021-.046-.016-.032-.023-.05,0-.008-.006-.01-.01-.02-.016-.031a.068.068,0,0,0-.007-.014.053.053,0,0,0-.008-.016c0-.008-.007-.014-.01-.02a.377.377,0,0,0-.02-.036l0-.006c0-.008-.009-.015-.012-.023a.328.328,0,0,0-.019-.034.164.164,0,0,0-.011-.021l-.014-.024-.009-.016c-.01-.018-.02-.033-.029-.051s-.026-.042-.037-.062-.019-.031-.029-.044a.514.514,0,0,0-.038-.064l-.005-.009a.317.317,0,0,0-.018-.029c-.009-.013-.018-.027-.027-.042-.028-.042-.062-.091-.109-.162a.172.172,0,0,1-.016-.023.177.177,0,0,1-.015-.019l-.027-.037-.032-.045s0,0,0,0c-.013-.019-.026-.036-.037-.052s-.017-.023-.026-.034l0,0a.09.09,0,0,1-.012-.015l-.022-.027c-.011-.015-.022-.028-.034-.043s-.031-.039-.047-.057a0,0,0,0,0,0,0,.333.333,0,0,1-.023-.03c-.038-.043-.074-.085-.108-.129a.287.287,0,0,1-.029-.037c-.023-.029-.045-.055-.066-.081l-.045-.055c-.043-.056-.085-.113-.132-.177-.027-.037-.055-.075-.084-.118l-.015-.019c-.071-.1-.132-.2-.185-.282l-.009-.015c-.055-.089-.1-.162-.126-.211s-.066-.117-.1-.173c-.018-.031-.035-.063-.05-.1l-.064-.125a6.238,6.238,0,0,1-.289-.683v0c-.01-.031-.024-.07-.041-.12-.034-.1-.065-.2-.094-.3-.011-.035-.021-.069-.029-.1-.046-.167-.084-.333-.114-.5-.042-.227-.071-.462-.093-.714,0-.018,0-.036,0-.054,0-.033-.006-.065-.008-.1,0-.05-.006-.1-.008-.155a.024.024,0,0,1,0-.013c-.007-.126-.01-.256-.013-.393,0-.012,0-.054,0-.117,0-.013,0-.026,0-.04,0-.034,0-.064,0-.1,0-.017,0-.037,0-.056,0-.056,0-.12.008-.19,0-.022,0-.046,0-.071,0-.07.008-.145.014-.224.018-.248.042-.444.064-.6,0-.023.005-.045.009-.067s.008-.057.013-.084,0-.031.006-.045,0-.022.006-.034,0-.026.007-.041a.746.746,0,0,0,.012-.074l0-.008c.006-.026.008-.05.015-.077.01-.063.023-.129.035-.192l.01-.044c.007-.037.014-.073.022-.107s.014-.066.021-.094.01-.04.016-.062c.041-.166.093-.356.142-.523.013-.055.03-.11.043-.159s.03-.1.048-.159a.26.26,0,0,1,.015-.05c.01-.026.019-.058.03-.087a.078.078,0,0,1,.006-.019c.012-.033.025-.065.037-.1.027-.075.058-.153.089-.234.017-.042.037-.087.055-.133q.076-.185.163-.371c.043-.1.091-.2.142-.3.022-.048.048-.1.071-.143.054-.106.108-.208.162-.3l.089-.151c.025-.044.05-.084.075-.123l.018-.031a11.757,11.757,0,0,1,.868-1.2,5.932,5.932,0,0,1,.531-.576l.009-.007.026-.026c.07-.068.152-.146.236-.222.025-.023.049-.043.073-.066.071-.067.141-.13.2-.184l.03-.025s0,0,.005-.006c.136-.122.316-.262.48-.383.035-.026.068-.049.1-.074.068-.049.137-.1.2-.142.166-.117.325-.217.466-.3a.082.082,0,0,1,.015-.011c.137-.09.31-.185.475-.272.046-.023.082-.041.107-.055l.012-.006.131-.066c.014-.007.028-.013.042-.019.083-.044.167-.083.252-.119s.165-.076.238-.107l.087-.036.171-.068c.074-.029.148-.057.222-.084l.156-.057.108-.036c.114-.039.224-.073.328-.1l.019,0c.061-.019.124-.036.185-.052a.329.329,0,0,1,.039-.01c.148-.039.282-.073.4-.1.159-.035.293-.06.4-.079l.063-.012.072-.011c.054-.01.12-.019.193-.029.039-.006.079-.011.117-.016l.031,0,.2-.023c.062-.007.126-.013.187-.018.04,0,.082-.007.125-.01l.268-.016.133-.006h.01c.136-.005.266-.008.388-.006l.138,0,.076,0q.056,0,.11.005c.042,0,.083,0,.121.006s.089.005.133.009l.118.009.063,0,.052.005L256,76.8a.424.424,0,0,1,.047,0c.078.008.155.017.233.029s.144.022.21.034a.008.008,0,0,1,.007,0c.031.006.062.01.091.016l.068.01a.063.063,0,0,0,.024.006q.127.022.239.046c.1.02.187.041.259.058l.139.033.082.021c.02,0,.04.01.058.016l.059.014c.105.028.213.061.368.109.215.065.5.171.551.191l.23.094.066.026c.047.02.1.041.149.066.027.012.055.022.082.036h.005l.171.08c.022.01.043.019.065.032.121.058.211.1.268.134.041.021.066.036.072.039l.049.026c.042.024.087.046.13.072.1.058.2.112.284.165a.144.144,0,0,0,.019.011l.139.086c.119.075.225.146.34.227.046.032.094.067.142.1.028.019.054.036.079.056s.056.04.085.061c.079.058.166.124.253.2.03.023.058.048.087.072a6.794,6.794,0,0,1,.539.48c.02.021.041.043.065.065s.059.058.087.088l.114.11c.1.1.216.225.324.354a.079.079,0,0,1,.016.016c.131.15.288.334.4.485v0a6.312,6.312,0,0,1,.413.584.2.2,0,0,1,.016.023c.008.013.015.025.025.038.119.185.269.437.373.63.089.163.194.373.281.558a.356.356,0,0,0,.016.034,6.215,6.215,0,0,1,.308.756v0c.006.014.011.029.016.043.032.089.11.312.2.622.009.031.017.063.024.091.03.112.061.235.092.366,0,0,0,0,0,.005.014.06.029.123.041.187s.026.122.036.177l.008.036c.008.048.017.1.026.153,0,.011,0,.024.006.035.009.052.017.109.025.164a.419.419,0,0,1,.007.045c.005.031.008.064.013.1s.01.07.013.1c.008.055.015.108.019.159a.125.125,0,0,1,0,.029c.013.131.021.285.03.435,0,.047.006.1.009.143,0,.026,0,.054,0,.081s0,.052,0,.078.005.083.006.126,0,.066,0,.1a5.643,5.643,0,0,1-.021.582c0,.009,0,.017,0,.028-.012.208-.04.447-.076.685,0,.024-.007.05-.01.074-.035.266-.077.533-.126.763l-.008.034a.053.053,0,0,1-.005.022c-.017.078-.061.271-.134.525" transform="translate(-138.97 -43.497)" fill="#fcb857"/>
            <path id="Trazado_1038812" data-name="Trazado 1038812" d="M256.8,109.855h-.008a.357.357,0,0,1-.349-.364l.241-11.42a.357.357,0,0,1,.357-.349h.008a.357.357,0,0,1,.349.364l-.241,11.42a.357.357,0,0,1-.357.349" transform="translate(-145.351 -55.388)" fill="#252260"/>
            <path id="Trazado_1038813" data-name="Trazado 1038813" d="M265.368,113.143a.361.361,0,0,1-.138-.028.356.356,0,0,1-.191-.467l4.366-10.406a.356.356,0,0,1,.657.276L265.7,112.924a.356.356,0,0,1-.328.219" transform="translate(-150.207 -57.826)" fill="#252260"/>
            <path id="Trazado_1038814" data-name="Trazado 1038814" d="M262.793,98.673a4.117,4.117,0,0,1-.879-.095,4.278,4.278,0,0,1-2.548-1.706,4.746,4.746,0,0,1-1.448.473,3.52,3.52,0,0,1-1.941-.205,2.4,2.4,0,0,1-1.366-1.494.356.356,0,1,1,.685-.195,1.689,1.689,0,0,0,.966,1.036,2.825,2.825,0,0,0,1.547.154,4.055,4.055,0,0,0,1.2-.384c-.026-.056-.052-.114-.076-.172a4.271,4.271,0,0,1,.331-3.874,2.192,2.192,0,0,1,.678-.72,1.225,1.225,0,0,1,1.892.675,2.38,2.38,0,0,1,.077,1.005,4.727,4.727,0,0,1-1.932,3.326,3.491,3.491,0,0,0,5.21.541.357.357,0,0,1,.483.525,4.282,4.282,0,0,1-2.876,1.109m-2.119-6.69a.683.683,0,0,0-.355.11,1.537,1.537,0,0,0-.457.5,3.549,3.549,0,0,0-.273,3.218q.014.034.029.066a3.994,3.994,0,0,0,.489-.434A4.047,4.047,0,0,0,261.2,93.1a1.625,1.625,0,0,0-.043-.7.608.608,0,0,0-.341-.391.434.434,0,0,0-.14-.022" transform="translate(-144.305 -51.732)" fill="#252260"/>
            <g id="Grupo_1175236" data-name="Grupo 1175236" transform="translate(107.428 34.979)" opacity="0.98">
              <g id="Grupo_1175235" data-name="Grupo 1175235">
                <g id="Grupo_1175234" data-name="Grupo 1175234" clip-path="url(#clip-path-3)">
                  <path id="Trazado_1038815" data-name="Trazado 1038815" d="M248.341,86.736a.362.362,0,0,1-.077-.009.356.356,0,0,1-.271-.424,7.786,7.786,0,0,1,4.875-5.537.356.356,0,0,1,.241.671,7.059,7.059,0,0,0-4.42,5.019.356.356,0,0,1-.348.28" transform="translate(-247.984 -80.745)" fill="#252260"/>
                </g>
              </g>
            </g>
            <path id="Trazado_1038816" data-name="Trazado 1038816" d="M256.519,133.818h-.049l-.2-.006c-.133,0-.249-.011-.369-.022-.016,0-.056-.006-.071-.009l-.52-.061c-.076-.01-.147-.021-.217-.036l-.006-.36-.065.35-.133-.026c-.1-.017-.146-.027-.194-.038l-.069-.016-.07-.015c-.066-.014-.13-.029-.195-.046l-.162-.041c-.164-.043-.3-.081-.431-.122l-.1-.032c-.143-.046-.27-.091-.4-.137l-.067-.025a.731.731,0,0,1-.088-.036l-.1-.039c-.114-.046-.228-.1-.354-.156l-.071-.034c-.093-.047-.125-.064-.155-.083-.1-.052-.207-.113-.294-.165s-.162-.1-.214-.141c-.011-.008-.059-.042-.07-.051l.162-.324-.225.276-.19-.159c-.038-.035-.067-.061-.091-.088a2,2,0,0,1-.177-.195c-.01-.013-.032-.043-.051-.069s-.049-.068-.057-.081-.043-.063-.046-.069a1.687,1.687,0,0,1-.108-.227c-.007-.016-.029-.09-.033-.107a.378.378,0,0,1-.019-.081l-.008-.058c0-.013,0-.024,0-.033v-.008a.357.357,0,0,1,.338-.37.333.333,0,0,1,.36.255c.009.009.023.022.045.041l.058.043c.067.044.123.079.187.114l-.07.247.016.018.122-.23.069.036c.015.006.094.043.108.051a.5.5,0,0,1,.074.033c.161.07.265.112.378.156a16.925,16.925,0,0,0,4.876,1.007h.106l.165-.006a1.524,1.524,0,0,0,.307-.044l.03-.013h0l.018-.015a.359.359,0,0,1,.468.01.354.354,0,0,1,.047.476.586.586,0,0,1-.044.06,1.215,1.215,0,0,1-.12.128l-.053.049-.086.067-.061.04a.51.51,0,0,1-.078.046,1.011,1.011,0,0,1-.179.094l-.033.014c-.089.037-.2.077-.282.1l-.069.021c-.108.029-.194.048-.293.065l-.076.013c-.069.012-.142.022-.22.03s-.161.016-.249.021l-.1,0c-.052,0-.091,0-.125,0s-.078,0-.13,0m.279-.5.016.137.012-.134-.027,0m-4.057-.9-.041.15.072-.139-.031-.011" transform="translate(-142.274 -74.18)" fill="#252260"/>
            <path id="Trazado_1038817" data-name="Trazado 1038817" d="M267.64,135.322a.356.356,0,0,1-.356-.356.363.363,0,0,1,.639-.233.352.352,0,0,1-.016.473.509.509,0,0,1-.094.072.356.356,0,0,1-.173.044m.086-.259.125.188Zm-.113-.148-.146-.262Z" transform="translate(-151.495 -76.293)" fill="#252260"/>
            <path id="Trazado_1038818" data-name="Trazado 1038818" d="M257.569,132.343a17.741,17.741,0,0,1-5.128-1.055c-.124-.048-.237-.093-.34-.138-.045-.019-.077-.033-.107-.048a.746.746,0,0,1-.1-.049.3.3,0,0,1-.065-.029l-.09-.045-.075-.041a2.532,2.532,0,0,1-.228-.138l-.075-.053-.058-.045a1.036,1.036,0,0,1-.156-.156c-.009-.011-.045-.063-.052-.075a.559.559,0,0,1-.055-.119.648.648,0,0,1-.023-.115.4.4,0,0,1,.01-.145l.165-.741a.37.37,0,0,1,.558-.211l.055.041a.446.446,0,0,1,.13.1l.006-.009c.049.03.1.06.159.092l.082.041.071.04,0,0,.156.072.081.036.355.145c.123.044.282.1.454.159.148.049.3.1.492.156l.264.075.081.023.1.029.213.055.02.374.085-.346c.373.092.638.15.815.187l.927.17.071.011.128.019.073.011.007.361.091-.348.006.36.075-.35.234.029.116.012.24.021.065.361.029-.355c.119.01.232.015.342.017l.136,0H258a3.186,3.186,0,0,0,.483-.038.444.444,0,0,1,.36.1.371.371,0,0,1,.133.313l-.167.745a.115.115,0,0,0,0,.011.678.678,0,0,1-.053.123.355.355,0,0,1-.1.118.4.4,0,0,1-.033.029,1.064,1.064,0,0,1-.106.07.322.322,0,0,1-.119.049l-.007,0-.036.013a1.879,1.879,0,0,1-.382.065l-.091.007-.085.006-.126,0-.1-.356Zm.889-.574h0Zm-6.388-1.421.069.036c.015.006.094.043.108.051a.521.521,0,0,1,.075.033c.161.07.265.112.378.156a16.935,16.935,0,0,0,4.876,1.007h.106l.165-.006a1.769,1.769,0,0,0,.289-.039l.033-.146c-.065,0-.127.006-.213,0H257.9l-.162,0c-.1,0-.229-.008-.362-.019l-.1-.006-.276-.026-.109-.01-.192-.024-.09-.013-.031-.362-.054.352-.247-.037-.029-.366-.051.353-.48-.082-.071-.013-.36-.071c-.243-.05-.517-.11-.835-.189l-.354-.092-.07-.018.008-.367-.086.346-.361-.1c-.2-.06-.36-.111-.5-.157-.2-.068-.366-.126-.525-.186l-.1-.038-.227-.092-.079-.035-.219-.1a.9.9,0,0,1-.093-.048l-.072-.033,0,0-.032.145.014.012.058.043c.067.044.123.079.187.114l-.1.35Zm.051-.694-.027.105.114-.227Zm-.351-.172.021,0,.1-.151Z" transform="translate(-142.272 -73.162)" fill="#252260"/>
            <path id="Trazado_1038819" data-name="Trazado 1038819" d="M267.64,135.322a.356.356,0,0,1-.356-.356.363.363,0,0,1,.639-.233.352.352,0,0,1-.016.473.509.509,0,0,1-.094.072.356.356,0,0,1-.173.044m.086-.259.125.188Zm-.113-.148-.146-.262Z" transform="translate(-151.495 -76.293)" fill="#252260"/>
            <path id="Trazado_1038820" data-name="Trazado 1038820" d="M257.708,129.592h-.052l-.162,0c-.1,0-.229-.008-.362-.019l-.1-.006-.276-.026-.109-.01-.192-.023-.09-.013-.031-.362.091-.348.006.36.075-.349.234.029.117.012.239.022.065.36.029-.355c.119.01.233.014.343.017l.136,0h.083a3.128,3.128,0,0,0,.483-.038l.144.333-.06-.352.1-.026c.061-.029.082-.038.1-.046l.3.212-.246-.259.308.194-.165-.165h-.086a.352.352,0,0,1,.009-.077l-.011-.012.006-.009.034-.062,0,0h0c.007-.027.014-.049.019-.065s0-.023.006-.036,0-.021,0-.033v-.007s0-.018,0-.035a2.3,2.3,0,0,1-.928.137,17.708,17.708,0,0,1-5.13-1.057,3.192,3.192,0,0,1-1.295-.736l-.029.061-.026,0a.228.228,0,0,1-.065.047l.071.026a.439.439,0,0,0,0,.094s.018.082.018.084.019.041.027.062a.236.236,0,0,1,.013.026.606.606,0,0,0,.062.075l.011.012a.28.28,0,0,1,.029.027c.014.015.032.031.051.048l.054.04a.445.445,0,0,1,.13.1l.006-.009c.049.031.1.06.159.093l.082.041.072.04,0,0,.156.072.081.036.355.145c.123.044.283.1.455.159.147.049.3.1.492.155l.264.075.081.024.1.029.213.055.02.374.085-.346c.373.092.638.15.815.187l.927.17.071.011.128.02.073.011.006.361-.054.352-.246-.037-.029-.366-.051.353-.48-.082-.071-.013-.361-.072c-.243-.05-.517-.11-.834-.188l-.354-.092-.07-.018.008-.368-.086.346-.361-.1c-.2-.06-.36-.111-.5-.156-.2-.068-.367-.127-.525-.186l-.1-.039-.227-.092-.079-.035-.219-.1a.815.815,0,0,1-.092-.049l-.073-.032c-.1-.052-.161-.09-.217-.126l-.081-.05h0l-.017-.01-.063-.043,0-.01a.356.356,0,0,1-.1-.061c-.036-.031-.071-.062-.1-.092l-.006-.005a.347.347,0,0,1-.051-.053,1.019,1.019,0,0,1-.15-.19c-.006-.008-.018-.03-.03-.052a.382.382,0,0,1-.027-.05.864.864,0,0,1-.052-.123.917.917,0,0,1-.036-.121,1.163,1.163,0,0,1-.02-.141,1.054,1.054,0,0,1,.011-.3c0-.015.016-.07.021-.085.014-.045.023-.075.035-.1a.836.836,0,0,1,.041-.094c.015-.022.039-.054.068-.089l-.012-.007c.006-.011.048-.072.055-.083a.609.609,0,0,1,.066-.072s.018-.025.043-.048c.009-.009.035-.034.064-.058a1.124,1.124,0,0,1,.248-.154l.033-.014a.342.342,0,0,1,.06-.023h0a.346.346,0,0,1,.079-.013l0-.014.087-.025a.387.387,0,0,1,.083-.017.35.35,0,0,1,.309.114.356.356,0,0,1,.083.318l-.017.076a3.413,3.413,0,0,0,.951.476,16.871,16.871,0,0,0,4.88,1.011,2.63,2.63,0,0,0,.558-.047l.018-.079a.356.356,0,0,1,.56-.208c.026.019.05.04.073.06a.2.2,0,0,1,.02.018l.071.067.01.011.016.018.028.029-.016-.015h0a.431.431,0,0,1,.046.052l.059.079a1.18,1.18,0,0,1,.075.126c0,.009.033.072.037.081h0a.356.356,0,0,1,.017.046l.006.017a1.072,1.072,0,0,1,.052.22l.008.085a.78.78,0,0,1,0,.081h0c0,.016,0,.069,0,.085a.134.134,0,0,1-.007.052c0,.015-.005.029-.009.045s-.01.04-.016.063h0a.632.632,0,0,1-.022.075c0,.013-.014.039-.023.06a.439.439,0,0,1-.032.073c-.014.027-.042.077-.047.086l-.043.065a.325.325,0,0,1-.022.028c-.017.023-.042.053-.048.059l-.073.075-.057.049-.058.042-.061.042c-.011.007-.078.045-.09.051l-.114.05-.072.026-.069.018-.135-.33.048.355-.136-.336.065.351a3.745,3.745,0,0,1-.626.054h-.051m1.328-1h0Zm0,0h0Zm-7.161-.785-.027.105.113-.227Zm-.326-.233-.057.144.156-.23Zm-.59-.832.195.071-.015-.044Zm.466-.61.022,0-.028-.155Z" transform="translate(-142.028 -71.311)" fill="#252260"/>
            <path id="Trazado_1038821" data-name="Trazado 1038821" d="M265.988,128.977a.362.362,0,0,1-.114-.018.357.357,0,0,1,.164-.693.361.361,0,0,1,.3.275.354.354,0,0,1-.148.376.367.367,0,0,1-.2.061" transform="translate(-150.558 -72.699)" fill="#252260"/>
            <path id="Trazado_1038822" data-name="Trazado 1038822" d="M266.016,128.982a.357.357,0,1,1,.2-.061.345.345,0,0,1-.065.034h0a.368.368,0,0,1-.132.026m0-.363v0Z" transform="translate(-150.574 -72.702)" fill="#252260"/>
            <path id="Trazado_1038823" data-name="Trazado 1038823" d="M266.04,128.98a.357.357,0,1,1,.2-.061.369.369,0,0,1-.2.061m0-.363v0Z" transform="translate(-150.587 -72.7)" fill="#252260"/>
            <path id="Trazado_1038824" data-name="Trazado 1038824" d="M266.064,128.982a.337.337,0,0,1-.07-.007.357.357,0,0,1,.139-.7.362.362,0,0,1,.283.281.355.355,0,0,1-.149.366.369.369,0,0,1-.2.061" transform="translate(-150.601 -72.701)" fill="#252260"/>
            <path id="Trazado_1038825" data-name="Trazado 1038825" d="M258.619,127.82h-.028a17.722,17.722,0,0,1-5.13-1.057c-1.085-.412-1.509-.769-1.417-1.19l.164-.727a.356.356,0,0,1,.228-.258.362.362,0,0,1,.341.056l.113.083a4.23,4.23,0,0,0,.371.2c.079.039.187.088.335.15l.2.078c.343.126.343.126.511.182.332.109.332.109.506.16.351.1.351.1.534.149.16.041.381.1.546.135l.556.124c.361.071.361.071.542.1l.075.013c.273.047.3.051.455.073.344.049.344.049.509.067.317.029.317.029.47.04l.083,0,.075,0c.139.007.163.009.267.01a3.182,3.182,0,0,0,.606-.046.364.364,0,0,1,.351.077.357.357,0,0,1,.11.341l-.164.726h0c-.1.434-.661.5-1.206.5m.858-.576h0Zm-.347-.08h0Zm-6.366-1.544a3.419,3.419,0,0,0,.952.476,16.865,16.865,0,0,0,4.879,1.011,2.625,2.625,0,0,0,.558-.047l.029-.128c-.084,0-.169,0-.258.006-.127,0-.152,0-.306-.011l-.172-.009c-.155-.01-.155-.01-.491-.041-.178-.02-.178-.02-.535-.071-.166-.023-.19-.027-.478-.076l-.075-.013c-.186-.032-.186-.032-.566-.108l-.572-.127c-.173-.04-.4-.1-.566-.14-.191-.051-.191-.051-.554-.155-.184-.055-.184-.055-.529-.167-.177-.059-.177-.059-.5-.176l-.262-.1c-.166-.069-.285-.124-.374-.168-.06-.029-.111-.055-.156-.078Z" transform="translate(-142.851 -70.605)" fill="#252260"/>
            <path id="Trazado_1038826" data-name="Trazado 1038826" d="M258.673,125.373c-.127,0-.152,0-.306-.01l-.172-.009c-.155-.01-.155-.01-.491-.041-.178-.02-.178-.02-.535-.07-.166-.023-.19-.027-.478-.077l-.074-.013c-.187-.032-.187-.032-.566-.107l-.572-.128c-.173-.04-.4-.1-.566-.139-.191-.051-.191-.051-.554-.155-.184-.055-.184-.055-.529-.167-.177-.059-.177-.059-.5-.177l-.262-.1c-.165-.069-.285-.124-.374-.168a4.183,4.183,0,0,1-.43-.238l-.184-.13c-.025-.02-.051-.043-.087-.077a1.413,1.413,0,0,1-.185-.2,1.03,1.03,0,0,1-.1-.153.88.88,0,0,1-.059-.133.923.923,0,0,1-.048-.176.871.871,0,0,1-.017-.15.924.924,0,0,1,0-.115c0-.015,0-.06.007-.073l.02-.1a.407.407,0,0,1,.026-.1l.035-.094.042-.087c0-.01.049-.081.055-.092l.06-.082c.006-.006.092-.1.1-.1a.409.409,0,0,1,.295-.1.372.372,0,0,1,.263.144l.056.058c.051.047.072.069.089.087l.005.005v0c.014.012.053.045.066.059a.7.7,0,0,1,.071.047c.029.02.062.04.1.061.106.062.21.115.331.172.072.034.147.067.227.1l.171.07.09.035.158.059c.1.038.2.072.308.107l.159.053c.217.071.445.137.674.2.12.034.248.068.374.1.235.059.474.118.711.172.016,0,.07.017.084.023l.253.05c.24.05.479.094.711.135l.159.024c.185.029.352.055.515.075.222.03.431.052.626.068a.261.261,0,0,1,.073,0c.022,0,.042.005.061.01h.06l.084,0c.094.005.183.007.258.008a3.844,3.844,0,0,0,.421-.017,1.73,1.73,0,0,0,.173-.028l.112-.031a.376.376,0,0,1,.08-.024c.013-.006.036-.016.059-.025v0l.037-.016a.358.358,0,0,1,.489.182c0,.016.054.152.057.169s.021.1.022.118.009.083.009.091,0,.1,0,.11-.008.081-.01.093-.014.075-.015.077-.019.074-.022.085a.829.829,0,0,1-.053.14.877.877,0,0,1-.071.13c-.009.015-.06.084-.071.1a1.232,1.232,0,0,1-.133.138,1.04,1.04,0,0,1-.142.105,1.12,1.12,0,0,1-.191.1,1.472,1.472,0,0,1-.243.076,3.841,3.841,0,0,1-.8.071m-6.366-2.61.029.1a.449.449,0,0,0,.044.075.556.556,0,0,0,.066.075l.08.072.113.084c.115.068.2.12.371.2.079.039.186.088.334.15l.2.078c.343.127.343.127.511.182.332.109.332.109.506.161.351.1.351.1.534.149.16.041.381.1.547.136l.556.124c.361.071.361.071.542.1l.075.013c.273.046.3.051.455.073.344.049.344.049.509.067.317.029.317.029.47.04l.083,0,.074,0c.139.007.163.009.267.01a3.147,3.147,0,0,0,.606-.046,1.082,1.082,0,0,0,.172-.049.55.55,0,0,0,.079-.039l.093-.08.031-.044c-.046.009-.087.015-.128.02l-.071.009a4.792,4.792,0,0,1-.486.02c-.1,0-.188,0-.29-.009l-.179-.007c-.019,0-.062-.006-.081-.009-.253-.017-.473-.04-.7-.072-.165-.02-.34-.046-.522-.075l-.182-.029c-.239-.04-.486-.087-.733-.138l-.281-.06a.629.629,0,0,1-.074-.02c-.237-.049-.481-.11-.723-.17-.131-.033-.264-.069-.4-.105-.242-.07-.477-.139-.7-.212l-.168-.055c-.109-.036-.217-.074-.322-.113l-.154-.057-.12-.047c-.051-.019-.112-.045-.172-.071-.086-.034-.173-.074-.257-.113-.142-.066-.265-.13-.371-.191-.072-.043-.117-.07-.157-.1s-.089-.063-.128-.094h0l-.3.1Zm7.42,1.621.307.031-.182-.068-.031.007-.04.016-.055.013m.292-.091h.042l-.037,0-.006,0m.076-.031-.031.013.031-.013m-.2-.687a.349.349,0,0,0-.044.019l.044-.019M252.2,122.4l.025.022.038-.052-.02-.009Zm.11-.1v0l.008-.01Z" transform="translate(-142.599 -69.041)" fill="#252260"/>
            <path id="Trazado_1038827" data-name="Trazado 1038827" d="M265.988,128.979a.375.375,0,0,1-.113-.018.356.356,0,0,1-.206-.5h0a.363.363,0,0,1,.369-.194.36.36,0,0,1,.3.274.355.355,0,0,1-.147.376.368.368,0,0,1-.2.061m.319-.2h0Z" transform="translate(-150.558 -72.7)" fill="#252260"/>
            <path id="Trazado_1038828" data-name="Trazado 1038828" d="M266.04,128.981a.356.356,0,0,1-.357-.357v0a.357.357,0,0,1,.687-.136.357.357,0,0,1-.331.494" transform="translate(-150.587 -72.701)" fill="#252260"/>
            <path id="Trazado_1038829" data-name="Trazado 1038829" d="M266.064,128.982a.337.337,0,0,1-.07-.007.357.357,0,0,1-.287-.35v0a.356.356,0,0,1,.426-.349.362.362,0,0,1,.283.281.355.355,0,0,1-.149.366.369.369,0,0,1-.2.061" transform="translate(-150.601 -72.701)" fill="#252260"/>
            <path id="Trazado_1038830" data-name="Trazado 1038830" d="M265.988,128.977a.362.362,0,0,1-.114-.018.357.357,0,0,1,.164-.693.361.361,0,0,1,.3.275.354.354,0,0,1-.148.376.367.367,0,0,1-.2.061" transform="translate(-150.558 -72.699)" fill="#252260"/>
            <path id="Trazado_1038831" data-name="Trazado 1038831" d="M266.016,128.982a.357.357,0,1,1,.2-.061.345.345,0,0,1-.065.034h0a.368.368,0,0,1-.132.026m0-.363v0Z" transform="translate(-150.574 -72.702)" fill="#252260"/>
            <path id="Trazado_1038832" data-name="Trazado 1038832" d="M266.04,128.98a.357.357,0,1,1,.2-.061.369.369,0,0,1-.2.061m0-.363v0Z" transform="translate(-150.587 -72.7)" fill="#252260"/>
            <path id="Trazado_1038833" data-name="Trazado 1038833" d="M266.064,128.982a.337.337,0,0,1-.07-.007.357.357,0,0,1,.139-.7.362.362,0,0,1,.283.281.355.355,0,0,1-.149.366.369.369,0,0,1-.2.061" transform="translate(-150.601 -72.701)" fill="#252260"/>
            <path id="Trazado_1038834" data-name="Trazado 1038834" d="M254.894,98.442h-.024c-.094,0-.191,0-.289-.009l-.178-.01a.493.493,0,0,1-.091-.009c-.243-.016-.463-.04-.693-.069-.169-.02-.344-.047-.525-.076l-.183-.031c-.24-.04-.485-.086-.733-.139l-.3-.062c-.288-.065-.533-.126-.774-.186-.136-.036-.267-.071-.4-.107-.239-.068-.474-.138-.7-.211l-.645-.226-.069-.029-.214-.084c-.1-.042-.187-.079-.268-.117-.142-.066-.265-.13-.371-.191-.072-.043-.117-.07-.158-.1s-.089-.063-.128-.094c-.015-.012-.052-.045-.067-.061v0l-.075-.068.212-.29-.265.239-.094-.1c-.01-.012-.052-.062-.061-.075a.519.519,0,0,1-.057-.073,1.989,1.989,0,0,1-.116-.185,1.081,1.081,0,0,1-.078-.159,1.027,1.027,0,0,1-.059-.154,1.486,1.486,0,0,1-.062-.282,1.579,1.579,0,0,1-.013-.166c0-.023,0-.059,0-.094a.559.559,0,0,1-.006-.112l.012-.239c0-.062.005-.095.005-.125,0-.007,0-.015,0-.023a.22.22,0,0,1,0-.084l0-.237c0-.039-.006-.086-.008-.143,0-.013,0-.026,0-.039l-.024-.246c0-.01,0-.021,0-.031l-.02-.152.064-.023a.315.315,0,0,1-.041-.049h0a.39.39,0,0,1-.033-.063h-.01c0-.007,0-.015,0-.023s0-.02-.006-.032h0c-.007-.029-.011-.055-.015-.079V93.52l-.022-.1.332-.148-.349.075-.147-.526c-.022-.067-.034-.109-.05-.149l-.046-.123-.029-.071c-.034-.087-.053-.129-.074-.171,0,0-.031-.069-.032-.072l-.045-.1.011-.007a.383.383,0,0,1-.04-.055c-.007-.012-.02-.037-.03-.058a.333.333,0,0,1-.025-.048.474.474,0,0,1-.036-.078h0s-.049-.091-.051-.1a.207.207,0,0,1-.03-.054l-.023-.033-.039-.064c-.008-.012-.032-.052-.039-.065l-.134-.2-.044-.064-.007-.01a.389.389,0,0,1-.04-.049s-.044-.061-.046-.065-.064-.079-.068-.084a.329.329,0,0,1-.026-.036l-.025-.027c-.01-.012-.042-.055-.05-.069h0a.506.506,0,0,1-.083-.094c-.008-.011-.045-.059-.052-.07l-.042-.047-.049-.059-.226-.309c-.084-.119-.148-.219-.2-.305-.075-.121-.121-.2-.15-.251s-.068-.12-.1-.183c-.014-.023-.036-.064-.055-.1l-.061-.12a6.764,6.764,0,0,1-.307-.724c0-.01-.006-.021-.009-.031l-.033-.1c-.036-.107-.068-.212-.1-.318-.01-.029-.022-.073-.033-.117-.046-.169-.087-.344-.12-.524-.043-.237-.075-.483-.1-.747l-.02-.318v-.012c-.008-.131-.011-.265-.014-.408v-.128c0-.065,0-.106,0-.149l.36-.116-.357-.012.006-.126.361-.1-.356-.021.011-.179c.019-.259.044-.463.067-.629,0,0,.01-.071.01-.073l.36,0-.347-.085c0-.009.016-.1.017-.107s.014-.1.019-.119l.038-.206s.02-.1.021-.1l.025-.12.366-.009-.347-.084c0-.01.023-.081.025-.09.034-.143.088-.338.138-.51l.029-.107c.028-.1.046-.162.068-.225,0-.01.022-.069.026-.078s.032-.1.036-.109l.34.107-.314-.179.069-.184.028-.072.054-.127c.053-.131.11-.259.17-.39.041-.094.093-.2.146-.306l.048-.1c.081-.159.139-.267.2-.368l.094-.157c.022-.04.052-.088.082-.133a11.7,11.7,0,0,1,.913-1.262,6.113,6.113,0,0,1,.558-.606c.1-.1.187-.18.274-.259l.313.2-.246-.258c.075-.071.149-.138.216-.2l0,0a.237.237,0,0,1,.027-.028c.143-.13.334-.278.507-.405l.1-.077.208-.146c.166-.116.325-.218.469-.3l.017-.013c.148-.1.331-.2.505-.29l.2-.1.257.272-.165-.315c.091-.048.183-.091.276-.131s.166-.076.243-.108l.653-.252.113-.038q.179-.061.344-.108a.512.512,0,0,1,.072-.016.846.846,0,0,1,.138-.042c.195-.052.336-.087.464-.113.158-.035.3-.061.4-.081l.077-.013.072-.012c.045-.008.117-.018.2-.029l.691-.072c.082-.006.173-.012.27-.016l.172-.006c.118,0,.256-.007.384-.005l.14,0c.113,0,.161,0,.209.009l.373.023.054.362.029-.356.176.018c.137.014.22.024.3.036l.192.031a.338.338,0,0,1,.057.009l.081.014.037.007h-.021l.053.007a.464.464,0,0,1,.071.019.238.238,0,0,0-.037-.014c.1.015.164.028.227.041.1.021.192.042.268.061l.137.033c.035.007.073.017.108.029l.1.025c.109.029.22.064.38.113.195.059.444.151.539.186l.272.11.072.029.211.092a.359.359,0,0,1,.036.015l.174.081c.035.017.06.028.085.042l.337.172-.076.363.167-.315c.034.018.069.037.1.057.094.054.19.109.281.164l.133.082c.154.1.265.171.386.256l.151.109c.037.024.064.043.09.064l-.139.339.211-.287c.084.062.177.133.269.21l.069.056c.211.172.426.359.584.519l.062.064.2.194c.113.11.234.244.35.381.148.169.313.363.428.521a.124.124,0,0,1,.01.016,6.616,6.616,0,0,1,.42.6c.158.243.314.5.422.706.091.168.2.384.29.577a6.622,6.622,0,0,1,.336.816c.054.148.134.377.225.7l.027.1c.029.107.062.233.094.37l0,.021,0,.009c.014.059.028.12.039.183s.025.115.036.176l.019.1.053.333-.339.153.351-.062c.008.046.014.091.017.134s.015.105.02.165a.231.231,0,0,1,0,.077c.011.06.019.2.026.334l.007.128s.005.078.005.082l0,.081,0,.049c0,.058.006.107.007.157l0,.1c0,.207,0,.436-.022.623-.014.233-.042.482-.08.732-.046.345-.09.622-.141.859,0,.021-.024.1-.032.118a4.348,4.348,0,0,1-.12.486c-.023.081-.049.17-.078.262l-.094.281c-.033.1-.072.2-.111.308-.066.176-.14.352-.22.526-.046.1-.094.207-.142.3l-.034.068-.087.171c-.058.113-.1.19-.139.259l-.107.186-.061.1c-.034.058-.049.082-.069.109l-.031.049-.048.075c-.061.093-.14.208-.237.336l-.048.064a6.677,6.677,0,0,1-.777.854l-.287.255c-.014.012-.063.05-.079.06l-.17.138-.011.008h0c-.073.056-.143.107-.207.15-.1.071-.2.142-.311.208l-.061.038-.09.055c-.039.023-.089.053-.149.087-.011.006-.077.044-.088.049l-.229-.281.1.35-.093.047c-.076.039-.136.068-.2.1a.271.271,0,0,1-.037.019l-.008,0c-.046.022-.09.044-.139.064-.264.13-.264.13-.39.2l-.063.039c-.154.092-.194.117-.282.177-.23.162-.23.162-.345.253-.218.18-.218.18-.33.282-.2.2-.2.2-.306.307-.2.22-.2.22-.29.337-.176.233-.176.233-.263.359-.158.244-.158.244-.234.377l-.148.273a.253.253,0,0,1-.028.055.31.31,0,0,1-.018.039l-.052.113a.328.328,0,0,1-.016.034c-.007.018-.016.039-.022.051-.03.07-.063.148-.094.226a1.6,1.6,0,0,1-.076.175.768.768,0,0,1-.064.117,1.272,1.272,0,0,1-.111.165l-.1.123a.9.9,0,0,1-.089.089,1.508,1.508,0,0,1-.163.136,1.732,1.732,0,0,1-.159.1,1.4,1.4,0,0,1-.136.074c-.016.007-.052.023-.088.037l0,0c-.015.007-.055.023-.071.028l0,0-.013,0-.006-.039-.146-.275.1.343-.048.015a.657.657,0,0,1-.085.022l-.09.028a2.034,2.034,0,0,1-.2.037l-.079.011c-.132.012-.285.02-.462.02m-.49-.732h.025l.185.01c.093.005.181.007.263.009.152,0,.294-.006.412-.017a1.538,1.538,0,0,0,.172-.029l.076-.021.031-.008c.022-.008.07-.023.086-.026l.059-.024v0c.08-.039.1-.05.137-.07l.093-.059a.879.879,0,0,0,.086-.067l.068-.065.078-.09a.549.549,0,0,0,.042-.061l.357.1-.314-.169.053-.114c.046-.117.081-.2.117-.288,0-.009.009-.02.016-.031a.552.552,0,0,1,.026-.061l.043-.1c0-.009.009-.017.014-.026a.274.274,0,0,1,.018-.038l.028-.056.032-.067s.036-.067.038-.071l.1-.18c.084-.146.084-.146.261-.42.1-.143.1-.143.294-.4.109-.135.108-.135.323-.376.115-.126.115-.126.346-.347.126-.117.126-.117.37-.318.131-.1.131-.1.387-.285.1-.069.147-.1.319-.2l.076-.046c.149-.082.149-.082.41-.21.1-.046.138-.064.177-.084l.014-.006.009,0c.053-.025.106-.049.158-.078l.076-.036.115-.062.246.272-.142-.33.143-.084c.01-.006.092-.055.1-.06.148-.093.239-.157.331-.222.058-.04.118-.084.18-.131h0l.008-.006.171-.134c.013-.01.055-.043.07-.052l.226-.2a6.291,6.291,0,0,0,.717-.786l.331.153-.284-.216c.088-.115.157-.217.211-.3l.341.129-.3-.19.047-.075.348.114-.306-.182.044-.071.072-.123.042-.075c.035-.063.075-.133.115-.212l.094-.184.354.088-.32-.157c.043-.088.088-.183.132-.282.076-.165.143-.324.2-.485.036-.1.072-.195.105-.293l.159-.5h0c.069-.243.112-.428.128-.5.061-.277.1-.534.134-.791,0,0,.011-.078.012-.08.033-.227.061-.454.072-.653a5.727,5.727,0,0,0,.022-.584l-.008-.205c0-.006-.006-.088-.006-.093l.353-.09-.361-.05s0-.071,0-.072c-.01-.183-.017-.31-.028-.419-.009-.082-.014-.125-.021-.171,0,0-.013-.1-.013-.1s-.013-.1-.013-.1l.338-.146-.353.052-.037-.23.337-.141-.35.065c-.013-.071-.024-.124-.038-.181s-.023-.114-.033-.159c0-.009,0-.019-.006-.031h0c-.029-.127-.059-.245-.089-.353l-.022-.084c-.086-.3-.161-.516-.191-.6a6.524,6.524,0,0,0-.311-.766c-.1-.219-.2-.42-.29-.578-.1-.187-.244-.429-.36-.606l-.047-.072a5.925,5.925,0,0,0-.388-.548.28.28,0,0,1-.023-.033c-.1-.138-.243-.3-.361-.438s-.227-.258-.322-.352l-.171-.169c-.053-.051-.08-.079-.1-.106-.136-.137-.328-.3-.5-.446l-.091-.074c-.081-.068-.163-.13-.236-.184l-.091-.066.138-.338-.212.286-.134-.1c-.11-.078-.211-.146-.326-.217l-.133-.083a.613.613,0,0,1-.069-.049c-.035-.014-.127-.067-.226-.123l-.074-.041.082-.36-.163.316L259,77.39l-.162.318-.261-.131.09-.352-.155.321-.168-.079-.087-.036-.105-.046.04-.368-.136.329-.231-.095c-.1-.038-.335-.123-.516-.178-.152-.047-.256-.079-.358-.107l-.07-.017-.117-.031-.139-.032c-.071-.017-.156-.037-.25-.056-.073-.016-.147-.031-.227-.044l-.031-.007-.078-.012-.048-.008-.036,0-.146-.024c-.127-.019-.2-.028-.272-.036l-.2-.02-.03-.36-.064.353-.356-.023c-.054,0-.079-.006-.1-.006l-.214,0c-.124,0-.247,0-.376,0l-1.028.087c-.076.01-.136.018-.185.027l-.112.019c-.125.023-.255.047-.41.081-.12.025-.248.057-.388.094l-.211.058c-.124.036-.228.067-.336.1l-.723.274c-.067.028-.144.062-.224.1s-.16.071-.236.111l-.173.085c-.029.017-.073.039-.129.065-.143.076-.305.165-.435.249-.161.1-.312.2-.472.308l-.266.191c-.176.13-.34.256-.467.368l-.013.013-.064.052c-.036.033-.1.093-.169.155l-.066.061q-.138.125-.237.224a1.043,1.043,0,0,1-.088.076c-.11.109-.313.33-.449.5a11.183,11.183,0,0,0-.846,1.164c-.042.068-.063.1-.083.137l-.085.144c-.058.1-.11.2-.16.3l-.067.131c-.052.1-.1.2-.137.29-.061.129-.112.246-.16.364l-.138.35-.025.07c0,.014-.025.072-.029.086s-.025.071-.028.078c-.021.069-.036.117-.047.159l-.04.146c-.052.18-.1.365-.143.527l-.37.013.349.073-.016.071s-.019.091-.02.093l-.358-.029.34.122-.044.233a.37.37,0,0,1-.013.079l-.359-.009.349.084s-.015.1-.015.1c-.029.21-.052.4-.069.638l-.011.171-.36.058.356.019-.009.227c0,.005,0,.132,0,.136v.114c0,.016,0,.069,0,.086.006.083.008.209.016.33v.008c0,.006,0,.01,0,.016l.013.228a7.115,7.115,0,0,0,.092.74c.029.162.065.318.108.474l.023.081c.033.112.062.209.095.306l.027.081c0,.011.007.023.011.037h0a5.891,5.891,0,0,0,.272.642l.1.2c.034.065.063.118.094.172s.069.12.12.2.118.187.182.279l.324.427c.065.084.1.12.129.158l0,0a.287.287,0,0,1,.045.049l.043.053s.068.086.071.092.042.055.048.066l0,0,.022.028h0l.047.065c.007.01.042.058.048.068l.115.171-.253.265.3-.2c.007.009.046.075.052.084s.079.132.087.149.051.091.065.121a.735.735,0,0,1,.045.082h0l.013.023.013.026c0,.008.01.016.014.024l.04.084.036.077-.276.257.321-.155c.029.063.057.124.08.186l-.3.2.337-.117.046.124c.031.079.05.137.068.195.01.026.025.067.037.108l.067.231-.321.181.341-.1.019.072s.02.083.021.088.014.071.016.079a.357.357,0,0,1,.017.08l.011.048a.364.364,0,0,1,.012.061h0a.353.353,0,0,1,.015.078h0a.291.291,0,0,1,.008.1h.01c0,.01.011.069.012.08l.025.185a.35.35,0,0,1,0,.091v0a.62.62,0,0,1,.014.119c0,.029.007.067.01.108,0,.013,0,.027,0,.04,0,.051,0,.09.006.122l.007.269c0,.011,0,.07,0,.081h0v0c0,.01,0,.02,0,.026a.377.377,0,0,1-.007.077.359.359,0,0,1,0,.107v.086s0,.071,0,.076l-.006.079.007.093a1.543,1.543,0,0,0,.008.162.743.743,0,0,0,.031.14.614.614,0,0,0,.034.091.628.628,0,0,0,.045.095l.126.189-.209.3.271-.232c.068.066.089.087.106.1l0,.005,0,0c.014.012.053.045.066.059a.723.723,0,0,1,.071.046c.029.02.062.04.1.061.106.062.21.115.331.172.074.035.151.068.233.1l.176.071.077.03.632.221c.211.069.437.136.666.2.126.036.253.069.381.1.231.058.47.117.707.17.016,0,.07.017.084.023l.25.048q.363.075.712.134l.179.03c.166.026.332.052.5.071q.331.042.626.066l.047,0a.082.082,0,0,0,.025,0m-6.969-2.961h0Zm.1-1.08-.106.1.279-.1Zm.2-.077-.043.013h.068Zm-.644-1.644-.044.053.105-.072Zm-.035-.205-.111.05Z" transform="translate(-138.504 -43.032)" fill="#252260"/>
            <path id="Trazado_1038835" data-name="Trazado 1038835" d="M282.065,71.947a.344.344,0,0,1-.149-.033.356.356,0,0,1-.174-.473l2.008-4.328a.356.356,0,1,1,.646.3l-2.007,4.328a.356.356,0,0,1-.323.207" transform="translate(-159.671 -37.921)" fill="#252260"/>
            <path id="Trazado_1038836" data-name="Trazado 1038836" d="M285.508,77.675a.356.356,0,0,1-.233-.626l2.459-2.111a.356.356,0,0,1,.465.54l-2.459,2.111a.358.358,0,0,1-.233.086" transform="translate(-161.622 -42.425)" fill="#252260"/>
            <path id="Trazado_1038837" data-name="Trazado 1038837" d="M277.761,71.956h-.008a.357.357,0,0,1-.349-.364l.07-3.31a.357.357,0,0,1,.357-.349h.007a.357.357,0,0,1,.349.364l-.069,3.31a.357.357,0,0,1-.357.349" transform="translate(-157.231 -38.504)" fill="#252260"/>
            <path id="Trazado_1038838" data-name="Trazado 1038838" d="M84.449,29.446q0-.2-.019-.386v0a7.877,7.877,0,0,0,1.246-.607,5.141,5.141,0,0,0-.763-1.842,8.059,8.059,0,0,0-1.311.451,3.965,3.965,0,0,0-.548-.551A7.88,7.88,0,0,0,83.5,25.2a5.069,5.069,0,0,0-1.842-.761,8.09,8.09,0,0,0-.607,1.244c-.129-.013-.257-.019-.388-.019s-.259.006-.388.019a8.051,8.051,0,0,0-.607-1.244,5.075,5.075,0,0,0-1.842.761,7.921,7.921,0,0,0,.451,1.309,3.965,3.965,0,0,0-.548.551,7.926,7.926,0,0,0-1.311-.451,5.132,5.132,0,0,0-.763,1.842,7.957,7.957,0,0,0,1.246.607,3.953,3.953,0,0,0,0,.775,8.153,8.153,0,0,0-1.246.607,5.117,5.117,0,0,0,.763,1.842,7.926,7.926,0,0,0,1.311-.451,3.965,3.965,0,0,0,.548.551,7.921,7.921,0,0,0-.451,1.309,5.117,5.117,0,0,0,1.842.763,8.066,8.066,0,0,0,.607-1.246c.129.013.257.019.388.019s.259-.007.388-.019a8.107,8.107,0,0,0,.607,1.246,5.111,5.111,0,0,0,1.842-.763,7.88,7.88,0,0,0-.451-1.309,3.965,3.965,0,0,0,.548-.551,8.059,8.059,0,0,0,1.311.451,5.125,5.125,0,0,0,.763-1.842,8.069,8.069,0,0,0-1.246-.607c.013-.126.019-.257.019-.388m-5.584,0a1.8,1.8,0,1,1,1.8,1.8,1.8,1.8,0,0,1-1.8-1.8" transform="translate(-42.882 -13.852)" fill="#7f50fd"/>
            <path id="Trazado_1038839" data-name="Trazado 1038839" d="M81.2,34.344a.357.357,0,0,1-.306-.173,8.457,8.457,0,0,1-.536-1.057c-.1,0-.206,0-.308,0a8.563,8.563,0,0,1-.535,1.056.358.358,0,0,1-.376.167,5.509,5.509,0,0,1-1.971-.817.355.355,0,0,1-.148-.381,8.174,8.174,0,0,1,.367-1.126c-.074-.069-.147-.143-.217-.218a8.364,8.364,0,0,1-1.127.368.357.357,0,0,1-.383-.148,5.506,5.506,0,0,1-.816-1.972.357.357,0,0,1,.167-.375,8.752,8.752,0,0,1,1.055-.535c0-.051,0-.1,0-.154s0-.1,0-.152a8.466,8.466,0,0,1-1.055-.536.357.357,0,0,1-.168-.376,5.517,5.517,0,0,1,.816-1.971.357.357,0,0,1,.383-.148,8.3,8.3,0,0,1,1.127.368c.07-.076.143-.149.217-.218a8.257,8.257,0,0,1-.367-1.126.356.356,0,0,1,.148-.382,5.451,5.451,0,0,1,1.972-.814.355.355,0,0,1,.375.167,8.567,8.567,0,0,1,.535,1.053c.1,0,.206,0,.308,0a8.547,8.547,0,0,1,.535-1.054.358.358,0,0,1,.374-.166,5.455,5.455,0,0,1,1.972.814.356.356,0,0,1,.148.382,8.319,8.319,0,0,1-.367,1.126c.074.069.147.143.217.218a8.458,8.458,0,0,1,1.125-.367.356.356,0,0,1,.384.147,5.521,5.521,0,0,1,.816,1.971.356.356,0,0,1-.167.376,8.49,8.49,0,0,1-1.056.535c0,.05,0,.1,0,.153s0,.1,0,.154a8.367,8.367,0,0,1,1.057.536.355.355,0,0,1,.166.375,5.51,5.51,0,0,1-.816,1.971.356.356,0,0,1-.384.147,8.46,8.46,0,0,1-1.125-.367c-.07.076-.143.149-.217.218a8.235,8.235,0,0,1,.367,1.126.355.355,0,0,1-.148.381,5.5,5.5,0,0,1-1.971.817.342.342,0,0,1-.069.007m-.608-1.959a.357.357,0,0,1,.333.228,7.8,7.8,0,0,0,.452.968,4.787,4.787,0,0,0,1.252-.519,7.491,7.491,0,0,0-.364-1,.356.356,0,0,1,.1-.421,3.669,3.669,0,0,0,.5-.5.356.356,0,0,1,.42-.1,7.6,7.6,0,0,0,1,.364,4.8,4.8,0,0,0,.519-1.252,7.745,7.745,0,0,0-.968-.453.356.356,0,0,1-.226-.368c.011-.114.016-.233.016-.352a3.486,3.486,0,0,0-.017-.351.361.361,0,0,1,.228-.37,7.344,7.344,0,0,0,.967-.451,4.8,4.8,0,0,0-.519-1.252,7.592,7.592,0,0,0-1,.364.356.356,0,0,1-.42-.1,3.638,3.638,0,0,0-.5-.5.356.356,0,0,1-.1-.421,7.547,7.547,0,0,0,.364-1,4.752,4.752,0,0,0-1.252-.517,7.677,7.677,0,0,0-.452.967.352.352,0,0,1-.37.226,3.462,3.462,0,0,0-.7,0,.351.351,0,0,1-.369-.227,7.61,7.61,0,0,0-.453-.966,4.767,4.767,0,0,0-1.252.517,7.546,7.546,0,0,0,.364,1,.356.356,0,0,1-.1.421,3.606,3.606,0,0,0-.5.5.356.356,0,0,1-.419.1,7.709,7.709,0,0,0-1.006-.365,4.788,4.788,0,0,0-.519,1.252,7.25,7.25,0,0,0,.965.451.358.358,0,0,1,.229.369,3.514,3.514,0,0,0-.017.353c0,.119.006.238.016.352a.356.356,0,0,1-.226.368,7.734,7.734,0,0,0-.967.453,4.779,4.779,0,0,0,.519,1.252,7.469,7.469,0,0,0,1.005-.366.357.357,0,0,1,.42.1,3.5,3.5,0,0,0,.5.5.356.356,0,0,1,.1.421,7.49,7.49,0,0,0-.364,1,4.8,4.8,0,0,0,1.253.519,7.809,7.809,0,0,0,.452-.968.351.351,0,0,1,.367-.227,3.5,3.5,0,0,0,.706,0h.035" transform="translate(-42.416 -13.385)" fill="#252260"/>
            <path id="Trazado_1038840" data-name="Trazado 1038840" d="M84.395,35.331a2.159,2.159,0,1,1,2.159-2.16,2.162,2.162,0,0,1-2.159,2.16m0-3.605a1.446,1.446,0,1,0,1.446,1.446,1.448,1.448,0,0,0-1.446-1.446" transform="translate(-46.611 -17.578)" fill="#252260"/>
            <path id="Trazado_1038841" data-name="Trazado 1038841" d="M209.5,71.879h1.225a6.737,6.737,0,0,0-.4-2.255l-1.145.418a5.33,5.33,0,0,0-.934-1.618l.937-.786a6.533,6.533,0,0,0-1.755-1.469l-.61,1.054a5.362,5.362,0,0,0-1.755-.637l.211-1.2c-.192-.028-.379-.066-.571-.077l-.574-.027-.574.027c-.192.011-.382.049-.571.077l.212,1.2a5.36,5.36,0,0,0-1.755.637l-.61-1.054a6.493,6.493,0,0,0-1.755,1.469l.937.786a5.338,5.338,0,0,0-.934,1.618l-1.145-.418a6.737,6.737,0,0,0-.4,2.255h1.225a5.377,5.377,0,0,0,.324,1.84l-1.145.417a6.629,6.629,0,0,0,1.143,1.983l.937-.786a5.4,5.4,0,0,0,1.428,1.2l-.61,1.057a6.7,6.7,0,0,0,2.153.783l.212-1.2a5.338,5.338,0,0,0,1.868,0l.211,1.2a6.7,6.7,0,0,0,2.153-.783l-.613-1.057a5.36,5.36,0,0,0,1.431-1.2l.937.786a6.629,6.629,0,0,0,1.143-1.983l-1.145-.417a5.378,5.378,0,0,0,.324-1.84m-5.375,2.812a2.863,2.863,0,1,1,2.862-2.864,2.864,2.864,0,0,1-2.862,2.864" transform="translate(-111.955 -37.001)" fill="#7f50fd"/>
            <path id="Trazado_1038842" data-name="Trazado 1038842" d="M204.8,78.266a.355.355,0,0,1-.35-.3l-.151-.862a5.7,5.7,0,0,1-1.286,0l-.152.863a.351.351,0,0,1-.147.23.366.366,0,0,1-.267.058,7.009,7.009,0,0,1-2.268-.825.359.359,0,0,1-.132-.487l.438-.759a5.785,5.785,0,0,1-.983-.826l-.673.563a.367.367,0,0,1-.26.082.357.357,0,0,1-.243-.126,6.94,6.94,0,0,1-1.2-2.09.356.356,0,0,1,.213-.457l.82-.3a5.737,5.737,0,0,1-.222-1.268h-.88a.356.356,0,0,1-.356-.359,7.055,7.055,0,0,1,.425-2.374.36.36,0,0,1,.457-.212l.821.3a5.694,5.694,0,0,1,.642-1.114l-.671-.563a.356.356,0,0,1-.046-.5,6.829,6.829,0,0,1,1.852-1.55.355.355,0,0,1,.27-.036.36.36,0,0,1,.217.166l.436.756a5.727,5.727,0,0,1,1.209-.439l-.151-.859a.357.357,0,0,1,.3-.415l.158-.024a4.166,4.166,0,0,1,.445-.055l.575-.028.61.028a4.166,4.166,0,0,1,.437.054l.166.026a.357.357,0,0,1,.3.415l-.152.859a5.7,5.7,0,0,1,1.209.439l.437-.756a.356.356,0,0,1,.217-.166.361.361,0,0,1,.271.036,6.82,6.82,0,0,1,1.85,1.551.355.355,0,0,1-.046.5l-.671.563a5.651,5.651,0,0,1,.642,1.114l.82-.3a.359.359,0,0,1,.457.212,7.045,7.045,0,0,1,.425,2.374.355.355,0,0,1-.356.359h-.88a5.65,5.65,0,0,1-.223,1.268l.821.3a.356.356,0,0,1,.213.457,6.931,6.931,0,0,1-1.2,2.09.358.358,0,0,1-.243.126.37.37,0,0,1-.26-.082l-.672-.563a5.718,5.718,0,0,1-.985.827l.44.757a.357.357,0,0,1-.131.488,7.021,7.021,0,0,1-2.269.825.386.386,0,0,1-.063.006m-3.95-1.279a6.274,6.274,0,0,0,1.373.5l.148-.842a.353.353,0,0,1,.148-.23.357.357,0,0,1,.267-.058,5.022,5.022,0,0,0,1.741,0,.359.359,0,0,1,.267.058.353.353,0,0,1,.146.231l.148.841a6.325,6.325,0,0,0,1.373-.5l-.428-.739a.357.357,0,0,1-.036-.271.36.36,0,0,1,.166-.217,4.99,4.99,0,0,0,1.337-1.121.355.355,0,0,1,.5-.043l.655.549a6.405,6.405,0,0,0,.728-1.264l-.8-.292a.356.356,0,0,1-.213-.457,5,5,0,0,0,.3-1.719.357.357,0,0,1,.357-.357h.856a6.352,6.352,0,0,0-.257-1.438l-.8.292a.361.361,0,0,1-.273-.012.356.356,0,0,1-.184-.2,4.958,4.958,0,0,0-.871-1.51.356.356,0,0,1,.044-.5l.656-.551a6.081,6.081,0,0,0-1.121-.935l-.427.737a.355.355,0,0,1-.486.13,4.991,4.991,0,0,0-1.638-.6.356.356,0,0,1-.289-.413l.147-.842c-.058-.007-.117-.014-.176-.017l-.572-.028-.539.028c-.058,0-.116.01-.175.017l.149.842a.356.356,0,0,1-.289.413,4.989,4.989,0,0,0-1.639.6.356.356,0,0,1-.486-.13l-.426-.738a6.146,6.146,0,0,0-1.121.936l.657.551a.356.356,0,0,1,.044.5,4.973,4.973,0,0,0-.872,1.51.357.357,0,0,1-.184.2.352.352,0,0,1-.273.012l-.8-.292a6.376,6.376,0,0,0-.257,1.438h.857a.356.356,0,0,1,.356.357,5.013,5.013,0,0,0,.3,1.719.356.356,0,0,1-.213.457l-.8.292a6.386,6.386,0,0,0,.728,1.264l.656-.549a.354.354,0,0,1,.5.044,5.039,5.039,0,0,0,1.334,1.121.359.359,0,0,1,.13.487Z" transform="translate(-111.489 -36.536)" fill="#252260"/>
            <path id="Trazado_1038843" data-name="Trazado 1038843" d="M208.544,79.4a3.22,3.22,0,1,1,3.218-3.221,3.225,3.225,0,0,1-3.218,3.221m0-5.727a2.507,2.507,0,1,0,2.505,2.505,2.509,2.509,0,0,0-2.505-2.505" transform="translate(-116.376 -41.354)" fill="#252260"/>
            <path id="Trazado_1038844" data-name="Trazado 1038844" d="M241.2,41.75h1.065a4.6,4.6,0,0,0-.275-1.54L241,40.57a3.4,3.4,0,0,0-.59-1.045l.8-.668a4.418,4.418,0,0,0-1.2-1l-.515.891a3.377,3.377,0,0,0-1.132-.415l.178-1.011c-.13-.018-.259-.045-.389-.052l-.392-.019-.392.019c-.13.007-.259.034-.389.052l.178,1.011a3.377,3.377,0,0,0-1.132.415l-.515-.891a4.418,4.418,0,0,0-1.2,1l.8.668a3.409,3.409,0,0,0-.59,1.045l-.986-.359a4.6,4.6,0,0,0-.275,1.54h1.065a3.4,3.4,0,0,0,.217,1.171l-1.007.367a4.554,4.554,0,0,0,.779,1.354l.832-.7a3.454,3.454,0,0,0,.912.756l-.546.945a4.538,4.538,0,0,0,1.469.535l.19-1.08a3.412,3.412,0,0,0,1.182,0l.19,1.08a4.537,4.537,0,0,0,1.469-.535l-.546-.945a3.447,3.447,0,0,0,.912-.756l.832.7a4.544,4.544,0,0,0,.779-1.354l-1.007-.367a3.387,3.387,0,0,0,.217-1.171m-3.437,2.228a2.264,2.264,0,1,1,2.265-2.265,2.264,2.264,0,0,1-2.265,2.265" transform="translate(-132.209 -21.112)" fill="#fff"/>
            <path id="Trazado_1038845" data-name="Trazado 1038845" d="M238.076,46.072a.359.359,0,0,1-.2-.064.355.355,0,0,1-.147-.23l-.132-.746a3.918,3.918,0,0,1-.6,0l-.132.746a.353.353,0,0,1-.147.23.368.368,0,0,1-.266.058,4.826,4.826,0,0,1-1.584-.577.356.356,0,0,1-.13-.486l.375-.649a3.736,3.736,0,0,1-.462-.384l-.574.481a.356.356,0,0,1-.5-.045,4.889,4.889,0,0,1-.84-1.46.356.356,0,0,1,.213-.457l.685-.249a3.791,3.791,0,0,1-.11-.6h-.727a.356.356,0,0,1-.357-.359,4.94,4.94,0,0,1,.3-1.659.358.358,0,0,1,.457-.212l.662.241a3.861,3.861,0,0,1,.3-.537l-.537-.451a.356.356,0,0,1-.046-.5,4.716,4.716,0,0,1,1.3-1.084.355.355,0,0,1,.486.13l.344.595a3.746,3.746,0,0,1,.584-.214l-.118-.675a.355.355,0,0,1,.3-.415l.112-.017a2.872,2.872,0,0,1,.308-.038l.393-.019.426.019a2.864,2.864,0,0,1,.31.038l.111.017a.355.355,0,0,1,.3.415l-.118.675a3.73,3.73,0,0,1,.584.214l.345-.595a.357.357,0,0,1,.486-.13,4.75,4.75,0,0,1,1.295,1.084.357.357,0,0,1-.046.5l-.538.451a3.729,3.729,0,0,1,.3.537l.662-.241a.357.357,0,0,1,.457.212,4.917,4.917,0,0,1,.3,1.659.357.357,0,0,1-.357.359h-.727a3.873,3.873,0,0,1-.11.6l.684.25a.356.356,0,0,1,.213.457,4.876,4.876,0,0,1-.84,1.46.355.355,0,0,1-.243.126.371.371,0,0,1-.26-.082l-.574-.481a3.83,3.83,0,0,1-.461.384l.375.649a.355.355,0,0,1-.13.486,4.852,4.852,0,0,1-1.585.577.337.337,0,0,1-.062.006m-2.536-1.035a4.144,4.144,0,0,0,.688.25l.126-.714a.357.357,0,0,1,.146-.23.363.363,0,0,1,.267-.058,3.058,3.058,0,0,0,1.057,0,.364.364,0,0,1,.266.058.355.355,0,0,1,.146.23l.126.714a4.154,4.154,0,0,0,.688-.25l-.36-.623a.356.356,0,0,1,.131-.487,3.089,3.089,0,0,0,.817-.678.356.356,0,0,1,.5-.042l.547.458a4.183,4.183,0,0,0,.365-.634l-.658-.24a.355.355,0,0,1-.2-.186.36.36,0,0,1-.01-.273,3.023,3.023,0,0,0,.195-1.049.356.356,0,0,1,.356-.354h.691a4.136,4.136,0,0,0-.128-.72l-.636.231a.355.355,0,0,1-.458-.217,3.065,3.065,0,0,0-.528-.937.355.355,0,0,1,.046-.5l.512-.429a4.031,4.031,0,0,0-.562-.469l-.33.569a.356.356,0,0,1-.488.13,3.016,3.016,0,0,0-1.013-.371.357.357,0,0,1-.29-.414l.113-.645-.382-.019-.348.019.113.645a.357.357,0,0,1-.059.267.361.361,0,0,1-.231.146,3.02,3.02,0,0,0-1.013.371.367.367,0,0,1-.271.037.354.354,0,0,1-.217-.166l-.329-.569a4.014,4.014,0,0,0-.563.469l.512.429a.356.356,0,0,1,.046.5,3.067,3.067,0,0,0-.529.937.355.355,0,0,1-.458.217l-.636-.231a4.228,4.228,0,0,0-.128.72h.691a.357.357,0,0,1,.357.354,3,3,0,0,0,.194,1.048.356.356,0,0,1-.01.274.352.352,0,0,1-.2.186l-.658.24a4.139,4.139,0,0,0,.364.633l.547-.458a.356.356,0,0,1,.5.042,3.08,3.08,0,0,0,.817.678.356.356,0,0,1,.132.487Z" transform="translate(-131.744 -20.647)" fill="#252260"/>
            <path id="Trazado_1038846" data-name="Trazado 1038846" d="M240.222,46.75a2.62,2.62,0,1,1,2.621-2.62,2.624,2.624,0,0,1-2.621,2.62m0-4.528a1.908,1.908,0,1,0,1.908,1.907,1.91,1.91,0,0,0-1.908-1.907" transform="translate(-134.671 -23.527)" fill="#252260"/>
            <path id="Trazado_1038847" data-name="Trazado 1038847" d="M86.124,66.575H87.19a4.6,4.6,0,0,0-.275-1.54l-.986.359a3.4,3.4,0,0,0-.59-1.045l.8-.668a4.408,4.408,0,0,0-1.2-1l-.515.89a3.383,3.383,0,0,0-1.132-.415l.178-1.011c-.13-.018-.259-.045-.389-.052l-.392-.019-.392.019c-.13.007-.259.034-.389.052l.178,1.011a3.377,3.377,0,0,0-1.132.415l-.515-.89a4.408,4.408,0,0,0-1.2,1l.8.668a3.408,3.408,0,0,0-.59,1.045l-.985-.359a4.594,4.594,0,0,0-.276,1.54H79.25a3.4,3.4,0,0,0,.217,1.171l-1.007.367a4.543,4.543,0,0,0,.779,1.354l.832-.7a3.445,3.445,0,0,0,.912.756l-.546.945a4.538,4.538,0,0,0,1.469.535l.19-1.08a3.412,3.412,0,0,0,1.182,0l.19,1.08a4.538,4.538,0,0,0,1.469-.535l-.546-.945a3.443,3.443,0,0,0,.912-.756l.832.7a4.544,4.544,0,0,0,.779-1.354l-1.007-.367a3.387,3.387,0,0,0,.217-1.171M82.687,68.8a2.264,2.264,0,1,1,2.265-2.265A2.265,2.265,0,0,1,82.687,68.8" transform="translate(-44.315 -35.183)" fill="#fff"/>
            <path id="Trazado_1038848" data-name="Trazado 1038848" d="M81.441,70.9a.38.38,0,0,1-.063-.005,4.856,4.856,0,0,1-1.584-.578.356.356,0,0,1-.13-.486l.375-.65a3.692,3.692,0,0,1-.462-.383L79,69.276a.356.356,0,0,1-.5-.044,4.88,4.88,0,0,1-.841-1.461.356.356,0,0,1,.213-.457l.685-.249a3.791,3.791,0,0,1-.11-.6H77.72a.356.356,0,0,1-.357-.359,4.942,4.942,0,0,1,.3-1.659.356.356,0,0,1,.457-.212l.663.241a3.733,3.733,0,0,1,.3-.537l-.538-.451a.357.357,0,0,1-.046-.5,4.751,4.751,0,0,1,1.295-1.084.356.356,0,0,1,.486.13l.344.595a3.727,3.727,0,0,1,.584-.214l-.118-.675a.356.356,0,0,1,.3-.415l.112-.016a2.874,2.874,0,0,1,.308-.038l.393-.019.426.019a2.866,2.866,0,0,1,.31.038l.111.016a.357.357,0,0,1,.3.415l-.119.675a3.731,3.731,0,0,1,.584.214l.345-.595a.357.357,0,0,1,.486-.13,4.75,4.75,0,0,1,1.295,1.084.357.357,0,0,1-.046.5l-.538.451a3.774,3.774,0,0,1,.3.537l.662-.241a.356.356,0,0,1,.457.212,4.933,4.933,0,0,1,.3,1.659.356.356,0,0,1-.357.359H86a3.863,3.863,0,0,1-.11.6l.684.25a.356.356,0,0,1,.213.457,4.873,4.873,0,0,1-.84,1.461.355.355,0,0,1-.243.126.361.361,0,0,1-.26-.082l-.574-.481a3.725,3.725,0,0,1-.462.383l.375.65a.355.355,0,0,1-.13.486,4.863,4.863,0,0,1-1.585.578.365.365,0,0,1-.267-.059.356.356,0,0,1-.146-.23l-.131-.746a3.818,3.818,0,0,1-.6,0l-.132.746a.353.353,0,0,1-.147.23.357.357,0,0,1-.2.064m-.975-1.035a4.145,4.145,0,0,0,.688.25l.126-.714a.357.357,0,0,1,.146-.23.361.361,0,0,1,.266-.058,3.079,3.079,0,0,0,1.058,0,.357.357,0,0,1,.413.289l.125.714a4.155,4.155,0,0,0,.688-.25l-.36-.623a.357.357,0,0,1,.131-.488,3.045,3.045,0,0,0,.817-.678.355.355,0,0,1,.5-.042l.547.459a4.185,4.185,0,0,0,.365-.634l-.658-.24a.355.355,0,0,1-.2-.186.36.36,0,0,1-.01-.273,3.023,3.023,0,0,0,.195-1.049.357.357,0,0,1,.356-.354h.692a4.232,4.232,0,0,0-.129-.72l-.636.232a.356.356,0,0,1-.458-.217,3.065,3.065,0,0,0-.528-.937.355.355,0,0,1,.046-.5l.512-.429a4.061,4.061,0,0,0-.563-.469l-.33.569a.356.356,0,0,1-.488.13,3.017,3.017,0,0,0-1.013-.371.357.357,0,0,1-.29-.414l.113-.645-.382-.019-.348.019.113.645a.357.357,0,0,1-.059.267.361.361,0,0,1-.231.146,3,3,0,0,0-1.012.371.368.368,0,0,1-.271.037.356.356,0,0,1-.217-.166l-.33-.569a4.031,4.031,0,0,0-.562.469l.512.429a.355.355,0,0,1,.046.5,3.05,3.05,0,0,0-.528.936.357.357,0,0,1-.459.218l-.637-.232a4.243,4.243,0,0,0-.128.72h.691a.357.357,0,0,1,.357.354,3,3,0,0,0,.194,1.048.356.356,0,0,1-.01.274.352.352,0,0,1-.2.186l-.658.24a4.074,4.074,0,0,0,.365.633l.546-.459a.356.356,0,0,1,.5.042,3.06,3.06,0,0,0,.817.679.356.356,0,0,1,.132.487Z" transform="translate(-43.849 -34.718)" fill="#252260"/>
            <path id="Trazado_1038849" data-name="Trazado 1038849" d="M85.149,71.575a2.62,2.62,0,1,1,2.621-2.62,2.624,2.624,0,0,1-2.621,2.62m0-4.528a1.908,1.908,0,1,0,1.908,1.907,1.91,1.91,0,0,0-1.908-1.907" transform="translate(-46.776 -37.598)" fill="#252260"/>
            <path id="Trazado_1038850" data-name="Trazado 1038850" d="M207.436,19.207a3.454,3.454,0,1,0-.3,5.152,3.314,3.314,0,0,0,.3-.268,3.453,3.453,0,0,0,0-4.884m-4.1,4.1a2.341,2.341,0,1,1,3.311,0,2.342,2.342,0,0,1-3.311,0" transform="translate(-114.232 -10.314)" fill="#fcb857"/>
            <path id="Trazado_1038851" data-name="Trazado 1038851" d="M154.929,208.3l-.678.074L115.012,212.7,113,212.92l-1.034-9.369-.34-3.076-.823-7.445-.08-.733,1.415-1.6,2.506-2.836,1.21-1.367,7.073-8a7.875,7.875,0,0,0-8.965-12.464,9.719,9.719,0,0,1,3.646-1.155l6.517-.72a12.023,12.023,0,0,0,8.018,1.831c4.849-.534,6.191-3.4,6.191-3.4l1.623-.179a9.683,9.683,0,0,1,2.2.006,9.877,9.877,0,0,1,8.671,8.7l1.143,10.345.413,3.735.32,2.932.528,4.785.019.166.391,3.537.323,2.922Z" transform="translate(-62.76 -92.022)" fill="#d6f3e1"/>
            <path id="Trazado_1038852" data-name="Trazado 1038852" d="M155.146,237.741l-5.489-5.595-4.036,7.067a.95.95,0,0,1-.3.32.522.522,0,0,0-.058.035c-.041.019-.08.035-.121.051a.686.686,0,0,1-.074.023.815.815,0,0,1-.234.029.616.616,0,0,1-.08,0c-.042-.006-.083-.013-.128-.022-.022,0-.042-.013-.064-.016a1.273,1.273,0,0,1-.179-.08,1.05,1.05,0,0,1-.2-.154l-5.7-5.809-3.956,6.927a.886.886,0,0,1-.227.371.927.927,0,0,1-.522.25.9.9,0,0,1-.765-.266l-5.7-5.806-4,7-.035.064c-.019.032-.039.061-.058.09a.782.782,0,0,1-.058.074c-.01,0-.013.013-.019.019a.087.087,0,0,0-.016.019.869.869,0,0,1-.138.109.962.962,0,0,1-.173.087.015.015,0,0,0-.013.007c-.029.01-.061.019-.09.026a.884.884,0,0,1-.224.029.794.794,0,0,1-.084,0c-.006,0-.013,0-.019,0a.826.826,0,0,1-.09-.016.612.612,0,0,1-.125-.035c-.023-.01-.048-.019-.074-.032a.515.515,0,0,1-.061-.032s0,0-.006,0a1.407,1.407,0,0,1-.112-.077.548.548,0,0,1-.08-.074.231.231,0,0,1-.048-.051l-5.649-5.755-2.993,5.237-.34-3.076,2.346-4.107a.909.909,0,0,1,1.44-.189l5.7,5.806,4.036-7.064a.91.91,0,0,1,1.44-.186l5.685,5.793,4.043-7.08a.909.909,0,0,1,1.44-.186l5.7,5.806,4.033-7.064a.907.907,0,0,1,.675-.451.9.9,0,0,1,.765.266l4.712,4.8Z" transform="translate(-63.941 -130.215)" fill="#7f50fd"/>
            <path id="Trazado_1038853" data-name="Trazado 1038853" d="M110.729,229.383l1.415-1.6-1.335,2.33Z" transform="translate(-62.76 -129.107)" fill="#7f50fd"/>
            <path id="Trazado_1038854" data-name="Trazado 1038854" d="M157.834,211.908l-5.1-5.2L148.7,213.77a.945.945,0,0,1-.3.32c-.019.01-.039.023-.058.032a.933.933,0,0,1-.119.051.759.759,0,0,1-.077.026.94.94,0,0,1-.233.029.569.569,0,0,1-.077,0c-.045-.006-.086-.01-.128-.019l-.067-.019a1,1,0,0,1-.179-.08.9.9,0,0,1-.2-.15l-5.7-5.81-3.953,6.924a.894.894,0,0,1-.227.371.913.913,0,0,1-.522.25.892.892,0,0,1-.768-.266l-5.7-5.806-4,7-.032.061a.632.632,0,0,1-.061.093c-.019.026-.039.048-.058.074-.006,0-.013.013-.019.016a.089.089,0,0,1-.016.019.725.725,0,0,1-.138.109.872.872,0,0,1-.173.09l-.013,0a.527.527,0,0,1-.09.029.844.844,0,0,1-.221.029.832.832,0,0,1-.087-.007.021.021,0,0,1-.019,0,.3.3,0,0,1-.09-.016.574.574,0,0,1-.122-.032.721.721,0,0,1-.077-.032.676.676,0,0,0-.061-.032s0,0-.007,0l-.055-.035c-.019-.013-.038-.029-.058-.045s-.051-.045-.08-.074a.357.357,0,0,1-.048-.051l-5.089-5.182,1.21-1.367,4.385,4.469,4.033-7.064a.9.9,0,0,1,.672-.451.909.909,0,0,1,.769.266l5.685,5.79,4.043-7.08a.91.91,0,0,1,1.44-.186l5.7,5.809,4.036-7.067a.907.907,0,0,1,1.437-.185l4.327,4.407Z" transform="translate(-67.891 -115.793)" fill="#7f50fd"/>
            <path id="Trazado_1038855" data-name="Trazado 1038855" d="M223.437,171.579l-18.481,20.236a7.833,7.833,0,0,1-5.364,2.631l-.138.01a7.859,7.859,0,0,1-5.1-1.54l-1.261-11.452-1.143-10.345a9.878,9.878,0,0,0-8.671-8.7,7.927,7.927,0,0,1,6.965,2.577l8.8,9.948,11.007-12.054,3.39,2.2,6.77,4.4Z" transform="translate(-103.88 -92.016)" fill="#d6f3e1"/>
            <path id="Trazado_1038856" data-name="Trazado 1038856" d="M277.725,147.554l-11.9,5.419-6.158,7.17-6.77-4.4.147-2.215a4.267,4.267,0,0,1,3.085-3.822l9.888-2.839a2.967,2.967,0,0,1-.058,1.651l9.215-2.64a2.254,2.254,0,0,1,2.548,1.674" transform="translate(-143.342 -82.676)" fill="#fff"/>
            <path id="Trazado_1038857" data-name="Trazado 1038857" d="M153.874,307.244H133.229l-5.192-15.693-5.662,15.693h-23.4l9.375-31.173v-3.165l39.239-4.327Z" transform="translate(-56.098 -152.229)" fill="#7f50fd"/>
            <path id="Trazado_1038858" data-name="Trazado 1038858" d="M25.648,162.827l-6.77,4.395-6.158-7.167-11.9-5.422a2.257,2.257,0,0,1,2.548-1.674l9.215,2.644a2.961,2.961,0,0,1-.058-1.652l9.887,2.836a4.27,4.27,0,0,1,3.086,3.822Z" transform="translate(-0.466 -86.689)" fill="#fff"/>
            <path id="Trazado_1038859" data-name="Trazado 1038859" d="M164.731,158.567l-7.439-2.641,4.984-.55a7.507,7.507,0,0,0,.759-.125l.259.013Z" transform="translate(-89.152 -87.995)" fill="#252260"/>
            <path id="Trazado_1038860" data-name="Trazado 1038860" d="M145.188,127.972l-4.984.551,7.439,2.64s-1.341,2.862-6.191,3.4a12.022,12.022,0,0,1-8.018-1.831l-1.155-10.476-.045-.391a3.907,3.907,0,0,1-.829.186,3.842,3.842,0,0,1-1.421-7.528,3.781,3.781,0,0,1,1.427-.106,3.846,3.846,0,0,1,3.121,2.34c.071-.112,1.594-2.657.973-8.245l14.6-1.607,1.447,13.133a7.215,7.215,0,0,1-5.355,7.752c-.083.023-.163.042-.246.061a7.506,7.506,0,0,1-.759.125" transform="translate(-72.064 -60.591)" fill="#fff"/>
            <path id="Trazado_1038861" data-name="Trazado 1038861" d="M153.091,94.517l-14.6,1.607c.621,5.589-.9,8.133-.973,8.246a3.847,3.847,0,0,0-3.121-2.34,3.782,3.782,0,0,0-1.427.106l-.532-5.615a5.332,5.332,0,0,1,3.761-5.6l.122-.038,9.772-2.964,1.239-2.554c1.338.374,2.135,2.586,2.157,2.509s2.017-2.82,2.017-2.82c5.486,3.335,1.581,9.465,1.581,9.465" transform="translate(-75.054 -48.207)" fill="#252260"/>
            <path id="Trazado_1038862" data-name="Trazado 1038862" d="M159.494,122.741a1.383,1.383,0,1,1-1.527-1.223,1.384,1.384,0,0,1,1.527,1.223" transform="translate(-88.837 -68.871)" fill="#252260"/>
            <path id="Trazado_1038863" data-name="Trazado 1038863" d="M176.328,120.885a1.383,1.383,0,1,1-1.527-1.223,1.384,1.384,0,0,1,1.527,1.223" transform="translate(-98.378 -67.819)" fill="#252260"/>
            <path id="Trazado_1038864" data-name="Trazado 1038864" d="M173.494,113.164c-.415.011-.938.016-1.288.006a.988.988,0,0,0-1.1.8c-.053.461.259,1.086.8,1.1.6.016,1.2.023,1.8.006a.964.964,0,0,0,.849-1.06.985.985,0,0,0-1.06-.849" transform="translate(-96.979 -64.141)" fill="#252260"/>
            <path id="Trazado_1038865" data-name="Trazado 1038865" d="M156.608,115.372c-.409.074-.925.157-1.272.2a.988.988,0,0,0-.967.953c.018.463.421,1.034.953.967.6-.075,1.191-.159,1.783-.266a.965.965,0,0,0,.679-1.176.985.985,0,0,0-1.176-.679" transform="translate(-87.495 -65.381)" fill="#252260"/>
            <path id="Trazado_1038866" data-name="Trazado 1038866" d="M168.03,126.939a.357.357,0,0,1-.157-.677l1.885-.919-1.918-2.872a.356.356,0,1,1,.593-.4l2.144,3.21a.357.357,0,0,1-.14.518l-2.251,1.1a.36.36,0,0,1-.156.036" transform="translate(-95.036 -69.102)" fill="#252260"/>
            <path id="Trazado_1038867" data-name="Trazado 1038867" d="M80.037,182.5l-12.2,13.8-2.3,2.606A7.874,7.874,0,0,1,59.1,201.54a.114.114,0,0,1-.032,0,7.865,7.865,0,0,1-5.544-2.644L35.047,178.657l3.23-2.1,6.77-4.394,3.386-2.2,11.011,12.054,8.8-9.951a7.776,7.776,0,0,1,2.826-2.026s0,0,0,0a7.942,7.942,0,0,1,3.073-.618A7.865,7.865,0,0,1,80.037,182.5" transform="translate(-19.864 -96.028)" fill="#d6f3e1"/>
            <path id="Trazado_1038868" data-name="Trazado 1038868" d="M161.687,138.5a4.41,4.41,0,0,1-.953-.11,2.818,2.818,0,0,1-2.034-1.4,3.677,3.677,0,0,1,.023-2.811.355.355,0,0,1,.417-.2l5.454,1.424a.356.356,0,0,1,.259.418,3.769,3.769,0,0,1-1.492,2.212,3.023,3.023,0,0,1-1.674.473m-2.408-3.752a2.725,2.725,0,0,0,.057,1.92,2.145,2.145,0,0,0,1.553,1.026,2.657,2.657,0,0,0,2.08-.262A2.914,2.914,0,0,0,164.055,136Z" transform="translate(-89.79 -75.931)" fill="#252260"/>
            <path id="Trazado_1038869" data-name="Trazado 1038869" d="M198.591,194.354a8.241,8.241,0,0,1-4.919-1.62.36.36,0,0,1-.141-.247l-1.262-11.452a.357.357,0,0,1,.709-.078l1.244,11.3a7.549,7.549,0,0,0,4.747,1.38l.091-.007a7.473,7.473,0,0,0,5.162-2.514l18.2-19.93-12.783-8.3-10.8,11.831a.382.382,0,0,1-.266.116.359.359,0,0,1-.265-.12l-8.8-9.949a7.513,7.513,0,0,0-5.635-2.526,7.674,7.674,0,0,0-1.015.067.356.356,0,1,1-.1-.706,8.267,8.267,0,0,1,7.28,2.693l8.535,9.651,10.74-11.761a.357.357,0,0,1,.457-.059l13.389,8.694a.355.355,0,0,1,.069.538l-18.481,20.236a8.159,8.159,0,0,1-5.6,2.746l-.139.01c-.14.007-.28.01-.419.01" transform="translate(-103.414 -91.549)" fill="#252260"/>
            <path id="Trazado_1038870" data-name="Trazado 1038870" d="M266.582,155.23a.356.356,0,0,1-.1-.7l4.392-1.262a3.081,3.081,0,0,0,2.3-1.858.356.356,0,1,1,.675.227,3.722,3.722,0,0,1-2.781,2.316l-4.391,1.262a.356.356,0,0,1-.1.014" transform="translate(-150.895 -85.681)" fill="#252260"/>
            <path id="Trazado_1038871" data-name="Trazado 1038871" d="M259.2,160.047a.355.355,0,0,1-.194-.058l-6.771-4.4a.357.357,0,0,1-.161-.322l.147-2.215a4.636,4.636,0,0,1,3.343-4.141l9.887-2.839a.356.356,0,0,1,.439.239,3.264,3.264,0,0,1,.079,1.247l8.639-2.474a2.616,2.616,0,0,1,2.995,1.942.357.357,0,0,1-.2.4l-11.825,5.386-6.107,7.111a.354.354,0,0,1-.27.124m-6.4-4.94,6.333,4.115,5.956-6.934a.353.353,0,0,1,.123-.092l11.6-5.286a1.9,1.9,0,0,0-2.076-1.128l-9.148,2.628a.356.356,0,0,1-.436-.457,2.629,2.629,0,0,0,.115-1.085l-9.508,2.729a3.922,3.922,0,0,0-2.828,3.5Z" transform="translate(-142.876 -82.223)" fill="#252260"/>
            <path id="Trazado_1038872" data-name="Trazado 1038872" d="M153.406,307.135H132.762a.357.357,0,0,1-.339-.244l-4.868-14.714L122.243,306.9a.357.357,0,0,1-.336.235h-23.4a.356.356,0,0,1-.341-.458l9.36-31.122v-3.113a.356.356,0,0,1,.318-.354l39.239-4.328a.361.361,0,0,1,.39.3l6.286,38.666a.355.355,0,0,1-.351.413m-20.387-.713h19.968L146.823,268.5l-38.585,4.256v2.847a.34.34,0,0,1-.015.1l-9.236,30.713h22.671l5.577-15.458a.4.4,0,0,1,.34-.235.356.356,0,0,1,.334.244Z" transform="translate(-55.631 -151.763)" fill="#252260"/>
            <path id="Trazado_1038873" data-name="Trazado 1038873" d="M34.442,162.312a.354.354,0,0,1-.1-.014l-4.391-1.258a3.723,3.723,0,0,1-2.781-2.316.356.356,0,1,1,.675-.227,3.081,3.081,0,0,0,2.3,1.858l4.392,1.258a.356.356,0,0,1-.1.7" transform="translate(-15.39 -89.697)" fill="#252260"/>
            <path id="Trazado_1038874" data-name="Trazado 1038874" d="M18.413,167.111a.355.355,0,0,1-.27-.124l-6.107-7.108L.209,154.49a.357.357,0,0,1-.2-.4,2.6,2.6,0,0,1,2.927-1.955l8.706,2.492a3.278,3.278,0,0,1,.08-1.249.355.355,0,0,1,.439-.238l9.888,2.836a4.637,4.637,0,0,1,3.343,4.141l.147,2.217a.358.358,0,0,1-.162.322l-6.769,4.4a.351.351,0,0,1-.194.058M.8,153.974,12.4,159.263a.346.346,0,0,1,.122.092l5.956,6.93,6.332-4.112-.134-2.009a3.923,3.923,0,0,0-2.828-3.5l-9.508-2.727a2.624,2.624,0,0,0,.114,1.087.357.357,0,0,1-.08.36.352.352,0,0,1-.356.1l-9.215-2.644A1.869,1.869,0,0,0,.8,153.974" transform="translate(0 -86.221)" fill="#252260"/>
            <path id="Trazado_1038875" data-name="Trazado 1038875" d="M164.263,158.457a.356.356,0,0,1-.119-.021l-7.439-2.641a.356.356,0,0,1,.08-.69l4.984-.55c.242-.028.484-.067.721-.119a.286.286,0,0,1,.094-.008l.26.013a.357.357,0,0,1,.309.214l1.437,3.3a.357.357,0,0,1-.327.5m-5.856-2.814,5.2,1.847-1.02-2.346c-.243.051-.49.091-.739.12Z" transform="translate(-88.685 -87.528)" fill="#252260"/>
            <path id="Trazado_1038876" data-name="Trazado 1038876" d="M139.545,134.527a12,12,0,0,1-6.792-1.981.356.356,0,0,1-.141-.246l-1.152-10.449a4.288,4.288,0,0,1-.483.083,4.2,4.2,0,0,1-1.553-8.227,4.141,4.141,0,0,1,.632-.119,4.215,4.215,0,0,1,3.991,1.9,15.64,15.64,0,0,0,.636-7.409.356.356,0,0,1,.315-.394l14.6-1.607a.358.358,0,0,1,.393.316l1.446,13.133a7.585,7.585,0,0,1-5.62,8.136c-.084.023-.169.043-.257.064q-.4.085-.8.131h0l-3.44.379,5.974,2.122a.351.351,0,0,1,.21.2.356.356,0,0,1-.006.289c-.058.124-1.483,3.049-6.474,3.6a13.5,13.5,0,0,1-1.478.081M133.3,132.06a11.93,11.93,0,0,0,7.642,1.677c3.627-.4,5.185-2.109,5.7-2.852l-7.028-2.495a.356.356,0,0,1,.08-.69l4.984-.55q.365-.042.721-.12c.076-.017.152-.036.23-.056a6.87,6.87,0,0,0,5.093-7.369l-1.407-12.779-13.889,1.529c.535,5.5-1,8.013-1.062,8.119a.357.357,0,0,1-.631-.052A3.486,3.486,0,0,0,130.9,114.3a3.391,3.391,0,0,0-.77,0,3.549,3.549,0,0,0-.525.1,3.486,3.486,0,0,0,1.287,6.83,3.554,3.554,0,0,0,.752-.169.354.354,0,0,1,.306.036.357.357,0,0,1,.164.26l.045.39ZM144.72,127.5h0Z" transform="translate(-71.597 -60.124)" fill="#252260"/>
            <path id="Trazado_1038877" data-name="Trazado 1038877" d="M137.056,104.259h-.029a.355.355,0,0,1-.3-.218,3.486,3.486,0,0,0-2.831-2.123,3.366,3.366,0,0,0-.77,0,3.5,3.5,0,0,0-.525.1.353.353,0,0,1-.3-.051.36.36,0,0,1-.152-.26l-.532-5.614a5.707,5.707,0,0,1,4.012-5.976l.118-.037,9.627-2.92,1.17-2.414a.356.356,0,0,1,.417-.188,4.1,4.1,0,0,1,2.105,2.155c.287-.406.791-1.107,1.684-2.332a.356.356,0,0,1,.473-.094A6.036,6.036,0,0,1,154.17,88.1a9.012,9.012,0,0,1-1.245,6.141.358.358,0,0,1-.262.163L138.42,95.973c.535,5.5-1,8.013-1.062,8.119a.357.357,0,0,1-.3.167m-3.558-3.078a4.22,4.22,0,0,1,3.541,1.925,15.638,15.638,0,0,0,.636-7.408.356.356,0,0,1,.315-.394l14.419-1.588a8.259,8.259,0,0,0,1.067-5.457,5.245,5.245,0,0,0-2.341-3.193c-.707.972-1.676,2.313-1.788,2.5a.358.358,0,0,1-.292.2c-.264.031-.343-.168-.439-.368a4.772,4.772,0,0,0-1.57-2.045l-1.093,2.256a.358.358,0,0,1-.217.186l-9.891,3a4.994,4.994,0,0,0-3.513,5.228l.494,5.215c.073-.012.147-.022.223-.03a4,4,0,0,1,.451-.025m19.127-7.131h0Z" transform="translate(-74.588 -47.74)" fill="#252260"/>
            <path id="Trazado_1038878" data-name="Trazado 1038878" d="M112.537,226.155a.356.356,0,0,1-.354-.318l-2.276-20.622a.357.357,0,0,1,.087-.275l12.2-13.8a.356.356,0,1,1,.535.472l-12.1,13.68,2.219,20.111,41.216-4.545-3.9-35.387a.356.356,0,0,1,.315-.393.361.361,0,0,1,.393.315l3.939,35.743a.357.357,0,0,1-.316.393l-.679.074-41.244,4.548-.04,0" transform="translate(-62.294 -104.901)" fill="#252260"/>
            <path id="Trazado_1038879" data-name="Trazado 1038879" d="M134.48,165.961a12.21,12.21,0,0,1-6.674-1.9l-6.382.7a9.357,9.357,0,0,0-3.513,1.113.356.356,0,0,1-.344-.624,10.042,10.042,0,0,1,3.779-1.2l6.517-.72a.365.365,0,0,1,.252.068,11.768,11.768,0,0,0,7.765,1.762c4.569-.5,5.855-3.085,5.907-3.194a.359.359,0,0,1,.283-.2l1.623-.18a10.173,10.173,0,0,1,2.276.007.358.358,0,0,1,.313.4.362.362,0,0,1-.4.313,9.282,9.282,0,0,0-2.115-.007l-1.439.159c-.4.669-2.041,2.938-6.376,3.416a13.486,13.486,0,0,1-1.478.081" transform="translate(-66.532 -91.557)" fill="#252260"/>
            <path id="Trazado_1038880" data-name="Trazado 1038880" d="M59.171,202.158c-.185,0-.37-.006-.556-.018l-.027,0a8.177,8.177,0,0,1-5.793-2.763L34.318,179.142a.356.356,0,0,1,.069-.539l13.386-8.691a.354.354,0,0,1,.457.058l10.744,11.761,8.535-9.654a8.087,8.087,0,0,1,2.923-2.1.372.372,0,0,1,.53.311.363.363,0,0,1-.221.332,7.379,7.379,0,0,0-2.7,1.933l-8.8,9.951a.356.356,0,0,1-.264.12h0a.354.354,0,0,1-.263-.116L47.907,170.675l-12.78,8.3,18.2,19.925a7.476,7.476,0,0,0,5.3,2.528.31.31,0,0,1,.081.013,7.507,7.507,0,0,0,6.091-2.521l2.3-2.605a.356.356,0,1,1,.533.472l-2.3,2.606a8.173,8.173,0,0,1-6.158,2.768" transform="translate(-19.398 -96.272)" fill="#252260"/>
            <path id="Trazado_1038881" data-name="Trazado 1038881" d="M133.967,132.646a.356.356,0,0,1-.332-.227,8.479,8.479,0,0,0-3.465-4.138.357.357,0,0,1,.372-.609,9.2,9.2,0,0,1,3.757,4.488.356.356,0,0,1-.332.486" transform="translate(-73.683 -72.334)" fill="#252260"/>
            <path id="Trazado_1038882" data-name="Trazado 1038882" d="M165.594,306.979a.349.349,0,0,1-.106-.016.356.356,0,0,1-.235-.446l2.776-8.961a.357.357,0,0,1,.276-.245l11.7-2.136a.362.362,0,0,1,.415.287.357.357,0,0,1-.287.415l-11.488,2.1-2.712,8.755a.357.357,0,0,1-.34.25" transform="translate(-93.656 -167.301)" fill="#252260"/>
            <path id="Trazado_1038883" data-name="Trazado 1038883" d="M112.346,312.157a.379.379,0,0,1-.087-.01.358.358,0,0,1-.259-.433l7.792-31.018v-3.721a.356.356,0,1,1,.713,0v3.765a.368.368,0,0,1-.01.087l-7.8,31.061a.357.357,0,0,1-.346.269" transform="translate(-63.475 -156.785)" fill="#252260"/>
            <path id="Trazado_1038884" data-name="Trazado 1038884" d="M126.337,286.866a.357.357,0,0,1-.047-.71c9.443-1.259,9.474-11.126,9.473-11.226a.357.357,0,0,1,.353-.36h0a.357.357,0,0,1,.357.354c0,.106-.033,10.6-10.091,11.938a.363.363,0,0,1-.048,0" transform="translate(-71.405 -155.625)" fill="#252260"/>
            <path id="Trazado_1038885" data-name="Trazado 1038885" d="M156.447,116.484a4.083,4.083,0,1,1-4.083-4.083A4.083,4.083,0,0,1,156.447,116.484Z" transform="translate(-84.045 -63.708)" fill="none" stroke="#7f50fd" stroke-linecap="round" stroke-linejoin="round" stroke-width="1"/>
            <path id="Trazado_1038886" data-name="Trazado 1038886" d="M178.8,114.311a4.083,4.083,0,1,1-4.083-4.083A4.083,4.083,0,0,1,178.8,114.311Z" transform="translate(-96.712 -62.477)" fill="none" stroke="#7f50fd" stroke-linecap="round" stroke-linejoin="round" stroke-width="1"/>
            <line id="L칤nea_3745" data-name="L칤nea 3745" y1="0.15" x2="1.548" transform="translate(72.37 52.118)" fill="none" stroke="#7f50fd" stroke-linecap="round" stroke-linejoin="round" stroke-width="1"/>
            <line id="L칤nea_3746" data-name="L칤nea 3746" x1="8.665" y2="0.476" transform="translate(55.688 53.748)" fill="none" stroke="#7f50fd" stroke-linecap="round" stroke-linejoin="round" stroke-width="1"/>
          </g>
        </g>
      </g>
    </g>
  </g>
</svg>
