<svg xmlns="http://www.w3.org/2000/svg" xmlns:xlink="http://www.w3.org/1999/xlink" width="201.855" height="163.476" viewBox="0 0 201.855 163.476">
  <defs>
    <clipPath id="clip-path">
      <rect id="Rect치ngulo_421155" data-name="Rect치ngulo 421155" width="195.711" height="163.476" fill="none"/>
    </clipPath>
    <clipPath id="clip-path-3">
      <rect id="Rect치ngulo_421153" data-name="Rect치ngulo 421153" width="7.452" height="18.541" fill="none"/>
    </clipPath>
  </defs>
  <g id="Grupo_1175230" data-name="Grupo 1175230" transform="translate(-643.017 -991.282)">
    <circle id="Elipse_12768" data-name="Elipse 12768" cx="52" cy="52" r="52" transform="translate(643.017 1008)" fill="#ffd256"/>
    <g id="Grupo_1175247" data-name="Grupo 1175247" transform="translate(649.161 991.282)">
      <g id="Grupo_1175246" data-name="Grupo 1175246" clip-path="url(#clip-path)">
        <g id="Grupo_1175245" data-name="Grupo 1175245">
          <g id="Grupo_1175244" data-name="Grupo 1175244" clip-path="url(#clip-path)">
            <path id="Trazado_1038887" data-name="Trazado 1038887" d="M330.451,113.534c-3.268,2.82-4.186,7.644-3.023,13.508l0,0a49.3,49.3,0,0,0,7.313,16.637,83.34,83.34,0,0,0,14.175,16.43,49.269,49.269,0,0,0,15.383,9.668c5.633,2.013,10.54,1.812,13.808-1.007,7.4-6.388,2.743-23.079-10.84-38.822s-29.414-22.8-36.818-16.416m43.669,50.615c-2.8,2.418-11.354-.03-20.97-8.452a76.757,76.757,0,0,1-13.42-15.555c-6.924-10.75-8.093-19.568-5.29-21.986,3.492-3.013,15.912,1.532,28.206,15.781s14.967,27.2,11.475,30.211" transform="translate(-249.265 -84.771)" fill="#7f50fd"/>
            <path id="Trazado_1038888" data-name="Trazado 1038888" d="M382.158,153.457c12.291,14.246,14.967,27.2,11.475,30.211-2.8,2.418-11.354-.03-20.97-8.452a45.5,45.5,0,0,1,3.554-3.035,3.986,3.986,0,0,0,1.417-4.275A18.455,18.455,0,0,0,367.2,155.812a3.975,3.975,0,0,0-4.433.779,45.517,45.517,0,0,1-3.523,3.071c-6.924-10.75-8.093-19.568-5.29-21.986,3.492-3.013,15.912,1.532,28.206,15.781" transform="translate(-268.777 -104.29)" fill="#fff"/>
            <path id="Trazado_1038889" data-name="Trazado 1038889" d="M395.3,220.555a19.564,19.564,0,0,1,3.84,7.233,3.986,3.986,0,0,1-1.417,4.275,45.5,45.5,0,0,0-3.554,3.035,76.772,76.772,0,0,1-13.42-15.555,45.61,45.61,0,0,0,3.523-3.071,3.975,3.975,0,0,1,4.433-.779,19.591,19.591,0,0,1,6.6,4.862" transform="translate(-290.286 -164.171)" fill="#7f50fd"/>
            <path id="Trazado_1038890" data-name="Trazado 1038890" d="M269.924,210.988a49.275,49.275,0,0,0,15.382,9.669c-8.125,2.568-23.346,7.971-36.829,16.1-1.652.991-3.276,2.026-4.854,3.1,0,0-5.392-1.03-12.725-9.529-7.17-8.311-7.55-13.74-7.565-13.981v-.007c11.884-12.908,20.915-29.819,25.1-38.419a49.294,49.294,0,0,0,7.313,16.637,83.352,83.352,0,0,0,14.175,16.43" transform="translate(-170.27 -135.648)" fill="#fff"/>
            <path id="Trazado_1038891" data-name="Trazado 1038891" d="M205.659,363.158a82.668,82.668,0,0,0-6.624,4.977c-1.214,1.023-2.384,2.076-3.5,3.153a5.822,5.822,0,0,1-6.491,1.14,27.012,27.012,0,0,1-15.28-17.71,5.815,5.815,0,0,1,2.079-6.254,75.628,75.628,0,0,0,9.521-8.816c.015.241.395,5.67,7.565,13.981,7.333,8.5,12.725,9.529,12.725,9.529" transform="translate(-132.305 -258.949)" fill="#7f50fd"/>
            <path id="Trazado_1038892" data-name="Trazado 1038892" d="M308.838,440.468s2.229,6.488-.258,11.1l-4.055,1.613s-4.128.615-14.236-9.138a77.864,77.864,0,0,1-9.436-10.426,82.67,82.67,0,0,1,6.624-4.977c1.578-1.076,3.2-2.112,4.854-3.1,1.858,2.032,3.755,2.052,5.134,3.455,1.214,6.62,4.862,10.8,11.373,11.471" transform="translate(-214.123 -324.435)" fill="#fff"/>
            <path id="Trazado_1038893" data-name="Trazado 1038893" d="M368.257,169.117a21.652,21.652,0,0,1-7.222-1.4,50.259,50.259,0,0,1-15.682-9.844,84.193,84.193,0,0,1-14.335-16.616,50.376,50.376,0,0,1-7.431-16.894.453.453,0,0,1-.016-.069c-1.275-6.431-.125-11.4,3.325-14.378,3.86-3.334,9.921-3.42,17.061-.236,6.916,3.084,14.391,9.031,21.047,16.747s11.443,15.978,13.478,23.27c2.1,7.527,1.13,13.509-2.735,16.843a11.119,11.119,0,0,1-7.49,2.578m-42.9-45.243a.456.456,0,0,1,.016.067,48.465,48.465,0,0,0,7.183,16.316A82.491,82.491,0,0,0,346.566,156.5a48.415,48.415,0,0,0,15.085,9.492c3.849,1.378,9.209,2.347,12.9-.838,3.3-2.845,4.065-8.159,2.166-14.964-1.966-7.039-6.619-15.053-13.1-22.567s-13.731-13.294-20.406-16.27c-6.456-2.878-11.822-2.894-15.12-.051-3.67,3.166-3.52,8.571-2.736,12.572m2.139-13.266h0Z" transform="translate(-246.306 -81.845)" fill="#252260"/>
            <path id="Trazado_1038894" data-name="Trazado 1038894" d="M387.794,182.562c-4.618,0-11.767-3.543-18.635-9.558a77.6,77.6,0,0,1-13.588-15.748c-6.512-10.111-8.712-20.074-5.117-23.175,2.119-1.83,6.535-1.345,11.808,1.291,5.791,2.9,12.073,8.078,17.689,14.585s9.815,13.478,11.833,19.63c1.837,5.6,1.667,10.042-.454,11.871a5.274,5.274,0,0,1-3.536,1.1m-33.743-47.755a3.677,3.677,0,0,0-2.4.66c-2.059,1.775-1.744,9.612,5.46,20.8a75.9,75.9,0,0,0,13.253,15.362c10,8.76,17.706,10.221,19.77,8.447,1.136-.98,1.794-4.166-.091-9.915-1.944-5.927-6.02-12.677-11.481-19s-11.54-11.352-17.12-14.144a17.431,17.431,0,0,0-7.392-2.2" transform="translate(-265.876 -101.389)" fill="#252260"/>
            <path id="Trazado_1038895" data-name="Trazado 1038895" d="M387.794,182.562c-4.618,0-11.767-3.543-18.635-9.558a.914.914,0,0,1-.025-1.355,46.391,46.391,0,0,1,3.625-3.1,3.058,3.058,0,0,0,1.094-3.292,17.541,17.541,0,0,0-9.939-11.519,3.044,3.044,0,0,0-3.411.6,46.348,46.348,0,0,1-3.595,3.134.936.936,0,0,1-.717.184.915.915,0,0,1-.619-.407c-6.514-10.111-8.714-20.074-5.119-23.176,2.119-1.83,6.535-1.345,11.808,1.291,5.791,2.9,12.073,8.078,17.689,14.585s9.815,13.478,11.833,19.63c1.837,5.6,1.667,10.042-.454,11.872a5.273,5.273,0,0,1-3.536,1.1m-16.656-10.27c9.626,8.167,16.987,9.51,19,7.781,1.136-.98,1.794-4.166-.091-9.915-1.944-5.927-6.02-12.677-11.481-19s-11.54-11.352-17.12-14.144c-5.412-2.707-8.66-2.525-9.792-1.543-2.005,1.729-1.758,9.211,4.917,19.937.944-.777,1.837-1.572,2.661-2.372a4.859,4.859,0,0,1,5.45-.954,19.358,19.358,0,0,1,10.933,12.67,4.878,4.878,0,0,1-1.738,5.258c-.907.693-1.823,1.459-2.736,2.286" transform="translate(-265.877 -101.389)" fill="#252260"/>
            <path id="Trazado_1038896" data-name="Trazado 1038896" d="M391.235,233.058a.915.915,0,0,1-.6-.226,77.634,77.634,0,0,1-13.587-15.749.917.917,0,0,1,.2-1.215,45.09,45.09,0,0,0,3.454-3.009,4.858,4.858,0,0,1,5.45-.954,19.36,19.36,0,0,1,10.933,12.67,4.878,4.878,0,0,1-1.738,5.258,44.97,44.97,0,0,0-3.484,2.975.912.912,0,0,1-.628.249m-12.2-16.276a76.532,76.532,0,0,0,12.185,14.124c1-.916,2.014-1.763,3.012-2.526a3.059,3.059,0,0,0,1.095-3.292,17.541,17.541,0,0,0-9.939-11.519,3.043,3.043,0,0,0-3.411.6c-.91.883-1.9,1.758-2.942,2.61" transform="translate(-287.349 -161.216)" fill="#252260"/>
            <path id="Trazado_1038897" data-name="Trazado 1038897" d="M240.688,237.836a.934.934,0,0,1-.172-.016c-.232-.045-5.791-1.188-13.248-9.831-7.226-8.375-7.748-13.92-7.784-14.525a.935.935,0,0,1,.24-.681c11.736-12.747,20.672-29.4,24.954-38.2a.915.915,0,0,1,1.721.223,48.463,48.463,0,0,0,7.183,16.316,82.491,82.491,0,0,0,14.013,16.242,48.428,48.428,0,0,0,15.085,9.492.916.916,0,0,1-.032,1.736c-7.909,2.5-23.186,7.905-36.633,16.01-1.66,1-3.278,2.031-4.811,3.074a.91.91,0,0,1-.515.159m-19.336-24.117c.184,1.248,1.261,6.068,7.3,13.073,5.956,6.906,10.6,8.739,11.865,9.134,1.456-.983,2.985-1.955,4.55-2.894,12.343-7.44,26.188-12.624,34.613-15.407a54,54,0,0,1-13.3-8.888h0a84.153,84.153,0,0,1-14.335-16.615,54.038,54.038,0,0,1-6.847-14.465c-4.621,9.195-13.037,24.219-23.848,36.063" transform="translate(-167.335 -132.711)" fill="#252260"/>
            <path id="Trazado_1038898" data-name="Trazado 1038898" d="M188.517,370.938a6.691,6.691,0,0,1-2.8-.617,27.916,27.916,0,0,1-15.775-18.285,6.69,6.69,0,0,1,2.4-7.238,74.78,74.78,0,0,0,9.4-8.709.916.916,0,0,1,1.588.566c.012.216.393,5.383,7.344,13.437,6.981,8.092,12.157,9.219,12.208,9.229a.916.916,0,0,1,.336,1.656c-2.336,1.585-4.539,3.242-6.548,4.922-1.2,1.011-2.363,2.058-3.448,3.109a6.752,6.752,0,0,1-4.709,1.931m-6.662-32.289a74.34,74.34,0,0,1-8.4,7.6,4.878,4.878,0,0,0-1.756,5.27,26.107,26.107,0,0,0,14.784,17.135,4.879,4.879,0,0,0,5.469-.966c1.118-1.081,2.309-2.156,3.545-3.2,1.626-1.36,3.372-2.7,5.212-4-2.259-.978-6.41-3.4-11.418-9.2s-6.8-10.258-7.435-12.64" transform="translate(-129.356 -256.01)" fill="#252260"/>
            <path id="Trazado_1038899" data-name="Trazado 1038899" d="M301.419,451.17c-1.211,0-5.688-.7-14.7-9.4a78.9,78.9,0,0,1-9.547-10.555.917.917,0,0,1,.159-1.232,83.737,83.737,0,0,1,6.7-5.033c1.558-1.062,3.207-2.116,4.9-3.13a.915.915,0,0,1,1.146.167,8.248,8.248,0,0,0,2.754,1.9,7.989,7.989,0,0,1,2.357,1.536.922.922,0,0,1,.249.478c1.193,6.521,4.748,10.129,10.565,10.724a.916.916,0,0,1,.773.613c.1.281,2.329,6.925-.318,11.837a.918.918,0,0,1-.469.417l-4.055,1.612a.914.914,0,0,1-.2.055,2.182,2.182,0,0,1-.3.019m-22.255-20.331a83.71,83.71,0,0,0,8.821,9.61c8.825,8.513,12.831,8.888,13.4,8.893l3.6-1.432c1.663-3.439.642-8,.213-9.544-6.188-.857-10.159-4.94-11.513-11.846a7.342,7.342,0,0,0-1.665-.994,10.617,10.617,0,0,1-2.767-1.768c-1.445.881-2.854,1.789-4.2,2.7-2.085,1.415-4.062,2.885-5.89,4.377" transform="translate(-211.186 -321.495)" fill="#252260"/>
            <path id="Trazado_1038900" data-name="Trazado 1038900" d="M380.442,23.336l-.068,0a.917.917,0,0,1-.848-.979L381.1.849a.937.937,0,0,1,.98-.847.917.917,0,0,1,.848.979l-1.569,21.505a.917.917,0,0,1-.912.849" transform="translate(-289.35 0)" fill="#252260"/>
            <path id="Trazado_1038901" data-name="Trazado 1038901" d="M330.327,56.237a.918.918,0,0,1-.789-.449l-7.431-12.547a.916.916,0,1,1,1.576-.934l7.431,12.547a.915.915,0,0,1-.787,1.383" transform="translate(-245.477 -31.913)" fill="#252260"/>
            <path id="Trazado_1038902" data-name="Trazado 1038902" d="M407.083,60.075a.916.916,0,0,1-.78-1.395L413.974,46.2a.915.915,0,1,1,1.56.959l-7.671,12.476a.915.915,0,0,1-.78.436" transform="translate(-309.664 -34.893)" fill="#252260"/>
            <path id="Trazado_1038903" data-name="Trazado 1038903" d="M306.438,312.6c1.593,4.407-8.081,14.769-12.6,13.38,1.2.057,2.2-1.016,3.159-1.67,3.657-3.187,8-7.355,9.463-11.388l0,0a.743.743,0,0,0,0-.229.031.031,0,0,0-.007-.031.023.023,0,0,0,0-.015.192.192,0,0,0-.007-.043" transform="translate(-224.021 -238.329)" fill="#fff"/>
            <path id="Trazado_1038904" data-name="Trazado 1038904" d="M346.878,312.6a.194.194,0,0,1,.007.043.158.158,0,0,1-.007-.043" transform="translate(-264.461 -238.329)" fill="#fff"/>
            <path id="Trazado_1038905" data-name="Trazado 1038905" d="M301.53,307.817a.325.325,0,0,1,.08.119c0,.006,0,.006,0,.009a.322.322,0,0,0,.011.059.032.032,0,0,1,.007.031.792.792,0,0,1,0,.229l0,0c-1.959,4.69-7.135,10.129-11.941,12.983-.711.551-1.716-1-2.184-1.3l0,0a3.791,3.791,0,0,0,.378-.172,26.816,26.816,0,0,0,5.878-4.788c2.457-2.645,4.984-5.2,6.348-8.492Z" transform="translate(-219.196 -233.673)" fill="#fff"/>
            <path id="Trazado_1038906" data-name="Trazado 1038906" d="M346.878,312.6a.194.194,0,0,1,.007.043.158.158,0,0,1-.007-.043" transform="translate(-264.461 -238.329)" fill="#fff"/>
            <path id="Trazado_1038907" data-name="Trazado 1038907" d="M290.64,295.621a1.971,1.971,0,0,1,.418.59c0,.006,0,.009,0,.015,1.113,3.6-8.991,13.225-12.213,14.866a3.794,3.794,0,0,1-.378.172l0,0c-.117.04-.234.079-.336.1a2.046,2.046,0,0,1-.7.085,1.86,1.86,0,0,1-1.583-1.016.022.022,0,0,1-.007-.018,1.16,1.16,0,0,1-.095-.23,1.924,1.924,0,0,1-.075-.935.009.009,0,0,0,0-.012,3.22,3.22,0,0,1,.12-.486c1.784,2.437,15.221-12.043,12.6-13.452.062-.026.123-.046.185-.066a2.118,2.118,0,0,1,1.154-.089,1.788,1.788,0,0,1,.9.468" transform="translate(-210.157 -224.991)" fill="#fff"/>
            <path id="Trazado_1038908" data-name="Trazado 1038908" d="M317.7,304.429a.016.016,0,0,1-.006.012l0,0Z" transform="translate(-242.206 -232.098)" fill="#fff"/>
            <path id="Trazado_1038909" data-name="Trazado 1038909" d="M317.778,304.336c0,.006,0,.006,0,.009v-.006Z" transform="translate(-242.273 -232.027)" fill="#fff"/>
            <path id="Trazado_1038910" data-name="Trazado 1038910" d="M317.832,304.244c0,.006,0,.006,0,.009l0,0Z" transform="translate(-242.312 -231.957)" fill="#fff"/>
            <path id="Trazado_1038911" data-name="Trazado 1038911" d="M317.9,304.124c0,.006,0,.009-.009.016l0,0Z" transform="translate(-242.36 -231.865)" fill="#fff"/>
            <path id="Trazado_1038912" data-name="Trazado 1038912" d="M285.929,293.193c.126,3.177-9.163,13.226-12.607,13.449-.25-.2-1.114-1.069-1.375-1.29,3.093-1.5,5.583-4.281,7.831-6.631,2.076-2.433,3.677-4.117,4.774-6.82.255.238,1.141,1.068,1.378,1.292" transform="translate(-207.333 -222.546)" fill="#fff"/>
            <path id="Trazado_1038913" data-name="Trazado 1038913" d="M274.484,304.8l-.012.013c.04-.029.079-.064.122-.1a.015.015,0,0,1,.006-.012c-.04.035-.079.063-.116.1m8.928-9.527a.236.236,0,0,0-.021.041.248.248,0,0,0,.033-.047s-.009,0-.012.007" transform="translate(-209.258 -225.113)" fill="#fff"/>
            <path id="Trazado_1038914" data-name="Trazado 1038914" d="M295.952,304.218l0,0m-6.759,7.49,0,0m6.772-7.509,0,0a.017.017,0,0,0,.006-.013Zm.021-.028v.006s0,0,0-.009Zm.012-.019,0,0s0,0,0-.009Zm.015-.022,0,0c.006-.006.009-.009.009-.016Z" transform="translate(-220.477 -231.865)" fill="#fff"/>
            <path id="Trazado_1038915" data-name="Trazado 1038915" d="M275.043,280.956a1.821,1.821,0,0,0-.9-.369,8.337,8.337,0,0,1-1.725,3.714c-3.156,4.095-6.742,8.5-11.388,10.913a5.363,5.363,0,0,1-.79.2c1.454,4.3,7.041-1.828,8.6-3.2,1.835-2.01,9.124-9.016,6.208-11.25m-1.153,5.308,0,0,.009-.01a.017.017,0,0,1-.005.013m.033-.047,0,0,0,0a0,0,0,0,1,0,.006m.015-.022,0,0,.012-.013c0,.006,0,.009-.009.016" transform="translate(-198.406 -213.92)" fill="#fff"/>
            <path id="Trazado_1038916" data-name="Trazado 1038916" d="M317.7,304.429a.016.016,0,0,1-.006.012l0,0Z" transform="translate(-242.206 -232.098)" fill="#fff"/>
            <path id="Trazado_1038917" data-name="Trazado 1038917" d="M317.778,304.336c0,.006,0,.006,0,.009v-.006Z" transform="translate(-242.273 -232.027)" fill="#fff"/>
            <path id="Trazado_1038918" data-name="Trazado 1038918" d="M317.832,304.244c0,.006,0,.006,0,.009l0,0Z" transform="translate(-242.312 -231.957)" fill="#fff"/>
            <path id="Trazado_1038919" data-name="Trazado 1038919" d="M317.9,304.124c0,.006,0,.009-.009.016l0,0Z" transform="translate(-242.36 -231.865)" fill="#fff"/>
            <path id="Trazado_1038920" data-name="Trazado 1038920" d="M140.137,132.9c3.873,4,6.469,9.435,5.816,15.147,0,0,0,0,0,.006-.014.175-.029.347-.051.522l0,0a15.3,15.3,0,0,0,2.559,9.838c0,.006,0,0,0,.009,5.642,4.818-7.028,15.52-11.1,18.132-2.083,1.2-4.1-.321-5.874-1.356a15.335,15.335,0,0,0-8.419-1.576c-.255.022-.491.055-.742.1a0,0,0,0,0-.006,0,18.327,18.327,0,0,1-6.577.016l0,0c-9.192-1.988-16.391-10.311-17.943-19.462A24.769,24.769,0,0,1,140.137,132.9" transform="translate(-74.281 -95.457)" fill="#f2fafd"/>
            <path id="Trazado_1038921" data-name="Trazado 1038921" d="M132.584,174.818a8.45,8.45,0,0,1-4.194-1.576l-.58-.347A14.265,14.265,0,0,0,120,171.448c-.252.022-.464.052-.693.089a19.153,19.153,0,0,1-6.945.007c-9.339-2.022-17.034-10.356-18.713-20.268a25.759,25.759,0,0,1,44.021-22.221c4.493,4.643,6.711,10.454,6.082,15.943h-.008l-.044.532a14.3,14.3,0,0,0,2.344,9.089,4.87,4.87,0,0,1,1.638,4.077c-.42,6.194-10.49,13.947-12.958,15.534a4.206,4.206,0,0,1-2.138.589m-11.155-5.425a16.44,16.44,0,0,1,7.322,1.763l.665.393c1.767,1.069,3.027,1.709,4.276.992,3.377-2.172,11.7-9.319,12.015-13.979a2.9,2.9,0,0,0-1.069-2.544l-.188-.218a16.283,16.283,0,0,1-2.718-10.453l-.013-.01.062-.563c.562-4.9-1.458-10.129-5.541-14.347l-.008-.008A23.779,23.779,0,0,0,95.6,150.934c1.548,9.145,8.612,16.82,17.178,18.672a17.252,17.252,0,0,0,6.183-.017c.314-.05.572-.087.85-.111a15.15,15.15,0,0,1,1.623-.086" transform="translate(-71.093 -92.295)" fill="#252260"/>
            <path id="Trazado_1038922" data-name="Trazado 1038922" d="M197.743,280.72a.793.793,0,0,1-.416-.117l-24.676-15.222a.791.791,0,1,1,.831-1.347l24.676,15.222a.791.791,0,0,1-.416,1.464" transform="translate(-131.344 -201.211)" fill="#252260"/>
            <path id="Trazado_1038923" data-name="Trazado 1038923" d="M249.811,226.366a.787.787,0,0,1-.633-.317L232.023,203.1a.791.791,0,1,1,1.266-.947L250.444,225.1a.79.79,0,0,1-.633,1.264" transform="translate(-176.775 -153.882)" fill="#252260"/>
            <path id="Trazado_1038924" data-name="Trazado 1038924" d="M173.89,215.035a5.19,5.19,0,0,1-1.308-.164.791.791,0,0,1,.4-1.531,4.368,4.368,0,0,0,3.6-.8,7.239,7.239,0,0,0,2.368-3.238,10.344,10.344,0,0,0,.714-3.258c-.193-.015-.385-.036-.576-.063a10.724,10.724,0,0,1-7.966-5.646,5.526,5.526,0,0,1-.692-2.36,3,3,0,0,1,3.776-3.156,5.9,5.9,0,0,1,2.256,1.108,11.868,11.868,0,0,1,4.755,8.539,8.979,8.979,0,0,0,8.1-10.853.792.792,0,0,1,1.547-.334,10.564,10.564,0,0,1-9.621,12.769,11.946,11.946,0,0,1-.826,3.84,8.831,8.831,0,0,1-2.908,3.933,6.236,6.236,0,0,1-3.623,1.214m-.423-18.71a1.5,1.5,0,0,0-.973.314,1.644,1.644,0,0,0-.482,1.288,4.006,4.006,0,0,0,.517,1.687,9.127,9.127,0,0,0,6.776,4.8c.108.015.216.027.324.038a10.112,10.112,0,0,0-.338-1.787,10.383,10.383,0,0,0-3.773-5.47,4.24,4.24,0,0,0-1.632-.828,2.071,2.071,0,0,0-.419-.043" transform="translate(-129.935 -146.882)" fill="#252260"/>
            <g id="Grupo_1175243" data-name="Grupo 1175243" transform="translate(25.487 51.62)" opacity="0.98">
              <g id="Grupo_1175242" data-name="Grupo 1175242">
                <g id="Grupo_1175241" data-name="Grupo 1175241" clip-path="url(#clip-path-3)">
                  <path id="Trazado_1038925" data-name="Trazado 1038925" d="M113.934,235.8a.792.792,0,0,1-.539-.212,19.66,19.66,0,0,1-5.8-17.686.791.791,0,0,1,1.554.3,18.042,18.042,0,0,0,5.329,16.233.791.791,0,0,1-.539,1.37" transform="translate(-107.272 -217.259)" fill="#252260"/>
                </g>
              </g>
            </g>
            <path id="Trazado_1038926" data-name="Trazado 1038926" d="M291.553,323.926a3.993,3.993,0,0,1-1.185-.171.987.987,0,0,1-.683-1.116.964.964,0,0,1,1.02-.818,3.688,3.688,0,0,0,1.816-.951c.25-.194.5-.384.742-.55,3.112-2.72,7.512-6.851,9.014-10.707a.337.337,0,0,1,0-.1.99.99,0,0,1,1.917-.419c1.054,2.914-1.68,7.212-4.341,10.007-2.339,2.458-5.6,4.825-8.3,4.825" transform="translate(-220.846 -235.156)" fill="#252260"/>
            <path id="Trazado_1038927" data-name="Trazado 1038927" d="M343.666,310.3a.985.985,0,0,1-.848-.48,1.117,1.117,0,0,1-.147-.479.941.941,0,0,1,.734-1.083,1.035,1.035,0,0,1,1.19.7,1.371,1.371,0,0,1,.036.136v.006a1.054,1.054,0,0,1,.023.213.988.988,0,0,1-.726.953.965.965,0,0,1-.263.036m-.989-.989h0Z" transform="translate(-261.242 -234.999)" fill="#252260"/>
            <path id="Trazado_1038928" data-name="Trazado 1038928" d="M286.284,319.233c-.85,0-1.649-.84-2.089-1.3a3.168,3.168,0,0,0-.327-.325,1.046,1.046,0,0,1-.412-.9.991.991,0,0,1,.533-.81l.639.568.049-.075-.345-.65a25.4,25.4,0,0,0,5.485-4.458l.7-.736c2.265-2.427,4.4-4.718,5.593-7.592a.993.993,0,0,1,.706-.589,1.007,1.007,0,0,1,.884.245l1.417,1.323a.207.207,0,0,0,.026.023,1.831,1.831,0,0,1,.291.434.965.965,0,0,1,.049.147.607.607,0,0,1,.018.1.253.253,0,0,1,.01.04.065.065,0,0,1,0,.022,1.045,1.045,0,0,1,.018.2,2.291,2.291,0,0,1,0,.264.931.931,0,0,1-.075.325c-1.973,4.718-7.167,10.377-12.353,13.455a1.3,1.3,0,0,1-.819.3m-.211-1.98a.438.438,0,0,0-.08.049c.026-.017.054-.032.08-.049m0-.241c.059.054.116.1.167.14,4.66-2.853,9.339-7.9,11.224-12.058l-.126-.117a32.6,32.6,0,0,1-5.379,6.913l-.562.6c-.01.012-.188.186-.2.2a30.361,30.361,0,0,1-5.126,4.321" transform="translate(-216.104 -230.505)" fill="#252260"/>
            <path id="Trazado_1038929" data-name="Trazado 1038929" d="M343.666,310.3a.985.985,0,0,1-.848-.48,1.117,1.117,0,0,1-.147-.479.941.941,0,0,1,.734-1.083,1.035,1.035,0,0,1,1.19.7,1.371,1.371,0,0,1,.036.136v.006a1.054,1.054,0,0,1,.023.213.988.988,0,0,1-.726.953.965.965,0,0,1-.263.036m-.989-.989h0Z" transform="translate(-261.242 -234.999)" fill="#252260"/>
            <path id="Trazado_1038930" data-name="Trazado 1038930" d="M274.361,309.27c-.054,0-.111,0-.168-.005a2.83,2.83,0,0,1-2.406-1.564.131.131,0,0,0-.013-.029,2.055,2.055,0,0,1-.16-.4,2.783,2.783,0,0,1-.1-1.3c0-.029.008-.059.013-.09a4.234,4.234,0,0,1,.16-.634.991.991,0,0,1,.791-.645,1.013,1.013,0,0,1,.94.4c.271-.084,2.378-1.166,5.889-4.8,3.382-3.5,5.194-6.448,5.266-7.32a.988.988,0,0,1,.255-1.65c.031-.013.227-.084.258-.094a3.035,3.035,0,0,1,1.713-.115,2.727,2.727,0,0,1,1.337.7l.031.029a3.044,3.044,0,0,1,.616.88.8.8,0,0,1,.062.187c1.3,4.579-9.745,14.468-12.726,15.984a2.522,2.522,0,0,1-.314.148,4.686,4.686,0,0,1-.634.212,2.786,2.786,0,0,1-.806.115m.3-2.025.577.86-.309-.939c.018-.01.273-.126.291-.134,3.277-1.669,12.456-10.895,11.729-13.651a1.182,1.182,0,0,0-.172-.228,1,1,0,0,0-.237-.158c0,.032-.005.063-.01.1-.4,3.4-9.014,12.715-12.616,13.659a3.093,3.093,0,0,1-.35.071c0,.006.005.013.008.021a.875.875,0,0,0,.709.447,1.168,1.168,0,0,0,.381-.043" transform="translate(-206.976 -221.812)" fill="#252260"/>
            <path id="Trazado_1038931" data-name="Trazado 1038931" d="M314.52,302.462a.972.972,0,0,1-.523-.151.987.987,0,0,1-.4-1.2,1.036,1.036,0,0,1,1.845-.013,1.008,1.008,0,0,1-.191,1.042.99.99,0,0,1-.734.326" transform="translate(-239.036 -229.13)" fill="#252260"/>
            <path id="Trazado_1038932" data-name="Trazado 1038932" d="M314.6,302.172a.992.992,0,0,1,0-1.983.987.987,0,0,1,.992.985.971.971,0,0,1-.039.272h0a.008.008,0,0,1,0,.006h0a1.019,1.019,0,0,1-.25.428.993.993,0,0,1-.7.29m-.008-1-.693-.69Z" transform="translate(-239.097 -228.865)" fill="#252260"/>
            <path id="Trazado_1038933" data-name="Trazado 1038933" d="M314.666,302.081a.987.987,0,0,1-.951-1.261.976.976,0,0,1,1.09-.712.986.986,0,0,1,.853.975,1.01,1.01,0,0,1-.291.708.991.991,0,0,1-.7.29m0-1v0Z" transform="translate(-239.148 -228.795)" fill="#252260"/>
            <path id="Trazado_1038934" data-name="Trazado 1038934" d="M314.732,301.978a.965.965,0,0,1-.533-.157.986.986,0,0,1-.35-1.273,1,1,0,0,1,.438-.444l.438.871-.438-.871a.99.99,0,0,1,1.443.871,1.035,1.035,0,0,1-.227.635.986.986,0,0,1-.77.368" transform="translate(-239.199 -228.716)" fill="#252260"/>
            <path id="Trazado_1038935" data-name="Trazado 1038935" d="M270.145,304.459a.981.981,0,0,1-.623-.223c-.142-.115-.464-.421-.781-.725-.248-.24-.492-.477-.611-.576a.991.991,0,0,1,.206-1.646c2.672-1.3,4.957-3.7,6.971-5.818l1.206-1.34a20.111,20.111,0,0,0,3.944-5.776.989.989,0,0,1,1.592-.35l1.384,1.3a.99.99,0,0,1,.309.68c.149,3.8-9.588,14.219-13.533,14.475l-.064,0m.288-2.065.023.021c3.04-.843,10.727-9.015,11.278-11.995l-.036-.032a25.671,25.671,0,0,1-3.687,5.035l-1.27,1.41a32.48,32.48,0,0,1-6.309,5.561" transform="translate(-204.156 -219.374)" fill="#252260"/>
            <path id="Trazado_1038936" data-name="Trazado 1038936" d="M275.043,280.956a1.821,1.821,0,0,0-.9-.369,8.337,8.337,0,0,1-1.725,3.714c-3.156,4.095-6.742,8.5-11.388,10.913a5.363,5.363,0,0,1-.79.2c1.454,4.3,7.041-1.828,8.6-3.2C270.67,290.2,277.959,283.191,275.043,280.956Zm-1.153,5.308,0,0,.009-.01A.017.017,0,0,1,273.89,286.264Zm.033-.047,0,0,0,0A0,0,0,0,1,273.923,286.217Zm.015-.022,0,0,.012-.013C273.947,286.185,273.944,286.189,273.938,286.2Z" transform="translate(-198.406 -213.92)" fill="none" stroke="#252260" stroke-linecap="round" stroke-linejoin="round" stroke-width="0.75"/>
            <path id="Trazado_1038937" data-name="Trazado 1038937" d="M314.52,302.462a.972.972,0,0,1-.523-.151.987.987,0,0,1-.4-1.2,1.036,1.036,0,0,1,1.845-.013,1.008,1.008,0,0,1-.191,1.042.99.99,0,0,1-.734.326" transform="translate(-239.036 -229.13)" fill="#252260"/>
            <path id="Trazado_1038938" data-name="Trazado 1038938" d="M314.6,302.172a.992.992,0,0,1,0-1.983.987.987,0,0,1,.992.985.971.971,0,0,1-.039.272h0a.008.008,0,0,1,0,.006h0a1.019,1.019,0,0,1-.25.428.993.993,0,0,1-.7.29m-.008-1-.693-.69Z" transform="translate(-239.097 -228.865)" fill="#252260"/>
            <path id="Trazado_1038939" data-name="Trazado 1038939" d="M314.666,302.081a.987.987,0,0,1-.951-1.261.976.976,0,0,1,1.09-.712.986.986,0,0,1,.853.975,1.01,1.01,0,0,1-.291.708.991.991,0,0,1-.7.29m0-1v0Z" transform="translate(-239.148 -228.795)" fill="#252260"/>
            <path id="Trazado_1038940" data-name="Trazado 1038940" d="M314.732,301.978a.965.965,0,0,1-.533-.157.986.986,0,0,1-.35-1.273,1,1,0,0,1,.438-.444l.438.871-.438-.871a.99.99,0,0,1,1.443.871,1.035,1.035,0,0,1-.227.635.986.986,0,0,1-.77.368" transform="translate(-239.199 -228.716)" fill="#252260"/>
            <path id="Trazado_1038941" data-name="Trazado 1038941" d="M761.707,379.874a.594.594,0,0,1-.594-.594v-6.509a.594.594,0,0,1,1.188,0v6.509a.594.594,0,0,1-.594.594" transform="translate(-580.275 -283.749)" fill="#252260"/>
            <path id="Trazado_1038942" data-name="Trazado 1038942" d="M754.519,387.064h-6.508a.594.594,0,0,1,0-1.188h6.508a.594.594,0,0,1,0,1.188" transform="translate(-569.833 -294.193)" fill="#252260"/>
            <path id="Trazado_1038943" data-name="Trazado 1038943" d="M753.115,310.831c-2.8,0-2.8,4.345,0,4.345s2.8-4.345,0-4.345" transform="translate(-572.578 -236.979)" fill="#252260"/>
            <path id="Trazado_1038944" data-name="Trazado 1038944" d="M797.767,338.626c-4.659,0-4.667,7.241,0,7.241s4.667-7.241,0-7.241" transform="translate(-605.554 -258.17)" fill="#252260"/>
            <path id="Trazado_1038945" data-name="Trazado 1038945" d="M50.349,263.744c-2.8,0-2.8,4.345,0,4.345s2.8-4.345,0-4.345" transform="translate(-36.786 -201.079)" fill="#252260"/>
            <path id="Trazado_1038946" data-name="Trazado 1038946" d="M3.5,200.035c-4.66,0-4.667,7.241,0,7.241s4.667-7.241,0-7.241" transform="translate(0 -152.507)" fill="#252260"/>
            <path id="Trazado_1038947" data-name="Trazado 1038947" d="M50.944,161.062c-4.66,0-4.667,7.241,0,7.241s4.667-7.241,0-7.241" transform="translate(-36.173 -122.794)" fill="#252260"/>
            <path id="Trazado_1038948" data-name="Trazado 1038948" d="M346.5,663.339a.594.594,0,0,1-.594-.594v-6.51a.594.594,0,0,1,1.188,0v6.51a.594.594,0,0,1-.594.594" transform="translate(-263.718 -499.863)" fill="#252260"/>
            <path id="Trazado_1038949" data-name="Trazado 1038949" d="M339.309,670.531H332.8a.594.594,0,0,1,0-1.188h6.508a.594.594,0,0,1,0,1.188" transform="translate(-253.276 -510.309)" fill="#252260"/>
            <path id="Trazado_1038950" data-name="Trazado 1038950" d="M337.907,594.3c-2.8,0-2.8,4.345,0,4.345s2.8-4.345,0-4.345" transform="translate(-256.022 -453.094)" fill="#252260"/>
            <path id="Trazado_1038951" data-name="Trazado 1038951" d="M382.559,622.091c-4.659,0-4.667,7.241,0,7.241s4.667-7.241,0-7.241" transform="translate(-288.998 -474.284)" fill="#252260"/>
            <path id="Trazado_1038952" data-name="Trazado 1038952" d="M497.155,474.67a27.957,27.957,0,1,1-27.96-27.96,27.989,27.989,0,0,1,27.96,27.96" transform="translate(-336.404 -340.573)" fill="#fff"/>
            <path id="Trazado_1038953" data-name="Trazado 1038953" d="M469.191,502.631a27.958,27.958,0,1,1,27.958-27.958,27.989,27.989,0,0,1-27.958,27.958m0-51.944a23.986,23.986,0,1,0,23.986,23.986,24.013,24.013,0,0,0-23.986-23.986" transform="translate(-336.398 -340.578)" fill="#7f50fd"/>
            <path id="Trazado_1038954" data-name="Trazado 1038954" d="M501.6,524.942a17.857,17.857,0,1,1,17.857-17.857A17.877,17.877,0,0,1,501.6,524.942m0-31.742a13.885,13.885,0,1,0,13.886,13.885A13.9,13.9,0,0,0,501.6,493.2" transform="translate(-368.81 -372.99)" fill="#7f50fd"/>
            <path id="Trazado_1038955" data-name="Trazado 1038955" d="M534.014,547.252a7.756,7.756,0,1,1,7.756-7.756,7.764,7.764,0,0,1-7.756,7.756m0-11.54A3.784,3.784,0,1,0,537.8,539.5a3.789,3.789,0,0,0-3.784-3.784" transform="translate(-401.221 -405.4)" fill="#7f50fd"/>
            <path id="Trazado_1038956" data-name="Trazado 1038956" d="M466.779,500.962a28.71,28.71,0,1,1,28.713-28.707,28.739,28.739,0,0,1-28.713,28.707m0-55.914a27.2,27.2,0,1,0,27.207,27.207,27.235,27.235,0,0,0-27.207-27.207" transform="translate(-333.988 -338.158)" fill="#252260"/>
            <path id="Trazado_1038957" data-name="Trazado 1038957" d="M555.13,462.923a1.176,1.176,0,0,1-.831-2.007l30.807-30.808a1.175,1.175,0,0,1,1.662,1.662l-30.807,30.808a1.172,1.172,0,0,1-.831.344" transform="translate(-422.337 -327.654)" fill="#252260"/>
            <path id="Trazado_1038958" data-name="Trazado 1038958" d="M655.284,397.074l-1.14-8.824L642.1,400.292l1.148,8.889Z" transform="translate(-489.541 -296.004)" fill="#7f50fd"/>
            <path id="Trazado_1038959" data-name="Trazado 1038959" d="M640.835,407.521a.754.754,0,0,1-.747-.656l-1.148-8.889a.755.755,0,0,1,.215-.629l12.041-12.041a.753.753,0,0,1,1.279.436l1.14,8.824a.752.752,0,0,1-.213.627L641.369,407.3a.755.755,0,0,1-.534.222m-.354-9.371.9,7,10.688-10.754-.9-6.939Z" transform="translate(-487.125 -293.591)" fill="#252260"/>
            <path id="Trazado_1038960" data-name="Trazado 1038960" d="M655.657,432.673a.754.754,0,0,1-.746-.656l-1.144-8.856a.753.753,0,1,1,1.494-.193l1.144,8.856a.754.754,0,0,1-.65.843.878.878,0,0,1-.1.006" transform="translate(-498.43 -321.971)" fill="#252260"/>
            <path id="Trazado_1038961" data-name="Trazado 1038961" d="M674.765,412.415a.753.753,0,0,1-.745-.656l-1.138-8.807a.753.753,0,1,1,1.494-.192l1.138,8.807a.754.754,0,0,1-.65.843.885.885,0,0,1-.1.006" transform="translate(-513.003 -306.565)" fill="#252260"/>
            <path id="Trazado_1038962" data-name="Trazado 1038962" d="M659.042,425.7l8.824,1.14L655.825,438.88l-8.889-1.148Z" transform="translate(-493.226 -324.555)" fill="#7f50fd"/>
            <path id="Trazado_1038963" data-name="Trazado 1038963" d="M653.409,437.225a.827.827,0,0,1-.1-.006l-8.89-1.148a.753.753,0,0,1-.434-1.281L656.1,422.758a.787.787,0,0,1,.628-.213l8.824,1.14a.753.753,0,0,1,.435,1.279L653.941,437a.755.755,0,0,1-.532.221m-7.268-2.451,7,.9,10.7-10.7-6.94-.9Z" transform="translate(-490.809 -322.147)" fill="#252260"/>
            <path id="Trazado_1038964" data-name="Trazado 1038964" d="M668.343,462.394a.877.877,0,0,1-.1-.006l-8.858-1.144a.753.753,0,0,1,.194-1.494l8.857,1.144a.753.753,0,0,1-.1,1.5" transform="translate(-502.219 -350.511)" fill="#252260"/>
            <path id="Trazado_1038965" data-name="Trazado 1038965" d="M687.618,442.2a.878.878,0,0,1-.1-.006l-8.807-1.138a.753.753,0,0,1,.194-1.494l8.807,1.138a.753.753,0,0,1-.1,1.5" transform="translate(-516.952 -335.122)" fill="#252260"/>
          </g>
        </g>
      </g>
    </g>
  </g>
</svg>
