<svg xmlns="http://www.w3.org/2000/svg" xmlns:xlink="http://www.w3.org/1999/xlink" width="205.264" height="134.699" viewBox="0 0 205.264 134.699">
  <defs>
    <clipPath id="clip-path">
      <rect id="Rectángulo_421146" data-name="Rectángulo 421146" width="205.264" height="134.699" transform="translate(-23)" fill="none"/>
    </clipPath>
    <clipPath id="clip-path-2">
      <rect id="Rectángulo_425712" data-name="Rectángulo 425712" width="179.95" height="136.646" fill="none"/>
    </clipPath>
  </defs>
  <g id="Grupo_1175228" data-name="Grupo 1175228" transform="translate(-335 -1003.676)">
    <circle id="Elipse_12767" data-name="Elipse 12767" cx="52" cy="52" r="52" transform="translate(340 1008)" fill="#ffd256"/>
    <g id="Grupo_1175220" data-name="Grupo 1175220" transform="translate(358 1003.676)">
      <g id="Grupo_1175225" data-name="Grupo 1175225">
        <g id="Grupo_1175224" data-name="Grupo 1175224" clip-path="url(#clip-path)">
          <path id="Trazado_1038681" data-name="Trazado 1038681" d="M9.169,193.84a.425.425,0,0,1-.426-.426v-4.666a.426.426,0,1,1,.851,0v4.666a.425.425,0,0,1-.426.426" transform="translate(-4.919 -105.946)" fill="#29275f"/>
          <path id="Trazado_1038682" data-name="Trazado 1038682" d="M8.5,194.508H3.836a.426.426,0,0,1,0-.852H8.5a.426.426,0,0,1,0,.852" transform="translate(-1.918 -108.946)" fill="#29275f"/>
          <path id="Trazado_1038683" data-name="Trazado 1038683" d="M1.5,218.04a1.558,1.558,0,0,0,0,3.114,1.558,1.558,0,0,0,0-3.114" transform="translate(0 -122.664)" fill="#29275f"/>
          <path id="Trazado_1038684" data-name="Trazado 1038684" d="M227.942,41.857a.425.425,0,0,1-.426-.426V36.766a.426.426,0,1,1,.851,0v4.666a.425.425,0,0,1-.426.426" transform="translate(-127.995 -20.444)" fill="#29275f"/>
          <path id="Trazado_1038685" data-name="Trazado 1038685" d="M227.274,42.523H222.61a.426.426,0,0,1,0-.852h4.665a.426.426,0,0,1,0,.852" transform="translate(-124.996 -23.443)" fill="#29275f"/>
          <path id="Trazado_1038686" data-name="Trazado 1038686" d="M225.089,12.458a1.558,1.558,0,0,0,0,3.114,1.558,1.558,0,0,0,0-3.114" transform="translate(-125.784 -7.009)" fill="#29275f"/>
          <path id="Trazado_1038687" data-name="Trazado 1038687" d="M242.93,23.278c-3.34,0-3.345,5.19,0,5.19s3.345-5.19,0-5.19" transform="translate(-135.257 -13.096)" fill="#29275f"/>
          <path id="Trazado_1038688" data-name="Trazado 1038688" d="M50.9,40.567a1.558,1.558,0,0,0,0,3.114,1.558,1.558,0,0,0,0-3.114" transform="translate(-27.789 -22.822)" fill="#29275f"/>
          <path id="Trazado_1038689" data-name="Trazado 1038689" d="M33.12,15.765c-3.34,0-3.345,5.19,0,5.19s3.345-5.19,0-5.19" transform="translate(-17.222 -8.869)" fill="#29275f"/>
          <path id="Trazado_1038690" data-name="Trazado 1038690" d="M51.591.593c-3.34,0-3.345,5.19,0,5.19s3.345-5.19,0-5.19" transform="translate(-27.614 -0.334)" fill="#29275f"/>
          <path id="Trazado_1038691" data-name="Trazado 1038691" d="M270.875,280.355a.425.425,0,0,1-.426-.426v-4.665a.426.426,0,1,1,.851,0v4.665a.425.425,0,0,1-.426.426" transform="translate(-152.148 -154.618)" fill="#29275f"/>
          <path id="Trazado_1038692" data-name="Trazado 1038692" d="M270.206,281.022h-4.666a.426.426,0,0,1,0-.852h4.666a.426.426,0,0,1,0,.852" transform="translate(-149.148 -157.617)" fill="#29275f"/>
          <path id="Trazado_1038693" data-name="Trazado 1038693" d="M268.022,250.956a1.558,1.558,0,0,0,0,3.114,1.558,1.558,0,0,0,0-3.114" transform="translate(-149.937 -141.182)" fill="#29275f"/>
          <path id="Trazado_1038694" data-name="Trazado 1038694" d="M285.863,261.777c-3.339,0-3.345,5.19,0,5.19s3.345-5.19,0-5.19" transform="translate(-159.41 -147.27)" fill="#29275f"/>
          <path id="Trazado_1055797" data-name="Trazado 1055797" d="M279.078,25.7l2.245,10.767,3.57-1.017-2.3,18.7-1.962-12.909-3.35.954Z" transform="translate(-197.186 -15.787)" fill="#ecb85e"/>
          <path id="Trazado_1055798" data-name="Trazado 1055798" d="M313.426,65.914l-4.754,5.655,2.019,1.463-10.827,6.549,6-6.4-1.894-1.373Z" transform="translate(-211.774 -41.764)" fill="#ecb85e"/>
          <path id="Trazado_1055799" data-name="Trazado 1055799" d="M242.474,68.306l5.655,4.754,1.463-2.019,6.549,10.828-6.4-6-1.373,1.895Z" transform="translate(-174.698 -43.31)" fill="#ecb85e"/>
          <g id="Grupo_1186075" data-name="Grupo 1186075" transform="translate(-18.052 0.818)">
            <g id="Grupo_1186019" data-name="Grupo 1186019" clip-path="url(#clip-path-2)">
              <path id="Trazado_1055477" data-name="Trazado 1055477" d="M36.655,34.106V45.926a8.427,8.427,0,0,1-8.4,8.4H23.034l2.682,7.527L13.833,54.328H9.422a8.427,8.427,0,0,1-8.4-8.4V34.106a8.427,8.427,0,0,1,8.4-8.4h18.83a8.427,8.427,0,0,1,8.4,8.4" transform="translate(-0.659 -16.606)" fill="#fff"/>
              <path id="Trazado_1055478" data-name="Trazado 1055478" d="M25.057,61.558a.359.359,0,0,1-.193-.056L13.07,54.031H8.764A8.774,8.774,0,0,1,0,45.267V33.448a8.774,8.774,0,0,1,8.764-8.764h18.83a8.774,8.774,0,0,1,8.764,8.764V45.267a8.774,8.774,0,0,1-8.764,8.764H22.888l2.51,7.045a.361.361,0,0,1-.34.482M8.764,25.406A8.05,8.05,0,0,0,.723,33.448V45.267a8.05,8.05,0,0,0,8.041,8.041h4.41a.362.362,0,0,1,.193.056l11,6.966-2.33-6.54a.361.361,0,0,1,.34-.482h5.219a8.05,8.05,0,0,0,8.041-8.041V33.448a8.05,8.05,0,0,0-8.041-8.041Z" transform="translate(0 -15.947)" fill="#29275f"/>
              <path id="Trazado_1055479" data-name="Trazado 1055479" d="M28.967,51.135l-7.582,3.986,1.448-8.442L16.7,40.7l8.477-1.232,3.791-7.681,3.791,7.681L41.235,40.7,35.1,46.679l1.448,8.442Z" transform="translate(-10.789 -20.536)" fill="#ecb85e"/>
              <path id="Trazado_1055480" data-name="Trazado 1055480" d="M35.89,54.854a.359.359,0,0,1-.168-.041l-7.413-3.9-7.413,3.9a.361.361,0,0,1-.524-.381l1.416-8.255-6-5.846a.361.361,0,0,1,.2-.616l8.289-1.2L27.984,31a.376.376,0,0,1,.648,0l3.707,7.511,8.289,1.2a.361.361,0,0,1,.2.616l-6,5.846,1.416,8.255a.361.361,0,0,1-.356.422m-7.582-4.708a.362.362,0,0,1,.168.041l6.934,3.645-1.324-7.72a.362.362,0,0,1,.1-.32l5.61-5.468L32.047,39.2a.362.362,0,0,1-.272-.2l-3.467-7.024L24.841,39a.363.363,0,0,1-.272.2l-7.752,1.126,5.609,5.468a.362.362,0,0,1,.1.32l-1.325,7.72,6.934-3.645a.362.362,0,0,1,.168-.041" transform="translate(-10.129 -19.907)" fill="#29275f"/>
              <path id="Trazado_1055481" data-name="Trazado 1055481" d="M387.185,189.7a5.437,5.437,0,0,1-5.441,5.441h-49.45a5.445,5.445,0,0,1-5.445-5.441Z" transform="translate(-211.155 -122.549)" fill="#29275f"/>
              <path id="Trazado_1055482" data-name="Trazado 1055482" d="M389.233,98.907v30.276H333.864V98.907a2.877,2.877,0,0,1,2.874-2.878h49.617a2.881,2.881,0,0,1,2.878,2.878" transform="translate(-215.687 -62.038)" fill="#29275f"/>
              <rect id="Rectángulo_425711" data-name="Rectángulo 425711" width="49.693" height="30.582" transform="translate(121.015 36.563)" fill="#fff"/>
              <path id="Trazado_1055483" data-name="Trazado 1055483" d="M395.853,97.97a.815.815,0,1,1-.815-.815.815.815,0,0,1,.815.815" transform="translate(-254.681 -62.765)" fill="#7351fa"/>
              <path id="Trazado_1055485" data-name="Trazado 1055485" d="M177.48,201.372a3.767,3.767,0,0,1-.609,2.206l-.505.771-2.874,4.39a2.5,2.5,0,0,1-1.006.893l-1.76-4.435-10.746,4.263,1.692-11.852a10.879,10.879,0,0,0,.113-1.57,11.072,11.072,0,0,0-2.093-6.465l1.087-.447a5.454,5.454,0,0,0,3.92,2.215,6.815,6.815,0,0,0,.731.041c.118,0,.23,0,.334-.013a2.737,2.737,0,0,0,.388-.036,2.074,2.074,0,0,0,.284-.045.063.063,0,0,0,.041,0,.664.664,0,0,0,.131-.027c.009,0,.013,0,.018,0a1.205,1.205,0,0,0,.122-.032,1.6,1.6,0,0,0,.212-.059.826.826,0,0,0,.1-.032,2.272,2.272,0,0,0,.293-.113,2.829,2.829,0,0,0,.266-.122,1.435,1.435,0,0,0,.144-.076,2.705,2.705,0,0,0,.33-.208,1.359,1.359,0,0,0,.162-.117c.086-.063.171-.135.252-.207a4.253,4.253,0,0,0,.483-.51c.036-.04.063-.076.095-.117v0c.036-.045.068-.09.1-.135a1.3,1.3,0,0,0,.095-.14c.068-.1.131-.2.189-.307a.086.086,0,0,0,.013-.023c.045-.081.09-.158.126-.239s.09-.176.126-.266a6.881,6.881,0,0,0,.356-.988c.032-.1.054-.2.081-.3.027-.118.05-.23.072-.338a9.071,9.071,0,0,0,.144-1.024c0-.036,0-.068,0-.09,0-.05,0-.081,0-.095a8.566,8.566,0,0,0,1,1.236c-1.227,1.854-1.046,4.714-.686,6.839.632,3.212,2.1,7.922,6.1,7.656h.009a0,0,0,0,1,0,0s.018,0,.018,0l.253-.027c.054,0,.113-.018.167-.014l0,0,.154-.013h0a.04.04,0,0,1,.023,0h0c.009,0,.022,0,.031,0" transform="translate(-103.166 -119.977)" fill="#7351fa"/>
              <path id="Trazado_1055486" data-name="Trazado 1055486" d="M157.716,179.773a16.937,16.937,0,0,0,11.4,2.1v0c0,.013,0,.045,0,.095,0,.027,0,.054,0,.09a9.07,9.07,0,0,1-.144,1.024c-.023.108-.045.221-.072.338-.027.095-.05.194-.081.3a6.924,6.924,0,0,1-.356.988c-.036.09-.081.176-.126.266s-.081.162-.126.239a.124.124,0,0,1-.013.023c-.059.1-.122.207-.19.307a1.215,1.215,0,0,1-.094.14c-.032.045-.063.09-.1.136v0c-.032.041-.063.081-.095.118a4.281,4.281,0,0,1-.483.51,2.8,2.8,0,0,1-.253.207,1.321,1.321,0,0,1-.162.118,2.724,2.724,0,0,1-.329.207,1.554,1.554,0,0,1-.144.077,2.87,2.87,0,0,1-.266.122,2.317,2.317,0,0,1-.293.113.832.832,0,0,1-.1.032,1.655,1.655,0,0,1-.212.058,1.189,1.189,0,0,1-.122.032s-.009,0-.018,0a1.1,1.1,0,0,1-.131.027.065.065,0,0,1-.041,0,2.089,2.089,0,0,1-.284.045,2.7,2.7,0,0,1-.388.036c-.108.009-.221.013-.334.013a6.819,6.819,0,0,1-.731-.041,5.454,5.454,0,0,1-3.921-2.215,10.719,10.719,0,0,1-1.786-5.517" transform="translate(-101.89 -116.139)" fill="#fff"/>
              <path id="Trazado_1055487" data-name="Trazado 1055487" d="M243.856,229.739l-5.147,1.354a4.505,4.505,0,0,1-.05-2.224q1.888.027,4.078.126h0c.681.068,1.362.153,2.039.248l-.068.456a2.051,2.051,0,0,0-.857.041" transform="translate(-154.108 -147.856)" fill="#7351fa"/>
              <path id="Trazado_1055488" data-name="Trazado 1055488" d="M379.9,204l-17.13,2.558-10.4,6.839-6.027-6.934-1.019-1.168.974-2.7a5.665,5.665,0,0,1,5.328-3.74h13.625a3.917,3.917,0,0,1-.677,2.08h12.7A3,3,0,0,1,379.9,204" transform="translate(-223.085 -128.465)" fill="#fff"/>
              <path id="Trazado_1055489" data-name="Trazado 1055489" d="M137.716,184.681l-1.087.447a11.072,11.072,0,0,0-7.435-4.521,10.932,10.932,0,0,0-5.2.51,13.666,13.666,0,0,1,4.209-1.268l7.679-1.02.05.334a10.715,10.715,0,0,0,1.786,5.517" transform="translate(-80.103 -115.53)" fill="#7351fa"/>
              <path id="Trazado_1055490" data-name="Trazado 1055490" d="M169.271,261.055l3.53,11.526a4.417,4.417,0,0,1-1.033,1.083h0c-2.274,1.841-9.091,5.382-27.917,5.382-18.483,0-22.6-3.41-25.436-5.278v0a6.467,6.467,0,0,1-1.448-1.182l1.356-6.059a10.869,10.869,0,0,0,4.345-.767l28.643-11.36-1.019-2.576-.568-1.425c.925.248,9.316-.857,9.316-.857l.871-.23,6.875-1.809a2.051,2.051,0,0,0,1.462-2.5l-.032-.118a2.052,2.052,0,0,0-2.5-1.462l1.042-.275a2.057,2.057,0,0,0,1.462-2.5l-.032-.118a2.058,2.058,0,0,0-2.5-1.462l.817-.217a2.052,2.052,0,0,0,1.462-2.5l-.031-.117a2.052,2.052,0,0,0-2.5-1.462l.966-.252A2.059,2.059,0,0,0,167.845,232l-.031-.113a2.053,2.053,0,0,0-1.647-1.5l.068-.456c1.931.275,3.858.659,5.766,1.1l.266,2.08a22.275,22.275,0,0,1-2.721,13.832L167.7,250.2l1.561,10.76Z" transform="translate(-75.562 -148.54)" fill="#7351fa"/>
              <path id="Trazado_1055491" data-name="Trazado 1055491" d="M200.673,238.431l-4.836-12.2a2.494,2.494,0,0,0,1.006-.893l2.874-4.39.505-.772a3.766,3.766,0,0,0,.609-2.206,2.672,2.672,0,0,0-.018-.271.136.136,0,0,0,0-.045,3.445,3.445,0,0,0-.095-.514l-1.295-4.922a.57.57,0,0,1,.411-.7,1.433,1.433,0,0,1,.189-.041,3.254,3.254,0,0,1,.686-.072,3.427,3.427,0,0,1,3.212,2.247l1.462,4,.068.185a3.894,3.894,0,0,1,.194.772l.356,2.544,5.12-1.344,5.148-1.354a2.048,2.048,0,0,1,2.5,1.462l.031.113a2.059,2.059,0,0,1-1.462,2.508l-.965.253a2.052,2.052,0,0,1,2.5,1.462l.032.117a2.052,2.052,0,0,1-1.462,2.5l-.817.217a2.059,2.059,0,0,1,2.5,1.462l.032.118a2.058,2.058,0,0,1-1.462,2.5l-1.042.275a2.052,2.052,0,0,1,2.5,1.462l.031.117a2.052,2.052,0,0,1-1.462,2.5l-6.875,1.809-.871.23s-8.391,1.105-9.316.857" transform="translate(-126.517 -136.576)" fill="#fff"/>
              <path id="Trazado_1055492" data-name="Trazado 1055492" d="M301.078,223.646l-30.831,21.339-.013.014a10.971,10.971,0,0,1-2.481,1.353c-.023.009-.05.018-.077.027a.223.223,0,0,1-.076.027c-.113.045-.226.086-.338.126a11.083,11.083,0,0,1-5.4.5l-.013-.1-1.561-10.76,1.85-3.257a22.278,22.278,0,0,0,2.72-13.832l-.266-2.08c1.354.311,2.707.659,4.051,1.024l.591,1.525,1.529-.938c1.732.487,3.46.988,5.184,1.471,1.791,2.756,4.056,4.841,6.731,4.056,5.13-1.5,5.251-11.152,4.99-15.921l2.716,3.126,1.02,1.168,6.027,6.934,1.435,1.655Z" transform="translate(-168.156 -134.518)" fill="#7351fa"/>
              <path id="Trazado_1055493" data-name="Trazado 1055493" d="M301.436,149.816c.262,4.768.14,14.419-4.99,15.921-2.675.785-4.94-1.3-6.731-4.056l.235.068a34.706,34.706,0,0,1-2.089-3.587,49.8,49.8,0,0,1-2.716-6.433c-.1-.28-.189-.564-.284-.848a70.988,70.988,0,0,1-3.176-16.575,1.241,1.241,0,0,1,0-.131c-.018-.293-.031-.586-.045-.875a41.767,41.767,0,0,1,.582-9.2l-.013.014c.758-3.627,2.432-6.709,6.027-6.249,8.157,2.378,12.294,21.637,12.984,29.288,0,0,.131,1.056.221,2.666m-2.964,2.7q.013-.4,0-.88a71,71,0,0,0-.988-8.892,65.229,65.229,0,0,0-3.749-13.4c-1.308-2.878-3.329-7.376-6.122-8.436-1.926-.081-2.594,4.868-2.756,6.433-.717,7.534.943,16.616,3.289,23.577a58.732,58.732,0,0,0,2.332,5.639c1.367,2.8,3.154,5.522,5.193,6.145,2.531-.591,2.8-7.809,2.8-10.182" transform="translate(-181.921 -76.113)" fill="#ecb85e"/>
              <path id="Trazado_1055494" data-name="Trazado 1055494" d="M216.931,190.208a.027.027,0,0,0,.018,0q-2.192-.1-4.078-.126c-1.913-.027-3.6-.009-5.107.045-.2.009-.393.014-.582.023l-1.462-4a3.427,3.427,0,0,0-3.212-2.247,3.231,3.231,0,0,0-.686.072,1.378,1.378,0,0,0-.189.04.57.57,0,0,0-.411.7l1.295,4.922a3.451,3.451,0,0,1,.095.514,3.56,3.56,0,0,1-1.037-1c-.05-.068-.1-.135-.144-.207l-.1-.158a23.241,23.241,0,0,1-2.626-9.041c-.032-.383-.059-.762-.068-1.128,0-.135,0-.266,0-.4,0-.185,0-.365.009-.541s.013-.338.027-.5c0-.094.013-.189.023-.284s.023-.207.036-.311c0-.059.013-.118.023-.176.013-.1.031-.208.054-.311v-.009a.645.645,0,0,1,.027-.126v0s0,0,0-.009v-.009c0-.032.013-.058.018-.09s.013-.05.018-.072a.083.083,0,0,1,.009-.032c.009-.045.023-.086.031-.126.014-.058.032-.113.05-.167.022-.072.045-.144.072-.212.041-.113.086-.217.131-.316a.24.24,0,0,0,.023-.05.193.193,0,0,0,.023-.04v0s0,0,0-.009l0,0a.017.017,0,0,0,0-.014l0,0a.043.043,0,0,0,.013-.023.014.014,0,0,0,0-.009l0,0,.013-.027a.3.3,0,0,0,.032-.05l0,0a1.914,1.914,0,0,1,.185-.257,1.364,1.364,0,0,1,.113-.117,1.313,1.313,0,0,1,.519-.311.035.035,0,0,1,.018-.009c1.362-.456,3.113-1.082,5.2-1.926,1.859-.753,3.988-1.678,6.352-2.806.284-.14.582-.28.875-.42a.586.586,0,0,0-.063.045.907.907,0,0,0-.144.108,1.61,1.61,0,0,0-.176.171,1.835,1.835,0,0,0-.1.158c0,.009-.009.013-.013.023a.016.016,0,0,0,0,.013c-.054.086-.1.171-.153.262v0c-.059.108-.113.217-.162.329a6.325,6.325,0,0,0-.307.821,13.141,13.141,0,0,0-.451,4.25c.009.189.013.379.022.573a31.184,31.184,0,0,0,1.881,8.955c.045.136.1.271.149.4.185.492.37.943.555,1.344.108.235.226.469.343.7.059.117.117.23.181.343s.126.225.189.334c.054.09.113.185.167.275.009.018.023.032.031.05a7.183,7.183,0,0,0,.8,1.1.773.773,0,0,0,.054.063l0,0s0,0,0,.009c.063.072.126.144.194.212a0,0,0,0,0,0,0v0c.041.04.086.081.131.122a3.014,3.014,0,0,0,.257.221,2.288,2.288,0,0,0,.275.194.106.106,0,0,0,.032.018,1.615,1.615,0,0,0,.171.095h0c.045.023.081.041.126.059h0a.893.893,0,0,0,.118.045c.023,0,.045.013.068.018h.009a1.083,1.083,0,0,0,.167.036" transform="translate(-128.32 -109.074)" fill="#ecb85e"/>
              <path id="Trazado_1055495" data-name="Trazado 1055495" d="M249.5,229c-.023,0-.045-.013-.068-.018a.94.94,0,0,1-.118-.045c.059.022.122.045.185.063" transform="translate(-161.066 -147.897)" fill="#fff"/>
              <path id="Trazado_1055496" data-name="Trazado 1055496" d="M217.811,143.112s0,0,0,0-.009,0-.009,0c-.041.023-.081.045-.122.072a.507.507,0,0,1,.063-.045c-.293.14-.591.28-.875.419a13.6,13.6,0,0,0-3.853-.032l-3.722.492c-.032-.045-.045-.068-.045-.068L207.02,139.4l-.374,0c.118-.027.23-.063.343-.095a10.172,10.172,0,0,0,7.191-10.228,11.05,11.05,0,0,1,4.069,4.241,20.529,20.529,0,0,1,2.9,7.782c-.835.555-1.678,1.087-2.54,1.6h0c-.194.1-.46.235-.789.415" transform="translate(-133.499 -83.385)" fill="#29275f"/>
              <path id="Trazado_1055497" data-name="Trazado 1055497" d="M228.533,231.07l-5.12,1.344-.356-2.544a3.87,3.87,0,0,0-.194-.772l-.068-.185c.189-.009.383-.013.582-.023,1.5-.054,3.194-.072,5.107-.045a4.5,4.5,0,0,0,.05,2.224" transform="translate(-143.932 -147.834)" fill="#fff"/>
              <path id="Trazado_1055498" data-name="Trazado 1055498" d="M235.119,171.986a7.947,7.947,0,0,0-.3.821s0,0-.009,0a6.331,6.331,0,0,1,.307-.821" transform="translate(-151.696 -111.109)" fill="#fff"/>
              <path id="Trazado_1055499" data-name="Trazado 1055499" d="M304.11,158.158c0,2.373-.271,9.591-2.8,10.182-2.039-.623-3.826-3.343-5.193-6.145a58.72,58.72,0,0,1-2.332-5.639c-2.346-6.961-4.006-16.043-3.289-23.577.162-1.565.83-6.514,2.756-6.433,2.792,1.06,4.814,5.558,6.122,8.436a65.228,65.228,0,0,1,3.749,13.4,71.006,71.006,0,0,1,.988,8.892q.013.481,0,.88" transform="translate(-187.56 -81.752)" fill="#fff"/>
              <path id="Trazado_1055500" data-name="Trazado 1055500" d="M256.8,169.626a34.789,34.789,0,0,0,2.089,3.587l-.235-.068c-1.723-.483-3.451-.983-5.183-1.471-.7-.2-1.412-.4-2.12-.587-1.344-.365-2.7-.713-4.052-1.024-1.908-.442-3.835-.825-5.765-1.1-.677-.095-1.358-.18-2.039-.248h0a.029.029,0,0,1-.018,0,1.116,1.116,0,0,1-.167-.036H239.3c-.063-.018-.126-.041-.185-.063h0c-.045-.018-.081-.036-.126-.058h0a1.655,1.655,0,0,1-.171-.095.115.115,0,0,1-.032-.018,2.326,2.326,0,0,1-.275-.194,2.954,2.954,0,0,1-.257-.221c-.045-.04-.09-.081-.131-.122v0a0,0,0,0,1,0,0c-.068-.068-.131-.14-.194-.212,0,0,0,0,0-.009l0,0a.714.714,0,0,1-.054-.063c-.041-.054-.086-.108-.131-.162a6.954,6.954,0,0,1-.672-.938c-.009-.018-.023-.032-.031-.05-.054-.09-.113-.185-.167-.275-.063-.108-.126-.221-.189-.334s-.122-.225-.181-.343c-.117-.235-.235-.469-.343-.7-.185-.4-.37-.853-.555-1.344-.05-.131-.1-.266-.149-.4a31.172,31.172,0,0,1-1.881-8.955c-.009-.194-.014-.383-.023-.573a14.144,14.144,0,0,1,.46-4.25,7.944,7.944,0,0,1,.3-.821c.05-.113.1-.221.162-.329v0c.05-.09.1-.176.153-.262a.017.017,0,0,1,0-.014c0-.009.009-.013.013-.022a1.825,1.825,0,0,1,.1-.158,1.545,1.545,0,0,1,.176-.172.942.942,0,0,1,.144-.108c.041-.027.081-.05.122-.072,0,0,0-.009.009,0s0,0,0,0c.329-.181.6-.311.789-.415h0c.862-.514,1.705-1.047,2.54-1.6,4.286-2.847,8.274-6.176,12.262-9.406a0,0,0,0,1,0,0c.122-.1.248-.2.37-.3l.014-.013a41.742,41.742,0,0,0-.582,9.2c.009.289.023.582.045.875a1.247,1.247,0,0,0,0,.131,70.988,70.988,0,0,0,3.176,16.575c.095.284.185.568.284.848a49.8,49.8,0,0,0,2.716,6.433" transform="translate(-150.863 -87.576)" fill="#fff"/>
              <path id="Trazado_1055501" data-name="Trazado 1055501" d="M233.976,174.3a14.146,14.146,0,0,0-.46,4.25,13.142,13.142,0,0,1,.451-4.25s0,0,.009,0" transform="translate(-150.851 -112.6)" fill="#fff"/>
              <path id="Trazado_1055502" data-name="Trazado 1055502" d="M217.836,169.712a13.6,13.6,0,0,1,3.853.031c-2.364,1.128-4.494,2.053-6.352,2.806a17.3,17.3,0,0,0-1.223-2.346Z" transform="translate(-138.325 -109.56)" fill="#7351fa"/>
              <path id="Trazado_1055503" data-name="Trazado 1055503" d="M145.1,67.315a17.3,17.3,0,0,1-1.624,7.344L141.5,61.776c-9.871.88-19.061-4.006-19.061-4.006,2.675,10.318-4.069,13.814-4.069,13.814a5.414,5.414,0,1,0-2.793,9.384,5.524,5.524,0,0,0,1.029-.262c.05.041.1.081.158.126l.058.365,2.2,14.356-7.679,1.02a13.656,13.656,0,0,0-4.209,1.268,11.149,11.149,0,0,0-4.818,3.3l-.036-.031C99.021,99.18,97.9,94.316,97.9,90.744c.623-9.483,11.062-15.822,12.492-25.043,0-.009,0-.018,0-.027.027-.338.068-.672.117-1A17.393,17.393,0,0,1,145.1,67.315" transform="translate(-63.248 -32.253)" fill="#29275f"/>
              <path id="Trazado_1055504" data-name="Trazado 1055504" d="M164.811,92.253v0a10.172,10.172,0,0,1-7.191,10.227c-.113.032-.225.068-.343.095a10.1,10.1,0,0,1-1.051.221l-6.984,1.074,10.634,3.271-.041.081c-.28.582-2.238,4.119-8.473,5.075a16.937,16.937,0,0,1-11.4-2.1l-.05-.334-2.2-14.356-.059-.365-.027-.176-.131.05a5.552,5.552,0,0,1-1.029.262,5.413,5.413,0,1,1-1.642-10.7,5.329,5.329,0,0,1,1.2-.05,5.389,5.389,0,0,1,3.24,1.367s6.744-3.5,4.069-13.814c0,0,9.19,4.886,19.061,4.006l1.976,12.885.348,2.265a9.712,9.712,0,0,1,.1,1.011" transform="translate(-84.131 -46.571)" fill="#fff"/>
              <path id="Trazado_1055505" data-name="Trazado 1055505" d="M198.494,171.323a17.275,17.275,0,0,1,1.223,2.346c-2.089.844-3.839,1.471-5.2,1.926a.034.034,0,0,0-.018.009c-.492.136-.984.316-1.475.451a3.916,3.916,0,0,0-2.089,1.6,8.61,8.61,0,0,1-1-1.236v0c6.235-.956,8.193-4.494,8.473-5.076Z" transform="translate(-122.705 -110.68)" fill="#fff"/>
              <path id="Trazado_1055506" data-name="Trazado 1055506" d="M213.958,171.2l-.086.013.041-.081s.013.023.045.068" transform="translate(-138.168 -110.557)" fill="#fff"/>
              <path id="Trazado_1055507" data-name="Trazado 1055507" d="M192.355,158.238l2.224,4.561-10.633-3.271,6.983-1.074a10.1,10.1,0,0,0,1.051-.221Z" transform="translate(-118.835 -102.224)" fill="#29275f"/>
              <path id="Trazado_1055508" data-name="Trazado 1055508" d="M197.1,199.89c-.009,0-.023,0-.032,0h0a.041.041,0,0,0-.023,0h0l-.154.013,0,0c-.054,0-.113.013-.167.013l-.253.027s-.013,0-.018,0a0,0,0,0,0,0,0h-.009c-4,.266-5.468-4.444-6.1-7.656-.361-2.125-.541-4.985.686-6.839a3.917,3.917,0,0,1,2.089-1.6c.492-.135.983-.316,1.475-.451a1.3,1.3,0,0,0-.519.311,1.362,1.362,0,0,0-.113.118,1.327,1.327,0,0,0-.1.126,1.306,1.306,0,0,0-.09.131v0h0c-.009.018-.018.031-.027.05l-.013.027,0,0a.015.015,0,0,1,0,.009.042.042,0,0,1-.013.022l0,0s0,.009-.009.013v0s0,0,0,.009v0h0a.163.163,0,0,0-.018.041c-.013.023-.027.05-.041.077a.748.748,0,0,0-.054.126.293.293,0,0,0-.023.054.023.023,0,0,0-.009.018.023.023,0,0,0-.009.018v.009a.2.2,0,0,0-.018.045c-.018.04-.036.081-.05.122a6.21,6.21,0,0,0-.176.668c-.027.131-.05.262-.072.4,0,.04-.009.081-.013.122-.013.086-.023.171-.031.262-.013.117-.023.239-.032.356,0,.013,0,.023,0,.032,0,.036,0,.068,0,.1-.009.131-.013.266-.018.4q-.007.264,0,.541c0,.131,0,.262,0,.4.009.365.036.744.068,1.128a22.1,22.1,0,0,0,2.626,9.041l.1.158c.045.072.095.14.144.207a3.556,3.556,0,0,0,1.042,1.042,2.675,2.675,0,0,1,.018.271" transform="translate(-122.783 -118.495)" fill="#fff"/>
              <path id="Trazado_1055509" data-name="Trazado 1055509" d="M207.989,227.239a.138.138,0,0,1,0,.045,3.562,3.562,0,0,1-1.042-1.042,3.56,3.56,0,0,0,1.037,1" transform="translate(-133.698 -146.16)" fill="#fff"/>
              <path id="Trazado_1055510" data-name="Trazado 1055510" d="M198.833,199.669a23.231,23.231,0,0,0,2.626,9.041,22.1,22.1,0,0,1-2.626-9.041" transform="translate(-128.453 -128.993)" fill="#fff"/>
              <path id="Trazado_1055511" data-name="Trazado 1055511" d="M200.592,184.986a1.284,1.284,0,0,0-.086.131h0a1.382,1.382,0,0,1,.09-.131" transform="translate(-129.531 -119.507)" fill="#fff"/>
              <path id="Trazado_1055512" data-name="Trazado 1055512" d="M200.506,185.356l0,0v0Z" transform="translate(-129.531 -119.746)" fill="#fff"/>
              <path id="Trazado_1055513" data-name="Trazado 1055513" d="M200.445,185.368a.3.3,0,0,1-.032.05c.009-.018.018-.031.027-.05Z" transform="translate(-129.473 -119.754)" fill="#fff"/>
              <path id="Trazado_1055514" data-name="Trazado 1055514" d="M200.282,185.7a.016.016,0,0,1,0,.013h0s0-.009.009-.013" transform="translate(-129.383 -119.968)" fill="#fff"/>
              <path id="Trazado_1055515" data-name="Trazado 1055515" d="M200.277,185.738l0,0v0Z" transform="translate(-129.382 -119.993)" fill="#fff"/>
              <path id="Trazado_1055516" data-name="Trazado 1055516" d="M200.219,185.789a.189.189,0,0,1-.023.041.164.164,0,0,1,.018-.041Z" transform="translate(-129.333 -120.026)" fill="#fff"/>
              <path id="Trazado_1055517" data-name="Trazado 1055517" d="M199.183,185.9a.237.237,0,0,1-.023.05c-.045.1-.09.2-.131.316-.027.068-.05.14-.072.212-.018.054-.036.108-.05.167-.009.041-.023.081-.032.126a.088.088,0,0,0-.009.031c0,.023-.013.05-.018.072a.376.376,0,0,0-.018.077v.022h0v.014a.616.616,0,0,0-.027.126v.009q-.034.156-.054.311c-.009.059-.018.118-.023.176-.013.1-.027.207-.036.311s-.018.189-.023.284q-.02.244-.027.5a.007.007,0,0,1-.009,0c0-.136.009-.271.018-.4,0-.031,0-.063,0-.1,0-.009,0-.018,0-.032.009-.118.018-.239.031-.356.009-.09.018-.176.032-.262,0-.04.009-.081.013-.122.023-.135.045-.266.072-.4a6.3,6.3,0,0,1,.176-.668c.014-.041.032-.081.05-.122a.17.17,0,0,1,.018-.045v0s0,0,0,0,0-.013,0-.018a.022.022,0,0,1,.009-.018.271.271,0,0,1,.022-.055.8.8,0,0,1,.054-.126c.014-.027.027-.054.041-.077" transform="translate(-128.32 -120.1)" fill="#fff"/>
              <path id="Trazado_1055518" data-name="Trazado 1055518" d="M199.823,186.681s0,.009,0,.018h0a.023.023,0,0,1,.009-.018" transform="translate(-129.086 -120.602)" fill="#fff"/>
              <path id="Trazado_1055519" data-name="Trazado 1055519" d="M199.819,186.732s0,0,0,0v0Z" transform="translate(-129.086 -120.635)" fill="#fff"/>
              <path id="Trazado_1055520" data-name="Trazado 1055520" d="M199.22,188.657c0,.031-.013.059-.018.09v-.013a.4.4,0,0,1,.018-.077" transform="translate(-128.691 -121.879)" fill="#fff"/>
              <path id="Trazado_1055521" data-name="Trazado 1055521" d="M199.194,188.937s0,0,0,.009v-.009Z" transform="translate(-128.683 -122.059)" fill="#fff"/>
              <path id="Trazado_1055522" data-name="Trazado 1055522" d="M198.632,193.831c0,.176-.009.356-.009.541q-.007-.277,0-.541a.006.006,0,0,0,.009,0" transform="translate(-128.314 -125.221)" fill="#fff"/>
              <path id="Trazado_1055523" data-name="Trazado 1055523" d="M189.915,185.98c0,.023,0,.054,0,.09,0-.036,0-.063,0-.09" transform="translate(-122.688 -120.149)" fill="#fff"/>
              <path id="Trazado_1055524" data-name="Trazado 1055524" d="M189.3,189.466c.027-.117.05-.23.072-.338-.023.108-.045.221-.072.338" transform="translate(-122.293 -122.183)" fill="#fff"/>
              <path id="Trazado_1055525" data-name="Trazado 1055525" d="M189.07,190.382c.031-.1.054-.2.081-.3-.027.095-.05.194-.081.3" transform="translate(-122.145 -122.8)" fill="#fff"/>
              <path id="Trazado_1055526" data-name="Trazado 1055526" d="M187.706,193.983c.045-.09.09-.176.126-.266-.036.09-.081.176-.126.266" transform="translate(-121.264 -125.147)" fill="#fff"/>
              <path id="Trazado_1055527" data-name="Trazado 1055527" d="M187.349,194.707c.045-.077.086-.158.126-.239-.036.081-.081.158-.126.239" transform="translate(-121.034 -125.633)" fill="#fff"/>
              <path id="Trazado_1055528" data-name="Trazado 1055528" d="M186.775,195.515c.068-.1.131-.2.189-.307-.058.1-.122.208-.189.307" transform="translate(-120.663 -126.111)" fill="#fff"/>
              <path id="Trazado_1055529" data-name="Trazado 1055529" d="M186.227,196.605c.036-.045.068-.09.1-.135-.032.045-.063.09-.1.135" transform="translate(-120.309 -126.926)" fill="#fff"/>
              <path id="Trazado_1055530" data-name="Trazado 1055530" d="M185.96,196.982c.032-.036.063-.077.095-.117-.032.04-.059.076-.095.117" transform="translate(-120.136 -127.181)" fill="#fff"/>
              <path id="Trazado_1055531" data-name="Trazado 1055531" d="M183.882,198.844a2.858,2.858,0,0,0,.253-.207c-.081.072-.167.144-.253.207" transform="translate(-118.794 -128.326)" fill="#fff"/>
              <path id="Trazado_1055532" data-name="Trazado 1055532" d="M183.423,199.34a1.359,1.359,0,0,0,.162-.117,1.358,1.358,0,0,1-.162.117" transform="translate(-118.497 -128.705)" fill="#fff"/>
              <path id="Trazado_1055533" data-name="Trazado 1055533" d="M182.085,200.217a1.476,1.476,0,0,0,.144-.077,1.476,1.476,0,0,1-.144.077" transform="translate(-117.633 -129.297)" fill="#fff"/>
              <path id="Trazado_1055534" data-name="Trazado 1055534" d="M181.333,200.479a2.879,2.879,0,0,0,.266-.122,2.879,2.879,0,0,1-.266.122" transform="translate(-117.147 -129.437)" fill="#fff"/>
              <path id="Trazado_1055535" data-name="Trazado 1055535" d="M180.224,201.051a.891.891,0,0,0,.1-.031.891.891,0,0,1-.1.031" transform="translate(-116.431 -129.865)" fill="#fff"/>
              <path id="Trazado_1055536" data-name="Trazado 1055536" d="M179.281,201.307a1.183,1.183,0,0,0,.122-.032,1.183,1.183,0,0,1-.122.032" transform="translate(-115.821 -130.03)" fill="#fff"/>
              <path id="Trazado_1055537" data-name="Trazado 1055537" d="M178.861,201.4a1.147,1.147,0,0,0,.131-.027.68.68,0,0,1-.131.027" transform="translate(-115.55 -130.096)" fill="#fff"/>
              <path id="Trazado_1055538" data-name="Trazado 1055538" d="M177.943,201.51a2.03,2.03,0,0,0,.284-.045,2.03,2.03,0,0,1-.284.045" transform="translate(-114.957 -130.153)" fill="#fff"/>
              <path id="Trazado_1055539" data-name="Trazado 1055539" d="M175.9,201.708c.113,0,.225,0,.334-.013-.1.009-.217.013-.334.013" transform="translate(-113.64 -130.302)" fill="#fff"/>
              <path id="Trazado_1055540" data-name="Trazado 1055540" d="M150.875,136.745l.027.176c-.054-.045-.108-.086-.158-.126l.131-.05" transform="translate(-97.386 -88.342)" fill="#fff"/>
              <path id="Trazado_1055541" data-name="Trazado 1055541" d="M116.651,51.479a4.908,4.908,0,1,1-4.908,4.908,4.908,4.908,0,0,1,4.908-4.908" transform="translate(-72.19 -33.257)" fill="#29275f"/>
              <path id="Trazado_1055542" data-name="Trazado 1055542" d="M121.112,331.468c.072.027.059.054-.013.077Z" transform="translate(-78.234 -214.139)" fill="#fff"/>
              <path id="Trazado_1055543" data-name="Trazado 1055543" d="M133.995,224.427l-28.643,11.36a11.094,11.094,0,0,1-6.393.523,10.43,10.43,0,0,1-1.439-.411,11.032,11.032,0,0,1-6.938-13.4.071.071,0,0,0,0-.031s0,0,0-.009L94.3,196.411A13.57,13.57,0,0,1,94.79,193a10.994,10.994,0,0,1,2.531-5.549,11.149,11.149,0,0,1,4.818-3.3,10.934,10.934,0,0,1,5.2-.51,11.137,11.137,0,0,1,9.528,10.985,10.882,10.882,0,0,1-.113,1.57l-1.692,11.852,10.746-4.263,1.76,4.434,4.836,12.2.568,1.425Z" transform="translate(-58.25 -118.57)" fill="#7351fa"/>
              <path id="Trazado_1055544" data-name="Trazado 1055544" d="M172.353,209.335a.352.352,0,0,1-.13-.025.361.361,0,0,1-.206-.2l-1.626-4.1-10.411,4.13a.362.362,0,0,1-.491-.387l1.692-11.851a10.574,10.574,0,0,0,.109-1.519.361.361,0,1,1,.723,0A11.33,11.33,0,0,1,161.9,197l-1.6,11.234,10.168-4.033a.362.362,0,0,1,.469.2l1.6,4.039a2.114,2.114,0,0,0,.523-.559l3.381-5.164a3.388,3.388,0,0,0,.544-1.607h-.021l-.2.023a.365.365,0,0,1-.079.008c-3.2.219-5.385-2.46-6.463-7.948-.511-3.006-.312-5.31.588-6.865-.1-.115-.2-.225-.284-.328q-.025.156-.06.328l-.014.067c-.018.091-.038.184-.06.281l-.035.132c-.016.062-.033.125-.052.19a7.228,7.228,0,0,1-.374,1.033c-.027.068-.067.149-.108.231l-.023.046c-.027.061-.067.132-.108.206l-.026.046-.016.026h0c-.064.113-.133.225-.206.333a1.4,1.4,0,0,1-.11.161c-.022.031-.046.065-.072.1a.37.37,0,0,1-.025.036c-.045.058-.073.094-.109.135a4.544,4.544,0,0,1-.512.539c-.091.081-.185.16-.28.229a1.539,1.539,0,0,1-.187.135,2.825,2.825,0,0,1-.347.218,1.713,1.713,0,0,1-.166.087,3.082,3.082,0,0,1-.281.128,2.564,2.564,0,0,1-.317.121.954.954,0,0,1-.1.032,2.008,2.008,0,0,1-.231.064c-.039.012-.079.022-.118.031h0l-.018,0a1.021,1.021,0,0,1-.187.038l-.018,0a2.54,2.54,0,0,1-.311.048,2.974,2.974,0,0,1-.409.038,6.355,6.355,0,0,1-1.116-.029,5.8,5.8,0,0,1-4.17-2.357.361.361,0,0,1,.577-.435,5.1,5.1,0,0,0,3.67,2.074,5.429,5.429,0,0,0,1,.027,2.518,2.518,0,0,0,.355-.032,2.054,2.054,0,0,0,.264-.041.342.342,0,0,1,.068-.01l.019,0a.348.348,0,0,0,.064-.013l.031-.008.01,0c.038-.008.063-.014.089-.022a.342.342,0,0,1,.05-.013,1.153,1.153,0,0,0,.162-.046l.075-.022a2.4,2.4,0,0,0,.277-.106c.1-.041.178-.076.253-.115a1.34,1.34,0,0,0,.127-.067,2.444,2.444,0,0,0,.3-.188,1.254,1.254,0,0,0,.146-.1c.094-.07.171-.135.244-.2a3.91,3.91,0,0,0,.441-.466c.031-.036.05-.059.068-.082a.291.291,0,0,1,.027-.039c.029-.036.054-.072.079-.107a1.232,1.232,0,0,0,.087-.128c.074-.109.132-.2.185-.3l.014-.022.026-.047c.03-.055.061-.107.085-.162l.031-.062c.032-.064.064-.126.09-.191a6.562,6.562,0,0,0,.344-.953c.018-.061.033-.115.046-.167l.035-.13c.017-.073.035-.161.052-.247l.013-.066a8.741,8.741,0,0,0,.138-.982h0a.448.448,0,0,1,0-.051c.005-.073.005-.094.005-.1a.361.361,0,0,1,.668-.191,8.334,8.334,0,0,0,.952,1.178.362.362,0,0,1,.04.449c-.91,1.376-1.128,3.65-.631,6.58.991,5.041,2.9,7.514,5.682,7.359a.333.333,0,0,1,.073-.008l.232-.024.013.04a.356.356,0,0,1,.051-.028l0-.017c.025,0,.056-.008.091-.01l.028,0,.141-.012.032,0a.391.391,0,0,1,.074-.007.361.361,0,0,1,.361.347,4.1,4.1,0,0,1-.667,2.418l-3.38,5.162a2.845,2.845,0,0,1-1.15,1.02.361.361,0,0,1-.159.037m4.636-8.726.038.116h0l-.013-.089Z" transform="translate(-103.033 -119.318)" fill="#29275f"/>
              <path id="Trazado_1055545" data-name="Trazado 1055545" d="M163.494,187.25a7.368,7.368,0,0,1-.77-.043,5.8,5.8,0,0,1-4.17-2.357,10.976,10.976,0,0,1-1.86-5.729.362.362,0,0,1,.565-.305,16.734,16.734,0,0,0,11.146,2.039.362.362,0,0,1,.416.357c0,.023,0,.065-.006.132,0,.01,0,.079,0,.089a9.291,9.291,0,0,1-.15,1.064l-.014.067c-.019.091-.038.184-.06.281l-.035.132c-.016.062-.033.125-.052.19a7.231,7.231,0,0,1-.374,1.033c-.027.068-.067.149-.108.231l-.023.046c-.046.092-.09.179-.138.261l-.011.018h0c-.064.113-.132.225-.206.333a1.359,1.359,0,0,1-.11.161c-.022.031-.046.065-.072.1a.367.367,0,0,1-.025.036c-.036.047-.072.092-.107.132a4.535,4.535,0,0,1-.514.542,3.148,3.148,0,0,1-.287.235,1.015,1.015,0,0,1-.144.105,3.287,3.287,0,0,1-.383.241,1.706,1.706,0,0,1-.166.087,3.079,3.079,0,0,1-.281.129,2.548,2.548,0,0,1-.318.122,1,1,0,0,1-.1.032,2.065,2.065,0,0,1-.232.064c-.039.012-.079.022-.117.031h0l-.034.008a1.284,1.284,0,0,1-.171.034l-.018,0a2.539,2.539,0,0,1-.31.048,2.931,2.931,0,0,1-.41.038c-.1.008-.223.014-.346.014m-6.024-7.466a9.862,9.862,0,0,0,1.661,4.631,5.1,5.1,0,0,0,3.67,2.073,5.3,5.3,0,0,0,1,.026,2.473,2.473,0,0,0,.354-.032,2.058,2.058,0,0,0,.264-.041.342.342,0,0,1,.068-.01l.019,0,.09-.021h0l.01,0c.038-.008.063-.014.089-.022a.345.345,0,0,1,.05-.013,1.153,1.153,0,0,0,.162-.046l.075-.022a2.337,2.337,0,0,0,.277-.106c.1-.041.178-.076.253-.115a1.3,1.3,0,0,0,.127-.067,2.476,2.476,0,0,0,.3-.188l.044-.029a.767.767,0,0,0,.091-.065,3.147,3.147,0,0,0,.256-.21,3.911,3.911,0,0,0,.441-.466c.027-.031.048-.057.068-.083a.322.322,0,0,1,.027-.038c.028-.036.053-.072.079-.107a1.234,1.234,0,0,0,.087-.128c.074-.109.132-.2.185-.3a.278.278,0,0,1,.016-.025c.046-.081.08-.149.114-.216l.026-.052c.032-.064.064-.126.09-.191a6.563,6.563,0,0,0,.344-.953c.019-.061.033-.115.046-.167l.035-.13c.017-.073.035-.161.052-.247l.013-.066c.055-.273.09-.519.112-.719a17.573,17.573,0,0,1-10.6-1.85" transform="translate(-101.23 -115.481)" fill="#29275f"/>
              <path id="Trazado_1055546" data-name="Trazado 1055546" d="M238.049,230.794a.361.361,0,0,1-.347-.262,4.9,4.9,0,0,1-.057-2.395.361.361,0,0,1,.354-.29H238c1.308.019,2.684.062,4.09.127.646.063,1.318.145,2.077.251a.361.361,0,0,1,.307.411l-.068.456a.361.361,0,0,1-.144.239.356.356,0,0,1-.271.065,1.681,1.681,0,0,0-.706.033h0l-5.148,1.354a.375.375,0,0,1-.092.012m.253-2.219a4.194,4.194,0,0,0,.012,1.415l4.574-1.2c-.292-.035-.571-.065-.841-.092-1.275-.058-2.537-.1-3.745-.12m4.895.5h0Z" transform="translate(-153.449 -147.197)" fill="#29275f"/>
              <path id="Trazado_1055547" data-name="Trazado 1055547" d="M351.7,213.1a.361.361,0,0,1-.273-.124l-7.046-8.1a.361.361,0,0,1-.068-.36l.974-2.7a6.047,6.047,0,0,1,5.668-3.979h13.625a.361.361,0,0,1,.361.355,4.229,4.229,0,0,1-.414,1.725H376.6a.355.355,0,0,1,.07.007,3.374,3.374,0,0,1,2.925,3.447.362.362,0,0,1-.307.332l-17.051,2.546-10.337,6.8a.361.361,0,0,1-.2.059m-6.635-8.541,6.7,7.7,10.139-6.666a.365.365,0,0,1,.145-.056l16.815-2.511a2.624,2.624,0,0,0-2.3-2.4H363.906a.362.362,0,0,1-.3-.566,3.609,3.609,0,0,0,.582-1.514H350.958a5.323,5.323,0,0,0-4.988,3.5Zm34.168-1.217h0Zm0,0h0Z" transform="translate(-222.425 -127.806)" fill="#29275f"/>
              <path id="Trazado_1055548" data-name="Trazado 1055548" d="M143.187,278.746c-17.667,0-22.382-3.16-25.2-5.048l-.435-.29a.323.323,0,0,1-.042-.033,6.658,6.658,0,0,1-1.492-1.233.359.359,0,0,1-.068-.3l1.356-6.059a.377.377,0,0,1,.364-.282,10.412,10.412,0,0,0,4.2-.741l28.307-11.227-1.455-3.665a.36.36,0,0,1,.066-.373.364.364,0,0,1,.364-.109c.621.166,5.958-.442,9.175-.866l.825-.222,6.876-1.809a1.691,1.691,0,0,0,1.2-2.062l-.031-.116a1.692,1.692,0,0,0-2.063-1.207h0a.361.361,0,0,1-.184-.7h0l1.042-.275a1.7,1.7,0,0,0,1.2-2.063l-.031-.114a1.7,1.7,0,0,0-2.062-1.207.361.361,0,0,1-.186-.7h0l.812-.216a1.691,1.691,0,0,0,1.205-2.063l-.031-.115a1.691,1.691,0,0,0-2.054-1.208l-.008,0h0a.361.361,0,0,1-.184-.7l.012,0,.954-.25a1.693,1.693,0,0,0,1.2-2.067l-.03-.107a1.693,1.693,0,0,0-1.359-1.244.361.361,0,0,1-.3-.409l.068-.456a.356.356,0,0,1,.408-.3c1.784.254,3.681.616,5.8,1.106a.361.361,0,0,1,.277.306l.266,2.08a22.638,22.638,0,0,1-2.764,14.056l-1.789,3.15,1.553,10.71,3.522,11.5a.36.36,0,0,1-.029.28,4.684,4.684,0,0,1-1.12,1.188.3.3,0,0,1-.039.028c-2.548,2.043-9.576,5.437-28.111,5.437m-25.193-5.913.4.264c2.749,1.842,7.349,4.925,24.8,4.925,19.08,0,25.72-3.708,27.69-5.3l.034-.025a5.137,5.137,0,0,0,.834-.836l-3.48-11.361a.393.393,0,0,1-.012-.056l-.013-.1-1.56-10.757a.359.359,0,0,1,.043-.23l1.849-3.258a21.91,21.91,0,0,0,2.676-13.607l-.234-1.831c-1.59-.364-3.054-.653-4.441-.878a2.394,2.394,0,0,1,.93,1.349l.03.105a2.421,2.421,0,0,1-1.125,2.712c.029.016.059.032.087.049a2.389,2.389,0,0,1,1.116,1.469l.031.114a2.419,2.419,0,0,1-1.025,2.644q.115.059.224.13a2.385,2.385,0,0,1,1.028,1.411l.031.115a2.424,2.424,0,0,1-1.185,2.736l.069.039a2.386,2.386,0,0,1,1.116,1.469l.031.114a2.413,2.413,0,0,1-1.72,2.947l-7.744,2.038c-1.272.17-6.834.889-8.863.9l1.378,3.476a.361.361,0,0,1-.2.469l-28.643,11.36a11.2,11.2,0,0,1-4.14.8h-.05l-1.25,5.588a7.6,7.6,0,0,0,1.253.984.387.387,0,0,1,.044.034" transform="translate(-74.902 -147.878)" fill="#29275f"/>
              <path id="Trazado_1055549" data-name="Trazado 1055549" d="M200.507,238.164a2.643,2.643,0,0,1-.587-.044.361.361,0,0,1-.242-.216l-4.837-12.2a.361.361,0,0,1,.177-.458,2.126,2.126,0,0,0,.861-.764l3.381-5.164a3.385,3.385,0,0,0,.55-1.994,2.376,2.376,0,0,0-.016-.248,3.216,3.216,0,0,0-.089-.5l-1.295-4.923a.931.931,0,0,1,.673-1.141,1.666,1.666,0,0,1,.223-.048,3.553,3.553,0,0,1,.739-.076,3.8,3.8,0,0,1,3.551,2.483l1.529,4.187a4.205,4.205,0,0,1,.212.84l.3,2.147,9.875-2.595a2.409,2.409,0,0,1,2.945,1.721l.03.105a2.421,2.421,0,0,1-1.125,2.712c.029.016.059.031.087.048a2.389,2.389,0,0,1,1.116,1.469l.031.114a2.419,2.419,0,0,1-1.026,2.644,2.569,2.569,0,0,1,.224.13,2.385,2.385,0,0,1,1.028,1.411l.031.115a2.424,2.424,0,0,1-1.184,2.736l.069.039a2.386,2.386,0,0,1,1.116,1.469l.031.114a2.413,2.413,0,0,1-1.72,2.947l-7.744,2.039c-1.283.172-6.931.9-8.915.9m-.234-.72c1.1.074,5.99-.491,9.01-.888l.825-.222,6.876-1.809a1.691,1.691,0,0,0,1.2-2.062l-.031-.116a1.692,1.692,0,0,0-2.061-1.207h0a.361.361,0,0,1-.184-.7h0l1.042-.275a1.7,1.7,0,0,0,1.2-2.063l-.031-.114a1.7,1.7,0,0,0-2.059-1.208h0a.361.361,0,0,1-.186-.7h0l.816-.217a1.691,1.691,0,0,0,1.205-2.063l-.031-.115a1.691,1.691,0,0,0-2.053-1.209l-.01,0a.361.361,0,0,1-.184-.7l.012,0,.954-.25a1.693,1.693,0,0,0,1.2-2.067l-.03-.107a1.693,1.693,0,0,0-1.359-1.244,1.717,1.717,0,0,0-.7.034l-10.269,2.7a.356.356,0,0,1-.292-.049.36.36,0,0,1-.158-.25L204.623,218a3.444,3.444,0,0,0-.175-.695l-1.531-4.189a3.073,3.073,0,0,0-2.873-2.01,2.935,2.935,0,0,0-.61.064,1.33,1.33,0,0,0-.164.034.216.216,0,0,0-.14.1.208.208,0,0,0-.022.161l1.294,4.923a3.754,3.754,0,0,1,.1.568h0a.653.653,0,0,1,.007.084,2.228,2.228,0,0,1,.018.27,4.086,4.086,0,0,1-.668,2.4l-3.379,5.162a2.827,2.827,0,0,1-.857.855Z" transform="translate(-125.857 -135.916)" fill="#29275f"/>
              <path id="Trazado_1055550" data-name="Trazado 1055550" d="M262.9,246.864a11.491,11.491,0,0,1-1.751-.134.362.362,0,0,1-.3-.308l-.013-.1-1.56-10.757a.359.359,0,0,1,.043-.23l1.849-3.258a21.91,21.91,0,0,0,2.676-13.607l-.266-2.081a.36.36,0,0,1,.116-.313.354.354,0,0,1,.323-.084c1.25.287,2.58.624,4.065,1.027a.362.362,0,0,1,.242.218l.435,1.122,1.16-.712a.358.358,0,0,1,.287-.04q1.228.345,2.453.7,1.367.39,2.73.775a.358.358,0,0,1,.205.151c2.087,3.211,4.215,4.523,6.326,3.906,4.96-1.453,4.961-11.362,4.731-15.555a.361.361,0,0,1,.634-.257l13.408,15.425a.361.361,0,0,1-.067.534l-30.81,21.324-.028.023a11.377,11.377,0,0,1-2.563,1.4l-.066.024a.566.566,0,0,1-.114.04c-.095.038-.19.072-.285.106a11.528,11.528,0,0,1-3.858.665m-1.377-.811a10.744,10.744,0,0,0,4.956-.521c.13-.047.227-.082.325-.121a.354.354,0,0,1,.054-.017.38.38,0,0,1,.045-.018l.056-.02a10.631,10.631,0,0,0,2.384-1.3.452.452,0,0,1,.038-.032l30.5-21.109-12.463-14.337c.2,5.5-.359,13.8-5.3,15.248-2.427.711-4.8-.665-7.061-4.091q-1.3-.366-2.6-.739-1.148-.328-2.3-.653l-1.395.856a.361.361,0,0,1-.526-.177l-.525-1.355c-1.208-.327-2.313-.608-3.356-.855l.2,1.565a22.638,22.638,0,0,1-2.764,14.055l-1.789,3.15Zm5.3-.644h0" transform="translate(-167.497 -133.858)" fill="#29275f"/>
              <path id="Trazado_1055551" data-name="Trazado 1055551" d="M294.65,165.611c-2.023,0-4-1.47-5.9-4.388a.361.361,0,0,1-.031-.335,36.055,36.055,0,0,1-1.843-3.217,50.276,50.276,0,0,1-2.735-6.478c-.069-.194-.134-.392-.2-.591l-.086-.261a71.61,71.61,0,0,1-3.194-16.667c0-.045-.005-.1-.005-.154-.016-.247-.029-.517-.041-.783l0-.075a42.122,42.122,0,0,1,.569-9.188.343.343,0,0,1,.006-.093c1.238-5.92,4.177-6.819,6.427-6.533a.425.425,0,0,1,.055.011c9.015,2.628,12.739,24.018,13.243,29.6,0,0,.132,1.075.222,2.678h0c.3,5.422.011,14.747-5.249,16.287a4.388,4.388,0,0,1-1.238.182m-5.025-4.382c2,2.92,4.037,4.1,6.06,3.506,4.96-1.453,4.961-11.362,4.731-15.555-.089-1.578-.218-2.631-.219-2.641-.734-8.131-4.947-26.678-12.7-28.978-2.795-.343-4.671,1.632-5.579,5.87a.338.338,0,0,1-.006.077,41.215,41.215,0,0,0-.576,9.123l0,.071c.012.263.025.529.041.8,0,.056,0,.085,0,.118a70.876,70.876,0,0,0,3.16,16.5l.086.26c.064.194.127.387.195.578a49.451,49.451,0,0,0,2.7,6.388,34.474,34.474,0,0,0,2.068,3.551.362.362,0,0,1,.035.336m5.385,1.178a.368.368,0,0,1-.105-.016c-1.811-.553-3.632-2.683-5.412-6.332a59.333,59.333,0,0,1-2.347-5.673c-2.72-8.072-3.956-16.941-3.309-23.735.266-2.565,1.024-6.856,3.131-6.76a.373.373,0,0,1,.113.023c2.9,1.1,4.938,5.578,6.284,8.539l.039.086a66.345,66.345,0,0,1,3.775,13.487,71.176,71.176,0,0,1,.994,8.95q.013.487,0,.894c-.006,2.956-.319,9.884-3.081,10.528a.357.357,0,0,1-.082.01m-8.127-41.795c-1.253.04-2.036,3.3-2.328,6.11-.638,6.695.585,15.453,3.272,23.424a58.49,58.49,0,0,0,2.314,5.6c1.655,3.393,3.3,5.385,4.877,5.927,1.78-.575,2.424-5.611,2.432-9.807,0,0,0-.007,0-.011q.013-.389,0-.858a70.376,70.376,0,0,0-.983-8.839,65.662,65.662,0,0,0-3.727-13.329l-.034-.074c-1.287-2.832-3.227-7.1-5.823-8.14" transform="translate(-181.262 -75.458)" fill="#29275f"/>
              <path id="Trazado_1055552" data-name="Trazado 1055552" d="M216.29,189.915h-.017c-1.4-.065-2.766-.107-4.067-.126-1.835-.025-3.546-.011-5.089.045l-.578.022a.357.357,0,0,1-.356-.237l-1.462-4a3.073,3.073,0,0,0-2.873-2.009,2.912,2.912,0,0,0-.61.064,1.256,1.256,0,0,0-.164.034.215.215,0,0,0-.14.1.209.209,0,0,0-.023.161l1.295,4.923a3.748,3.748,0,0,1,.1.568.361.361,0,0,1-.538.352,3.917,3.917,0,0,1-1.149-1.1c-.056-.076-.11-.152-.161-.232l-.1-.147a23.627,23.627,0,0,1-2.685-9.21c-.029-.349-.059-.756-.069-1.151,0-.137,0-.271,0-.406,0-.188,0-.372.009-.551s.014-.353.028-.521c0-.088.013-.189.023-.288s.023-.216.038-.325c0-.048.013-.117.024-.185.012-.1.03-.2.052-.3a.973.973,0,0,1,.035-.176c0-.021.008-.041.012-.061l.022-.1h0a.439.439,0,0,1,.019-.076q.007-.031.016-.062c.027-.112.048-.177.069-.242s.049-.155.08-.232c.04-.111.089-.223.137-.331.01-.02.01-.021.01-.017a.341.341,0,0,1,.034-.072.375.375,0,0,1,.018-.038.359.359,0,0,1,.033-.055.284.284,0,0,1,.017-.028.49.49,0,0,1,.029-.047.318.318,0,0,1,.031-.05,1.437,1.437,0,0,1,.094-.139,1.583,1.583,0,0,1,.114-.144,1.939,1.939,0,0,1,.144-.149,1.672,1.672,0,0,1,.628-.378l.034-.013h0c1.662-.556,3.4-1.2,5.181-1.919,2.067-.838,4.2-1.779,6.332-2.8.217-.107.446-.215.674-.324l.2-.1a.361.361,0,0,1,.34.637c-.013.01-.05.037-.065.046a.605.605,0,0,0-.087.067l-.044.04a.686.686,0,0,0-.087.085c-.021.029-.045.072-.07.115a.414.414,0,0,1-.026.05c-.045.07-.086.14-.126.214q-.007.016-.015.031c-.054.1-.1.2-.149.3a6.043,6.043,0,0,0-.291.778,12.722,12.722,0,0,0-.436,4.134l.023.569a30.678,30.678,0,0,0,1.859,8.845c.038.112.076.211.113.308l.035.092c.187.5.37.94.545,1.321.1.225.217.451.33.676.065.13.121.238.181.346.071.127.128.23.186.327l.165.272a.669.669,0,0,1,.044.07,6.745,6.745,0,0,0,.751,1.025l.042.051a.3.3,0,0,1,.031.038c.056.063.111.126.17.186l.008.008c.009.009.017.018.024.028l.088.081a2.71,2.71,0,0,0,.233.2,2.017,2.017,0,0,0,.249.176l.005,0,.025.014c.038.023.073.044.11.063l.038.016c.03.015.053.027.078.038a.357.357,0,0,1,.052.021.613.613,0,0,0,.07.026.162.162,0,0,1,.071.016.72.72,0,0,0,.113.024l.044.009a.361.361,0,0,1-.081.714m-5.78-.861q.834,0,1.707.012c.836.012,1.7.034,2.581.065l-.006-.006c-.044-.039-.094-.084-.139-.13a.325.325,0,0,1-.033-.037c-.063-.065-.123-.132-.182-.2l-.019-.024c-.018-.02-.034-.04-.05-.06a7.471,7.471,0,0,1-.834-1.145.612.612,0,0,1-.043-.07l-.155-.254c-.062-.105-.121-.211-.181-.318-.08-.144-.142-.261-.2-.384-.125-.249-.241-.481-.348-.714-.182-.4-.372-.857-.565-1.368l-.034-.088c-.041-.107-.083-.217-.12-.326a31.409,31.409,0,0,1-1.9-9.052l-.023-.573a13.434,13.434,0,0,1,.467-4.374,6.66,6.66,0,0,1,.324-.864l.009-.021c-2.01.95-4.01,1.829-5.956,2.618-1.782.719-3.53,1.367-5.2,1.926a.358.358,0,0,1-.052.02.944.944,0,0,0-.376.229.99.99,0,0,0-.086.09,1.419,1.419,0,0,0-.149.207l-.013.02c-.008.014-.017.028-.027.042a.431.431,0,0,1-.033.059.447.447,0,0,1-.03.058c-.007.016-.013.029-.018.039-.036.08-.078.175-.115.279-.028.071-.048.134-.067.2s-.032.094-.043.141l-.029.115a.335.335,0,0,1-.012.046l-.011.046c0,.019-.009.044-.015.069a.269.269,0,0,1-.03.128c0,.007,0,.016,0,.023-.027.14-.043.234-.055.327-.009.059-.017.108-.021.157-.015.118-.028.217-.037.316s-.017.181-.022.27c-.013.168-.022.328-.027.493s-.008.35-.008.532c0,.127,0,.254,0,.385.01.379.039.774.067,1.11a22.856,22.856,0,0,0,2.572,8.88l.1.147c.047.075.091.134.135.194s.1.127.144.187l-1.136-4.32a.931.931,0,0,1,.673-1.141,1.769,1.769,0,0,1,.223-.048,3.552,3.552,0,0,1,.739-.075,3.8,3.8,0,0,1,3.551,2.483l1.372,3.755.317-.012c1.067-.039,2.212-.058,3.421-.058m4.4-.313h0Zm-16.736-14.609h0Z" transform="translate(-127.661 -108.415)" fill="#29275f"/>
              <path id="Trazado_1055553" data-name="Trazado 1055553" d="M248.843,228.7a.36.36,0,0,1-.067-.006l-.032-.008h0l-.04-.011a1.376,1.376,0,0,1-.207-.076.362.362,0,0,1,.291-.661,1.565,1.565,0,0,0,.154.053.361.361,0,0,1-.1.709" transform="translate(-160.408 -147.238)" fill="#29275f"/>
              <path id="Trazado_1055554" data-name="Trazado 1055554" d="M208.63,143.729a.362.362,0,0,1-.3-.154c-.041-.058-.058-.088-.058-.088l-2.142-4.389-.152,0a.361.361,0,0,1-.077-.713c.074-.017.146-.038.217-.059l.11-.032a9.87,9.87,0,0,0,6.927-9.861.361.361,0,0,1,.528-.339,11.151,11.151,0,0,1,4.211,4.373,20.922,20.922,0,0,1,2.945,7.921.361.361,0,0,1-.158.35c-.838.557-1.7,1.1-2.555,1.611a.348.348,0,0,1-.053.026l-.216.113c-.147.075-.318.164-.512.27l-.036.021h0c-.031.018-.064.035-.1.056a.359.359,0,0,1-.139.056l-.044.021c-.225.107-.451.215-.669.322a.377.377,0,0,1-.213.033,13.193,13.193,0,0,0-3.75-.031l-3.723.492a.356.356,0,0,1-.047,0m-1.808-4.868,2.007,4.117,3.476-.459a13.939,13.939,0,0,1,3.842.016c.189-.092.383-.184.577-.276l.2-.1.018-.008a.38.38,0,0,1,.062-.033h0c.2-.109.375-.2.526-.277l.24-.125.021-.01c.772-.462,1.546-.948,2.3-1.447a20.339,20.339,0,0,0-2.815-7.419,11.333,11.333,0,0,0-3.386-3.793,10.466,10.466,0,0,1-7.074,9.813" transform="translate(-132.84 -82.725)" fill="#29275f"/>
              <path id="Trazado_1055555" data-name="Trazado 1055555" d="M222.752,232.117a.361.361,0,0,1-.357-.311l-.356-2.544a3.444,3.444,0,0,0-.175-.695l-.069-.188a.361.361,0,0,1,.322-.484l.583-.023c1.558-.056,3.282-.071,5.128-.046a.361.361,0,0,1,.349.432,4.141,4.141,0,0,0,.042,2.053.361.361,0,0,1-.255.449l-5.121,1.344a.35.35,0,0,1-.092.012m-.119-3.52a4.681,4.681,0,0,1,.12.559l.3,2.147,4.384-1.151a4.79,4.79,0,0,1-.04-1.608c-1.676-.018-3.244,0-4.668.05Z" transform="translate(-143.273 -147.175)" fill="#29275f"/>
              <path id="Trazado_1055556" data-name="Trazado 1055556" d="M234.162,172.508h-.009a.356.356,0,0,1-.189-.053.361.361,0,0,1-.158-.411,6.679,6.679,0,0,1,.325-.868.361.361,0,0,1,.661.29,7.617,7.617,0,0,0-.284.784.361.361,0,0,1-.347.258" transform="translate(-151.037 -110.448)" fill="#29275f"/>
              <path id="Trazado_1055557" data-name="Trazado 1055557" d="M300.652,168.042a.367.367,0,0,1-.105-.016c-1.811-.553-3.632-2.683-5.412-6.332a59.119,59.119,0,0,1-2.347-5.674c-2.72-8.072-3.956-16.941-3.309-23.735.266-2.565,1.024-6.856,3.131-6.76a.374.374,0,0,1,.113.023c2.9,1.1,4.938,5.578,6.284,8.539l.039.086a66.347,66.347,0,0,1,3.775,13.487,71.177,71.177,0,0,1,.994,8.95q.013.487,0,.894c-.006,2.956-.319,9.884-3.081,10.528a.358.358,0,0,1-.082.01m-8.127-41.795c-1.253.04-2.036,3.3-2.328,6.11-.637,6.695.585,15.453,3.272,23.424a58.432,58.432,0,0,0,2.314,5.6c1.655,3.393,3.3,5.385,4.877,5.927,1.78-.575,2.424-5.611,2.432-9.807,0,0,0-.007,0-.011q.013-.389,0-.858a70.37,70.37,0,0,0-.983-8.839,65.66,65.66,0,0,0-3.727-13.329l-.034-.074c-1.287-2.832-3.227-7.1-5.823-8.14" transform="translate(-186.904 -81.092)" fill="#29275f"/>
              <path id="Trazado_1055558" data-name="Trazado 1055558" d="M258.232,172.9a.376.376,0,0,1-.1-.015l-.234-.068q-1.358-.381-2.729-.774-1.224-.349-2.451-.7c-.7-.2-1.41-.4-2.116-.585-1.477-.4-2.8-.736-4.038-1.021-2.1-.486-3.972-.844-5.736-1.1-.748-.1-1.41-.185-2.024-.246a.367.367,0,0,1-.049-.008,1.525,1.525,0,0,1-.178-.037l-.034-.007c-.064-.018-.128-.04-.189-.063l-.036-.012c-.045-.018-.082-.036-.125-.057l-.023-.01a1.972,1.972,0,0,1-.211-.115.275.275,0,0,1-.057-.034,2.661,2.661,0,0,1-.293-.21,3.18,3.18,0,0,1-.272-.235c-.044-.039-.094-.084-.139-.13a.333.333,0,0,1-.031-.036c-.063-.065-.123-.133-.183-.2-.007-.007-.013-.016-.019-.024s-.034-.04-.05-.06c-.047-.062-.088-.112-.129-.161a7.312,7.312,0,0,1-.705-.985.613.613,0,0,1-.043-.069l-.155-.255c-.062-.105-.121-.211-.181-.318-.08-.144-.142-.262-.2-.384-.125-.249-.241-.481-.348-.714-.182-.4-.372-.857-.565-1.368l-.034-.088c-.041-.107-.083-.217-.12-.326a31.409,31.409,0,0,1-1.9-9.052l-.023-.573a14.412,14.412,0,0,1,.475-4.37,8.093,8.093,0,0,1,.311-.858c.051-.116.1-.224.161-.331a.32.32,0,0,1,.017-.037c.048-.088.1-.171.148-.255l0-.007h0c.006-.012.02-.036.028-.048.037-.064.074-.126.116-.183a1.445,1.445,0,0,1,.184-.189l.039-.035a1.3,1.3,0,0,1,.208-.155c.022-.016.055-.035.09-.055a.368.368,0,0,1,.079-.045h0c.2-.109.375-.2.526-.277l.24-.125.021-.01c.834-.5,1.672-1.028,2.493-1.573,3.756-2.494,7.333-5.4,10.793-8.216l1.431-1.162.008-.007h0c.087-.074.176-.145.264-.216l.112-.091a.349.349,0,0,1,.417-.058.364.364,0,0,1,.179.392,41.218,41.218,0,0,0-.576,9.123c.009.285.022.573.044.861,0,.061,0,.09,0,.123a70.893,70.893,0,0,0,3.161,16.5l.086.26c.063.194.127.387.195.578a49.548,49.548,0,0,0,2.7,6.388v0a34.464,34.464,0,0,0,2.067,3.549.362.362,0,0,1-.3.563m-19.326-5.214c.64.063,1.29.142,2.02.244,1.785.255,3.681.617,5.8,1.107,1.25.287,2.579.624,4.064,1.027.709.19,1.418.389,2.124.588q1.228.345,2.453.7l2.043.581c-.548-.874-1.079-1.817-1.586-2.813a50.251,50.251,0,0,1-2.735-6.479c-.069-.194-.134-.392-.2-.591l-.086-.261a71.61,71.61,0,0,1-3.194-16.667,1.45,1.45,0,0,1-.005-.154c-.022-.271-.035-.57-.045-.864a43.517,43.517,0,0,1,.422-8.321l-1.08.877c-3.473,2.824-7.065,5.743-10.849,8.257-.841.559-1.7,1.1-2.555,1.611a.354.354,0,0,1-.053.026l-.216.113c-.147.075-.318.164-.512.27a.358.358,0,0,1-.035.021h0c-.032.017-.063.035-.095.056a.613.613,0,0,0-.105.078l-.044.04a.661.661,0,0,0-.087.085c-.02.028-.044.07-.069.112v0a.415.415,0,0,1-.026.05c-.045.07-.086.14-.126.214,0,.011-.01.021-.015.031-.054.1-.1.2-.149.3a7.531,7.531,0,0,0-.282.778,13.684,13.684,0,0,0-.445,4.139l.022.565a30.691,30.691,0,0,0,1.859,8.845c.038.111.076.211.113.308l.035.092c.187.5.37.941.545,1.321.1.225.217.451.33.676.065.13.121.238.181.346.072.127.128.23.186.327l.165.272a.611.611,0,0,1,.043.07,6.635,6.635,0,0,0,.627.87c.051.061.1.119.144.178a.442.442,0,0,1,.055.067c.055.063.11.126.169.185l0,0a.372.372,0,0,1,.032.035l.087.08a2.713,2.713,0,0,0,.233.2,2.017,2.017,0,0,0,.249.176l.005,0,.025.014c.038.023.073.044.11.063l.038.016.076.037.024.008c.041.016.085.032.128.046a.3.3,0,0,1,.043.01.817.817,0,0,0,.114.024l.037.007" transform="translate(-150.204 -86.903)" fill="#29275f"/>
              <path id="Trazado_1055559" data-name="Trazado 1055559" d="M232.856,178.257a.361.361,0,0,1-.361-.349,13.408,13.408,0,0,1,.467-4.369.363.363,0,0,1,.1-.155.373.373,0,0,1,.514.006.361.361,0,0,1,.091.358,13.688,13.688,0,0,0-.445,4.139.361.361,0,0,1-.351.369h-.011" transform="translate(-150.192 -111.947)" fill="#29275f"/>
              <path id="Trazado_1055560" data-name="Trazado 1055560" d="M214.677,172.251a.361.361,0,0,1-.333-.221,16.793,16.793,0,0,0-1.2-2.295.361.361,0,0,1,.259-.55l3.722-.492a13.973,13.973,0,0,1,3.954.033.361.361,0,0,1,.1.684c-2.146,1.024-4.29,1.971-6.372,2.815a.365.365,0,0,1-.136.026m-.629-2.421a17.753,17.753,0,0,1,.819,1.593c1.585-.648,3.2-1.356,4.832-2.112a13.247,13.247,0,0,0-2.474.1h0Zm3.128-.778h0Z" transform="translate(-137.665 -108.901)" fill="#29275f"/>
              <path id="Trazado_1055561" data-name="Trazado 1055561" d="M101.66,100.84a.359.359,0,0,1-.238-.09c-3.353-1.984-4.544-6.987-4.54-10.666.332-5.073,3.408-9.275,6.383-13.339,2.676-3.655,5.443-7.434,6.113-11.759l0-.027c.027-.339.065-.658.117-1a17.825,17.825,0,0,1,3.325-7.926,17.756,17.756,0,0,1,30.32,18.121.361.361,0,0,1-.684-.1L140.536,61.5c-8.182.618-15.907-2.642-18.224-3.732,2.2,9.9-4.366,13.437-4.434,13.472a.363.363,0,0,1-.408-.052,5.045,5.045,0,0,0-3.022-1.275,4.923,4.923,0,0,0-1.116.046,5,5,0,0,0-2.83,1.443,5.052,5.052,0,0,0,4.362,8.543,5.2,5.2,0,0,0,.962-.245.363.363,0,0,1,.35.061l.159.128a.363.363,0,0,1,.126.221l.059.366,2.2,14.358a.362.362,0,0,1-.309.413l-7.678,1.019a13.3,13.3,0,0,0-4.1,1.234,10.848,10.848,0,0,0-4.7,3.208.364.364,0,0,1-.249.126h-.026m8.433-35.749V65.1c-.7,4.5-3.517,8.351-6.244,12.075-2.914,3.98-5.926,8.1-6.244,12.936,0,3.386,1.044,7.974,3.992,9.9a11.5,11.5,0,0,1,4.764-3.165,13.879,13.879,0,0,1,4.28-1.285l7.313-.971-2.164-14.1a5.775,5.775,0,0,1-5.8-9.578,5.781,5.781,0,0,1,7.765-.417c1.109-.684,6.012-4.284,3.678-13.283a.361.361,0,0,1,.519-.41c.091.048,9.216,4.824,18.859,3.965a.363.363,0,0,1,.389.305l1.783,11.626A17.034,17.034,0,0,0,113.4,56.464a17.1,17.1,0,0,0-3.189,7.6c-.052.343-.089.662-.114.976a.408.408,0,0,1-.007.048" transform="translate(-62.589 -31.593)" fill="#29275f"/>
              <path id="Trazado_1055562" data-name="Trazado 1055562" d="M147.909,112.22a16.584,16.584,0,0,1-8.811-2.377.362.362,0,0,1-.154-.245l-.05-.334L136.675,94.8a5.852,5.852,0,0,1-.816.187,5.775,5.775,0,0,1-4.985-9.765,5.78,5.78,0,0,1,7.765-.417c1.109-.684,6.012-4.284,3.678-13.283a.361.361,0,0,1,.519-.41c.091.048,9.216,4.824,18.859,3.965a.362.362,0,0,1,.389.305l2.323,15.149a9.994,9.994,0,0,1,.108,1.046c0,.006,0,.013,0,.019v0a10.463,10.463,0,0,1-7.448,10.573l-.109.031c-.085.024-.17.049-.258.069a10.245,10.245,0,0,1-1.078.226l-5.427.834,9.128,2.808a.361.361,0,0,1,.217.506l-.041.082c-.339.7-2.364,4.293-8.741,5.271a18.734,18.734,0,0,1-2.852.22m-8.275-2.892a16.915,16.915,0,0,0,11.017,1.957c5.367-.823,7.468-3.621,8.043-4.583l-10.214-3.142a.361.361,0,0,1,.051-.7l6.984-1.074a9.621,9.621,0,0,0,1.014-.213c.085-.02.156-.041.228-.062l.11-.032a9.87,9.87,0,0,0,6.928-9.861l.361-.023-.361.02a9.177,9.177,0,0,0-.1-.973l-2.272-14.819c-8.182.618-15.907-2.642-18.224-3.731,2.2,9.9-4.366,13.437-4.434,13.472a.362.362,0,0,1-.408-.052,5.041,5.041,0,0,0-3.022-1.275,4.944,4.944,0,0,0-1.116.046,5,5,0,0,0-2.83,1.444,5.053,5.053,0,0,0,4.362,8.543,5.229,5.229,0,0,0,.962-.245l.117-.044a.361.361,0,0,1,.492.28Z" transform="translate(-83.475 -45.911)" fill="#29275f"/>
              <path id="Trazado_1055563" data-name="Trazado 1055563" d="M190.274,177.354a.361.361,0,0,1-.262-.112,8.875,8.875,0,0,1-1.042-1.294.36.36,0,0,1-.055-.191.366.366,0,0,1,.307-.361c6.146-.943,8.01-4.475,8.2-4.875a.36.36,0,0,1,.268-.2l.086-.013a.36.36,0,0,1,.363.165,17.563,17.563,0,0,1,1.249,2.4.36.36,0,0,1-.2.475c-1.781.72-3.53,1.368-5.2,1.926a.365.365,0,0,1-.061.023c-.241.067-.482.144-.723.221s-.5.161-.753.23a3.56,3.56,0,0,0-1.882,1.446.363.363,0,0,1-.27.162h-.033m-.37-1.342c.093.12.206.259.338.411a4.18,4.18,0,0,1,.614-.614q-.458.112-.953.2m7.9-4.7a9.236,9.236,0,0,1-3.109,2.95c1.26-.439,2.56-.926,3.88-1.454-.267-.591-.547-1.109-.771-1.5" transform="translate(-122.045 -110.02)" fill="#29275f"/>
              <path id="Trazado_1055564" data-name="Trazado 1055564" d="M213.213,170.915a.361.361,0,0,1-.324-.522l.04-.081a.361.361,0,0,1,.309-.2.364.364,0,0,1,.324.174l.032.048a.361.361,0,0,1-.239.564l-.086.013a.345.345,0,0,1-.057,0" transform="translate(-137.509 -109.897)" fill="#29275f"/>
              <path id="Trazado_1055565" data-name="Trazado 1055565" d="M193.92,162.5a.367.367,0,0,1-.107-.016l-10.633-3.271a.361.361,0,0,1,.051-.7l6.984-1.074a9.626,9.626,0,0,0,1.014-.213.3.3,0,0,1,.1-.011l.374,0a.362.362,0,0,1,.321.2l2.224,4.561a.361.361,0,0,1-.325.52m-9.022-3.514,8.332,2.563-1.762-3.612h-.1a10.192,10.192,0,0,1-1.041.217Z" transform="translate(-118.176 -101.565)" fill="#29275f"/>
              <path id="Trazado_1055566" data-name="Trazado 1055566" d="M195.422,199.676c-3.013,0-5.073-2.675-6.112-7.959-.538-3.167-.289-5.556.739-7.109a4.278,4.278,0,0,1,2.274-1.74c.261-.073.5-.15.743-.227s.5-.161.753-.23a.361.361,0,0,1,.2.694.944.944,0,0,0-.376.229.972.972,0,0,0-.086.089,1.146,1.146,0,0,0-.079.1c-.028.037-.049.067-.067.095a.312.312,0,0,1-.026.042l0,0-.014.026a.325.325,0,0,1-.028.05l-.008.014c-.005.011-.012.023-.018.033a.385.385,0,0,1-.019.038l-.028.053a.473.473,0,0,0-.035.081.333.333,0,0,1-.019.047.265.265,0,0,1-.031.078l-.006.013c0,.013-.011.03-.015.038-.013.03-.027.06-.038.09a5.888,5.888,0,0,0-.164.626c-.026.126-.048.252-.07.383l-.011.1c-.015.1-.023.175-.031.259-.013.114-.022.229-.03.339,0,.008,0,.024,0,.039s0,.034,0,.05c-.011.173-.015.3-.019.434,0,.168,0,.342,0,.521,0,.136,0,.263,0,.394.01.379.039.774.067,1.11a21.8,21.8,0,0,0,2.569,8.875l.1.152c.046.075.091.135.135.194a3.225,3.225,0,0,0,.933.945.362.362,0,0,1,.178.275c.01.1.02.205.02.307a.361.361,0,0,1-.319.359l-.021,0a.353.353,0,0,1-.079.009l-.083.008a.365.365,0,0,1-.11.008.7.7,0,0,1-.136.015l-.2.023a.364.364,0,0,1-.079.008q-.178.012-.351.012m.69-.446.011.034Zm-3.478-15.7-.1.028A3.56,3.56,0,0,0,190.653,185c-.912,1.378-1.13,3.653-.632,6.582.991,5.041,2.9,7.514,5.682,7.358a.362.362,0,0,1,.074-.008h.006a4.829,4.829,0,0,1-.7-.81c-.051-.069-.106-.145-.156-.225l-.1-.147a22.234,22.234,0,0,1-2.686-9.212c-.028-.347-.059-.754-.069-1.149,0-.137,0-.271,0-.406,0-.183,0-.369,0-.551,0-.143.009-.282.019-.417l0-.074a.494.494,0,0,1,.007-.076c.01-.134.018-.246.031-.353s.019-.185.034-.278l.011-.1c.026-.16.05-.3.078-.43a6.545,6.545,0,0,1,.186-.707c.018-.055.04-.106.063-.157,0,0,0-.008.011-.033a.389.389,0,0,1,.028-.069l.015-.034a1.149,1.149,0,0,1,.072-.162l0-.009" transform="translate(-122.122 -117.835)" fill="#29275f"/>
              <path id="Trazado_1055567" data-name="Trazado 1055567" d="M207.334,226.987a.367.367,0,0,1-.182-.049A3.894,3.894,0,0,1,206,225.791a.361.361,0,0,1,.585-.423,3.207,3.207,0,0,0,.926.9.364.364,0,0,1,.165.2.718.718,0,0,1,.022.157.361.361,0,0,1-.361.361" transform="translate(-133.038 -145.501)" fill="#29275f"/>
              <path id="Trazado_1055568" data-name="Trazado 1055568" d="M200.8,208.411a.359.359,0,0,1-.3-.166,22.227,22.227,0,0,1-2.682-9.207.361.361,0,0,1,.72-.063,22.862,22.862,0,0,0,2.572,8.883.361.361,0,0,1-.307.552" transform="translate(-127.793 -128.333)" fill="#29275f"/>
              <path id="Trazado_1055569" data-name="Trazado 1055569" d="M199.85,184.819a.364.364,0,0,1-.316-.183.36.36,0,0,1,0-.364,1.731,1.731,0,0,1,.114-.167.361.361,0,0,1,.571.443.874.874,0,0,0-.061.1.362.362,0,0,1-.31.176" transform="translate(-128.874 -118.848)" fill="#29275f"/>
              <path id="Trazado_1055570" data-name="Trazado 1055570" d="M199.842,185.062a.357.357,0,0,1-.138-.028.361.361,0,0,1-.223-.334.363.363,0,0,1,.7-.143.361.361,0,0,1-.076.394l0,0a.362.362,0,0,1-.256.106" transform="translate(-128.871 -119.086)" fill="#29275f"/>
              <path id="Trazado_1055571" data-name="Trazado 1055571" d="M199.753,185.149a.361.361,0,0,1-.322-.525l.027-.048a.381.381,0,0,1,.634-.026.362.362,0,0,1,.016.353.64.64,0,0,1-.065.1.361.361,0,0,1-.289.144" transform="translate(-128.814 -119.124)" fill="#29275f"/>
              <path id="Trazado_1055572" data-name="Trazado 1055572" d="M199.621,185.416a.363.363,0,0,1-.3-.566.432.432,0,0,1,.045-.058.362.362,0,0,1,.623.249.4.4,0,0,1-.11.269.362.362,0,0,1-.255.106m-.013-.375-.081-.081Z" transform="translate(-128.726 -119.309)" fill="#29275f"/>
              <path id="Trazado_1055573" data-name="Trazado 1055573" d="M199.613,185.444a.361.361,0,0,1-.361-.361.363.363,0,0,1,.7-.138.36.36,0,0,1-.084.4l0,0a.362.362,0,0,1-.249.1" transform="translate(-128.723 -119.333)" fill="#29275f"/>
              <path id="Trazado_1055574" data-name="Trazado 1055574" d="M199.536,185.549a.361.361,0,0,1-.342-.476.749.749,0,0,1,.06-.126.377.377,0,0,1,.6-.011.363.363,0,0,1,.052.326.763.763,0,0,1-.067.13.361.361,0,0,1-.3.158" transform="translate(-128.674 -119.384)" fill="#29275f"/>
              <path id="Trazado_1055575" data-name="Trazado 1055575" d="M197.973,188.412a.366.366,0,0,1-.26-.106.362.362,0,0,1-.106-.268c0-.14.01-.279.019-.414l0-.074a.5.5,0,0,1,.007-.076c.01-.134.018-.245.031-.353s.019-.185.034-.278l.011-.1c.026-.16.05-.3.077-.431a6.568,6.568,0,0,1,.186-.707c.018-.055.04-.105.063-.157a.1.1,0,0,1,.012-.034.389.389,0,0,1,.028-.069c.005-.012.01-.024.015-.034a1.059,1.059,0,0,1,.072-.162c.01-.021.028-.056.046-.086a.361.361,0,0,1,.662.271.766.766,0,0,1-.049.123c-.036.08-.078.175-.115.279-.028.071-.047.134-.067.2s-.032.094-.043.141l-.029.115a.393.393,0,0,1-.012.046l-.011.046c0,.01-.011.039-.017.059s0,.024-.005.035a.411.411,0,0,1-.016.075.267.267,0,0,0-.011.051c-.027.14-.043.234-.055.327-.009.059-.017.108-.021.157-.015.118-.028.217-.037.316s-.017.181-.022.27c-.013.168-.022.328-.027.493a.361.361,0,0,1-.106.246.366.366,0,0,1-.26.106" transform="translate(-127.661 -119.44)" fill="#29275f"/>
              <path id="Trazado_1055576" data-name="Trazado 1055576" d="M199.16,186.4a.365.365,0,0,1-.366-.361.414.414,0,0,1,.108-.267h0a.366.366,0,1,1,.258.628" transform="translate(-128.427 -119.942)" fill="#29275f"/>
              <path id="Trazado_1055577" data-name="Trazado 1055577" d="M199.154,186.438h0a.362.362,0,0,1-.361-.355v-.006a.365.365,0,0,1,.361-.366h0a.364.364,0,0,1,0,.727" transform="translate(-128.427 -119.975)" fill="#29275f"/>
              <path id="Trazado_1055578" data-name="Trazado 1055578" d="M198.542,188.426l-.036,0a.344.344,0,0,1-.325-.337.547.547,0,0,1,0-.072.69.69,0,0,1,.04-.154.361.361,0,0,1,.692.186c0,.011-.012.067-.015.077a.388.388,0,0,1-.361.3m.286-.32.068.028Z" transform="translate(-128.031 -121.219)" fill="#29275f"/>
              <path id="Trazado_1055579" data-name="Trazado 1055579" d="M198.529,188.671h0a.362.362,0,0,1-.361-.359v0a.374.374,0,0,1,.1-.25l.007-.008a.377.377,0,0,1,.591.107.368.368,0,0,1-.334.513" transform="translate(-128.023 -121.423)" fill="#29275f"/>
              <path id="Trazado_1055580" data-name="Trazado 1055580" d="M197.964,194.075a.362.362,0,0,1-.361-.353q-.006-.287,0-.559a.361.361,0,0,1,.227-.326.454.454,0,0,1,.139-.026.384.384,0,0,1,.147.029.362.362,0,0,1,.219.341c0,.173-.009.35-.009.532a.362.362,0,0,1-.357.361Z" transform="translate(-127.655 -124.562)" fill="#29275f"/>
              <path id="Trazado_1055581" data-name="Trazado 1055581" d="M189.252,185.792a.352.352,0,0,1-.362-.349c0-.009,0-.018,0-.027s0-.039,0-.056a.372.372,0,0,1,.375-.352.347.347,0,0,1,.349.344v0c0,.012,0,.048,0,.061s0,.011,0,.017a.372.372,0,0,1-.362.359" transform="translate(-122.029 -119.521)" fill="#29275f"/>
              <path id="Trazado_1055582" data-name="Trazado 1055582" d="M188.639,189.168a.355.355,0,0,1-.081-.009.362.362,0,0,1-.271-.433c.021-.091.039-.179.057-.265l.014-.066a.361.361,0,0,1,.715.074.374.374,0,0,1-.007.074l-.014.065c-.018.091-.038.184-.06.281a.362.362,0,0,1-.352.28" transform="translate(-121.634 -121.523)" fill="#29275f"/>
              <path id="Trazado_1055583" data-name="Trazado 1055583" d="M188.41,190.084a.361.361,0,0,1-.361-.361.377.377,0,0,1,.015-.105c.017-.055.031-.109.045-.162l.035-.13a.361.361,0,0,1,.709.1.368.368,0,0,1-.014.1l-.03.114c-.016.062-.033.125-.052.19a.362.362,0,0,1-.345.256" transform="translate(-121.486 -122.141)" fill="#29275f"/>
              <path id="Trazado_1055584" data-name="Trazado 1055584" d="M187.046,193.684a.361.361,0,0,1-.323-.522l.024-.048c.032-.064.064-.126.09-.191a.361.361,0,0,1,.671.269c-.034.084-.074.165-.115.247l-.023.046a.361.361,0,0,1-.324.2" transform="translate(-120.605 -124.487)" fill="#29275f"/>
              <path id="Trazado_1055585" data-name="Trazado 1055585" d="M186.689,194.415a.362.362,0,0,1-.316-.536l.028-.05.019-.035c.024-.045.047-.091.07-.138a.364.364,0,0,1,.479-.167.359.359,0,0,1,.177.472c-.027.061-.059.12-.091.179-.017.033-.035.064-.053.1a.36.36,0,0,1-.312.179" transform="translate(-120.374 -124.979)" fill="#29275f"/>
              <path id="Trazado_1055586" data-name="Trazado 1055586" d="M186.115,195.217a.361.361,0,0,1-.3-.565c.062-.091.12-.186.173-.281a.361.361,0,1,1,.629.355c-.064.113-.132.225-.206.333a.361.361,0,0,1-.3.158" transform="translate(-120.003 -125.452)" fill="#29275f"/>
              <path id="Trazado_1055587" data-name="Trazado 1055587" d="M185.568,196.607a.361.361,0,0,1-.282-.586c.028-.036.053-.072.079-.108l.6.406c-.041.058-.074.1-.111.151a.361.361,0,0,1-.283.136" transform="translate(-119.65 -126.566)" fill="#29275f"/>
              <path id="Trazado_1055588" data-name="Trazado 1055588" d="M185.3,196.941a.361.361,0,0,1-.272-.6c.027-.031.054-.066.081-.1l.571.443c-.045.058-.073.094-.109.135a.361.361,0,0,1-.271.122" transform="translate(-119.477 -126.779)" fill="#29275f"/>
              <path id="Trazado_1055589" data-name="Trazado 1055589" d="M183.223,198.545a.361.361,0,0,1-.214-.652c.077-.057.154-.122.227-.187a.361.361,0,1,1,.48.54,3.094,3.094,0,0,1-.285.234.359.359,0,0,1-.207.065" transform="translate(-118.135 -127.665)" fill="#29275f"/>
              <path id="Trazado_1055590" data-name="Trazado 1055590" d="M182.764,199.041a.361.361,0,0,1-.2-.662l.029-.019.034-.022c.023-.016.045-.034.068-.053a.361.361,0,0,1,.475.544,1.093,1.093,0,0,1-.1.08c-.037.027-.075.052-.116.078a.358.358,0,0,1-.189.053" transform="translate(-117.838 -128.044)" fill="#29275f"/>
              <path id="Trazado_1055591" data-name="Trazado 1055591" d="M181.426,199.919a.361.361,0,0,1-.15-.69,1.023,1.023,0,0,0,.108-.058.361.361,0,0,1,.371.62,1.783,1.783,0,0,1-.181.1.355.355,0,0,1-.149.033" transform="translate(-116.974 -128.638)" fill="#29275f"/>
              <path id="Trazado_1055592" data-name="Trazado 1055592" d="M180.673,200.18a.361.361,0,0,1-.134-.7,2.5,2.5,0,0,0,.233-.106.361.361,0,0,1,.488.152.357.357,0,0,1,.042.168.362.362,0,0,1-.193.32c-.1.051-.2.1-.3.137a.367.367,0,0,1-.135.026" transform="translate(-116.487 -128.777)" fill="#29275f"/>
              <path id="Trazado_1055593" data-name="Trazado 1055593" d="M179.584,200.773a.365.365,0,0,1-.352-.262.374.374,0,0,1-.014-.1.354.354,0,0,1,.258-.343l.013,0a.385.385,0,0,1,.5.187.412.412,0,0,1,.031.155.328.328,0,0,1-.2.311,1.268,1.268,0,0,1-.13.043.377.377,0,0,1-.1.013" transform="translate(-115.781 -129.229)" fill="#29275f"/>
              <path id="Trazado_1055594" data-name="Trazado 1055594" d="M178.643,201a.365.365,0,0,1-.356-.278.374.374,0,0,1-.01-.085.354.354,0,0,1,.274-.347l.013,0c.025-.006.051-.011.076-.019a.36.36,0,0,1,.457.228.349.349,0,0,1,.019.115.361.361,0,0,1-.246.342,1.353,1.353,0,0,1-.143.039.348.348,0,0,1-.083.01" transform="translate(-115.173 -129.37)" fill="#29275f"/>
              <path id="Trazado_1055595" data-name="Trazado 1055595" d="M178.2,201.121a.361.361,0,0,1-.037-.721h0a.42.42,0,0,0,.046-.01.378.378,0,0,1,.452.251.346.346,0,0,1-.226.437,1.053,1.053,0,0,1-.2.041h0l-.038,0" transform="translate(-114.89 -129.451)" fill="#29275f"/>
              <path id="Trazado_1055596" data-name="Trazado 1055596" d="M177.284,201.213a.361.361,0,0,1-.359-.327c0-.012,0-.023,0-.035a.361.361,0,0,1,.327-.359,1.676,1.676,0,0,0,.234-.037.361.361,0,1,1,.168.7,2.431,2.431,0,0,1-.334.054h-.034" transform="translate(-114.298 -129.494)" fill="#29275f"/>
              <path id="Trazado_1055597" data-name="Trazado 1055597" d="M175.244,201.411a.361.361,0,1,1,0-.722c.1,0,.206,0,.3-.013a.361.361,0,0,1,.061.72c-.114.01-.237.015-.365.015" transform="translate(-112.98 -129.642)" fill="#29275f"/>
              <path id="Trazado_1055598" data-name="Trazado 1055598" d="M150.243,136.623a.362.362,0,0,1-.231-.083l-.156-.125a.361.361,0,0,1,.1-.615l.128-.049a.365.365,0,0,1,.314.021.361.361,0,0,1,.178.259l.027.176a.361.361,0,0,1-.357.416" transform="translate(-96.726 -87.683)" fill="#29275f"/>
              <path id="Trazado_1055599" data-name="Trazado 1055599" d="M115.994,61a5.27,5.27,0,1,1,5.27-5.27,5.276,5.276,0,0,1-5.27,5.27m0-9.817a4.547,4.547,0,1,0,4.547,4.547,4.552,4.552,0,0,0-4.547-4.547" transform="translate(-71.531 -32.598)" fill="#29275f"/>
              <path id="Trazado_1055600" data-name="Trazado 1055600" d="M100.685,237.394q-.174,0-.349-.005a11.121,11.121,0,0,1-2.113-.252,10.886,10.886,0,0,1-1.487-.424,11.395,11.395,0,0,1-7.166-13.822c0-.011,0-.022.007-.033l3.709-26.023a13.775,13.775,0,0,1,.5-3.452,11.322,11.322,0,0,1,2.6-5.688,11.507,11.507,0,0,1,4.975-3.4.361.361,0,1,1,.236.682,10.784,10.784,0,0,0-4.661,3.191,10.658,10.658,0,0,0-2.449,5.368A13.478,13.478,0,0,0,94,196.89l-3.716,26.094a.391.391,0,0,1-.013.058l-.007.029h0a10.789,10.789,0,0,0-.4,2.9,10.615,10.615,0,0,0,.755,3.932,10.725,10.725,0,0,0,6.359,6.132,10.135,10.135,0,0,0,1.391.4,10.738,10.738,0,0,0,6.185-.505L132.866,224.7l-7.917-19.964-10.411,4.13a.361.361,0,0,1-.491-.387l1.692-11.852a10.567,10.567,0,0,0,.109-1.519.361.361,0,1,1,.722,0,11.324,11.324,0,0,1-.116,1.622l-1.6,11.234,10.167-4.034a.366.366,0,0,1,.276,0,.363.363,0,0,1,.193.2l8.183,20.636a.361.361,0,0,1-.2.469L104.825,236.6a11.2,11.2,0,0,1-4.14.8" transform="translate(-57.591 -119.044)" fill="#29275f"/>
              <path id="Trazado_1055601" data-name="Trazado 1055601" d="M305.829,180.088c-1.51,0-3-3.187-3.664-6.348-.7-3.316-.59-7.021.994-7.357s3.185,3.009,3.886,6.325.59,7.021-.994,7.356a1.068,1.068,0,0,1-.221.024m-2.445-13.005a.355.355,0,0,0-.076.008c-.723.153-1.239,2.7-.436,6.5s2.3,5.925,3.029,5.768,1.24-2.7.436-6.5c-.776-3.672-2.2-5.775-2.953-5.775" transform="translate(-194.943 -107.474)" fill="#29275f"/>
              <path id="Trazado_1055602" data-name="Trazado 1055602" d="M242.864,244.1a.361.361,0,0,1-.079-.714l3.657-.826a.361.361,0,1,1,.159.7l-3.657.826a.361.361,0,0,1-.08.009" transform="translate(-156.665 -156.699)" fill="#29275f"/>
              <path id="Trazado_1055603" data-name="Trazado 1055603" d="M245.7,255.925a.361.361,0,0,1-.061-.718l2.911-.5a.361.361,0,1,1,.122.712l-2.911.5a.36.36,0,0,1-.061.005" transform="translate(-158.495 -164.548)" fill="#29275f"/>
              <path id="Trazado_1055604" data-name="Trazado 1055604" d="M246.693,268.184a.361.361,0,0,1-.061-.717l2.59-.446a.365.365,0,0,1,.418.3.361.361,0,0,1-.295.417l-2.59.446a.366.366,0,0,1-.062.005" transform="translate(-159.139 -172.501)" fill="#29275f"/>
              <path id="Trazado_1055605" data-name="Trazado 1055605" d="M276.464,242.323a.361.361,0,0,1-.225-.644l2.988-2.384a.361.361,0,1,1,.451.564l-2.988,2.385a.36.36,0,0,1-.225.079" transform="translate(-178.371 -154.542)" fill="#29275f"/>
              <path id="Trazado_1055606" data-name="Trazado 1055606" d="M374.963,202.611h-6.438a.361.361,0,1,1,0-.722h6.438a4.836,4.836,0,0,0,3.57-1.215,3.816,3.816,0,0,0,1.044-2.475.362.362,0,0,1,.357-.365.37.37,0,0,1,.366.355,4.493,4.493,0,0,1-1.245,2.985,5.513,5.513,0,0,1-4.092,1.437" transform="translate(-237.846 -127.807)" fill="#29275f"/>
              <path id="Trazado_1055607" data-name="Trazado 1055607" d="M182.675,105.982a1.95,1.95,0,1,1-2.223-1.631,1.949,1.949,0,0,1,2.223,1.631" transform="translate(-115.51 -67.399)" fill="#29275f"/>
              <path id="Trazado_1055608" data-name="Trazado 1055608" d="M211.551,101.549a1.95,1.95,0,1,1-2.223-1.631,1.95,1.95,0,0,1,2.223,1.631" transform="translate(-134.164 -64.536)" fill="#29275f"/>
              <path id="Trazado_1055609" data-name="Trazado 1055609" d="M206,88.958c-.516.036-1.167.069-1.6.075a1.231,1.231,0,0,0-1.328,1.05c-.041.576.38,1.338,1.049,1.328.749-.011,1.5-.035,2.244-.087a1.2,1.2,0,0,0,1-1.364,1.227,1.227,0,0,0-1.364-1" transform="translate(-131.188 -57.467)" fill="#29275f"/>
              <path id="Trazado_1055610" data-name="Trazado 1055610" d="M177.737,93.4c-.5.114-1.143.245-1.573.317a1.231,1.231,0,0,0-1.154,1.238c.046.576.578,1.265,1.238,1.154.739-.125,1.474-.262,2.2-.426a1.2,1.2,0,0,0,.783-1.5,1.227,1.227,0,0,0-1.5-.783" transform="translate(-113.06 -60.317)" fill="#29275f"/>
              <path id="Trazado_1055611" data-name="Trazado 1055611" d="M198.8,111.583a.361.361,0,0,1-.172-.679l2.74-1.484-2.968-4.059a.361.361,0,0,1,.583-.427l3.212,4.393a.362.362,0,0,1-.12.531l-3.1,1.681a.358.358,0,0,1-.172.044" transform="translate(-128.131 -67.696)" fill="#29275f"/>
              <path id="Trazado_1055612" data-name="Trazado 1055612" d="M190.315,129.664a3.478,3.478,0,0,1-2.85-1.141,4.335,4.335,0,0,1-.672-3.281.359.359,0,0,1,.391-.287l6.53.665a.361.361,0,0,1,.319.293,3.4,3.4,0,0,1-.642,2.589,3.793,3.793,0,0,1-3.075,1.161m-2.856-3.955a3.378,3.378,0,0,0,.568,2.36,2.8,2.8,0,0,0,2.288.873,3.129,3.129,0,0,0,2.515-.9,2.566,2.566,0,0,0,.516-1.737Z" transform="translate(-120.625 -80.724)" fill="#29275f"/>
              <path id="Trazado_1055613" data-name="Trazado 1055613" d="M170.329,118.224a2.878,2.878,0,1,1-2.878-2.878,2.878,2.878,0,0,1,2.878,2.878" transform="translate(-106.319 -74.517)" fill="#7351fa"/>
              <path id="Trazado_1055614" data-name="Trazado 1055614" d="M142.806,120.185a.361.361,0,0,1-.361-.347c-.14-3.649-3.77-5.775-3.807-5.8a.361.361,0,0,1,.359-.627c.164.094,4.015,2.34,4.17,6.4a.361.361,0,0,1-.347.375h-.014" transform="translate(-89.448 -73.238)" fill="#29275f"/>
              <path id="Trazado_1055615" data-name="Trazado 1055615" d="M243.159,160.751a.361.361,0,0,1-.168-.681c.072-.038,7.261-3.822,10.489-7.188a.361.361,0,1,1,.521.5c-3.31,3.452-10.376,7.172-10.675,7.329a.36.36,0,0,1-.167.041" transform="translate(-156.855 -98.694)" fill="#29275f"/>
              <path id="Trazado_1055616" data-name="Trazado 1055616" d="M107.62,365.437s-8.22,6.854-9.817,16.135-7.638,38.893-7.638,38.893" transform="translate(-58.25 -236.084)" fill="none" stroke="#fff" stroke-linecap="round" stroke-linejoin="round" stroke-width="1.5"/>
              <path id="Trazado_1055617" data-name="Trazado 1055617" d="M189.963,436.056l1.651-4.1,18.478-5.351" transform="translate(-122.722 -275.603)" fill="none" stroke="#fff" stroke-linecap="round" stroke-linejoin="round" stroke-width="1.5"/>
              <path id="Trazado_1055618" data-name="Trazado 1055618" d="M114.947,199.855c-2.9,0-2.908,4.511,0,4.511s2.907-4.511,0-4.511" transform="translate(-72.852 -129.113)" fill="#ecb85e"/>
              <path id="Trazado_1055619" data-name="Trazado 1055619" d="M136.56,223.948c-2.9,0-2.908,4.511,0,4.511s2.908-4.511,0-4.511" transform="translate(-86.814 -144.678)" fill="#ecb85e"/>
              <path id="Trazado_1055620" data-name="Trazado 1055620" d="M116.719,242.372c-2.9,0-2.908,4.511,0,4.511s2.908-4.511,0-4.511" transform="translate(-73.996 -156.58)" fill="#ecb85e"/>
              <path id="Trazado_1055621" data-name="Trazado 1055621" d="M244.625,339.808c-2.9,0-2.908,4.511,0,4.511s2.907-4.511,0-4.511" transform="translate(-156.628 -219.527)" fill="#ecb85e"/>
              <path id="Trazado_1055622" data-name="Trazado 1055622" d="M244.979,309.691c-2.9,0-2.908,4.511,0,4.511s2.908-4.511,0-4.511" transform="translate(-156.857 -200.07)" fill="#ecb85e"/>
              <path id="Trazado_1055623" data-name="Trazado 1055623" d="M226.2,322.447c-2.9,0-2.908,4.511,0,4.511s2.908-4.511,0-4.511" transform="translate(-144.725 -208.311)" fill="#ecb85e"/>
              <path id="Trazado_1055624" data-name="Trazado 1055624" d="M419.01,82.593v1.038H370.6V82.593a2.669,2.669,0,0,1,2.669-2.67H416.34a2.67,2.67,0,0,1,2.67,2.67" transform="translate(-239.421 -51.633)" fill="#7ecfe7"/>
              <path id="Trazado_1055625" data-name="Trazado 1055625" d="M419.01,90.4v27.441a2.67,2.67,0,0,1-2.67,2.669H373.271a2.669,2.669,0,0,1-2.669-2.669V90.4Z" transform="translate(-239.421 -58.4)" fill="#fff"/>
              <path id="Trazado_1055626" data-name="Trazado 1055626" d="M415.679,113.442H372.61a3.033,3.033,0,0,1-3.03-3.03V81.933a3.034,3.034,0,0,1,3.03-3.031h43.069a3.035,3.035,0,0,1,3.032,3.031v28.478a3.034,3.034,0,0,1-3.032,3.03M372.61,79.624a2.311,2.311,0,0,0-2.307,2.309v28.478a2.31,2.31,0,0,0,2.307,2.308h43.069a2.311,2.311,0,0,0,2.309-2.308V81.933a2.311,2.311,0,0,0-2.309-2.309Z" transform="translate(-238.761 -50.973)" fill="#29275f"/>
              <path id="Trazado_1055627" data-name="Trazado 1055627" d="M465.488,90.1H442.907a.361.361,0,1,1,0-.722h22.581a.361.361,0,1,1,0,.722" transform="translate(-285.899 -57.741)" fill="#29275f"/>
              <path id="Trazado_1055628" data-name="Trazado 1055628" d="M383.134,90.1H369.942a.361.361,0,0,1,0-.722h13.192a.361.361,0,1,1,0,.722" transform="translate(-238.761 -57.741)" fill="#29275f"/>
              <path id="Trazado_1055629" data-name="Trazado 1055629" d="M419.922,121.194H380.467a.361.361,0,0,1-.361-.361V95.371a.361.361,0,0,1,.722,0v25.1h38.732v-25.1a.361.361,0,0,1,.723,0v25.462a.361.361,0,0,1-.361.361" transform="translate(-245.561 -61.38)" fill="#29275f"/>
              <path id="Trazado_1055630" data-name="Trazado 1055630" d="M397.018,56.176h-2.541v34.25h-7.746V56.176h-2.544l6.416-8.22Z" transform="translate(-248.197 -30.981)" fill="#7351fa"/>
              <path id="Trazado_1055631" data-name="Trazado 1055631" d="M470.693,56.176h-2.541v34.25h-7.746V56.176h-2.544l6.416-8.22Z" transform="translate(-295.794 -30.981)" fill="#7351fa"/>
              <path id="Trazado_1055632" data-name="Trazado 1055632" d="M434.8,9.24h-2.541l.2,50.864h-7.746l-.2-50.864h-2.544l6.416-8.22Z" transform="translate(-272.605 -0.659)" fill="#ecb85e"/>
              <path id="Trazado_1055633" data-name="Trazado 1055633" d="M393.817,90.128h-7.745a.361.361,0,0,1-.361-.361V55.878h-2.183a.361.361,0,0,1-.285-.584l6.417-8.22a.361.361,0,0,1,.57,0l6.414,8.22a.362.362,0,0,1-.285.584h-2.18V89.766a.362.362,0,0,1-.361.361m-7.384-.722h7.023V55.516a.362.362,0,0,1,.361-.361h1.8l-5.674-7.271-5.676,7.271h1.8a.362.362,0,0,1,.361.361Z" transform="translate(-247.538 -30.322)" fill="#29275f"/>
              <path id="Trazado_1055634" data-name="Trazado 1055634" d="M467.492,90.128h-7.746a.361.361,0,0,1-.361-.361V55.878H457.2a.362.362,0,0,1-.285-.584l6.416-8.22a.361.361,0,0,1,.57,0l6.415,8.22a.361.361,0,0,1-.285.584h-2.18V89.766a.361.361,0,0,1-.361.361m-7.384-.722h7.023V55.516a.362.362,0,0,1,.361-.361h1.8l-5.674-7.271-5.676,7.271h1.8a.362.362,0,0,1,.361.361Z" transform="translate(-295.135 -30.322)" fill="#29275f"/>
              <path id="Trazado_1055635" data-name="Trazado 1055635" d="M431.794,59.806h-7.746a.361.361,0,0,1-.361-.36l-.195-50.5h-2.184a.361.361,0,0,1-.285-.583L427.44.139a.361.361,0,0,1,.57,0l6.414,8.22a.361.361,0,0,1-.285.583h-2.179l.194,50.5a.361.361,0,0,1-.361.362m-7.386-.722h7.023l-.194-50.5a.361.361,0,0,1,.361-.362h1.8L427.725.948,422.049,8.22h1.8a.361.361,0,0,1,.361.36Z" transform="translate(-271.946)" fill="#29275f"/>
            </g>
          </g>
        </g>
      </g>
    </g>
  </g>
</svg>
