<svg xmlns="http://www.w3.org/2000/svg" xmlns:xlink="http://www.w3.org/1999/xlink" width="210.264" height="134.699" viewBox="0 0 210.264 134.699">
  <defs>
    <clipPath id="clip-path">
      <rect id="Rectángulo_421146" data-name="Rectángulo 421146" width="189.264" height="134.699" transform="translate(-7)" fill="none"/>
    </clipPath>
    <clipPath id="clip-path-2">
      <rect id="Rectángulo_425077" data-name="Rectángulo 425077" width="141.666" height="141.487" fill="none"/>
    </clipPath>
  </defs>
  <g id="Grupo_1186070" data-name="Grupo 1186070" transform="translate(-340 -1003.676)">
    <circle id="Elipse_12767" data-name="Elipse 12767" cx="52" cy="52" r="52" transform="translate(340 1008)" fill="#ffd256"/>
    <g id="Grupo_1175220" data-name="Grupo 1175220" transform="translate(358 1003.676)">
      <g id="Grupo_1175225" data-name="Grupo 1175225">
        <g id="Grupo_1175224" data-name="Grupo 1175224" transform="translate(10)" clip-path="url(#clip-path)">
          <path id="Trazado_1038681" data-name="Trazado 1038681" d="M9.169,193.84a.425.425,0,0,1-.426-.426v-4.666a.426.426,0,1,1,.851,0v4.666a.425.425,0,0,1-.426.426" transform="translate(-4.919 -105.946)" fill="#29275f"/>
          <path id="Trazado_1038682" data-name="Trazado 1038682" d="M8.5,194.508H3.836a.426.426,0,0,1,0-.852H8.5a.426.426,0,0,1,0,.852" transform="translate(-1.918 -108.946)" fill="#29275f"/>
          <path id="Trazado_1038683" data-name="Trazado 1038683" d="M1.5,218.04a1.558,1.558,0,0,0,0,3.114,1.558,1.558,0,0,0,0-3.114" transform="translate(0 -122.664)" fill="#29275f"/>
          <path id="Trazado_1038684" data-name="Trazado 1038684" d="M227.942,41.857a.425.425,0,0,1-.426-.426V36.766a.426.426,0,1,1,.851,0v4.666a.425.425,0,0,1-.426.426" transform="translate(-127.995 -20.444)" fill="#29275f"/>
          <path id="Trazado_1038685" data-name="Trazado 1038685" d="M227.274,42.523H222.61a.426.426,0,0,1,0-.852h4.665a.426.426,0,0,1,0,.852" transform="translate(-124.996 -23.443)" fill="#29275f"/>
          <path id="Trazado_1038686" data-name="Trazado 1038686" d="M225.089,12.458a1.558,1.558,0,0,0,0,3.114,1.558,1.558,0,0,0,0-3.114" transform="translate(-125.784 -7.009)" fill="#29275f"/>
          <path id="Trazado_1038687" data-name="Trazado 1038687" d="M242.93,23.278c-3.34,0-3.345,5.19,0,5.19s3.345-5.19,0-5.19" transform="translate(-135.257 -13.096)" fill="#29275f"/>
          <path id="Trazado_1038688" data-name="Trazado 1038688" d="M50.9,40.567a1.558,1.558,0,0,0,0,3.114,1.558,1.558,0,0,0,0-3.114" transform="translate(-27.789 -22.822)" fill="#29275f"/>
          <path id="Trazado_1038689" data-name="Trazado 1038689" d="M33.12,15.765c-3.34,0-3.345,5.19,0,5.19s3.345-5.19,0-5.19" transform="translate(-17.222 -8.869)" fill="#29275f"/>
          <path id="Trazado_1038690" data-name="Trazado 1038690" d="M51.591.593c-3.34,0-3.345,5.19,0,5.19s3.345-5.19,0-5.19" transform="translate(-27.614 -0.334)" fill="#29275f"/>
          <path id="Trazado_1038691" data-name="Trazado 1038691" d="M270.875,280.355a.425.425,0,0,1-.426-.426v-4.665a.426.426,0,1,1,.851,0v4.665a.425.425,0,0,1-.426.426" transform="translate(-152.148 -154.618)" fill="#29275f"/>
          <path id="Trazado_1038692" data-name="Trazado 1038692" d="M270.206,281.022h-4.666a.426.426,0,0,1,0-.852h4.666a.426.426,0,0,1,0,.852" transform="translate(-149.148 -157.617)" fill="#29275f"/>
          <path id="Trazado_1038693" data-name="Trazado 1038693" d="M268.022,250.956a1.558,1.558,0,0,0,0,3.114,1.558,1.558,0,0,0,0-3.114" transform="translate(-149.937 -141.182)" fill="#29275f"/>
          <path id="Trazado_1038694" data-name="Trazado 1038694" d="M285.863,261.777c-3.339,0-3.345,5.19,0,5.19s3.345-5.19,0-5.19" transform="translate(-159.41 -147.27)" fill="#29275f"/>
          <g id="Grupo_1182686" data-name="Grupo 1182686" transform="translate(-2.564 0.365)">
            <g id="Grupo_1182685" data-name="Grupo 1182685">
              <g id="Grupo_1182684" data-name="Grupo 1182684" clip-path="url(#clip-path-2)">
                <path id="Trazado_1045556" data-name="Trazado 1045556" d="M125.2,133.441a.244.244,0,0,1-.24-.2l-.293-1.691a8.179,8.179,0,0,1-2.607,0l-.294,1.692a.243.243,0,0,1-.281.2,11.058,11.058,0,0,1-3.546-1.274.244.244,0,0,1-.091-.334l.868-1.5a8.519,8.519,0,0,1-2-1.663l-1.317,1.107a.244.244,0,0,1-.343-.029,10.477,10.477,0,0,1-1.881-3.271.244.244,0,0,1,.146-.311l1.612-.589a8.9,8.9,0,0,1-.459-2.565h-1.725a.244.244,0,0,1-.244-.247,11.063,11.063,0,0,1,.671-3.708.245.245,0,0,1,.312-.144l1.613.589a9.446,9.446,0,0,1,1.3-2.26l-1.32-1.109a.244.244,0,0,1-.03-.342,10.379,10.379,0,0,1,2.879-2.4.242.242,0,0,1,.331.089l.869,1.486a8.8,8.8,0,0,1,2.442-.886l-.295-1.7a.244.244,0,0,1,.2-.283l.224-.037a6.17,6.17,0,0,1,.712-.093l.927-.048.952.048a6.173,6.173,0,0,1,.713.093l.223.037a.246.246,0,0,1,.16.1.244.244,0,0,1,.042.183l-.295,1.7a8.9,8.9,0,0,1,2.455.888l.854-1.485a.242.242,0,0,1,.332-.09,10.381,10.381,0,0,1,2.88,2.4.244.244,0,0,1-.031.342l-1.318,1.108a8.739,8.739,0,0,1,1.305,2.26l1.61-.588a.245.245,0,0,1,.312.144,11.068,11.068,0,0,1,.67,3.708.244.244,0,0,1-.244.247H132.25a8.9,8.9,0,0,1-.459,2.565l1.612.589a.244.244,0,0,1,.146.311,10.481,10.481,0,0,1-1.881,3.271.244.244,0,0,1-.343.029l-1.317-1.107a8.514,8.514,0,0,1-2,1.663l.869,1.5a.245.245,0,0,1,.024.186.242.242,0,0,1-.115.148,11.06,11.06,0,0,1-3.546,1.274.234.234,0,0,1-.041,0m-6.806-1.583a10.588,10.588,0,0,0,2.933,1.055l.293-1.691a.244.244,0,0,1,.1-.159.248.248,0,0,1,.185-.039,7.647,7.647,0,0,0,2.909,0,.244.244,0,0,1,.288.2l.293,1.691a10.588,10.588,0,0,0,2.933-1.055l-.865-1.494a.246.246,0,0,1-.025-.187.244.244,0,0,1,.115-.148,8.024,8.024,0,0,0,2.233-1.861.244.244,0,0,1,.344-.03l1.314,1.1a9.984,9.984,0,0,0,1.555-2.706l-1.607-.587a.244.244,0,0,1-.146-.312,8.422,8.422,0,0,0,.513-2.873.243.243,0,0,1,.244-.244h1.715a10.583,10.583,0,0,0-.552-3.07l-1.607.587a.239.239,0,0,1-.187-.009.244.244,0,0,1-.126-.138,8.271,8.271,0,0,0-1.459-2.53.243.243,0,0,1,.03-.342l1.314-1.1a9.887,9.887,0,0,0-2.379-1.986l-.852,1.481a.245.245,0,0,1-.333.09,8.409,8.409,0,0,0-2.748-.994.243.243,0,0,1-.2-.282l.293-1.692a5.626,5.626,0,0,0-.641-.085l-.926-.048-.9.048a5.646,5.646,0,0,0-.641.085l.294,1.692a.243.243,0,0,1-.2.282,8.289,8.289,0,0,0-2.731.993.248.248,0,0,1-.185.025.243.243,0,0,1-.148-.113l-.867-1.483a9.888,9.888,0,0,0-2.38,1.987l1.314,1.1a.244.244,0,0,1,.032.341,8.956,8.956,0,0,0-1.462,2.536.244.244,0,0,1-.312.144l-1.607-.587a10.593,10.593,0,0,0-.553,3.07h1.716a.244.244,0,0,1,.244.244,8.42,8.42,0,0,0,.513,2.873.244.244,0,0,1-.146.312l-1.607.587a9.983,9.983,0,0,0,1.555,2.706l1.314-1.1a.251.251,0,0,1,.178-.056.245.245,0,0,1,.166.087,8.043,8.043,0,0,0,2.233,1.861.244.244,0,0,1,.091.335Z" transform="translate(-81.882 -81.444)" fill="#29275f"/>
                <path id="Trazado_1045557" data-name="Trazado 1045557" d="M55.207,160.946a.231.231,0,0,1-.047,0,8.632,8.632,0,0,1-3.059-1.265.244.244,0,0,1-.1-.265,13.467,13.467,0,0,1,.673-1.978,6,6,0,0,1-.653-.654,12.938,12.938,0,0,1-1.98.661.246.246,0,0,1-.259-.1,8.414,8.414,0,0,1-1.267-3.045.244.244,0,0,1,.116-.258,14.069,14.069,0,0,1,1.864-.926c-.011-.154-.019-.308-.019-.462s.008-.308.019-.462a14.075,14.075,0,0,1-1.864-.926.244.244,0,0,1-.116-.257,8.41,8.41,0,0,1,1.267-3.045.245.245,0,0,1,.259-.1,12.044,12.044,0,0,1,1.982.659,6.006,6.006,0,0,1,.651-.652A13.453,13.453,0,0,1,52,145.89a.244.244,0,0,1,.1-.265,8.633,8.633,0,0,1,3.059-1.266.241.241,0,0,1,.258.116,14.071,14.071,0,0,1,.926,1.867q.461-.018.921,0a14.146,14.146,0,0,1,.927-1.867.24.24,0,0,1,.258-.116,8.412,8.412,0,0,1,3.044,1.267.244.244,0,0,1,.1.259,12.985,12.985,0,0,1-.661,1.98,6.028,6.028,0,0,1,.653.653,11.611,11.611,0,0,1,1.984-.658.245.245,0,0,1,.259.1,8.426,8.426,0,0,1,1.267,3.045.244.244,0,0,1-.116.257,13.418,13.418,0,0,1-1.873.925c.012.157.012.312.012.463s0,.305-.012.463a11.938,11.938,0,0,1,1.876.927.243.243,0,0,1,.112.255,8.428,8.428,0,0,1-1.267,3.045.247.247,0,0,1-.259.1,12.588,12.588,0,0,1-1.981-.66,6.048,6.048,0,0,1-.655.655,12.97,12.97,0,0,1,.661,1.98.244.244,0,0,1-.1.259,8.406,8.406,0,0,1-3.044,1.267.24.24,0,0,1-.255-.112,12.416,12.416,0,0,1-.929-1.87q-.461.018-.921,0a14.054,14.054,0,0,1-.926,1.867.244.244,0,0,1-.21.12m2.221-2.484a.243.243,0,0,1,.228.157,11.979,11.979,0,0,0,.867,1.809,7.931,7.931,0,0,0,2.557-1.065,13.188,13.188,0,0,0-.665-1.9.244.244,0,0,1,.072-.286,5.457,5.457,0,0,0,.841-.841.245.245,0,0,1,.289-.071,12.307,12.307,0,0,0,1.9.665,7.936,7.936,0,0,0,1.065-2.558,11.5,11.5,0,0,0-1.824-.866.244.244,0,0,1-.156-.266,5.906,5.906,0,0,0,0-1.172.244.244,0,0,1,.156-.265,12.323,12.323,0,0,0,1.823-.869,7.934,7.934,0,0,0-1.064-2.555,10.839,10.839,0,0,0-1.9.662.242.242,0,0,1-.293-.069,5.469,5.469,0,0,0-.841-.841.244.244,0,0,1-.072-.286,13.143,13.143,0,0,0,.665-1.9,7.929,7.929,0,0,0-2.555-1.064,13.078,13.078,0,0,0-.87,1.809.238.238,0,0,1-.247.156,5.5,5.5,0,0,0-.6-.015c-.2,0-.4,0-.6.015a.235.235,0,0,1-.247-.156,12.991,12.991,0,0,0-.869-1.809,8.158,8.158,0,0,0-2.568,1.064,12.629,12.629,0,0,0,.676,1.9.244.244,0,0,1-.07.291,5.488,5.488,0,0,0-.84.841.244.244,0,0,1-.291.07,11.453,11.453,0,0,0-1.9-.663,7.929,7.929,0,0,0-1.065,2.555,13.034,13.034,0,0,0,1.809.87.243.243,0,0,1,.156.246c-.016.2-.031.4-.031.6s.016.4.031.6a.243.243,0,0,1-.156.246,13.006,13.006,0,0,0-1.809.87,7.94,7.94,0,0,0,1.065,2.555,13.093,13.093,0,0,0,1.9-.665.243.243,0,0,1,.287.072,5.45,5.45,0,0,0,.84.84.244.244,0,0,1,.07.291,12.621,12.621,0,0,0-.675,1.9,8.161,8.161,0,0,0,2.568,1.064,13.007,13.007,0,0,0,.869-1.809.241.241,0,0,1,.247-.156c.2.016.4.015.6.015s.4,0,.6-.015h.019" transform="translate(-35.302 -105.053)" fill="#29275f"/>
                <path id="Trazado_1045558" data-name="Trazado 1045558" d="M72.465,164.421a3.893,3.893,0,1,1-3.893-3.893,3.893,3.893,0,0,1,3.893,3.893" transform="translate(-47.07 -116.824)" fill="#7ecfe7"/>
                <path id="Trazado_1045559" data-name="Trazado 1045559" d="M88,219.578l3.152,1.158A14.336,14.336,0,0,1,88.707,225L86.091,222.8a10.593,10.593,0,0,1-2.874,2.381l1.716,2.981a14,14,0,0,1-4.611,1.673l-.6-3.388a11.547,11.547,0,0,1-3.71,0l-.6,3.388a14,14,0,0,1-4.611-1.673l1.716-2.981a10.593,10.593,0,0,1-2.874-2.381L67.025,225a14.335,14.335,0,0,1-2.445-4.268l3.152-1.158a10.907,10.907,0,0,1-.686-3.667H63.7a14.353,14.353,0,0,1,.88-4.847l3.088,1.137a10.453,10.453,0,0,1,1.865-3.3l-2.509-2.1a14.094,14.094,0,0,1,3.775-3.153l1.608,2.81a10.154,10.154,0,0,1,3.56-1.308l-.557-3.174a12.027,12.027,0,0,1,1.222-.172l1.223-.064,1.243.064a12,12,0,0,1,1.223.172l-.558,3.174a10.153,10.153,0,0,1,3.56,1.308l1.608-2.81a14.094,14.094,0,0,1,3.775,3.153l-2.51,2.1a10.45,10.45,0,0,1,1.866,3.3l3.088-1.137a14.36,14.36,0,0,1,.88,4.847H88.664A10.4,10.4,0,0,1,88,219.578" transform="translate(-46.358 -146.812)" fill="#ecb85e"/>
                <path id="Trazado_1045560" data-name="Trazado 1045560" d="M94.794,240.227a7.832,7.832,0,1,1,7.832-7.832,7.841,7.841,0,0,1-7.832,7.832m0-15.178a7.345,7.345,0,1,0,7.345,7.345,7.353,7.353,0,0,0-7.345-7.345" transform="translate(-63.286 -163.424)" fill="#29275f"/>
                <path id="Trazado_1045561" data-name="Trazado 1045561" d="M425.65,154.738l-.025.033a1.853,1.853,0,1,0,2.888,2.167,1.853,1.853,0,1,0,2.889,2.168,1.853,1.853,0,1,0,2.889,2.168l.025-.033v-.007l1-10.35-9.38,3.74Z" transform="translate(-309.353 -109.805)" fill="#fff"/>
                <path id="Trazado_1045562" data-name="Trazado 1045562" d="M339.729,264.119l-1.054,1.4-.178-.134a.879.879,0,0,0-1.225.176l-.266.354a.879.879,0,0,0,.174,1.224l9.445,7.087a.877.877,0,0,0,1.223-.174l.266-.354a.877.877,0,0,0-.173-1.225l-.176-.132,1.054-1.4.176.132a.877.877,0,0,0,1.225-.176l.266-.354a.875.875,0,0,0-.176-1.222l-9.445-7.087a.877.877,0,0,0-1.222.173l-.266.354a.879.879,0,0,0,.173,1.225Z" transform="translate(-245.129 -190.713)" fill="#fff"/>
                <path id="Trazado_1045563" data-name="Trazado 1045563" d="M373.217,165.158l-20.145,26.848,8.667,6.5,20.145-26.848A1.853,1.853,0,1,1,379,169.494a1.853,1.853,0,1,1-2.889-2.168,1.853,1.853,0,1,1-2.888-2.167Z" transform="translate(-256.947 -120.193)" fill="#ecb85e"/>
                <path id="Trazado_1045564" data-name="Trazado 1045564" d="M445.335,152.759a3.223,3.223,0,0,0,1.522,2.375,3.26,3.26,0,0,0,2.707.8l.485-5.043,0-.014Z" transform="translate(-324.091 -109.801)" fill="#29275f"/>
                <path id="Trazado_1045565" data-name="Trazado 1045565" d="M331.82,281.544l-2.33,3.1s-1.6,2.84,2.546,5.951,6.427.782,6.427.782l2.33-3.1Z" transform="translate(-239.565 -204.893)" fill="#7351fa"/>
                <path id="Trazado_1045566" data-name="Trazado 1045566" d="M431.769,161.9a1.771,1.771,0,0,1-1.076-.349,1.869,1.869,0,0,1-.719-1.485,2.557,2.557,0,0,1,.068-.657,1.893,1.893,0,0,1-2.887-2.169,2.039,2.039,0,0,1-2.239-.023,2.32,2.32,0,0,1-.13-3.24.407.407,0,0,1,.13-.113l9.664-3.855a.247.247,0,0,1,.237.032.244.244,0,0,1,.1.218l-1,10.35a.27.27,0,0,1-.047.129,2.853,2.853,0,0,1-1.546,1.09,2.191,2.191,0,0,1-.553.073m-.816-3.3a2.334,2.334,0,0,0-.491,1.448,1.317,1.317,0,0,0,1.738,1.3,2.324,2.324,0,0,0,1.237-.855l.954-9.891-9.23,3.681a1.612,1.612,0,1,0,2.514,1.853.244.244,0,1,1,.39.292,1.615,1.615,0,1,0,2.5,1.876.244.244,0,0,1,.439.146.241.241,0,0,1-.049.146" transform="translate(-308.709 -109.154)" fill="#29275f"/>
                <path id="Trazado_1045567" data-name="Trazado 1045567" d="M346.5,274a1.11,1.11,0,0,1-.669-.223l-9.446-7.087a1.122,1.122,0,0,1-.223-1.565l.266-.355a1.122,1.122,0,0,1,1.549-.237l.762-1.015a1.12,1.12,0,0,1-.205-1.553l.266-.354a1.119,1.119,0,0,1,1.564-.222l9.445,7.087a1.119,1.119,0,0,1,.225,1.563l-.266.355a1.12,1.12,0,0,1-1.547.239l-.762,1.015a1.121,1.121,0,0,1,.2,1.552l-.266.354a1.118,1.118,0,0,1-.9.446m-9.173-9.189a.692.692,0,0,0-.092.007.628.628,0,0,0-.417.245l-.266.354a.634.634,0,0,0,.126.882l9.446,7.087a.63.63,0,0,0,.882-.126l.266-.354a.634.634,0,0,0-.124-.884l-.177-.132a.243.243,0,0,1-.049-.341l1.054-1.4a.244.244,0,0,1,.341-.049l.176.132a.631.631,0,0,0,.883-.127l.266-.354a.632.632,0,0,0-.127-.88l-9.446-7.087a.629.629,0,0,0-.881.124l-.266.354a.633.633,0,0,0,.125.885l.178.133a.243.243,0,0,1,.049.341l-1.054,1.4a.244.244,0,0,1-.341.049l-.178-.133a.621.621,0,0,0-.375-.125" transform="translate(-244.477 -190.061)" fill="#29275f"/>
                <path id="Trazado_1045568" data-name="Trazado 1045568" d="M361.089,198.1a.246.246,0,0,1-.146-.049l-8.667-6.5a.244.244,0,0,1-.048-.341l20.145-26.848a.243.243,0,0,1,.33-.057h0a.244.244,0,0,1,.06.349,1.615,1.615,0,1,0,2.5,1.874.244.244,0,0,1,.439.146.241.241,0,0,1-.049.146,1.616,1.616,0,1,0,2.5,1.876.244.244,0,0,1,.39.292,2.333,2.333,0,0,0-.491,1.448,1.317,1.317,0,0,0,1.738,1.3,2.333,2.333,0,0,0,1.253-.876.244.244,0,1,1,.39.292L361.284,198a.243.243,0,0,1-.16.1l-.035,0m-8.326-6.8,8.278,6.211,19.021-25.349c-.05.017-.1.031-.152.045a1.8,1.8,0,0,1-2.348-1.761,2.565,2.565,0,0,1,.068-.657,1.893,1.893,0,0,1-2.886-2.17,2.041,2.041,0,0,1-2.239-.023,1.921,1.921,0,0,1-.716-1.651Z" transform="translate(-256.296 -119.541)" fill="#29275f"/>
                <path id="Trazado_1045569" data-name="Trazado 1045569" d="M448.441,155.58a3.979,3.979,0,0,1-2.382-.9,3.444,3.444,0,0,1-1.62-2.575.244.244,0,0,1,.153-.222L449.31,150a.244.244,0,0,1,.332.255l-.487,5.051a.242.242,0,0,1-.181.212,2.127,2.127,0,0,1-.533.06m-3.5-3.312a3.255,3.255,0,0,0,1.411,2.021,3.293,3.293,0,0,0,2.335.789l.431-4.476Z" transform="translate(-323.439 -109.15)" fill="#29275f"/>
                <path id="Trazado_1045570" data-name="Trazado 1045570" d="M335.456,291.8a7.034,7.034,0,0,1-4.186-1.656c-4.267-3.2-2.629-6.236-2.612-6.266l2.347-3.131a.244.244,0,0,1,.341-.049l8.973,6.733a.244.244,0,0,1,.048.341l-2.33,3.1a3.762,3.762,0,0,1-2.583.923m-4.207-10.565-2.183,2.909c-.042.082-1.412,2.676,2.5,5.61s6.019.894,6.107.806l2.162-2.885Z" transform="translate(-238.945 -204.242)" fill="#29275f"/>
                <path id="Trazado_1045571" data-name="Trazado 1045571" d="M415.058,192.5a.243.243,0,0,1-.195-.39l8.87-11.821a.244.244,0,1,1,.39.292l-8.87,11.822a.244.244,0,0,1-.2.1" transform="translate(-301.88 -131.132)" fill="#29275f"/>
                <path id="Trazado_1045572" data-name="Trazado 1045572" d="M373.644,251.387a.243.243,0,0,1-.195-.39l7.832-10.438a.244.244,0,1,1,.39.292L373.84,251.29a.244.244,0,0,1-.2.1" transform="translate(-271.741 -174.995)" fill="#29275f"/>
                <path id="Trazado_1045573" data-name="Trazado 1045573" d="M379.207,193.693a.243.243,0,0,1-.195-.39l15.742-20.979a.244.244,0,1,1,.39.292L379.4,193.6a.244.244,0,0,1-.195.1" transform="translate(-275.789 -125.337)" fill="#29275f"/>
                <path id="Trazado_1045574" data-name="Trazado 1045574" d="M356.085,276.171a.245.245,0,0,1-.146-.048l-9.267-6.954a.244.244,0,0,1,.293-.39l9.267,6.954a.244.244,0,0,1-.146.439" transform="translate(-252.218 -195.567)" fill="#29275f"/>
                <path id="Trazado_1045575" data-name="Trazado 1045575" d="M351.562,280.84a.244.244,0,0,1-.146-.049l-9.269-6.955a.244.244,0,0,1,.293-.39l9.269,6.955a.244.244,0,0,1-.146.439" transform="translate(-248.926 -198.965)" fill="#29275f"/>
                <path id="Trazado_1045576" data-name="Trazado 1045576" d="M341.46,300.669a.244.244,0,0,1-.146-.048l-7.069-5.3a.244.244,0,0,1,.293-.39l7.069,5.3a.244.244,0,0,1-.146.439" transform="translate(-243.175 -214.596)" fill="#29275f"/>
                <path id="Trazado_1045577" data-name="Trazado 1045577" d="M195.623,29.253a15.145,15.145,0,0,1-1.862,6.305l-.939-11.36c-8.669.166-16.382-4.656-16.382-4.656,1.7,9.165-4.4,11.805-4.4,11.805a4.754,4.754,0,0,0-2.738-1.393,4.633,4.633,0,0,0-1.049-.028,4.733,4.733,0,1,0,.781,9.434,4.932,4.932,0,0,0,.915-.166c.039.039.083.079.126.118l.02.217.789,9.541-17.68,1.341c-.509-14.958,10.361-16.962,12.239-24.739a.044.044,0,0,0,0-.02c.063-.253.115-.513.154-.777,0-.012,0-.028.008-.039A15.21,15.21,0,0,1,191,17.238c.051.051.1.1.154.154a15.148,15.148,0,0,1,4.47,11.86" transform="translate(-111.484 -9.448)" fill="#7351fa"/>
                <path id="Trazado_1045578" data-name="Trazado 1045578" d="M214.479,64.661l-6.159.509,7.84,3.026,1.239.478s-1.748,3.484-7.741,3.981a15.128,15.128,0,0,1-9.548-2.328c-.182-.122-.272-.2-.272-.2l-.292-3.523-.789-9.541-.016-.213a0,0,0,0,1,0,0l-.012-.154c-.035.012-.075.024-.114.035a4.91,4.91,0,0,1-.915.166,4.733,4.733,0,1,1-.781-9.434,4.651,4.651,0,0,1,1.05.028,4.756,4.756,0,0,1,2.738,1.393s6.1-2.639,4.4-11.805c0,0,7.714,4.822,16.382,4.656l.939,11.36.166,2a8.673,8.673,0,0,1,.027.9,8.9,8.9,0,0,1-6.893,8.471c-.1.024-.2.047-.3.067a9.115,9.115,0,0,1-.935.126" transform="translate(-140.141 -26.983)" fill="#fff"/>
                <path id="Trazado_1045579" data-name="Trazado 1045579" d="M184.713,14.961a4.291,4.291,0,1,1-3.982-4.58,4.291,4.291,0,0,1,3.982,4.58" transform="translate(-128.186 -7.547)" fill="#7351fa"/>
                <path id="Trazado_1045580" data-name="Trazado 1045580" d="M259.5,142.068l-1.239-.478-7.84-3.026,6.159-.509a9.173,9.173,0,0,0,.935-.126l.324.02.43,1.065.986,2.446Z" transform="translate(-182.246 -100.377)" fill="#29275f"/>
                <path id="Trazado_1045581" data-name="Trazado 1045581" d="M162.555,176.924a9.7,9.7,0,0,1-.276,2.284l-6.4,26.226a9.755,9.755,0,0,1-9.967,7.4,10.17,10.17,0,0,1-1.764-.264,9.734,9.734,0,0,1-7.13-11.73l6.392-26.23a9.628,9.628,0,0,1,2.943-4.9c0-.008.012-.012.016-.016a9.7,9.7,0,0,1,16.181,7.236" transform="translate(-99.517 -121.681)" fill="#7ecfe7"/>
                <path id="Trazado_1045582" data-name="Trazado 1045582" d="M212.135,183.4l-.687,1.211.245,1.693,1,6.889.817,5.622.623,4.317.939,6.467H163.08l1.342-7.09.659-3.5a9.292,9.292,0,0,0,2.071-.118,9.737,9.737,0,0,0,7.9-7.28l.383-1.567.643-2.636,1.306-5.358.967-3.962,2.332-9.572.765-3.133c0-.008,0-.02.008-.027a9.7,9.7,0,0,0-15.912-9.493,12.084,12.084,0,0,1,7.4-3.906l5.713-.758a15.128,15.128,0,0,0,9.548,2.328c5.993-.5,7.741-3.981,7.741-3.981l-.244-.608,4.715-.627a12,12,0,0,1,6.384.888,12.3,12.3,0,0,1,5.256,4.34,0,0,0,0,1,0,0,9.577,9.577,0,0,1,.619,1.3l1.255,3.223v0c.043.225.079.45.11.679l1.409,10.917c.02.154.039.308.051.462a18.334,18.334,0,0,1,.087,2.793,19.369,19.369,0,0,1-1.243,6.128,18.042,18.042,0,0,1-.742,1.7c-.166.343-.343.679-.533,1.01Z" transform="translate(-118.681 -107.854)" fill="#7ecfe7"/>
                <path id="Trazado_1045583" data-name="Trazado 1045583" d="M252.562,251.049a17.993,17.993,0,0,1-.742,1.7l-2.616-3.46-4.36,5.769a.8.8,0,0,1-.3.249l-.055.024a1.094,1.094,0,0,1-.111.032l-.071.012a.953.953,0,0,1-.209,0l-.067-.012a1.118,1.118,0,0,1-.111-.032c-.02-.008-.039-.016-.055-.024a1.194,1.194,0,0,1-.15-.091.994.994,0,0,1-.158-.158l-4.36-5.769-4.273,5.654a.808.808,0,0,1-1.373.142l-4.36-5.769-4.324,5.717-.036.051c-.02.027-.043.047-.063.071s-.039.039-.059.059l-.02.012a.062.062,0,0,1-.016.016.567.567,0,0,1-.134.079.607.607,0,0,1-.162.059s-.008,0-.012,0a.573.573,0,0,1-.083.012.558.558,0,0,1-.2,0,.471.471,0,0,1-.075-.012.023.023,0,0,1-.016,0,.263.263,0,0,1-.079-.023.475.475,0,0,1-.1-.044c-.024-.012-.043-.024-.063-.035s-.036-.024-.051-.036l0,0a.214.214,0,0,1-.044-.04c-.02-.008-.032-.028-.047-.043s-.043-.044-.063-.071a.557.557,0,0,0-.035-.051l-4.324-5.717-3.579,4.735.967-3.962,1.965-2.6a.815.815,0,0,1,1.294,0l4.356,5.764,4.36-5.764a.811.811,0,0,1,1.29,0l4.352,5.753,4.368-5.78a.811.811,0,0,1,1.29,0l4.36,5.768,4.36-5.768a.8.8,0,0,1,.643-.32.81.81,0,0,1,.647.32Z" transform="translate(-156.902 -179.857)" fill="#fff"/>
                <path id="Trazado_1045584" data-name="Trazado 1045584" d="M262.622,218.692l-4.115-5.441-4.36,5.764a.8.8,0,0,1-.3.249l-.055.024a1.142,1.142,0,0,1-.111.032l-.071.012a.893.893,0,0,1-.205,0l-.071-.012a1.1,1.1,0,0,1-.111-.032l-.055-.024a.823.823,0,0,1-.308-.249l-4.356-5.764-4.277,5.65a.766.766,0,0,1-.241.3.812.812,0,0,1-1.132-.158l-4.36-5.765-4.324,5.713-.035.051c-.02.027-.044.051-.063.075a.726.726,0,0,1-.059.055c-.008,0-.012.012-.02.016l-.016.012a.772.772,0,0,1-.134.083.8.8,0,0,1-.162.055s-.008,0-.012,0a.59.59,0,0,1-.083.016.825.825,0,0,1-.2,0,.61.61,0,0,1-.075-.016s-.012,0-.016,0a.584.584,0,0,1-.079-.02.469.469,0,0,1-.1-.047.325.325,0,0,1-.063-.035L233,219.2s0,0,0,0a.409.409,0,0,1-.043-.035.494.494,0,0,1-.047-.044c-.02-.024-.043-.047-.063-.075a.62.62,0,0,1-.036-.051l-4.324-5.713-.765,1.01.765-3.133c0-.008,0-.02.008-.028a.831.831,0,0,1,.639.32l4.36,5.764,4.356-5.764a.812.812,0,0,1,.647-.32.8.8,0,0,1,.643.32l4.352,5.753,4.368-5.78a.811.811,0,0,1,1.29,0l4.36,5.768,4.36-5.768a.811.811,0,0,1,1.29,0l3.381,4.478a18.374,18.374,0,0,1,.087,2.794" transform="translate(-165.72 -153.628)" fill="#fff"/>
                <path id="Trazado_1045585" data-name="Trazado 1045585" d="M346.225,218.935a9.559,9.559,0,0,1-4.241.623l-1.243-8.582,1.618-2.853a19.464,19.464,0,0,0,2.379-12.093l-1.408-10.917c-.032-.229-.067-.454-.111-.679l8.534,21.934a9.74,9.74,0,0,1-5.528,12.567" transform="translate(-247.973 -134.222)" fill="#7ecfe7"/>
                <path id="Trazado_1045586" data-name="Trazado 1045586" d="M288.149,115.339l-10.914.852-.43-1.065-.324-.02c.1-.02.2-.044.3-.067a8.9,8.9,0,0,0,6.893-8.471c1.7,1.164,4.723,5.165,4.47,8.771" transform="translate(-201.209 -77.555)" fill="#7351fa"/>
                <path id="Trazado_1045587" data-name="Trazado 1045587" d="M152.556,50.006a.244.244,0,0,1-.243-.236c-.319-9.383,3.78-13.713,7.4-17.532,2.135-2.255,4.152-4.384,4.849-7.272h0c0-.007,0-.014,0-.021.061-.243.111-.5.149-.754,0-.015.014-.068.018-.082a15.452,15.452,0,0,1,25.786-7.7l.051.051c.037.036.075.073.112.113a15.454,15.454,0,0,1,2.642,18.449.241.241,0,0,1-.264.12.243.243,0,0,1-.192-.218l-.92-11.132h-.208c-7.273,0-13.861-3.431-15.621-4.428,1.4,8.835-4.566,11.527-4.628,11.554a.243.243,0,0,1-.271-.054,4.526,4.526,0,0,0-2.6-1.321,4.49,4.49,0,1,0-.255,8.922,4.729,4.729,0,0,0,.869-.157.246.246,0,0,1,.239.063c.035.035.073.07.111.1a.267.267,0,0,1,.085.164l.02.217.789,9.542a.242.242,0,0,1-.057.178.245.245,0,0,1-.167.085l-17.68,1.342h-.018M165.032,25.08h0c-.728,3.014-2.788,5.19-4.969,7.493-3.518,3.715-7.5,7.922-7.271,16.927l17.181-1.3-.776-9.372a5.278,5.278,0,0,1-.79.129,4.977,4.977,0,1,1-.822-9.919,4.875,4.875,0,0,1,1.1.029,5.018,5.018,0,0,1,2.754,1.34c.924-.47,5.626-3.3,4.106-11.467a.244.244,0,0,1,.369-.251c.076.048,7.773,4.778,16.248,4.619a.233.233,0,0,1,.248.224l.869,10.517a14.972,14.972,0,0,0-2.953-17.13c-.039-.042-.071-.072-.1-.1l-.053-.052A14.967,14.967,0,0,0,165.2,24.24c0,.009-.013.057-.015.065a6.987,6.987,0,0,1-.147.753c0,.008,0,.016-.005.023M194.971,28.6h0Z" transform="translate(-110.833 -8.797)" fill="#29275f"/>
                <path id="Trazado_1045588" data-name="Trazado 1045588" d="M207.685,72.3a15.273,15.273,0,0,1-8.365-2.424c-.194-.131-.291-.212-.291-.212a.247.247,0,0,1-.087-.167l-1.087-13.14a5.324,5.324,0,0,1-.792.13,4.977,4.977,0,1,1,.281-9.89,5.018,5.018,0,0,1,2.754,1.34c.924-.47,5.626-3.3,4.106-11.467a.244.244,0,0,1,.369-.251c.076.048,7.765,4.778,16.248,4.619a.233.233,0,0,1,.247.224l1.1,13.36a9.12,9.12,0,0,1-7.054,9.632c-.124.029-.216.05-.311.069a9.671,9.671,0,0,1-.961.13h0l-5.1.421,8.087,3.121a.244.244,0,0,1,.13.337c-.074.147-1.879,3.612-7.939,4.114-.459.038-.907.056-1.34.056m-8.267-2.951c.042.031.1.073.174.123a14.921,14.921,0,0,0,9.392,2.287c4.89-.406,6.889-2.846,7.4-3.616l-8.807-3.4a.244.244,0,0,1,.068-.47l6.158-.509a8.968,8.968,0,0,0,.91-.123c.089-.017.176-.038.265-.058a8.715,8.715,0,0,0,6.734-8.245,8.4,8.4,0,0,0-.027-.88L220.6,41.328h-.208c-7.273,0-13.861-3.432-15.621-4.429,1.4,8.835-4.567,11.527-4.628,11.554a.244.244,0,0,1-.272-.054,4.524,4.524,0,0,0-2.6-1.321A4.49,4.49,0,1,0,197.022,56a4.706,4.706,0,0,0,.869-.157l.1-.032a.245.245,0,0,1,.212.027.242.242,0,0,1,.108.185l.009.116a.22.22,0,0,1,.007.043l.016.213Zm14.408-5.341h0Z" transform="translate(-139.489 -26.331)" fill="#29275f"/>
                <path id="Trazado_1045589" data-name="Trazado 1045589" d="M179.783,18.544q-.158,0-.318-.011a4.537,4.537,0,1,1,.318.011m-.009-8.583a4.056,4.056,0,1,0,.288.01q-.145-.01-.288-.01m4.287,4.347h0Z" transform="translate(-127.534 -6.893)" fill="#29275f"/>
                <path id="Trazado_1045590" data-name="Trazado 1045590" d="M258.852,141.66a.245.245,0,0,1-.088-.016l-9.079-3.5a.244.244,0,0,1,.068-.47l6.159-.509a9.067,9.067,0,0,0,.909-.123.218.218,0,0,1,.061,0l.323.019a.243.243,0,0,1,.211.152l1.662,4.12a.244.244,0,0,1-.226.335m-8-3.592,7.564,2.92-1.394-3.456-.139-.009c-.286.053-.59.094-.93.124Z" transform="translate(-181.594 -99.725)" fill="#29275f"/>
                <path id="Trazado_1045591" data-name="Trazado 1045591" d="M145.784,219.044c-.179,0-.357,0-.537-.014a10.405,10.405,0,0,1-1.808-.271,9.977,9.977,0,0,1-7.309-12.025l6.391-26.23a9.861,9.861,0,0,1,3.008-5.02.3.3,0,0,1,.032-.03.231.231,0,0,1,.334,0,.256.256,0,0,1,0,.355h0a.216.216,0,0,1-.03.032,9.373,9.373,0,0,0-2.869,4.78l-6.392,26.23a9.49,9.49,0,0,0,6.951,11.436,9.9,9.9,0,0,0,1.72.258,9.5,9.5,0,0,0,9.715-7.213l6.4-26.226a9.485,9.485,0,0,0,.269-2.227.244.244,0,0,1,.487,0,9.943,9.943,0,0,1-.283,2.342l-6.4,26.227a9.975,9.975,0,0,1-9.68,7.6" transform="translate(-98.86 -127.634)" fill="#29275f"/>
                <path id="Trazado_1045592" data-name="Trazado 1045592" d="M214.42,249H162.429a.243.243,0,0,1-.239-.289l2-10.59a.237.237,0,0,1,.253-.2,9.507,9.507,0,0,0,9.717-7.213l6.4-26.226a9.47,9.47,0,0,0,.269-2.226.244.244,0,1,1,.487,0,9.969,9.969,0,0,1-.283,2.341l-6.4,26.227a9.967,9.967,0,0,1-10,7.593l-1.907,10.093h51.415l-3.582-24.709a.243.243,0,0,1,.029-.155L212.2,220.8a19.337,19.337,0,0,0,2.349-11.942.244.244,0,1,1,.484-.062,19.827,19.827,0,0,1-2.409,12.244l-1.576,2.78,3.61,24.9a.243.243,0,0,1-.057.194.245.245,0,0,1-.184.084" transform="translate(-118.03 -147.018)" fill="#29275f"/>
                <path id="Trazado_1045593" data-name="Trazado 1045593" d="M219.846,157.661a.242.242,0,0,1-.236-.179l-1.246-3.2a9.392,9.392,0,0,0-.593-1.247l0-.006a12.009,12.009,0,0,0-5.151-4.254,11.8,11.8,0,0,0-6.255-.871l-4.4.586.127.317a.243.243,0,0,1-.008.2c-.074.147-1.879,3.612-7.939,4.114a15.439,15.439,0,0,1-9.628-2.317l-5.622.745a11.881,11.881,0,0,0-7.249,3.828.244.244,0,0,1-.362-.327,12.372,12.372,0,0,1,7.547-3.984l5.713-.757a.239.239,0,0,1,.169.04,14.914,14.914,0,0,0,9.392,2.287c5.229-.434,7.162-3.214,7.491-3.757l-.2-.5a.244.244,0,0,1,.194-.333l4.715-.627a12.3,12.3,0,0,1,6.513.906,12.5,12.5,0,0,1,5.352,4.415.247.247,0,0,1,.021.031h0a9.94,9.94,0,0,1,.635,1.331l1.255,3.224a.245.245,0,0,1-.227.334" transform="translate(-124.6 -107.206)" fill="#29275f"/>
                <path id="Trazado_1045594" data-name="Trazado 1045594" d="M276.585,115.783a.244.244,0,0,1-.226-.152l-.372-.922-.17-.011a.244.244,0,0,1-.032-.482c.09-.017.176-.038.265-.058a8.715,8.715,0,0,0,6.734-8.245.244.244,0,0,1,.381-.2c1.783,1.22,4.836,5.268,4.576,8.989a.244.244,0,0,1-.224.226l-10.913.852h-.019m-.132-1.222.291.721,10.522-.821c.108-3.191-2.365-6.7-4.015-8.07a9.082,9.082,0,0,1-6.8,8.17m11.046.126h0Z" transform="translate(-200.558 -76.903)" fill="#29275f"/>
                <path id="Trazado_1045595" data-name="Trazado 1045595" d="M204.578,87.821h0a.244.244,0,0,1-.241-.246c.035-4.032-2.879-5.1-2.908-5.113a.244.244,0,0,1,.162-.46c.033.011,3.271,1.2,3.234,5.577a.244.244,0,0,1-.244.242" transform="translate(-146.469 -59.667)" fill="#29275f"/>
                <path id="Trazado_1045596" data-name="Trazado 1045596" d="M249.629,78.909a1.705,1.705,0,1,1-1.8-1.6,1.705,1.705,0,0,1,1.8,1.6" transform="translate(-179.187 -56.256)" fill="#29275f"/>
                <path id="Trazado_1045597" data-name="Trazado 1045597" d="M282.794,77.015a1.705,1.705,0,1,1-1.8-1.6,1.705,1.705,0,0,1,1.8,1.6" transform="translate(-203.323 -54.878)" fill="#29275f"/>
                <path id="Trazado_1045598" data-name="Trazado 1045598" d="M278.345,62.473c-.512-.013-1.156-.042-1.585-.076a1.218,1.218,0,0,0-1.406.909,1.2,1.2,0,0,0,.909,1.406c.739.059,1.477.106,2.218.125a1.189,1.189,0,0,0,1.114-1.249,1.214,1.214,0,0,0-1.249-1.114" transform="translate(-200.376 -45.405)" fill="#29275f"/>
                <path id="Trazado_1045599" data-name="Trazado 1045599" d="M245.116,65.267c-.508.065-1.149.133-1.579.164a1.218,1.218,0,0,0-1.253,1.111c-.008.571.45,1.3,1.111,1.253.739-.053,1.476-.119,2.212-.212a1.189,1.189,0,0,0,.912-1.4,1.214,1.214,0,0,0-1.4-.912" transform="translate(-176.322 -47.488)" fill="#29275f"/>
                <path id="Trazado_1045600" data-name="Trazado 1045600" d="M267.791,85.52a.244.244,0,0,1-.1-.468l2.586-1.1L267.993,80.1a.244.244,0,0,1,.419-.249l2.431,4.092a.243.243,0,0,1-.114.349l-2.842,1.2a.242.242,0,0,1-.1.02" transform="translate(-194.706 -58.027)" fill="#29275f"/>
                <path id="Trazado_1045601" data-name="Trazado 1045601" d="M254.606,105.094a4.028,4.028,0,0,1-1.159-.187,2.9,2.9,0,0,1-2.034-1.582,2.788,2.788,0,0,1,.219-2.216.243.243,0,0,1,.284-.11l5.155,1.618a.244.244,0,0,1,.165.283,3.052,3.052,0,0,1-1.3,1.846,2.558,2.558,0,0,1-1.326.347m-2.636-3.566a2.2,2.2,0,0,0-.1,1.622,2.452,2.452,0,0,0,1.72,1.291,2.562,2.562,0,0,0,2.093-.111,2.492,2.492,0,0,0,1.015-1.319Z" transform="translate(-182.856 -73.495)" fill="#29275f"/>
                <path id="Trazado_1045602" data-name="Trazado 1045602" d="M238.681,70.832c-.081,0-.161,0-.243-.007a4.385,4.385,0,1,1,.243.007m-.008-8.293a3.9,3.9,0,0,0-.209,7.8,3.9,3.9,0,1,0,.427-7.794c-.073,0-.146-.006-.218-.006m4.145,4.129h0Z" transform="translate(-170.502 -45.157)" fill="#29275f"/>
                <path id="Trazado_1045603" data-name="Trazado 1045603" d="M274.933,69.3c-.081,0-.161,0-.243-.007a4.385,4.385,0,1,1,.243.007m-.005-8.293a3.9,3.9,0,1,0,.216.006q-.109-.006-.216-.006m4.143,4.13h0Z" transform="translate(-196.885 -44.041)" fill="#29275f"/>
                <path id="Trazado_1045604" data-name="Trazado 1045604" d="M264.953,76.531a.244.244,0,0,1-.01-.487l1.578-.067a.248.248,0,0,1,.254.233.244.244,0,0,1-.233.254l-1.578.067Z" transform="translate(-192.641 -55.292)" fill="#29275f"/>
                <path id="Trazado_1045605" data-name="Trazado 1045605" d="M221.788,77.783a.244.244,0,0,1-.057-.481l3.476-.841a.244.244,0,0,1,.115.474l-3.475.842a.28.28,0,0,1-.058.007" transform="translate(-161.228 -55.64)" fill="#29275f"/>
                <path id="Trazado_1045606" data-name="Trazado 1045606" d="M339.284,216.793q-.4,0-.8-.033a.243.243,0,0,1-.221-.208l-1.243-8.581a.243.243,0,0,1,.029-.155l1.618-2.853a19.335,19.335,0,0,0,2.349-11.942A34.609,34.609,0,0,0,336,180.64a.244.244,0,0,1,.4-.279,35.183,35.183,0,0,1,5.1,12.588A19.834,19.834,0,0,1,339.09,205.2l-1.576,2.78,1.2,8.305a9.283,9.283,0,0,0,3.94-.622,9.479,9.479,0,0,0,5.389-12.252l-8.534-21.933a.244.244,0,1,1,.454-.177l8.534,21.933a9.967,9.967,0,0,1-5.666,12.883,9.763,9.763,0,0,1-3.549.672" transform="translate(-244.492 -131.181)" fill="#29275f"/>
                <path id="Trazado_1045607" data-name="Trazado 1045607" d="M363.964,137.568a.243.243,0,0,1-.208-.117,12.394,12.394,0,0,1-.93-1.87q-.46.019-.92,0a14.145,14.145,0,0,1-.927,1.867.241.241,0,0,1-.258.116,8.633,8.633,0,0,1-3.059-1.266.244.244,0,0,1-.1-.265,13.469,13.469,0,0,1,.673-1.978,5.988,5.988,0,0,1-.653-.653,13.026,13.026,0,0,1-1.98.661.247.247,0,0,1-.259-.1,8.4,8.4,0,0,1-1.268-3.045.244.244,0,0,1,.116-.258,14.093,14.093,0,0,1,1.864-.925c-.011-.155-.019-.308-.019-.462s.008-.307.019-.461a14.1,14.1,0,0,1-1.864-.925.244.244,0,0,1-.116-.257,8.42,8.42,0,0,1,1.267-3.045.244.244,0,0,1,.259-.1,12.051,12.051,0,0,1,1.982.659,5.975,5.975,0,0,1,.651-.651,13.454,13.454,0,0,1-.673-1.977.244.244,0,0,1,.1-.265,8.629,8.629,0,0,1,3.059-1.266.242.242,0,0,1,.258.115,14.13,14.13,0,0,1,.927,1.867q.46-.018.921,0a14.112,14.112,0,0,1,.927-1.867.24.24,0,0,1,.257-.115,8.409,8.409,0,0,1,3.044,1.267.244.244,0,0,1,.1.259,13,13,0,0,1-.661,1.98,5.973,5.973,0,0,1,.652.652,11.68,11.68,0,0,1,1.984-.658.245.245,0,0,1,.259.1,8.429,8.429,0,0,1,1.267,3.045.244.244,0,0,1-.116.257,13.435,13.435,0,0,1-1.872.924c.012.158.012.312.012.463s0,.306-.012.463a11.938,11.938,0,0,1,1.876.927.243.243,0,0,1,.112.255,8.421,8.421,0,0,1-1.267,3.045.248.248,0,0,1-.259.1,12.622,12.622,0,0,1-1.982-.66,6.1,6.1,0,0,1-.655.655,12.987,12.987,0,0,1,.661,1.98.244.244,0,0,1-.1.259,8.419,8.419,0,0,1-3.044,1.267.23.23,0,0,1-.047,0m-.975-2.484a.243.243,0,0,1,.228.157,11.983,11.983,0,0,0,.867,1.809,7.94,7.94,0,0,0,2.557-1.065,13.2,13.2,0,0,0-.665-1.9.244.244,0,0,1,.072-.286,5.486,5.486,0,0,0,.841-.84.245.245,0,0,1,.288-.071,12.423,12.423,0,0,0,1.9.664,7.943,7.943,0,0,0,1.065-2.558,11.488,11.488,0,0,0-1.824-.865.244.244,0,0,1-.156-.266,5.928,5.928,0,0,0,0-1.172.244.244,0,0,1,.156-.265,12.344,12.344,0,0,0,1.823-.868A7.942,7.942,0,0,0,369.079,125a10.905,10.905,0,0,0-1.9.662.24.24,0,0,1-.293-.068,5.486,5.486,0,0,0-.841-.84.244.244,0,0,1-.072-.287,13.193,13.193,0,0,0,.665-1.9,7.925,7.925,0,0,0-2.555-1.065,13.071,13.071,0,0,0-.87,1.809.242.242,0,0,1-.246.157c-.2-.016-.414-.015-.6-.015s-.4,0-.6.015a.244.244,0,0,1-.246-.157,13.013,13.013,0,0,0-.869-1.809,8.148,8.148,0,0,0-2.568,1.064,12.632,12.632,0,0,0,.675,1.9.244.244,0,0,1-.07.291,5.442,5.442,0,0,0-.84.84.244.244,0,0,1-.291.069,11.533,11.533,0,0,0-1.9-.663,7.945,7.945,0,0,0-1.065,2.555,13.058,13.058,0,0,0,1.809.869.243.243,0,0,1,.156.246c-.015.2-.031.4-.031.6s.016.4.031.6a.245.245,0,0,1-.156.247,13.065,13.065,0,0,0-1.809.87,7.935,7.935,0,0,0,1.065,2.555,13.155,13.155,0,0,0,1.9-.665.244.244,0,0,1,.286.072,5.442,5.442,0,0,0,.84.84.244.244,0,0,1,.07.291,12.625,12.625,0,0,0-.675,1.9,8.176,8.176,0,0,0,2.568,1.064,13.087,13.087,0,0,0,.869-1.809.241.241,0,0,1,.246-.157c.2.016.4.018.6.015s.4,0,.6-.015h.018" transform="translate(-257.673 -88.04)" fill="#29275f"/>
                <path id="Trazado_1045608" data-name="Trazado 1045608" d="M378.027,141.042a3.893,3.893,0,1,1-3.893-3.893,3.893,3.893,0,0,1,3.893,3.893" transform="translate(-269.442 -99.81)" fill="#7351fa"/>
                <path id="Trazado_1045609" data-name="Trazado 1045609" d="M142.074,293.577v2.492H.9v-2.492A6.412,6.412,0,0,1,7.3,287.164H135.66a6.412,6.412,0,0,1,6.413,6.413" transform="translate(-0.651 -208.983)" fill="#7ecfe7"/>
                <rect id="Rectángulo_425076" data-name="Rectángulo 425076" width="141.179" height="54.401" transform="translate(0.244 87.087)" fill="#fff"/>
                <path id="Trazado_1045610" data-name="Trazado 1045610" d="M.487,349.818V292.925a6.174,6.174,0,0,1,6.165-6.17H135.009a6.176,6.176,0,0,1,6.17,6.17v56.893h.487V292.925a6.665,6.665,0,0,0-6.657-6.657H6.653A6.663,6.663,0,0,0,0,292.925v56.893Z" transform="translate(0 -208.331)" fill="#29275f"/>
                <path id="Trazado_1045611" data-name="Trazado 1045611" d="M336.189,319.467H267.874a.244.244,0,1,1,0-.487h68.315a.244.244,0,1,1,0,.487" transform="translate(-194.767 -232.137)" fill="#29275f"/>
                <path id="Trazado_1045612" data-name="Trazado 1045612" d="M42.761,319.467H.244a.244.244,0,1,1,0-.487H42.761a.244.244,0,1,1,0,.487" transform="translate(0 -232.137)" fill="#29275f"/>
                <path id="Trazado_1045613" data-name="Trazado 1045613" d="M254.386,298.125a2.018,2.018,0,1,1-2.018-2.018,2.018,2.018,0,0,1,2.018,2.018" transform="translate(-182.191 -215.491)" fill="#7351fa"/>
                <path id="Trazado_1045614" data-name="Trazado 1045614" d="M323.23,299.735a2.262,2.262,0,1,1,2.262-2.262,2.264,2.264,0,0,1-2.262,2.262m0-4.036A1.774,1.774,0,1,0,325,297.474a1.776,1.776,0,0,0-1.774-1.774" transform="translate(-233.584 -214.84)" fill="#29275f"/>
                <path id="Trazado_1045615" data-name="Trazado 1045615" d="M289.465,299.062a2.018,2.018,0,1,1-2.018-2.018,2.018,2.018,0,0,1,2.018,2.018" transform="translate(-207.72 -216.173)" fill="#ecb85e"/>
                <path id="Trazado_1045616" data-name="Trazado 1045616" d="M355.481,272.309a1.925,1.925,0,0,0,3.837.332l-.233,2.954a1.925,1.925,0,0,0,3.837.317l.008-.24a1.922,1.922,0,0,0,3.832.3l.019-.248a1.925,1.925,0,0,0,3.8-.237l.072-.87a1.924,1.924,0,0,0,3.837.305l.332-4.027.007-.084c0-.054.008-.1.008-.153a.464.464,0,0,0,0-.073,1,1,0,0,0,0-.111,3.749,3.749,0,0,0-3.436-3.627l-11.62-.958a3.748,3.748,0,0,0-4.046,3.428l-.08.951Z" transform="translate(-258.695 -193.489)" fill="#fff"/>
                <path id="Trazado_1045617" data-name="Trazado 1045617" d="M364.192,277.327c-.058,0-.116,0-.174-.007a2.176,2.176,0,0,1-1.759-1.193,2.168,2.168,0,0,1-4.069-1.2l.127-1.617a2.166,2.166,0,0,1-3.731-1.669l.248-2.993a3.992,3.992,0,0,1,4.31-3.65l11.62.958a3.987,3.987,0,0,1,3.659,3.862,1.1,1.1,0,0,1,0,.118.265.265,0,0,1,0,.072c0,.052,0,.1-.007.159l-.009.1-.332,4.025a2.166,2.166,0,0,1-3.987.987,2.16,2.16,0,0,1-2.262,1.561,2.183,2.183,0,0,1-1.6-.935,2.174,2.174,0,0,1-2.039,1.427m-1.676-2.15a1.678,1.678,0,0,0,3.351.12l.019-.247a.244.244,0,0,1,.481-.034,1.7,1.7,0,0,0,1.507,1.332,1.681,1.681,0,0,0,1.814-1.537l.073-.87a.244.244,0,0,1,.486.039,1.686,1.686,0,0,0,1.537,1.8,1.653,1.653,0,0,0,1.223-.4,1.672,1.672,0,0,0,.591-1.143l.34-4.113c0-.049.007-.09.007-.131,0-.013,0-.059,0-.072a.843.843,0,0,0,0-.087,3.506,3.506,0,0,0-3.213-3.407l-11.62-.958a3.51,3.51,0,0,0-3.784,3.2l-.248,2.993h0a1.682,1.682,0,0,0,3.351.289.244.244,0,0,1,.486.041l-.233,2.955a1.689,1.689,0,0,0,1.537,1.815,1.685,1.685,0,0,0,1.814-1.538l0-.062c0-.058,0-.116.006-.175a.239.239,0,0,1,.256-.225.243.243,0,0,1,.231.251Zm-7.687-3.521h0Z" transform="translate(-258.044 -192.837)" fill="#29275f"/>
                <path id="Trazado_1045618" data-name="Trazado 1045618" d="M410.6,287.2h-.017a.244.244,0,0,1-.226-.26l.3-4.317a.241.241,0,0,1,.26-.226.244.244,0,0,1,.226.26l-.3,4.317a.244.244,0,0,1-.243.227" transform="translate(-298.634 -205.51)" fill="#29275f"/>
                <path id="Trazado_1045619" data-name="Trazado 1045619" d="M396.351,287.894h-.027a.244.244,0,0,1-.215-.27l.572-5.14a.248.248,0,0,1,.269-.215.244.244,0,0,1,.215.27l-.572,5.141a.244.244,0,0,1-.242.216" transform="translate(-288.265 -205.418)" fill="#29275f"/>
                <path id="Trazado_1045620" data-name="Trazado 1045620" d="M382.2,286.9l-.032,0a.244.244,0,0,1-.21-.273l.71-5.445a.242.242,0,0,1,.273-.21.244.244,0,0,1,.21.273l-.71,5.445a.244.244,0,0,1-.241.212" transform="translate(-277.969 -204.471)" fill="#29275f"/>
                <path id="Trazado_1045621" data-name="Trazado 1045621" d="M368.939,282.924l-.035,0a.244.244,0,0,1-.207-.276l.395-2.767a.248.248,0,0,1,.276-.207.244.244,0,0,1,.207.276l-.395,2.767a.243.243,0,0,1-.241.209" transform="translate(-268.316 -203.529)" fill="#29275f"/>
                <path id="Trazado_1045622" data-name="Trazado 1045622" d="M140.858,280.29a1.925,1.925,0,0,1-3.837.332l.233,2.954a1.925,1.925,0,0,1-3.837.317l-.008-.24a1.922,1.922,0,0,1-3.833.3l-.019-.248a1.925,1.925,0,0,1-3.8-.237l-.072-.87a1.924,1.924,0,0,1-3.836.305l-.332-4.027-.008-.084c0-.054-.008-.1-.008-.153a.465.465,0,0,1,0-.073,1.072,1.072,0,0,1,0-.111,3.749,3.749,0,0,1,3.436-3.627l11.62-.958a3.748,3.748,0,0,1,4.046,3.428l.08.951Z" transform="translate(-88.421 -199.298)" fill="#fff"/>
                <path id="Trazado_1045623" data-name="Trazado 1045623" d="M130.843,285.309a2.179,2.179,0,0,1-2.038-1.427,2.163,2.163,0,0,1-3.866-.626,2.166,2.166,0,0,1-3.986-.986l-.34-4.11c-.005-.07-.009-.122-.009-.174a.742.742,0,0,1,.007-.112.385.385,0,0,1,0-.1,3.983,3.983,0,0,1,3.658-3.845l11.62-.958a3.992,3.992,0,0,1,4.309,3.651l.248,2.993a2.166,2.166,0,0,1-3.731,1.67l.128,1.617a2.168,2.168,0,0,1-4.07,1.206,2.173,2.173,0,0,1-1.757,1.19q-.088.007-.176.007m-1.937-2.5h.017a.244.244,0,0,1,.226.225l.019.248a1.66,1.66,0,0,0,.587,1.139,1.676,1.676,0,0,0,2.764-1.268l0-.142a.244.244,0,0,1,.23-.251.237.237,0,0,1,.256.226q.006.083.006.165l0,.085a1.681,1.681,0,0,0,3.35-.289l-.234-2.956a.244.244,0,0,1,.486-.041,1.694,1.694,0,0,0,1.814,1.524,1.689,1.689,0,0,0,1.537-1.814h0l-.248-2.992a3.505,3.505,0,0,0-3.783-3.206l-11.62.958a3.5,3.5,0,0,0-3.212,3.391,1.022,1.022,0,0,0,0,.1l0,.072c0,.041,0,.082.007.126l.34,4.118a1.681,1.681,0,0,0,3.351-.267.244.244,0,0,1,.486-.039l.072.87a1.688,1.688,0,0,0,1.814,1.537A1.7,1.7,0,0,0,128.668,283a.244.244,0,0,1,.238-.192" transform="translate(-87.769 -198.647)" fill="#29275f"/>
                <path id="Trazado_1045624" data-name="Trazado 1045624" d="M135.394,295.179a.244.244,0,0,1-.243-.227l-.3-4.317a.244.244,0,0,1,.487-.034l.3,4.317a.244.244,0,0,1-.226.26h-.017" transform="translate(-98.136 -211.319)" fill="#29275f"/>
                <path id="Trazado_1045625" data-name="Trazado 1045625" d="M148.917,295.875a.244.244,0,0,1-.242-.216l-.572-5.141a.244.244,0,1,1,.485-.054l.572,5.14a.244.244,0,0,1-.215.27h-.027" transform="translate(-107.78 -211.226)" fill="#29275f"/>
                <path id="Trazado_1045626" data-name="Trazado 1045626" d="M162.7,294.879a.244.244,0,0,1-.241-.212l-.71-5.444a.244.244,0,1,1,.483-.063l.71,5.444a.244.244,0,0,1-.21.273l-.032,0" transform="translate(-117.708 -210.28)" fill="#29275f"/>
                <path id="Trazado_1045627" data-name="Trazado 1045627" d="M176.8,290.9a.243.243,0,0,1-.241-.209l-.4-2.767a.244.244,0,0,1,.483-.069l.395,2.767a.243.243,0,0,1-.207.275l-.035,0" transform="translate(-128.204 -209.337)" fill="#29275f"/>
                <path id="Trazado_1045628" data-name="Trazado 1045628" d="M442.914,252.78a.243.243,0,0,1-.244-.244v-2.671a.244.244,0,1,1,.487,0v2.671a.243.243,0,0,1-.244.244" transform="translate(-322.152 -181.662)" fill="#29275f"/>
                <path id="Trazado_1045629" data-name="Trazado 1045629" d="M440.681,255.014H438.01a.244.244,0,0,1,0-.487h2.671a.244.244,0,1,1,0,.487" transform="translate(-318.583 -185.231)" fill="#29275f"/>
                <path id="Trazado_1045630" data-name="Trazado 1045630" d="M439.917,227.659a.892.892,0,0,0,0,1.782.892.892,0,0,0,0-1.782" transform="translate(-319.521 -165.678)" fill="#29275f"/>
                <path id="Trazado_1045631" data-name="Trazado 1045631" d="M455.977,237.61a1.486,1.486,0,0,0,0,2.971,1.486,1.486,0,0,0,0-2.971" transform="translate(-330.791 -172.92)" fill="#29275f"/>
                <path id="Trazado_1045632" data-name="Trazado 1045632" d="M101.844,119.637a.892.892,0,0,0,0,1.782.892.892,0,0,0,0-1.782" transform="translate(-73.49 -87.065)" fill="#29275f"/>
                <path id="Trazado_1045633" data-name="Trazado 1045633" d="M85.144,96.828a1.486,1.486,0,0,0,0,2.971,1.486,1.486,0,0,0,0-2.971" transform="translate(-60.919 -70.466)" fill="#29275f"/>
                <path id="Trazado_1045634" data-name="Trazado 1045634" d="M102.13,82.875a1.486,1.486,0,0,0,0,2.971,1.486,1.486,0,0,0,0-2.971" transform="translate(-73.28 -60.312)" fill="#29275f"/>
                <path id="Trazado_1045635" data-name="Trazado 1045635" d="M341.57,98.516a.243.243,0,0,1-.244-.244V95.6a.244.244,0,0,1,.487,0v2.67a.243.243,0,0,1-.244.244" transform="translate(-248.399 -69.397)" fill="#29275f"/>
                <path id="Trazado_1045636" data-name="Trazado 1045636" d="M339.335,100.749h-2.67a.244.244,0,0,1,0-.487h2.67a.244.244,0,0,1,0,.487" transform="translate(-244.829 -72.965)" fill="#29275f"/>
                <path id="Trazado_1045637" data-name="Trazado 1045637" d="M338.572,73.394a.892.892,0,0,0,0,1.782.892.892,0,0,0,0-1.782" transform="translate(-245.768 -53.412)" fill="#29275f"/>
                <path id="Trazado_1045638" data-name="Trazado 1045638" d="M354.632,83.345a1.486,1.486,0,0,0,0,2.971,1.486,1.486,0,0,0,0-2.971" transform="translate(-257.038 -60.654)" fill="#29275f"/>
              </g>
            </g>
          </g>
        </g>
      </g>
    </g>
  </g>
</svg>
