<svg id="Grupo_1186038" data-name="Grupo 1186038" xmlns="http://www.w3.org/2000/svg" xmlns:xlink="http://www.w3.org/1999/xlink" width="92.399" height="92.396" viewBox="0 0 92.399 92.396">
  <defs>
    <clipPath id="clip-path">
      <rect id="Rectángulo_425729" data-name="Rectángulo 425729" width="92.399" height="92.396" fill="#7351fa"/>
    </clipPath>
  </defs>
  <g id="Grupo_1186037" data-name="Grupo 1186037" clip-path="url(#clip-path)">
    <path id="Trazado_1055683" data-name="Trazado 1055683" d="M280.439,0a6.369,6.369,0,0,0,1.736.339c7.843.9,16.211,1.345,23.951,2.571.991.157,1.921.17,2.378,1.23L311.669,32.2c.163,1.4-2.9,2.9-2.9,3.942l2.857,13.4a5.227,5.227,0,0,1-7.742,5.217c-3.571-1.984-2.674-6.96-3.6-10.38-1.383,1.052-1.065,1.829-2.524.361-.278-.28-.971-.979-.883-1.317.133-.506,2.335-2.111,2.7-2.734.435-.746-.593-3.375-.375-4.429l-4.693,4.607c-.439.25-1.108-.488-1.44-.818-.17-.169-.917-.989-.889-1.148.4-.644,3.242-2.974,3.241-3.453l-.091-.267L276.466,16.321l-.267-.091-.369.176-6.037,6.066c-.3.154-1.01-.569-1.262-.823-.365-.368-1.193-1.1-.732-1.542l7.4-7.4c.96-.682,1.484-.492,2.357.183,4.381,4.489,8.91,8.835,13.347,13.265,2.585,2.581,5.042,5.306,7.756,7.758l-2.16-15.57c-.045-.18-1-.484-1.266-.668a4.685,4.685,0,0,1,3.428-8.48c4.465.645,5.217,7.333.887,8.956l2.9,19.551c.848-.994,5.786-5.224,5.947-6.047a6.41,6.41,0,0,0,0-1.078L305.672,6.25c-.057-.25-.224-.25-.43-.292-1.865-.382-3.964-.329-5.859-.546-3.9-.447-7.883-1.031-11.819-1.442-2.566-.268-5.157-.561-7.72-.685l-10.051,9.986c-.3.154-1.01-.569-1.262-.823-.33-.332-1.068-1-.818-1.44L278.815,0Zm15.877,13.532a1.469,1.469,0,0,0,2.706,1.082c1.441-2.152-2.417-3.326-2.706-1.082m9.922,25.079c-.313-.081-.361.13-.542.269a20.481,20.481,0,0,0-2.689,2.873l1.37,8.913a2.134,2.134,0,0,0,4.213-.59Z" transform="translate(-219.276 0.001)" fill="#7351fa"/>
    <path id="Trazado_1055684" data-name="Trazado 1055684" d="M39.693,0a8.291,8.291,0,0,1,5.86,4.695c1.1,2.726.614,7.576.635,10.641s.034,6.14,0,9.2c-.03,2.672.375,6.065-.9,8.48-.936,1.77-4.019,3.969-6.044,3.969H29.589c.11,1.731,1.263,4.44,1.233,6.049-.025,1.3-1.114,1.841-2.308,1.43-2.073-1.4-4.036-2.956-6.082-4.389-.2-.143-.513-.142-.6-.2-.742-.517-3.157-2.744-3.883-2.883-4.4-.494-11.186,1.241-14.865-1.553C1.452,34.2.79,32.667,0,30.852V6.134c.527-.79.667-1.673,1.188-2.511A9,9,0,0,1,6.315,0ZM4.51,32.476a4.333,4.333,0,0,0,2.979,1.442c3.647.36,7.8-.3,11.5.045l7.89,5.55c.146-1.336-1.659-4.933.188-5.489,3.751-.461,7.925.26,11.629-.106a4.8,4.8,0,0,0,4.42-4.24c-.461-7.169.621-15.119.008-22.2a4.7,4.7,0,0,0-2.532-3.873,4.5,4.5,0,0,0-1.888-.548H7.481a4.753,4.753,0,0,0-4.42,4.42c-.612,7.079.472,15.028.005,22.2a4.461,4.461,0,0,0,1.445,2.8" fill="#7351fa"/>
    <path id="Trazado_1055685" data-name="Trazado 1055685" d="M20.027,225.727c.366.368,1.193,1.1.732,1.542L3.8,244.245c2.531,2.947,5.528,5.593,8.286,8.365,6.705,6.737,13.347,13.543,20.142,20.194l6.562-6.4c.3-.154,1.01.569,1.261.823.365.368,1.193,1.1.732,1.542l-7.5,7.48a1.5,1.5,0,0,1-1.669.223L0,244.852V243.77L18.765,224.9c.3-.154,1.01.569,1.261.823" transform="translate(0 -184.231)" fill="#7351fa"/>
    <path id="Trazado_1055686" data-name="Trazado 1055686" d="M211.762,202.613a30.421,30.421,0,0,1,4.33,5.052,30.73,30.73,0,0,1,1.655,3.307,25.074,25.074,0,0,1-1.457,22.558L227.824,245.1a4.826,4.826,0,0,1-6.2,7.281l-11.784-11.67a26.021,26.021,0,0,1-16.931,4.662,27.614,27.614,0,0,1-10.917-3.607,32.822,32.822,0,0,1-5.052-4.33,24.587,24.587,0,0,1-3.969-5.774c-.33-.684-1.04-2.372-1.263-3.067a29.385,29.385,0,0,1-.9-4.15,27.334,27.334,0,0,1-.181-4.15A24.431,24.431,0,0,1,188.307,197.2a24.7,24.7,0,0,1,23.455,5.413m-17.538-3.375c-17.395.943-26.841,21.013-16.013,34.851,11.8,15.08,36.014,8.3,38.4-10.66a21.637,21.637,0,0,0-22.387-24.191m20.16,36.933c-.275.763-2.332,1.974-2,2.7l10.83,10.83a1.73,1.73,0,0,0,2.256-2.616c-3.618-2.972-7.019-7.884-10.641-10.649-.136-.1-.223-.323-.449-.268" transform="translate(-139.774 -160.755)" fill="#7351fa"/>
    <path id="Trazado_1055687" data-name="Trazado 1055687" d="M92.283,313.471c-1.011.569-.808,1.607-1.985.541-.17-.155-1.318-1.357-1.364-1.445-.072-.139-.12-.222,0-.358l9.778-9.731a8.6,8.6,0,0,1,2.218,2.218Z" transform="translate(-72.798 -247.797)" fill="#7351fa"/>
    <path id="Trazado_1055688" data-name="Trazado 1055688" d="M121.729,352.311l1.985,1.985a1.507,1.507,0,0,1-.258.545c-1.768,1.77-3.536,3.643-5.425,5.234-.215,0-2.369-1.844-1.99-2.348,1.729-1.705,3.425-3.443,5.144-5.158a1.5,1.5,0,0,1,.545-.258" transform="translate(-95.026 -288.622)" fill="#7351fa"/>
    <path id="Trazado_1055689" data-name="Trazado 1055689" d="M147.874,389.228a1.272,1.272,0,0,1-.258.73c-1.155,1.244-2.453,2.378-3.645,3.587a12.053,12.053,0,0,1-2.061-1.876c-.11-.159-.258-.245-.09-.455,1.3-1.379,2.732-2.636,4.07-3.971Z" transform="translate(-116.12 -317.24)" fill="#7351fa"/>
    <path id="Trazado_1055690" data-name="Trazado 1055690" d="M171.709,420.179l1.985,1.985c-1.012.994-1.9,2.137-3,3.054a7.271,7.271,0,0,1-2.056-2.062,20.382,20.382,0,0,1,2.528-2.719,1.491,1.491,0,0,1,.545-.258" transform="translate(-138.15 -344.222)" fill="#7351fa"/>
    <path id="Trazado_1055691" data-name="Trazado 1055691" d="M73.049,276.529a7.29,7.29,0,0,1,2.056,2.062c-2.94,3.355-6.367,6.4-9.47,9.663a.472.472,0,0,1-.636.086c-.28-.127-1.88-1.784-1.728-2.079Z" transform="translate(-51.825 -226.539)" fill="#7351fa"/>
    <path id="Trazado_1055692" data-name="Trazado 1055692" d="M35.558,66.01c-.507.058-1.624-.732-1.624-1.173V42.916H37V53.561c.722-.573,1.339-2.078,1.995-2.606a2.035,2.035,0,0,1,1.439-.392c1.215.24,4.047,5.169,4.322,4.982A71.905,71.905,0,0,1,50.1,47.63a1.553,1.553,0,0,1,2.06.42c1.276,1.222,2.762,3.361,3.962,4.789a26.261,26.261,0,0,0,1.889,2.351c.16.13.246.31.462.091q2.362-4.3,4.786-8.572c.142-.249.17-.57.26-.726a26.365,26.365,0,0,1,1.624-2.345l2.507,1.53c-2.387,4.025-4.411,8.287-6.806,12.3-.688,1.153-1.494,3.166-3.19,2.043-1.308-1.6-2.723-3.121-4.058-4.691-.352-.413-2.3-3.145-2.614-3.067L45.611,59.57a2.1,2.1,0,0,1-.928.3c-1.42-.074-3.414-4.076-4.527-5.048L37,58.883v3.879a42.97,42.97,0,0,0,5.413.18c8.475.1,16.964-.076,25.439,0V66.01Z" transform="translate(-27.8 -35.158)" fill="#7351fa"/>
    <path id="Trazado_1055693" data-name="Trazado 1055693" d="M222.329,229.813a18.493,18.493,0,1,1-15.392,27.735c-6.884-12.023,1.5-27.359,15.392-27.735m.519,3.082a15.411,15.411,0,1,0,13.622,22.786A15.45,15.45,0,0,0,222.847,232.9" transform="translate(-167.518 -188.263)" fill="#7351fa"/>
    <path id="Trazado_1055694" data-name="Trazado 1055694" d="M279.724,263.485v2.977c.291.411.839.21,1.273.35a4.516,4.516,0,0,1,3.237,4.431h-3.067c-.086,0,.061-1.064-.893-1.362a21.441,21.441,0,0,0-4.212-.044c-1.432.418-1.574,4.164.334,4.463,1.643.257,3.157-.3,4.895.337,2.936,1.074,3.309,4,2.928,6.784a4.58,4.58,0,0,1-4.495,3.714V288.2h-3.248v-3.067a4.591,4.591,0,0,1-4.51-4.691h3.067c.128,0-.1,1.42,1.714,1.624,1.342.151,4.137.37,4.41-1.363.785-4.99-3.394-2.633-6.173-3.549-3.739-1.233-4.111-7.472-1.2-9.6a12.17,12.17,0,0,1,2.695-1.094v-2.706a1.809,1.809,0,0,1,.271-.271Z" transform="translate(-222.71 -215.854)" fill="#7351fa"/>
  </g>
</svg>
