<svg id="Grupo_1186034" data-name="Grupo 1186034" xmlns="http://www.w3.org/2000/svg" xmlns:xlink="http://www.w3.org/1999/xlink" width="105.152" height="104.938" viewBox="0 0 105.152 104.938">
  <defs>
    <clipPath id="clip-path">
      <rect id="Rectángulo_425727" data-name="Rectángulo 425727" width="105.152" height="104.938" fill="#7351fa"/>
    </clipPath>
  </defs>
  <g id="Grupo_1186034-2" data-name="Grupo 1186034" clip-path="url(#clip-path)">
    <path id="Trazado_1055670" data-name="Trazado 1055670" d="M9.016,0l10.45.2a1.3,1.3,0,0,1,.819,1.435c-.022.8-.317,1.293-1.14,1.422C13.777,3.9,3.811.465,3.066,9.114c-.7,8.108.536,17.209.009,25.422,1.333,7.55,7.2,5.224,12.4,5.839a2.55,2.55,0,0,1,1.73,1.138c2.045,2.268,3.894,5.413,5.748,7.883l.422-.129c1.964-2.345,3.75-5.7,5.821-7.865a2.618,2.618,0,0,1,1.448-1.011c20.444-.256,40.916.3,61.356-.012,2.753-.042,5.02.448,7.359-1.35a6.578,6.578,0,0,0,2.484-4.895c.622-7.911-.488-16.617,0-24.614-.77-6.335-4.608-6.355-9.844-6.447-21.74-.383-43.524.279-65.27.009A1.313,1.313,0,0,1,25.2,1.64C25.173.651,25.547.574,26.227,0H96.712a9.891,9.891,0,0,1,8.2,9.114c.673,8.582-.307,18.364-.269,27.007a9.665,9.665,0,0,1-8.439,7.341l-64.713-.01-7.113,9.533a1.668,1.668,0,0,1-2.364.113l-7.1-9.6c-4.132-.2-7.865.7-11.324-2.1A11.321,11.321,0,0,1,0,35.666V7.789A10.61,10.61,0,0,1,7.991,0Z" fill="#7351fa"/>
    <path id="Trazado_1055671" data-name="Trazado 1055671" d="M0,312.616v-5.944c.972-4.326,2.374-8.236,5.222-11.686,12.663-15.338,37.8-8.4,40.647,11.2C49.2,329.095,20.533,342.221,5.333,324.4,2.416,320.976.986,316.946,0,312.616m38.313,10.042a24.135,24.135,0,0,0,3.9-7.477c4.848-17.379-13.7-31.873-29.308-22.759A20.056,20.056,0,0,0,7.89,322.659a15.491,15.491,0,0,1,9.117-10.251l-2.33-3.3c-6.006-18.188,23.327-17.477,16.5.368l-2.288,2.936a14.683,14.683,0,0,1,7.541,6.293ZM22.079,298.732c-8.563,1.11-5.816,15.035,3.029,12.048,6.937-2.342,4.53-13.028-3.029-12.048M14,318.017c-1.27,1.3-3.639,5.179-3.354,6.99.086.544,1.727,1.509,2.275,1.838a20.1,20.1,0,0,0,17.949,1.181c.751-.315,4.362-2.237,4.543-2.847.2-.676-.662-2.936-.992-3.649A12.655,12.655,0,0,0,14,318.017" transform="translate(0 -227.756)" fill="#7351fa"/>
    <path id="Trazado_1055672" data-name="Trazado 1055672" d="M198.954,0h0Z" transform="translate(-103.061)" fill="#7351fa"/>
    <path id="Trazado_1055673" data-name="Trazado 1055673" d="M54.348,0v.2L43.9,0Z" transform="translate(-34.882 0)" fill="#7351fa"/>
    <path id="Trazado_1055674" data-name="Trazado 1055674" d="M258.805,296.576l42.947-.032c6.737.581,6.37,10.713-.388,10.835l-42.18-.023c-6.588-.252-6.919-10.091-.379-10.78m-1.113,7.046a2.519,2.519,0,0,0,.7.427l43.393.059c2.413-.285,2.381-4.04,0-4.314l-43.042,0c-1.735.212-2.162,2.693-1.047,3.832" transform="translate(-201.889 -235.641)" fill="#7351fa"/>
    <path id="Trazado_1055675" data-name="Trazado 1055675" d="M271.315,456.167a1.267,1.267,0,0,1,.908-1.449c10.185-.47,20.482-.009,30.706-.234a2.356,2.356,0,0,0,.346-4.155l-44.1-.052a2.346,2.346,0,0,0-.265,4.055c1.661.943,7.693-1.183,7.694,1.834a1.443,1.443,0,0,1-1.216,1.551,21.278,21.278,0,0,1-7.594-.425c-4.578-1.837-4.045-9.9,2.551-10.359,13.541-.942,28.162.731,41.816,0,7.038.552,7.28,10.343-.409,10.88-9.29.648-19.326-.5-28.694-.009-1.109-.151-1.742-.453-1.742-1.64" transform="translate(-202.468 -354.909)" fill="#7351fa"/>
    <path id="Trazado_1055676" data-name="Trazado 1055676" d="M293.007,373.582c0,1.37-.984,1.549-2.144,1.647l-31.755,0c-2.232.353-2.044,4.385.389,4.3h42.638c2.35.091,2.6-3.956.388-4.3-1.514-.237-4.595.685-4.6-1.652,0-2.028,2.517-1.771,3.992-1.636,4.108.373,6.185,3.953,4.672,7.742-.935,2.341-2.922,2.977-5.273,3.129-13.395.866-27.711-.675-41.2,0-6.888.043-7.687-9.784-.959-10.814l32.111-.058c1.035.077,1.742.547,1.742,1.64" transform="translate(-202.237 -295.486)" fill="#7351fa"/>
    <path id="Trazado_1055677" data-name="Trazado 1055677" d="M64.461,48.892c2.9-.658,3.757,4.57,5.064,6.327,1.634.773,6.066.377,7.17,1.642,2.208,2.529-3.129,5.309-4.339,7.077.126,2.282,2.9,9.436-1.9,8.182-1.234-.322-4.393-2.757-5.423-2.757-1.127,0-4.327,2.626-5.751,2.843-4.447.678-1.623-6.023-1.573-8.267-1.229-1.773-6.7-4.663-4.257-7.2,1-1.038,5.453-.836,6.967-1.434,1.076-1.348,2.363-6.029,4.043-6.411m8.46,10c-1.3-.241-4.324-.2-5.325-.927-.712-.518-2.2-4.605-2.564-4.605-.964,1.02-1.5,3.642-2.486,4.478-1.046.889-4.017.809-5.4,1.055.589,1.1,3.277,2.859,3.6,3.881.439,1.405-.507,3.547-.53,5.03,0,.3-.032.381.317.315,1.137-.216,3.079-2.074,4.505-2.073.935,0,4.636,2.267,4.814,2.069.075-1.582-.986-3.853-.521-5.34.319-1.021,3.008-2.784,3.6-3.881" transform="translate(-41.981 -38.806)" fill="#7351fa"/>
    <path id="Trazado_1055678" data-name="Trazado 1055678" d="M355.335,55.347c1.595.4,6.182.351,7.229,1.481,2.306,2.489-3.283,5.292-4.36,7.1-.07,2.068,2.508,7.584-.593,8.215-2.13.433-5.181-2.808-6.714-2.808-1.029,0-4.188,2.435-5.423,2.757-5.209,1.362-1.51-6.494-2.095-8.371-.138-.444-3.933-3.379-4.443-4.368-2.074-4.025,5.353-3.363,7.347-4.077,1.428-1.714,2.4-7.562,5.483-6.3,1.229.5,2.771,5.106,3.569,6.369m3.45,3.521c-1.317-.244-4.3-.2-5.324-.927-.89-.636-2.221-4.606-2.564-4.6-.966,1.025-1.562,3.825-2.607,4.561-1.082.763-3.916.743-5.281.971.588,1.1,3.277,2.86,3.6,3.881.48,1.535-.677,3.709-.522,5.34.177.2,3.88-2.068,4.814-2.069,1.426,0,3.364,1.855,4.505,2.073.337.064.332-.012.313-.31-.1-1.512-.983-3.563-.526-5.034.315-1.017,3.011-2.787,3.6-3.881" transform="translate(-269.039 -38.778)" fill="#7351fa"/>
    <path id="Trazado_1055679" data-name="Trazado 1055679" d="M203.437,55.474c.271-.165,2.18-4.928,2.807-5.7a2.171,2.171,0,0,1,2.773-.534c1.473.79,2.33,4.788,3.467,6.165,1.61.535,6.364.338,7.267,1.749,1.635,2.555-3.213,5-4.36,6.9-.229,1.852,1.525,5.707.661,7.215-1.614,2.819-5.936-1.227-7.989-1.825-2.147.364-6.3,4.62-8.078,1.946-1.041-1.568.748-5.41.583-7.334-.8-1.319-4.568-3.99-4.806-5.267-.624-3.352,5.657-2.722,7.673-3.321m4.743-2.015c-.478-.1-.328.065-.456.263-.68,1.051-1.482,3.721-2.416,4.341-1.13.75-3.74.634-5.114.93-.092.356.147.41.3.615.751.98,3.087,2.619,3.3,3.681.193.946-.917,4.9-.739,5.132,1.349-.388,3.538-2.266,4.811-2.273,1.489-.008,3.547,1.8,5.02,2.273.161-.206-.956-4.212-.776-5.176.3-1.581,3.133-2.661,3.645-4.252-1.375-.3-3.984-.181-5.115-.93-.936-.621-1.916-3.516-2.469-4.6" transform="translate(-155.524 -38.905)" fill="#7351fa"/>
  </g>
</svg>
