<svg xmlns="http://www.w3.org/2000/svg" xmlns:xlink="http://www.w3.org/1999/xlink" width="191" height="117" viewBox="0 0 191 117">
  <defs>
    <clipPath id="clip-path">
      <rect id="Rectángulo_425013" data-name="Rectángulo 425013" width="191" height="117" rx="15" transform="translate(285 845)" fill="#f9f8ff"/>
    </clipPath>
    <clipPath id="clip-path-2">
      <rect id="Rectángulo_425733" data-name="Rectángulo 425733" width="178.662" height="170.161" fill="none"/>
    </clipPath>
    <clipPath id="clip-path-4">
      <rect id="Rectángulo_425731" data-name="Rectángulo 425731" width="8.272" height="14.613" fill="none"/>
    </clipPath>
  </defs>
  <g id="Grupo_1182691" data-name="Grupo 1182691" transform="translate(-285 -845)">
    <g id="Grupo_1182587" data-name="Grupo 1182587" transform="translate(105 5)">
      <rect id="Rectángulo_425013-2" data-name="Rectángulo 425013" width="191" height="117" rx="15" transform="translate(180 840)" fill="#f9f8ff"/>
    </g>
    <g id="Enmascarar_grupo_1162765" data-name="Enmascarar grupo 1162765" clip-path="url(#clip-path)">
      <g id="Grupo_1186048" data-name="Grupo 1186048" transform="translate(294 851.937)">
        <g id="Grupo_1186047" data-name="Grupo 1186047" clip-path="url(#clip-path-2)">
          <g id="Grupo_1186046" data-name="Grupo 1186046">
            <g id="Grupo_1186045" data-name="Grupo 1186045" clip-path="url(#clip-path-2)">
              <path id="Trazado_1055696" data-name="Trazado 1055696" d="M261.818,702.581v34.7a6.935,6.935,0,0,1-2.116,1.976c-3.6,2.479-12.849,6.4-35.4,6.4-22.828,0-32.987-4.016-37.074-6.489a9.631,9.631,0,0,1-2.438-1.888l.216-1.5.848-5.846.672-4.665.842-5.846.316-2.169h48.449v-5.635l18.835-7.746.731-.3.322-.134Z" transform="translate(-151.483 -575.947)" fill="#ecb85e"/>
              <path id="Trazado_1055697" data-name="Trazado 1055697" d="M262.8,854.367v5.846H185.989l.848-5.846Z" transform="translate(-152.466 -700.375)" fill="#7351fa"/>
              <path id="Trazado_1055698" data-name="Trazado 1055698" d="M269.714,796.052V801.9H194.421l.842-5.846Z" transform="translate(-159.378 -652.571)" fill="#7351fa"/>
              <path id="Trazado_1055699" data-name="Trazado 1055699" d="M436.828,387.114l-12.977-6.284h9.154a12.937,12.937,0,0,0,1.853-.134c.029-.006.053-.006.082-.012Z" transform="translate(-347.456 -312.069)" fill="#29275f"/>
              <path id="Trazado_1055700" data-name="Trazado 1055700" d="M347.482,165.156v21.161a13.184,13.184,0,0,1-11.206,12.989c-.029.006-.053.006-.082.012a12.934,12.934,0,0,1-1.853.134h-9.154l12.977,6.284a5.957,5.957,0,0,1-.667.83,12.235,12.235,0,0,1-5.086,3.151,18.916,18.916,0,0,1-6.167.947,21.981,21.981,0,0,1-14.193-4.928V185.768a7.015,7.015,0,0,1-3.73-13.509,6.935,6.935,0,0,1,2.186-.351,6.956,6.956,0,0,1,3.648,1.023h.006c.514-.029,9.482-4.478,10.949-13.5,0,0,7.939,6.1,22.372,5.729" transform="translate(-248.791 -130.692)" fill="#fff"/>
              <path id="Trazado_1055701" data-name="Trazado 1055701" d="M435.964,236.983a2.526,2.526,0,1,1-2.526-2.526,2.526,2.526,0,0,1,2.526,2.526" transform="translate(-353.244 -192.198)" fill="#29275f"/>
              <path id="Trazado_1055702" data-name="Trazado 1055702" d="M510.308,236.983a2.526,2.526,0,1,1-2.526-2.526,2.526,2.526,0,0,1,2.526,2.526" transform="translate(-414.188 -192.198)" fill="#29275f"/>
              <path id="Trazado_1055703" data-name="Trazado 1055703" d="M502.694,204.93c-.756-.063-1.706-.16-2.338-.247a1.8,1.8,0,0,0-2.157,1.225,1.773,1.773,0,0,0,1.225,2.157c1.088.15,2.176.282,3.271.373a1.761,1.761,0,0,0,1.754-1.754,1.8,1.8,0,0,0-1.754-1.754" transform="translate(-408.368 -167.771)" fill="#29275f"/>
              <path id="Trazado_1055704" data-name="Trazado 1055704" d="M428.151,207.665c-.757.052-1.711.1-2.349.11a1.8,1.8,0,0,0-1.947,1.537c-.061.844.556,1.961,1.537,1.947,1.1-.016,2.194-.051,3.289-.127a1.761,1.761,0,0,0,1.468-2,1.8,1.8,0,0,0-2-1.468" transform="translate(-347.456 -170.231)" fill="#29275f"/>
              <path id="Trazado_1055705" data-name="Trazado 1055705" d="M476.423,250.35a.451.451,0,0,1-.152-.875l3.82-1.369-3.013-5.8a.451.451,0,1,1,.8-.415l3.25,6.258a.451.451,0,0,1-.248.632l-4.306,1.543a.46.46,0,0,1-.152.026" transform="translate(-390.183 -198.093)" fill="#29275f"/>
              <path id="Trazado_1055706" data-name="Trazado 1055706" d="M166.313,457.185v28.761H114.971a14.7,14.7,0,0,1-6.933-1.66,14.385,14.385,0,0,1-8.167-10.476.207.207,0,0,1-.012-.064,14.226,14.226,0,0,1,1.041-8.506l14.72-32.362v-.006l1.841-4.045a14.309,14.309,0,0,1,.748-1.426c.006-.012.017-.023.023-.035a18.166,18.166,0,0,1,6.9-5.887.305.305,0,0,0,.041-.017,14.382,14.382,0,0,1,18.472,19.273l-7.483,16.45Z" transform="translate(-81.664 -344.634)" fill="#ecb85e"/>
              <path id="Trazado_1055707" data-name="Trazado 1055707" d="M366.63,74.746a6.479,6.479,0,0,1-.836,9.838,6.328,6.328,0,0,1-2.414,1.052V80.463c-14.433.368-22.372-5.729-22.372-5.729-1.467,9.026-10.435,13.474-10.949,13.5h-.006a7.005,7.005,0,0,0-5.834-.672,19.434,19.434,0,0,1-1.076-10.154A16.588,16.588,0,0,1,329.463,66.9a14.478,14.478,0,0,1,10.02-2.771,7.6,7.6,0,0,1,11-7.231,7.691,7.691,0,0,1,3.6,3.9,6.945,6.945,0,0,1,3.186-2.689,8.582,8.582,0,0,1,6.319.035,9.906,9.906,0,0,1,3.051,16.608" transform="translate(-264.689 -45.999)" fill="#7351fa"/>
              <path id="Trazado_1055708" data-name="Trazado 1055708" d="M308.212,434.341v26.727h-3.32a5.409,5.409,0,0,0,.935-2.87H287.039a7.816,7.816,0,0,0-4.513,1.432v-5.764H252.374l7.483-16.45a14.251,14.251,0,0,0,1.28-5.91,14.35,14.35,0,0,0-19.753-13.363,17.764,17.764,0,0,1,7.781-1.783h11.972a21.982,21.982,0,0,0,14.193,4.928,18.911,18.911,0,0,0,6.167-.947,12.231,12.231,0,0,0,5.086-3.151,5.955,5.955,0,0,0,.667-.83h2.975c.21,0,.421.006.631.012h.012a17.922,17.922,0,0,1,10.031,3.519l.006.006c2.631,1.952,5.986,7.687,5.986,7.687a17.914,17.914,0,0,1,1.321,6.758" transform="translate(-197.877 -341.315)" fill="#ecb85e"/>
              <path id="Trazado_1055709" data-name="Trazado 1055709" d="M649.6,425.545l-23.587,44.147a14.429,14.429,0,0,1-13.977,7.757c-.035,0-.07-.006-.1-.006a14.276,14.276,0,0,1-5.284-1.526c-.17-.088-.339-.181-.5-.275v-7.827l17.818-2.654a4.117,4.117,0,0,0-3.63-4.226H606.148V434.209a17.916,17.916,0,0,0-1.321-6.758l6.384,8.915L621.99,416.2l4.46,1.508,17.841,6.044Z" transform="translate(-495.813 -341.182)" fill="#ecb85e"/>
              <path id="Trazado_1055710" data-name="Trazado 1055710" d="M513.151,655.579l-17.818,2.654-5.8.865-.321.135-.731.3-18.835,7.745V649.914a7.815,7.815,0,0,1,4.513-1.432h18.788a5.41,5.41,0,0,1-.935,2.87H509.52a4.117,4.117,0,0,1,3.63,4.226" transform="translate(-384.998 -531.599)" fill="#fff"/>
              <path id="Trazado_1055711" data-name="Trazado 1055711" d="M772.368,383.981l-23.617,3.525-6.115,4.022L724.8,385.483l1.239-3.443a7.8,7.8,0,0,1,7.342-5.15H752.16a5.4,5.4,0,0,1-.935,2.864l.006.006h17.508a4.113,4.113,0,0,1,3.63,4.221" transform="translate(-594.159 -308.959)" fill="#fff"/>
              <path id="Trazado_1055712" data-name="Trazado 1055712" d="M434.779,385.565a.454.454,0,0,1-.2-.045l-12.978-6.284a.451.451,0,0,1,.2-.856h9.155a12.262,12.262,0,0,0,1.788-.13.545.545,0,0,1,.579.308l1.888,6.43a.45.45,0,0,1-.433.577m-11.013-6.284,10.294,4.985-1.493-5.083a13.108,13.108,0,0,1-1.612.1Z" transform="translate(-345.406 -310.07)" fill="#29275f"/>
              <path id="Trazado_1055713" data-name="Trazado 1055713" d="M324.194,209.067a22.227,22.227,0,0,1-14.5-5.05.448.448,0,0,1-.143-.329V184.261a7.474,7.474,0,0,1-8.558-7.386,7.462,7.462,0,0,1,11.194-6.468c1.16-.414,9.086-4.833,10.429-13.1a.451.451,0,0,1,.719-.286c.078.06,8.008,6,22.086,5.636a.492.492,0,0,1,.326.128.448.448,0,0,1,.136.322v21.161a13.614,13.614,0,0,1-13.591,13.586H325.1l11.209,5.428a.451.451,0,0,1,.188.641,6.4,6.4,0,0,1-.721.9,12.635,12.635,0,0,1-5.27,3.27,19.489,19.489,0,0,1-6.313.971m-13.742-5.584a21.963,21.963,0,0,0,13.742,4.683,18.6,18.6,0,0,0,6.021-.922,11.731,11.731,0,0,0,4.9-3.031c.123-.133.227-.253.311-.356L322.94,197.81a.451.451,0,0,1,.2-.856h9.155a12.287,12.287,0,0,0,1.788-.13,12.781,12.781,0,0,0,10.9-12.554v-20.7c-12.1.205-19.531-4.045-21.606-5.419-1.843,8.793-10.676,13.151-11.239,13.183a.468.468,0,0,1-.266-.065,6.526,6.526,0,0,0-1.969-.8,6.565,6.565,0,1,0,0,12.81.455.455,0,0,1,.381.088.45.45,0,0,1,.169.352Z" transform="translate(-246.741 -128.644)" fill="#29275f"/>
              <path id="Trazado_1055714" data-name="Trazado 1055714" d="M112.286,489.225a16.415,16.415,0,0,1-6.5-1.722,14.867,14.867,0,0,1-8.422-10.8,1.387,1.387,0,0,1-.02-.147,14.517,14.517,0,0,1,1.081-8.692l14.7-32.326a.324.324,0,0,1,.016-.042l1.842-4.045a14.622,14.622,0,0,1,.772-1.472,18.7,18.7,0,0,1,7.109-6.095.469.469,0,0,1,.619.19.434.434,0,0,1-.167.594,1.056,1.056,0,0,1-.125.052,17.775,17.775,0,0,0-6.658,5.714,13.671,13.671,0,0,0-.731,1.391l-1.825,4.008a.3.3,0,0,1-.016.042L99.241,468.233a13.747,13.747,0,0,0-1.008,8.238,13.994,13.994,0,0,0,7.922,10.212,14.611,14.611,0,0,0,6.715,1.62h50.924v-27.86h-29.7a.451.451,0,0,1-.41-.637l7.482-16.449a.451.451,0,0,1,.82.373l-7.192,15.813h29.452a.45.45,0,0,1,.451.451v28.761a.45.45,0,0,1-.451.451H112.9c-.2.015-.41.021-.616.022" transform="translate(-79.596 -347.44)" fill="#29275f"/>
              <path id="Trazado_1055715" data-name="Trazado 1055715" d="M328.006,86.65a.473.473,0,0,1-.24-.066,6.522,6.522,0,0,0-1.969-.8,6.61,6.61,0,0,0-3.49.169.451.451,0,0,1-.562-.268,19.831,19.831,0,0,1-1.1-10.391,17.01,17.01,0,0,1,6.5-10.8,14.957,14.957,0,0,1,9.829-2.9,8.049,8.049,0,0,1,11.656-7.141,8.159,8.159,0,0,1,3.47,3.415,7.431,7.431,0,0,1,2.936-2.218,9.041,9.041,0,0,1,6.655.031,10.354,10.354,0,0,1,3.519,17.051A6.921,6.921,0,0,1,364,82.912a6.814,6.814,0,0,1-2.584,1.127.442.442,0,0,1-.376-.091.452.452,0,0,1-.166-.35V78.885c-12.1.205-19.531-4.045-21.606-5.419-1.843,8.793-10.676,13.151-11.239,13.183h-.026m-3.653-1.924a7.514,7.514,0,0,1,1.642.181,7.426,7.426,0,0,1,2.087.817c1.16-.415,9.086-4.834,10.429-13.1a.451.451,0,0,1,.719-.285c.078.06,8.008,6,22.086,5.636a.492.492,0,0,1,.326.128.452.452,0,0,1,.136.322v4.593a5.8,5.8,0,0,0,1.7-.836,6.028,6.028,0,0,0,.777-9.159.451.451,0,0,1,.02-.648,9.455,9.455,0,0,0-2.911-15.854,8.131,8.131,0,0,0-5.983-.04,6.491,6.491,0,0,0-2.978,2.513.459.459,0,0,1-.418.21.452.452,0,0,1-.379-.275,7.11,7.11,0,0,0-10.8-3.049,7.364,7.364,0,0,0-2.92,6.184.45.45,0,0,1-.5.471,14,14,0,0,0-9.7,2.685,16.1,16.1,0,0,0-6.143,10.23,18.844,18.844,0,0,0,.907,9.526,7.414,7.414,0,0,1,1.91-.249" transform="translate(-262.636 -43.961)" fill="#29275f"/>
              <path id="Trazado_1055716" data-name="Trazado 1055716" d="M356.147,555.237h-3.321a.45.45,0,0,1-.371-.707,5.038,5.038,0,0,0,.82-2.163h-18.3a7.339,7.339,0,0,0-4.253,1.349.45.45,0,0,1-.71-.368v-5.313h-29.7a.451.451,0,0,1-.41-.637l7.483-16.45a.45.45,0,0,1,.82.373l-7.192,15.813h29.452a.45.45,0,0,1,.451.451v4.946a8.227,8.227,0,0,1,4.062-1.065h18.788a.451.451,0,0,1,.451.443,5.8,5.8,0,0,1-.6,2.426H355.7V535.719a.451.451,0,0,1,.9,0v19.068a.45.45,0,0,1-.451.451" transform="translate(-245.811 -435.034)" fill="#29275f"/>
              <path id="Trazado_1055717" data-name="Trazado 1055717" d="M313.222,475.9q-.6,0-1.209-.048l-.1-.006a14.679,14.679,0,0,1-5.451-1.573c-.177-.092-.352-.188-.521-.285a.452.452,0,0,1-.226-.391v-7.828a.45.45,0,0,1,.384-.445l17.428-2.6a3.654,3.654,0,0,0-3.26-3.4l-14.1.008a.45.45,0,0,1-.451-.451V439.82a.451.451,0,1,1,.9,0v18.617H320.35a4.621,4.621,0,0,1,4.08,4.709.449.449,0,0,1-.383.414l-17.433,2.6v7.176c.086.048.173.093.26.139a13.807,13.807,0,0,0,5.117,1.476l.059.455.036-.449a13.927,13.927,0,0,0,13.541-7.514l23.34-43.685L322.222,414.7l-10.6,19.831a.453.453,0,0,1-.368.238.441.441,0,0,1-.4-.187c-.056-.078-5.6-7.827-7.839-11.217a28.405,28.405,0,0,0-4.46-5.307,17.4,17.4,0,0,0-9.758-3.415c-.215-.006-.421-.012-.627-.012h-2.739a7.935,7.935,0,0,1-.573.687,12.633,12.633,0,0,1-5.27,3.27,19.483,19.483,0,0,1-6.313.971,22.452,22.452,0,0,1-14.365-4.928h-11.8a17.225,17.225,0,0,0-7.584,1.738.451.451,0,0,1-.393-.811,18.134,18.134,0,0,1,7.978-1.828h11.972a.453.453,0,0,1,.307.121,21.736,21.736,0,0,0,13.886,4.808,18.6,18.6,0,0,0,6.021-.922,11.731,11.731,0,0,0,4.9-3.031,5.8,5.8,0,0,0,.614-.761.454.454,0,0,1,.383-.214h2.975c.215,0,.43.006.645.012a18.335,18.335,0,0,1,10.3,3.607.5.5,0,0,1,.068.062,28.577,28.577,0,0,1,4.586,5.457c1.865,2.828,6.056,8.717,7.4,10.6l10.438-19.527a.451.451,0,0,1,.542-.215l27.609,9.347a.451.451,0,0,1,.253.639l-23.587,44.148a14.8,14.8,0,0,1-13.2,8.042" transform="translate(-195.827 -339.135)" fill="#29275f"/>
              <path id="Trazado_1055718" data-name="Trazado 1055718" d="M222.25,744.058c-23.038,0-33.263-4.106-37.307-6.554a9.975,9.975,0,0,1-2.558-2,.448.448,0,0,1-.092-.342l2.891-20.022a.45.45,0,0,1,.446-.386h48v-5.185a.45.45,0,0,1,.279-.417L253.8,700.98a.427.427,0,0,1,.107-.03l5.8-.865a.447.447,0,0,1,.361.1.451.451,0,0,1,.156.341v34.7a.449.449,0,0,1-.055.216,7.332,7.332,0,0,1-2.256,2.131c-3.51,2.42-12.811,6.48-35.657,6.48m-39.035-8.972a11.074,11.074,0,0,0,2.194,1.648c3.964,2.4,14.021,6.424,36.841,6.424,22.6,0,31.721-3.96,35.146-6.322a7.574,7.574,0,0,0,1.921-1.737V701.053l-5.226.78-1,.413-18.554,7.63v5.333a.45.45,0,0,1-.451.451H186.02Z" transform="translate(-149.433 -573.897)" fill="#29275f"/>
              <path id="Trazado_1055719" data-name="Trazado 1055719" d="M467.6,665.677a.451.451,0,0,1-.451-.451V647.864a.451.451,0,0,1,.191-.368,8.232,8.232,0,0,1,4.772-1.515H490.9a.451.451,0,0,1,.451.444,5.805,5.805,0,0,1-.6,2.426h16.722a4.621,4.621,0,0,1,4.08,4.709.449.449,0,0,1-.383.414l-23.561,3.511-1,.413-18.834,7.746a.46.46,0,0,1-.171.034m.451-17.575v16.452l19.263-7.922a.408.408,0,0,1,.107-.03l23.227-3.46a3.654,3.654,0,0,0-3.26-3.4l-17.422.008a.45.45,0,0,1-.37-.707,5.04,5.04,0,0,0,.82-2.163h-18.3a7.335,7.335,0,0,0-4.062,1.219M511.1,653.53h0Z" transform="translate(-382.948 -529.55)" fill="#29275f"/>
              <path id="Trazado_1055720" data-name="Trazado 1055720" d="M740.587,389.929a.458.458,0,0,1-.145-.024L722.6,383.861a.45.45,0,0,1-.261-.231.446.446,0,0,1-.018-.348l1.239-3.443a8.277,8.277,0,0,1,7.766-5.449H750.11a.451.451,0,0,1,.451.444,5.786,5.786,0,0,1-.6,2.426h16.731a4.615,4.615,0,0,1,4.079,4.7.449.449,0,0,1-.383.414l-23.518,3.511-6.032,3.967a.454.454,0,0,1-.248.074m-17.261-6.775,17.2,5.827,5.931-3.9a.449.449,0,0,1,.181-.069l23.227-3.467a3.652,3.652,0,0,0-3.26-3.391l-17.422.008a.449.449,0,0,1-.306-.12.458.458,0,0,1-.07-.592,5.035,5.035,0,0,0,.819-2.158h-18.3a7.374,7.374,0,0,0-6.919,4.853Zm46.993-1.222h0Z" transform="translate(-592.109 -306.91)" fill="#29275f"/>
              <path id="Trazado_1055721" data-name="Trazado 1055721" d="M528.344,664.6H518.025a.451.451,0,0,1,0-.9h10.267c2.07-.487,2.6-1.507,2.6-1.517a.455.455,0,0,1,.6-.21.449.449,0,0,1,.217.591c-.027.058-.683,1.435-3.267,2.026a.435.435,0,0,1-.1.011" transform="translate(-424.286 -542.621)" fill="#29275f"/>
              <path id="Trazado_1055722" data-name="Trazado 1055722" d="M770.4,393.828a.439.439,0,0,1-.183-.04.45.45,0,0,1-.227-.595c1.126-2.519,5.865-2.894,6.066-2.909h12.185a.451.451,0,0,1,0,.9H776.087c-1.189.089-4.524.693-5.276,2.376a.451.451,0,0,1-.412.267" transform="translate(-631.173 -319.939)" fill="#29275f"/>
              <path id="Trazado_1055723" data-name="Trazado 1055723" d="M847.174,402.765a.451.451,0,0,1-.217-.846c2.3-1.26,2.165-2.8,2-3.405H827.5a.451.451,0,0,1,0-.9h21.776a.451.451,0,0,1,.4.253c.014.028,1.343,2.85-2.292,4.844a.45.45,0,0,1-.217.056" transform="translate(-677.983 -325.947)" fill="#29275f"/>
              <path id="Trazado_1055724" data-name="Trazado 1055724" d="M575.276,664.582a.451.451,0,0,1-.038-.9l20.465-1.774a.451.451,0,0,1,.078.9l-20.465,1.774-.039,0" transform="translate(-471.219 -542.605)" fill="#29275f"/>
              <path id="Trazado_1055725" data-name="Trazado 1055725" d="M188.711,626.666a.45.45,0,0,1-.423-.605c1.135-3.1,7.088-4.067,7.341-4.107l13.2-.005a.451.451,0,0,1,0,.9H195.7c.013,0-5.612.92-6.565,3.52a.451.451,0,0,1-.423.3" transform="translate(-154.328 -509.849)" fill="#29275f"/>
              <path id="Trazado_1055726" data-name="Trazado 1055726" d="M328.062,254.827a.451.451,0,0,1-.45-.429,11.912,11.912,0,0,0-3.506-7.641.45.45,0,0,1,.6-.673,12.606,12.606,0,0,1,3.807,8.27.45.45,0,0,1-.428.472h-.023" transform="translate(-265.566 -201.637)" fill="#29275f"/>
              <path id="Trazado_1055727" data-name="Trazado 1055727" d="M626.142,529.771a.445.445,0,0,1-.248-.075.451.451,0,0,1-.127-.625l2.172-3.281a.451.451,0,0,1,.752.5l-2.172,3.281a.452.452,0,0,1-.376.2" transform="translate(-512.917 -430.855)" fill="#29275f"/>
              <path id="Trazado_1055728" data-name="Trazado 1055728" d="M445.075,294.786a7.342,7.342,0,0,1-2.009-.306,3.785,3.785,0,0,1-2.492-1.942,6.318,6.318,0,0,1,.006-4.509.447.447,0,0,1,.561-.265l8.2,2.7a.451.451,0,0,1,.3.511,5.122,5.122,0,0,1-2.149,3.159,4.512,4.512,0,0,1-2.418.65m-3.783-6.025a5.041,5.041,0,0,0,.091,3.379,2.927,2.927,0,0,0,1.931,1.474,4.528,4.528,0,0,0,3.7-.239,4.1,4.1,0,0,0,1.638-2.188Z" transform="translate(-360.806 -235.876)" fill="#29275f"/>
              <path id="Trazado_1055729" data-name="Trazado 1055729" d="M810.118,376.2c-1.991,3.679-14.027,3.793-16.03.08,3.935,2.076,12.11,1.541,15.838.125h0a.606.606,0,0,0,.158-.163s.008-.008.008-.012a.163.163,0,0,0,.023-.03" transform="translate(-650.961 -308.398)" fill="#fff"/>
              <path id="Trazado_1055730" data-name="Trazado 1055730" d="M882.918,376.2a.16.16,0,0,1-.023.03c0-.012.016-.02.023-.03" transform="translate(-723.762 -308.398)" fill="#fff"/>
              <path id="Trazado_1055731" data-name="Trazado 1055731" d="M809.957,367.8a.283.283,0,0,1-.031.13.287.287,0,0,0-.031.042.632.632,0,0,1-.157.164h0a26.26,26.26,0,0,1-15.667.086c-.366-.122-.134-1.731-.2-1.989a29.823,29.823,0,0,0,16.079-.122Z" transform="translate(-650.77 -300.124)" fill="#fff"/>
              <path id="Trazado_1055732" data-name="Trazado 1055732" d="M882.918,376.2a.16.16,0,0,1-.023.03c0-.012.016-.02.023-.03" transform="translate(-723.762 -308.398)" fill="#fff"/>
              <path id="Trazado_1055733" data-name="Trazado 1055733" d="M805.979,349.986c-.082,3.754-15.028,2.994-17.47,1.564a1.66,1.66,0,0,1-.14-2.821.008.008,0,0,0,.008-.008,2.8,2.8,0,0,1,.379-.216c-.323,2.607,16.623,2.392,16.076-.122a1.778,1.778,0,0,1,1.147,1.6" transform="translate(-645.683 -285.59)" fill="#fff"/>
              <path id="Trazado_1055734" data-name="Trazado 1055734" d="M866.677,345.447a.014.014,0,0,1-.011,0v0Z" transform="translate(-710.458 -283.184)" fill="#fff"/>
              <path id="Trazado_1055735" data-name="Trazado 1055735" d="M866.822,345.427s0,0-.008,0l0,0Z" transform="translate(-710.579 -283.167)" fill="#fff"/>
              <path id="Trazado_1055736" data-name="Trazado 1055736" d="M866.95,345.406s0,0-.008,0v0Z" transform="translate(-710.684 -283.15)" fill="#fff"/>
              <path id="Trazado_1055737" data-name="Trazado 1055737" d="M867.084,345.386s-.008,0-.015,0v0Z" transform="translate(-710.788 -283.133)" fill="#fff"/>
              <path id="Trazado_1055738" data-name="Trazado 1055738" d="M809.823,343.223c-2.355,2.023-13.442,2.183-16.076.119-.021-.281.006-1.346-.012-1.644a30.151,30.151,0,0,0,16.076-.122c0,.3.011,1.362.012,1.647" transform="translate(-650.673 -280.01)" fill="#fff"/>
              <path id="Trazado_1055739" data-name="Trazado 1055739" d="M806.638,333.609h-.015c.042.008.088.012.134.02a.014.014,0,0,1,.011,0c-.046,0-.088-.012-.13-.016m11.386-.086a.211.211,0,0,0-.038.011.237.237,0,0,0,.05-.007s-.008,0-.012,0" transform="translate(-661.237 -273.409)" fill="#fff"/>
              <path id="Trazado_1055740" data-name="Trazado 1055740" d="M826.565,345.4h0m-8.8.231h0m8.814-.235v0a.014.014,0,0,0,.011,0Zm.03,0,0,0s0,0,.008,0Zm.019,0v0s0,0,.008,0Zm.023,0v0c.008,0,.012,0,.015,0Z" transform="translate(-670.368 -283.133)" fill="#fff"/>
              <path id="Trazado_1055741" data-name="Trazado 1055741" d="M805.779,328.2a1.587,1.587,0,0,0-.31-.793c-3.689,2.091-13.992,2.181-17.723.126-1.814,3.528,5.367,3.337,7.192,3.507,2.423-.073,11.093.394,10.841-2.84m-4.047,2.462v0h.011a.014.014,0,0,1-.011,0m.05-.008v0h0a0,0,0,0,1,0,0m.023,0v0h.015s-.008,0-.015,0" transform="translate(-645.524 -268.398)" fill="#fff"/>
              <path id="Trazado_1055742" data-name="Trazado 1055742" d="M866.677,345.447a.014.014,0,0,1-.011,0v0Z" transform="translate(-710.458 -283.184)" fill="#fff"/>
              <path id="Trazado_1055743" data-name="Trazado 1055743" d="M866.822,345.427s0,0-.008,0l0,0Z" transform="translate(-710.579 -283.167)" fill="#fff"/>
              <path id="Trazado_1055744" data-name="Trazado 1055744" d="M866.95,345.406s0,0-.008,0v0Z" transform="translate(-710.684 -283.15)" fill="#fff"/>
              <path id="Trazado_1055745" data-name="Trazado 1055745" d="M867.084,345.386s-.008,0-.015,0v0Z" transform="translate(-710.788 -283.133)" fill="#fff"/>
              <path id="Trazado_1055746" data-name="Trazado 1055746" d="M760.49,92.241c-.2,4.85-2.073,9.76-6.074,12.78,0,0,0,0,0,0-.119.1-.237.19-.36.281v0a13.34,13.34,0,0,0-4.678,7.531s0,0,0,.008c-.192,1.3-.443,2.709-1.736,3.432-5.113,1.876-11.421,1.7-16.665.342-1.956-.838-1.9-2.651-2.4-4.41a13.374,13.374,0,0,0-4.065-6.268c-.167-.148-.33-.278-.506-.411a0,0,0,0,0,0,0,15.979,15.979,0,0,1-3.964-4.146v0c-4.269-7-3.338-16.554,1.511-23.036a21.6,21.6,0,0,1,38.948,13.9" transform="translate(-588.019 -57.036)" fill="#ecb85e"/>
              <path id="Trazado_1055747" data-name="Trazado 1055747" d="M788.247,220.753a.451.451,0,0,1-.441-.357l-5.216-24.743a.451.451,0,0,1,.882-.186l5.216,24.742a.451.451,0,0,1-.348.534.474.474,0,0,1-.093.01" transform="translate(-641.528 -159.942)" fill="#29275f"/>
              <path id="Trazado_1055748" data-name="Trazado 1055748" d="M858.728,221.1a.46.46,0,0,1-.076-.006.452.452,0,0,1-.369-.52l4.186-24.63a.451.451,0,1,1,.889.151l-4.186,24.63a.451.451,0,0,1-.444.375" transform="translate(-703.58 -160.316)" fill="#29275f"/>
              <path id="Trazado_1055749" data-name="Trazado 1055749" d="M778.154,163.042a6.049,6.049,0,0,1-4.791-2.432.451.451,0,0,1,.7-.563c1.966,2.453,4.874,2.777,7.781.864a10.173,10.173,0,0,0,1.466-1.179,8.188,8.188,0,0,1-1.666-8.659,3.324,3.324,0,0,1,2.542-2.509,2.256,2.256,0,0,1,2.37,1.211c1.692,3.183.444,7.182-2,9.95a9.216,9.216,0,0,0,2.008,1.37c3.232,1.63,7.648,1.493,10.23-2.489a.45.45,0,1,1,.756.49c-2.87,4.427-7.917,4.556-11.391,2.8a9.887,9.887,0,0,1-2.215-1.531,10.892,10.892,0,0,1-1.6,1.3,7.658,7.658,0,0,1-4.188,1.378m6.414-13.608a1.491,1.491,0,0,0-.234.019,2.453,2.453,0,0,0-1.824,1.869,7.313,7.313,0,0,0,1.414,7.77c2.206-2.505,3.341-6.07,1.849-8.878a1.384,1.384,0,0,0-1.2-.78" transform="translate(-633.891 -121.761)" fill="#29275f"/>
              <g id="Grupo_1186044" data-name="Grupo 1186044" transform="translate(131.586 18.937)" opacity="0.98">
                <g id="Grupo_1186043" data-name="Grupo 1186043">
                  <g id="Grupo_1186042" data-name="Grupo 1186042" clip-path="url(#clip-path-4)">
                    <path id="Trazado_1055750" data-name="Trazado 1055750" d="M730.513,119.677a.451.451,0,0,1-.451-.445,16.9,16.9,0,0,1,7.576-14.1.451.451,0,0,1,.488.758,15.976,15.976,0,0,0-7.163,13.328.451.451,0,0,1-.445.456Z" transform="translate(-730.061 -105.063)" fill="#29275f"/>
                  </g>
                </g>
              </g>
              <path id="Trazado_1055751" data-name="Trazado 1055751" d="M799.92,377.326h-.012c-3.222,0-7.086-.782-8.265-2.969a.451.451,0,0,1,.607-.612c3.8,2,11.793,1.467,15.4.127l.005,0,.018-.029a.151.151,0,0,1,.033-.042l.02-.021a.431.431,0,0,1,.592-.112.468.468,0,0,1,.146.615c-1.218,2.25-5.362,3.048-8.546,3.048m-5.58-1.883a14.292,14.292,0,0,0,5.569.981h.013a14.548,14.548,0,0,0,5.978-1.119,28.593,28.593,0,0,1-11.56.137m13.331-1.6-.013.02,0,0,.008-.016" transform="translate(-648.912 -306.255)" fill="#29275f"/>
              <path id="Trazado_1055752" data-name="Trazado 1055752" d="M880.847,374.517a.45.45,0,0,1-.431-.583.559.559,0,0,1,.117-.2.428.428,0,0,1,.61-.09.471.471,0,0,1,.1.644.791.791,0,0,1-.075.093.449.449,0,0,1-.319.132" transform="translate(-721.714 -306.228)" fill="#29275f"/>
              <path id="Trazado_1055753" data-name="Trazado 1055753" d="M799.683,367.783a24.113,24.113,0,0,1-7.82-1.187c-.561-.187-.531-1-.5-1.866a3.765,3.765,0,0,0,.006-.451.433.433,0,0,1,.122-.43.448.448,0,0,1,.446-.1,29.23,29.23,0,0,0,15.815-.12.45.45,0,0,1,.587.425l.016,1.69v0a.742.742,0,0,1-.077.328.466.466,0,0,1-.091.126.7.7,0,0,1-.2.219.515.515,0,0,1-.148.084h0a24.559,24.559,0,0,1-8.152,1.275m-7.4-1.994a26.035,26.035,0,0,0,15.157-.1l.013-.012-.01-1.016a30.623,30.623,0,0,1-15.18.114,5.946,5.946,0,0,0,.02,1.01m-.126-.045.011,0-.011,0" transform="translate(-648.716 -298.072)" fill="#29275f"/>
              <path id="Trazado_1055754" data-name="Trazado 1055754" d="M880.847,374.517a.45.45,0,0,1-.431-.583.559.559,0,0,1,.117-.2.428.428,0,0,1,.61-.09.471.471,0,0,1,.1.644.791.791,0,0,1-.075.093.449.449,0,0,1-.319.132" transform="translate(-721.714 -306.228)" fill="#29275f"/>
              <path id="Trazado_1055755" data-name="Trazado 1055755" d="M795.094,351.138c-3.828,0-7.662-.547-8.864-1.25a2.048,2.048,0,0,1-1.081-1.759,2.007,2.007,0,0,1,.9-1.813c.011-.008.022-.017.034-.024a3.314,3.314,0,0,1,.44-.25.451.451,0,0,1,.63.467c-.017.14.231.3.339.366,2.365,1.4,12.63,1.271,14.645-.182.068-.049.224-.173.2-.265a.451.451,0,0,1,.617-.51,2.208,2.208,0,0,1,1.421,2.025v0a2.249,2.249,0,0,1-1.362,1.89c-1.681.939-4.8,1.3-7.923,1.3m-8.647-4a1.136,1.136,0,0,0-.4.951,1.158,1.158,0,0,0,.609,1.006c1.984,1.162,12.562,1.829,15.919-.046.6-.334.89-.7.9-1.121a1.184,1.184,0,0,0-.423-.891,1.606,1.606,0,0,1-.391.388c-2.293,1.656-12.957,1.81-15.632.228a1.823,1.823,0,0,1-.585-.514m17.481.8h0Z" transform="translate(-643.631 -283.54)" fill="#29275f"/>
              <path id="Trazado_1055756" data-name="Trazado 1055756" d="M864.617,343.852a.453.453,0,0,1,0-.906.458.458,0,0,1,.417.267.449.449,0,0,1-.071.485.482.482,0,0,1-.346.153m0-.466v0Z" transform="translate(-708.408 -281.133)" fill="#29275f"/>
              <path id="Trazado_1055757" data-name="Trazado 1055757" d="M864.766,343.852a.451.451,0,0,1-.352-.732.473.473,0,0,1,.769.094.45.45,0,0,1-.075.485.473.473,0,0,1-.342.153m.008,0h0Zm-.008-.457v0Z" transform="translate(-708.531 -281.137)" fill="#29275f"/>
              <path id="Trazado_1055758" data-name="Trazado 1055758" d="M864.893,343.811a.452.452,0,0,1,0-.9.455.455,0,0,1,.425.29.45.45,0,0,1-.118.5.474.474,0,0,1-.307.117m.008,0h0Zm-.008-.459v0Z" transform="translate(-708.635 -281.1)" fill="#29275f"/>
              <path id="Trazado_1055759" data-name="Trazado 1055759" d="M865.02,343.792a.452.452,0,0,1,0-.9.461.461,0,0,1,.429.29.449.449,0,0,1-.114.5.5.5,0,0,1-.315.117m0-.47v0Z" transform="translate(-708.739 -281.085)" fill="#29275f"/>
              <path id="Trazado_1055760" data-name="Trazado 1055760" d="M799.548,343.212c-3.411,0-6.792-.515-8.127-1.561a.451.451,0,0,1-.172-.32c-.012-.153-.01-.53-.008-.9,0-.311,0-.617,0-.754a.451.451,0,0,1,.587-.456,29.933,29.933,0,0,0,15.793-.119.451.451,0,0,1,.6.423c0,.3.011,1.365.012,1.65a.449.449,0,0,1-.157.342c-1.307,1.123-4.93,1.693-8.52,1.693m-7.407-2.154c2.638,1.724,12.693,1.655,15.182-.1,0-.22,0-.531-.006-.813a31.281,31.281,0,0,1-15.174.112c0,.059,0,.12,0,.18,0,.224,0,.453,0,.621" transform="translate(-648.624 -277.963)" fill="#29275f"/>
              <path id="Trazado_1055761" data-name="Trazado 1055761" d="M792.9,329.448c-.288-.024-.61-.039-.989-.057-2.152-.1-5.755-.281-6.716-1.945a2.167,2.167,0,0,1,.1-2.161.454.454,0,0,1,.269-.225.447.447,0,0,1,.349.037c3.559,1.959,13.734,1.886,17.283-.123a.452.452,0,0,1,.584.123,2.028,2.028,0,0,1,.4,1.011v.014a1.98,1.98,0,0,1-.545,1.55c-1.5,1.621-5.706,1.761-9.533,1.765-.48,0-.89,0-1.2.01m-6.977-3.34a1.074,1.074,0,0,0,.052.887c.715,1.239,4.271,1.412,5.979,1.5.4.019.731.036.973.058.259-.011.679-.011,1.169-.012,2.439,0,7.516-.008,8.872-1.476a1.08,1.08,0,0,0,.309-.861,1.239,1.239,0,0,0-.048-.23c-3.953,1.876-13.311,1.95-17.307.138" transform="translate(-643.469 -266.352)" fill="#29275f"/>
              <path id="Trazado_1055762" data-name="Trazado 1055762" d="M864.617,343.852a.45.45,0,0,1-.451-.451v0a.45.45,0,0,1,.451-.451.458.458,0,0,1,.417.267.449.449,0,0,1-.071.485.482.482,0,0,1-.346.153" transform="translate(-708.408 -281.133)" fill="#29275f"/>
              <path id="Trazado_1055763" data-name="Trazado 1055763" d="M864.893,343.812a.45.45,0,0,1-.451-.451v0a.452.452,0,0,1,.9,0,.456.456,0,0,1-.454.454" transform="translate(-708.635 -281.101)" fill="#29275f"/>
              <path id="Trazado_1055764" data-name="Trazado 1055764" d="M865.02,343.791a.45.45,0,0,1-.451-.451v0a.45.45,0,0,1,.451-.451.46.46,0,0,1,.429.291.448.448,0,0,1-.114.5.494.494,0,0,1-.315.117" transform="translate(-708.739 -281.084)" fill="#29275f"/>
              <path id="Trazado_1055765" data-name="Trazado 1055765" d="M864.617,343.852a.453.453,0,0,1,0-.906.458.458,0,0,1,.417.267.449.449,0,0,1-.071.485.482.482,0,0,1-.346.153m0-.466v0Z" transform="translate(-708.408 -281.133)" fill="#29275f"/>
              <path id="Trazado_1055766" data-name="Trazado 1055766" d="M864.766,343.852a.451.451,0,0,1-.352-.732.473.473,0,0,1,.769.094.45.45,0,0,1-.075.485.473.473,0,0,1-.342.153m.008,0h0Zm-.008-.457v0Z" transform="translate(-708.531 -281.137)" fill="#29275f"/>
              <path id="Trazado_1055767" data-name="Trazado 1055767" d="M864.893,343.811a.452.452,0,0,1,0-.9.455.455,0,0,1,.425.29.45.45,0,0,1-.118.5.474.474,0,0,1-.307.117m.008,0h0Zm-.008-.459v0Z" transform="translate(-708.635 -281.1)" fill="#29275f"/>
              <path id="Trazado_1055768" data-name="Trazado 1055768" d="M865.02,343.792a.452.452,0,0,1,0-.9.461.461,0,0,1,.429.29.449.449,0,0,1-.114.5.5.5,0,0,1-.315.117m0-.47v0Z" transform="translate(-708.739 -281.085)" fill="#29275f"/>
              <path id="Trazado_1055769" data-name="Trazado 1055769" d="M736.941,116.059a32.911,32.911,0,0,1-8.2-1.05c-1.84-.783-2.162-2.262-2.473-3.691-.074-.341-.15-.689-.247-1.034a13,13,0,0,0-3.922-6.046c-.166-.147-.321-.27-.488-.4l-.007-.005a16.305,16.305,0,0,1-4.072-4.268.393.393,0,0,1-.02-.037c-4.229-6.969-3.591-16.63,1.555-23.507a22.051,22.051,0,0,1,39.759,14.188c-.225,5.5-2.5,10.281-6.242,13.111l0,0c-.11.089-.22.177-.334.262l-.029.025a12.891,12.891,0,0,0-4.52,7.28.069.069,0,0,1,0,.01c-.181,1.221-.44,2.872-1.956,3.721a25.747,25.747,0,0,1-8.8,1.435m-14.776-12.927c.182.138.351.273.523.426a13.716,13.716,0,0,1,4.2,6.47c.1.374.185.738.263,1.1.3,1.371.534,2.455,1.883,3.032,5.622,1.454,11.751,1.331,16.333-.35,1-.563,1.246-1.727,1.446-3.075a.436.436,0,0,1,.018-.076,13.776,13.776,0,0,1,4.79-7.718.41.41,0,0,1,.052-.045c.115-.085.226-.173.336-.263l.023-.018c3.533-2.667,5.681-7.2,5.9-12.439v-.005A21.15,21.15,0,0,0,719.79,76.56c-4.942,6.605-5.553,15.871-1.49,22.535a.374.374,0,0,1,.019.034,15.608,15.608,0,0,0,3.821,3.983h0l.026.019m30.131-.157h0Z" transform="translate(-585.902 -54.986)" fill="#29275f"/>
              <path id="Trazado_1055770" data-name="Trazado 1055770" d="M885.924,11.243a.442.442,0,0,1-.093-.01.45.45,0,0,1-.349-.533L887.636.36a.445.445,0,0,1,.533-.349.45.45,0,0,1,.349.533l-2.154,10.34a.45.45,0,0,1-.44.359" transform="translate(-725.875 -0.001)" fill="#29275f"/>
              <path id="Trazado_1055771" data-name="Trazado 1055771" d="M907.18,42.441a.451.451,0,0,1-.363-.717l4.241-5.788a.451.451,0,0,1,.727.532l-4.241,5.788a.45.45,0,0,1-.364.184" transform="translate(-743.3 -29.308)" fill="#29275f"/>
              <path id="Trazado_1055772" data-name="Trazado 1055772" d="M855.144,23.989a.451.451,0,0,1-.44-.358l-1.513-7.172a.451.451,0,1,1,.882-.186l1.513,7.172a.451.451,0,0,1-.441.543" transform="translate(-699.404 -13.048)" fill="#29275f"/>
              <path id="Trazado_1055773" data-name="Trazado 1055773" d="M501.532,453.093q0-.8-.078-1.581V451.5a32.3,32.3,0,0,0,5.105-2.488,21.032,21.032,0,0,0-3.127-7.55,33.061,33.061,0,0,0-5.373,1.849,16.3,16.3,0,0,0-2.246-2.255,32.444,32.444,0,0,0,1.849-5.364,20.8,20.8,0,0,0-7.55-3.119,33.017,33.017,0,0,0-2.488,5.1c-.527-.052-1.054-.078-1.59-.078s-1.063.026-1.59.078a33.011,33.011,0,0,0-2.488-5.1,20.8,20.8,0,0,0-7.55,3.119,32.421,32.421,0,0,0,1.849,5.364,16.3,16.3,0,0,0-2.246,2.255,32.527,32.527,0,0,0-5.373-1.849,21.034,21.034,0,0,0-3.127,7.55,32.694,32.694,0,0,0,5.105,2.488c-.052.518-.078,1.054-.078,1.59s.026,1.071.078,1.59a33.486,33.486,0,0,0-5.105,2.488,20.969,20.969,0,0,0,3.127,7.55,32.524,32.524,0,0,0,5.373-1.849,16.289,16.289,0,0,0,2.246,2.255,32.427,32.427,0,0,0-1.849,5.365,20.974,20.974,0,0,0,7.55,3.127,33.075,33.075,0,0,0,2.488-5.105c.527.052,1.054.078,1.59.078s1.063-.026,1.59-.078a33.081,33.081,0,0,0,2.488,5.105,20.973,20.973,0,0,0,7.55-3.127,32.449,32.449,0,0,0-1.849-5.365,16.289,16.289,0,0,0,2.246-2.255,33.061,33.061,0,0,0,5.373,1.849,20.967,20.967,0,0,0,3.127-7.55,33.089,33.089,0,0,0-5.105-2.488c.052-.518.078-1.054.078-1.59m-22.884,0a7.386,7.386,0,1,1,7.386,7.386,7.388,7.388,0,0,1-7.386-7.386" transform="translate(-381.605 -354.608)" fill="#fff"/>
              <path id="Trazado_1055774" data-name="Trazado 1055774" d="M488.063,472.011a.452.452,0,0,1-.387-.219,33.779,33.779,0,0,1-2.4-4.858,16.683,16.683,0,0,1-2.586,0,33.76,33.76,0,0,1-2.4,4.858.45.45,0,0,1-.474.21,21.516,21.516,0,0,1-7.713-3.195.451.451,0,0,1-.187-.483,32.88,32.88,0,0,1,1.738-5.127,16.848,16.848,0,0,1-1.826-1.834A32.98,32.98,0,0,1,466.7,463.1a.452.452,0,0,1-.483-.187,21.535,21.535,0,0,1-3.194-7.713.45.45,0,0,1,.212-.475,33.844,33.844,0,0,1,4.856-2.4c-.033-.423-.05-.857-.05-1.293s.017-.868.05-1.291a33.2,33.2,0,0,1-4.856-2.4.45.45,0,0,1-.212-.475,21.568,21.568,0,0,1,3.194-7.713.449.449,0,0,1,.483-.187,32.98,32.98,0,0,1,5.137,1.737,16.841,16.841,0,0,1,1.826-1.834,32.882,32.882,0,0,1-1.738-5.127.451.451,0,0,1,.187-.483,21.34,21.34,0,0,1,7.714-3.187.446.446,0,0,1,.474.211,33.959,33.959,0,0,1,2.4,4.849,16.686,16.686,0,0,1,2.585,0,33.911,33.911,0,0,1,2.4-4.849.441.441,0,0,1,.474-.211,21.33,21.33,0,0,1,7.714,3.187.451.451,0,0,1,.187.483,32.879,32.879,0,0,1-1.738,5.127,16.75,16.75,0,0,1,1.826,1.834,33.662,33.662,0,0,1,5.134-1.736.444.444,0,0,1,.485.186,21.568,21.568,0,0,1,3.195,7.713.452.452,0,0,1-.211.475,33.151,33.151,0,0,1-4.859,2.4c.033.413.05.852.05,1.291s-.017.869-.05,1.294a33.7,33.7,0,0,1,4.858,2.4.451.451,0,0,1,.211.475,21.532,21.532,0,0,1-3.195,7.713.447.447,0,0,1-.485.186,33.649,33.649,0,0,1-5.134-1.736,16.77,16.77,0,0,1-1.826,1.834,32.877,32.877,0,0,1,1.738,5.127.451.451,0,0,1-.187.483A21.508,21.508,0,0,1,488.15,472a.412.412,0,0,1-.088.009M485.575,466a.451.451,0,0,1,.42.289,32.827,32.827,0,0,0,2.291,4.761,20.649,20.649,0,0,0,6.81-2.821,31.954,31.954,0,0,0-1.744-4.98.452.452,0,0,1,.125-.532,15.866,15.866,0,0,0,2.184-2.192.452.452,0,0,1,.532-.126,32.457,32.457,0,0,0,4.99,1.743,20.664,20.664,0,0,0,2.82-6.809,32.812,32.812,0,0,0-4.761-2.291.451.451,0,0,1-.287-.466c.05-.5.075-1.023.075-1.545s-.026-1.033-.075-1.536a.463.463,0,0,1,.288-.475A31.941,31.941,0,0,0,504,446.735a20.69,20.69,0,0,0-2.82-6.81,32.479,32.479,0,0,0-4.99,1.743.453.453,0,0,1-.532-.126,15.885,15.885,0,0,0-2.184-2.192.452.452,0,0,1-.125-.532,31.947,31.947,0,0,0,1.744-4.98,20.47,20.47,0,0,0-6.809-2.813A32.591,32.591,0,0,0,486,435.777a.478.478,0,0,1-.465.288,15.352,15.352,0,0,0-3.091,0,.463.463,0,0,1-.465-.288,32.732,32.732,0,0,0-2.292-4.752,20.475,20.475,0,0,0-6.81,2.813,31.924,31.924,0,0,0,1.744,4.98.452.452,0,0,1-.125.532,15.9,15.9,0,0,0-2.184,2.192.45.45,0,0,1-.531.126,32.242,32.242,0,0,0-4.991-1.744,20.685,20.685,0,0,0-2.82,6.809,31.729,31.729,0,0,0,4.758,2.291.45.45,0,0,1,.289.466c-.05.5-.076,1.021-.076,1.544s.026,1.045.076,1.545a.45.45,0,0,1-.287.466,32.574,32.574,0,0,0-4.759,2.292,20.656,20.656,0,0,0,2.82,6.809,32.223,32.223,0,0,0,4.991-1.744.451.451,0,0,1,.531.126,15.883,15.883,0,0,0,2.184,2.192.452.452,0,0,1,.125.532,31.931,31.931,0,0,0-1.744,4.98,20.653,20.653,0,0,0,6.81,2.821,32.827,32.827,0,0,0,2.291-4.761.467.467,0,0,1,.465-.287,15.515,15.515,0,0,0,3.091,0l.045,0" transform="translate(-379.557 -352.551)" fill="#29275f"/>
              <path id="Trazado_1055775" data-name="Trazado 1055775" d="M543.744,518.6a7.837,7.837,0,1,1,7.837-7.837,7.846,7.846,0,0,1-7.837,7.837m0-14.772a6.935,6.935,0,1,0,6.935,6.935,6.943,6.943,0,0,0-6.935-6.935" transform="translate(-439.315 -412.278)" fill="#29275f"/>
              <path id="Trazado_1055776" data-name="Trazado 1055776" d="M96.475,19.8V30.3a7.487,7.487,0,0,1-7.465,7.465H80.686l2.383,6.688L72.511,37.77H56.056A7.487,7.487,0,0,1,48.591,30.3V19.8a7.487,7.487,0,0,1,7.465-7.465H89.009A7.487,7.487,0,0,1,96.475,19.8" transform="translate(-39.833 -10.114)" fill="#fff"/>
              <path id="Trazado_1055777" data-name="Trazado 1055777" d="M81.018,42.859a.451.451,0,0,1-.241-.07L70.33,36.171H54.006a7.925,7.925,0,0,1-7.916-7.916v-10.5a7.925,7.925,0,0,1,7.916-7.916H86.959a7.925,7.925,0,0,1,7.916,7.916v10.5a7.925,7.925,0,0,1-7.916,7.916H79.274l2.168,6.086a.451.451,0,0,1-.425.6M54.006,10.739a7.023,7.023,0,0,0-7.015,7.015v10.5a7.023,7.023,0,0,0,7.015,7.015H70.461a.45.45,0,0,1,.241.07l9.453,5.988-1.944-5.456a.451.451,0,0,1,.425-.6h8.324a7.023,7.023,0,0,0,7.015-7.015v-10.5a7.023,7.023,0,0,0-7.015-7.015Z" transform="translate(-37.783 -8.065)" fill="#29275f"/>
              <path id="Trazado_1055778" data-name="Trazado 1055778" d="M91.208,67.385a4.019,4.019,0,1,1,4.018-4.019,4.023,4.023,0,0,1-4.018,4.019m0-7.137a3.118,3.118,0,1,0,3.117,3.118,3.121,3.121,0,0,0-3.117-3.118" transform="translate(-71.474 -48.65)" fill="#29275f"/>
              <path id="Trazado_1055779" data-name="Trazado 1055779" d="M159.118,67.385a4.019,4.019,0,1,1,4.018-4.019,4.023,4.023,0,0,1-4.018,4.019m0-7.137a3.118,3.118,0,1,0,3.117,3.118,3.121,3.121,0,0,0-3.117-3.118" transform="translate(-127.144 -48.65)" fill="#29275f"/>
              <path id="Trazado_1055780" data-name="Trazado 1055780" d="M227.027,67.385a4.019,4.019,0,1,1,4.019-4.019,4.023,4.023,0,0,1-4.019,4.019m0-7.137a3.118,3.118,0,1,0,3.118,3.118,3.121,3.121,0,0,0-3.118-3.118" transform="translate(-182.814 -48.65)" fill="#29275f"/>
              <path id="Trazado_1055781" data-name="Trazado 1055781" d="M23.354,258.426q0-.329-.032-.647v0a13.211,13.211,0,0,0,2.089-1.018,8.609,8.609,0,0,0-1.28-3.089,13.535,13.535,0,0,0-2.2.756,6.675,6.675,0,0,0-.919-.923,13.272,13.272,0,0,0,.756-2.195,8.511,8.511,0,0,0-3.089-1.276,13.514,13.514,0,0,0-1.018,2.086c-.216-.021-.431-.032-.65-.032s-.435.011-.65.032a13.514,13.514,0,0,0-1.018-2.086,8.512,8.512,0,0,0-3.089,1.276,13.272,13.272,0,0,0,.756,2.195,6.665,6.665,0,0,0-.919.923,13.317,13.317,0,0,0-2.2-.756,8.606,8.606,0,0,0-1.28,3.089,13.372,13.372,0,0,0,2.089,1.018c-.021.212-.032.431-.032.65s.011.438.032.651a13.716,13.716,0,0,0-2.089,1.018,8.581,8.581,0,0,0,1.28,3.09,13.322,13.322,0,0,0,2.2-.756,6.665,6.665,0,0,0,.919.923,13.276,13.276,0,0,0-.756,2.195,8.58,8.58,0,0,0,3.089,1.28,13.53,13.53,0,0,0,1.018-2.089c.216.021.431.032.65.032s.435-.011.65-.032a13.53,13.53,0,0,0,1.018,2.089,8.579,8.579,0,0,0,3.089-1.28,13.276,13.276,0,0,0-.756-2.195,6.675,6.675,0,0,0,.919-.923,13.537,13.537,0,0,0,2.2.756,8.584,8.584,0,0,0,1.28-3.09,13.546,13.546,0,0,0-2.089-1.018c.021-.212.032-.431.032-.651m-9.363,0a3.022,3.022,0,1,1,3.022,3.022,3.023,3.023,0,0,1-3.022-3.022" transform="translate(-7.061 -204.965)" fill="#7ecfe7"/>
              <path id="Trazado_1055782" data-name="Trazado 1055782" d="M13.758,395.971a.47.47,0,0,1-.079-.007A14.344,14.344,0,0,1,9,394.259a.45.45,0,0,1-.165-.615l1.464-2.532a11.054,11.054,0,0,1-2.249-1.865l-2.232,1.872a.45.45,0,0,1-.635-.056A14.394,14.394,0,0,1,2.7,386.75a.45.45,0,0,1,.269-.577l2.689-.981a10.868,10.868,0,0,1-.535-2.892H2.274a.45.45,0,0,1-.451-.454,14.555,14.555,0,0,1,.876-4.9.451.451,0,0,1,.578-.268l2.62.955a10.937,10.937,0,0,1,1.46-2.585l-2.12-1.78a.451.451,0,0,1-.058-.632,14,14,0,0,1,3.82-3.2.448.448,0,0,1,.615.165l1.367,2.363a10.87,10.87,0,0,1,2.8-1.027l-.472-2.684a.45.45,0,0,1,.383-.525l.375-.057a8.19,8.19,0,0,1,.862-.106l1.211-.058,1.252.058a8.2,8.2,0,0,1,.866.106l.374.057a.45.45,0,0,1,.383.525l-.472,2.684a10.863,10.863,0,0,1,2.8,1.027L22.72,369.6a.448.448,0,0,1,.615-.165,14,14,0,0,1,3.819,3.2.451.451,0,0,1-.058.632l-2.12,1.78a10.943,10.943,0,0,1,1.461,2.585l2.619-.955a.453.453,0,0,1,.578.268,14.571,14.571,0,0,1,.877,4.9.45.45,0,0,1-.451.454H27.212a10.878,10.878,0,0,1-.535,2.893l2.689.981a.451.451,0,0,1,.269.577,14.384,14.384,0,0,1-2.482,4.312.451.451,0,0,1-.306.16.459.459,0,0,1-.329-.1l-2.232-1.872a11.049,11.049,0,0,1-2.249,1.865l1.464,2.532a.451.451,0,0,1-.165.615,14.356,14.356,0,0,1-4.68,1.706.458.458,0,0,1-.337-.074.451.451,0,0,1-.186-.291l-.509-2.9a11.044,11.044,0,0,1-2.912,0l-.509,2.9a.45.45,0,0,1-.444.372M9.844,393.7a13.469,13.469,0,0,0,3.549,1.294l.506-2.882a.452.452,0,0,1,.185-.29.463.463,0,0,1,.337-.075,10.107,10.107,0,0,0,3.49,0,.462.462,0,0,1,.337.075.452.452,0,0,1,.185.29l.506,2.882a13.477,13.477,0,0,0,3.55-1.294l-1.456-2.519a.45.45,0,0,1,.167-.616,10.187,10.187,0,0,0,2.7-2.234.449.449,0,0,1,.632-.053l2.216,1.858a13.453,13.453,0,0,0,1.882-3.27l-2.677-.977a.451.451,0,0,1-.267-.582,9.985,9.985,0,0,0,.641-3.458.451.451,0,0,1,.451-.448H29.6a13.649,13.649,0,0,0-.664-3.72l-2.61.951a.456.456,0,0,1-.348-.016.45.45,0,0,1-.232-.259A10.046,10.046,0,0,0,24,375.267a.45.45,0,0,1,.058-.631l2.107-1.77a13.111,13.111,0,0,0-2.9-2.42L21.91,372.8a.45.45,0,0,1-.617.164,9.971,9.971,0,0,0-3.342-1.225.45.45,0,0,1-.367-.522l.468-2.666a6.739,6.739,0,0,0-.7-.085l-1.207-.058-1.166.058a6.777,6.777,0,0,0-.7.085l.469,2.666a.45.45,0,0,1-.367.522,9.977,9.977,0,0,0-3.342,1.225.467.467,0,0,1-.343.047.451.451,0,0,1-.275-.21l-1.361-2.352a13.111,13.111,0,0,0-2.9,2.42l2.107,1.77a.45.45,0,0,1,.058.631,10.046,10.046,0,0,0-1.741,3.087.45.45,0,0,1-.58.275l-2.61-.951a13.64,13.64,0,0,0-.663,3.72H5.561a.45.45,0,0,1,.451.448,9.985,9.985,0,0,0,.641,3.458.451.451,0,0,1-.267.582l-2.678.977a13.478,13.478,0,0,0,1.883,3.27l2.216-1.858a.45.45,0,0,1,.632.053,10.187,10.187,0,0,0,2.7,2.234.45.45,0,0,1,.167.616Z" transform="translate(-1.494 -301.267)" fill="#29275f"/>
              <path id="Trazado_1055783" data-name="Trazado 1055783" d="M47.57,420.08a7.437,7.437,0,1,1,7.439-7.439,7.448,7.448,0,0,1-7.439,7.439m0-13.973a6.536,6.536,0,1,0,6.538,6.534,6.543,6.543,0,0,0-6.538-6.534" transform="translate(-32.898 -332.172)" fill="#29275f"/>
              <path id="Trazado_1055784" data-name="Trazado 1055784" d="M160.79,239.836h2.34a12.856,12.856,0,0,0-.771-4.308l-2.188.8a10.2,10.2,0,0,0-1.784-3.09l1.789-1.5a12.5,12.5,0,0,0-3.353-2.807l-1.165,2.015a10.231,10.231,0,0,0-3.353-1.217l.4-2.293c-.367-.052-.724-.126-1.091-.147l-1.1-.052-1.1.052c-.367.021-.729.094-1.091.147l.4,2.293a10.232,10.232,0,0,0-3.353,1.217l-1.165-2.015a12.424,12.424,0,0,0-3.353,2.807l1.789,1.5a10.2,10.2,0,0,0-1.784,3.09l-2.188-.8a12.851,12.851,0,0,0-.771,4.308h2.34a10.278,10.278,0,0,0,.619,3.515l-2.188.8a12.648,12.648,0,0,0,2.183,3.788l1.789-1.5a10.341,10.341,0,0,0,2.728,2.293l-1.165,2.02a12.792,12.792,0,0,0,4.114,1.5l.4-2.3a10.18,10.18,0,0,0,3.568,0l.4,2.3a12.792,12.792,0,0,0,4.114-1.5l-1.17-2.02a10.266,10.266,0,0,0,2.734-2.293l1.789,1.5a12.648,12.648,0,0,0,2.183-3.788l-2.188-.8a10.278,10.278,0,0,0,.619-3.515m-10.268,5.373a5.47,5.47,0,1,1,5.467-5.472,5.473,5.473,0,0,1-5.467,5.472" transform="translate(-113.056 -186.276)" fill="#7351fa"/>
              <path id="Trazado_1055785" data-name="Trazado 1055785" d="M668.575,90.93a.45.45,0,0,1-.451-.451V85.542a.451.451,0,1,1,.9,0v4.938a.45.45,0,0,1-.451.451" transform="translate(-547.701 -69.754)" fill="#29275f"/>
              <path id="Trazado_1055786" data-name="Trazado 1055786" d="M659.815,99.691h-4.937a.451.451,0,1,1,0-.9h4.937a.451.451,0,1,1,0,.9" transform="translate(-536.473 -80.984)" fill="#29275f"/>
              <path id="Trazado_1055787" data-name="Trazado 1055787" d="M647.26,161.427a1.649,1.649,0,0,0,0,3.3,1.649,1.649,0,0,0,0-3.3" transform="translate(-529.293 -132.331)" fill="#29275f"/>
              <path id="Trazado_1055788" data-name="Trazado 1055788" d="M49.843,663.935a1.649,1.649,0,0,0,0,3.3,1.649,1.649,0,0,0,0-3.3" transform="translate(-39.554 -544.267)" fill="#29275f"/>
              <path id="Trazado_1055789" data-name="Trazado 1055789" d="M2.653,600.227c-3.535,0-3.54,5.493,0,5.493s3.54-5.493,0-5.493" transform="translate(0 -492.042)" fill="#29275f"/>
              <path id="Trazado_1055790" data-name="Trazado 1055790" d="M50.1,561.253c-3.535,0-3.541,5.493,0,5.493s3.54-5.493,0-5.493" transform="translate(-38.895 -460.092)" fill="#29275f"/>
            </g>
          </g>
        </g>
      </g>
    </g>
  </g>
</svg>
