<svg id="Grupo_1186036" data-name="Grupo 1186036" xmlns="http://www.w3.org/2000/svg" xmlns:xlink="http://www.w3.org/1999/xlink" width="104.101" height="110.194" viewBox="0 0 104.101 110.194">
  <defs>
    <clipPath id="clip-path">
      <rect id="Rectángulo_425728" data-name="Rectángulo 425728" width="104.101" height="110.194" fill="#7351fa"/>
    </clipPath>
  </defs>
  <g id="Grupo_1186035" data-name="Grupo 1186035" clip-path="url(#clip-path)">
    <path id="Trazado_1055680" data-name="Trazado 1055680" d="M85.019,0c1.23.405,2.492.68,3.712,1.131,2.4.887,5.788,3.052,8.225,3.182,1.664.089,3.521-.894,4.734.862a18.394,18.394,0,0,1,1.345,4.036c2.373,9.679.83,19.841-5.14,27.885a42.367,42.367,0,0,1-9.582,8.856,45.3,45.3,0,0,1-.21,31.439c1.73,2.223,5.462,3.942,3.55,7.278L81.683,94.716a1.592,1.592,0,0,1-2.647-1.568l9.842-10.194-8.271-8.469L56.623,98.512l8.271,8.469,9.372-9.349c1.605-1.021,3.381.575,2.143,2.357a109.222,109.222,0,0,1-9.465,9.477c-3.716,2.744-6.341-3.036-8.964-4.8a46.34,46.34,0,0,1-23.624,0c-2.416,1.631-4.771,6.59-8.16,5.288C17.449,101.921,9.282,93.13.748,84.818L0,83.307v-.646c.621-2.308,2.829-3.489,4.232-5.269A44.872,44.872,0,0,1,63.063,19.8,36.053,36.053,0,0,1,64.3,8.231a12.371,12.371,0,0,1,1.344-3.392c1.242-1.342,2.935-.456,4.422-.523,2.541-.114,5.8-2.281,8.225-3.188L82.006,0ZM82.6,3.289c-4.888.519-9.327,5.255-14.6,4.122a31.391,31.391,0,0,0,.008,20.9c2.654,7.217,8.724,13.2,15.611,16.455,6.462-3.3,12.234-8.726,15.057-15.5a30.893,30.893,0,0,0,1.774-16.613c-.122-.769-1.012-4.959-1.432-5.245C93.171,8.586,88.283,2.685,82.6,3.289M85.663,74.7a42.668,42.668,0,0,0-.108-26.906l-.388-.19c-1.6,1.111-2.682.346-4.167-.42-8.911-4.6-16-13.723-17.615-23.714A41.677,41.677,0,0,0,10.888,39.2,42.31,42.31,0,0,0,6.675,74.911c1.975-1.418,3.245-4.466,6.182-3.493.9.3,1.255,1.2,2.073,1.54l4.211-4.368c-.058-.325-3.823-3.723-4.4-4.44a6.315,6.315,0,0,1,3.466-10.113c-1.323-4.423,1.4-8.67,6.129-8.711.314-.216.176-1.355.3-1.857a6.392,6.392,0,0,1,6.36-4.725,6.41,6.41,0,0,1,4.725-6.36c.938-.194,1.827.027,2.69-.108.672-.106,1.029-.553,1.939-.643a67.288,67.288,0,0,1,10.108.03,7,7,0,0,1,3.709,2.315,6.4,6.4,0,0,1,9.546,5.847,6.016,6.016,0,0,1,6.457,6.458,6.379,6.379,0,0,1,6.673,6.673c5.822-.114,8.5,6.009,4.846,10.549-.786.976-6.634,6.284-6.552,6.749l2.489,2.489c1.465-1.169,2.411-2.054,4.384-1.17.764.342,3.295,3.383,3.655,3.122M40.387,34.9l-.259.171c-1.069,4.852,2.826,6.493,7,5.714l4.508-4.546a2.206,2.206,0,0,0-1.834-1.35c-2.836-.4-6.494.232-9.421.011m-3.582.616c-2.538.578-3.236,2.952-1.72,5.057a131.454,131.454,0,0,0,10.99,10.965c3.173,2.141,6.5-1.288,4.29-4.29A36.86,36.86,0,0,0,47.2,44.173c-.852-.253-2.587.043-3.611-.048A7.41,7.41,0,0,1,36.8,35.519m12.27,47.36L58,91.93l.543.107,16.7-16.7c.144-.162.085-.261,0-.427a24.922,24.922,0,0,0-2.41-2.354c-1.528.7-3.373,4.609-5.253,2.685-.747-.765-.438-1.537.112-2.274,2.883-3.861,8.358-7.529,11.415-11.4,2.057-2.608.633-6.039-2.752-5.334-1.077.224-2.709,2.487-3.825.5-.807-1.438.394-1.833.814-2.866A3.038,3.038,0,0,0,69.156,49.9c-.908.441-1.771,1.7-2.982.485-1.394-1.4.346-2.161.666-3.231.845-2.826-1.707-5.107-4.358-3.713-.9.473-1.05,1.274-2.376.741-2.264-.91,0-2.91.273-3.919a3.03,3.03,0,0,0-4.743-3.238c-1.81,1.267-3.656,4.065-5.483,5.491.936,1.139,2.491,2.172,3.266,3.4,2.3,3.65-.049,9.255-4.561,9.407,1.019,5.4-3.642,9.322-8.822,7.534-.881,4.259-5.5,5.926-9.257,4.088-.418,3.072-3.6,4.989-6.565,4.733-.937-.081-1.636-.6-2.536-.612L17.223,75.45,33.714,91.9c5.122-3.944,8.859-10.836,15.532-12.405,3.615-.851,6.82.21,10.332-.646,1.416-.345,4.657-2.625,5.171-.121.405,1.976-3.562,3.155-5.079,3.442-2.648.5-4.57.021-7.033.051a22.962,22.962,0,0,0-3.562.656M30.3,42.023a3.089,3.089,0,0,0-1.884,5.011L40.906,59.51A3.061,3.061,0,0,0,44.984,55c-3.06-4.165-9.03-8.205-12.373-12.38a3.066,3.066,0,0,0-2.314-.6M23.4,48.7c-2.1.389-2.888,3.046-1.666,4.793A129.6,129.6,0,0,0,32.085,63.811a3.054,3.054,0,0,0,4.292-4.293A116.475,116.475,0,0,0,26.15,49.3,3.152,3.152,0,0,0,23.4,48.7M18.667,57.31c-2.081.43-2.608,3.141-1.449,4.8a74.706,74.706,0,0,0,5.953,5.886A3.061,3.061,0,0,0,27.119,63.4a58.92,58.92,0,0,0-5.61-5.583,3.539,3.539,0,0,0-2.842-.5M11.731,74.485,3.459,82.954l23.983,24.027,8.271-8.469Zm43.586,27.547c-.889-1.086-2.086-1.925-2.074-3.513.016-2.048,1.809-2.538,2.7-4.1l-9.809-9.791-9.962,9.575c.706,1.385,2.529,2.021,2.762,3.649.306,2.139-.654,2.756-1.916,4.177a46.271,46.271,0,0,0,18.3,0" fill="#7351fa"/>
    <path id="Trazado_1055681" data-name="Trazado 1055681" d="M333.881,48.179c-9.307,9.425,6.161,23.026,14.309,12.7,1.056-1.339,1.273-3.522,3.166-3.314,3.622.4-1.176,6.095-2.382,7.111-10.1,8.5-24.973-2.143-20.123-14.529,3.481-8.889,15.687-10.912,21.74-3.434.864,1.067,3.594,5.3,1.676,6.186-2.385,1.1-2.868-2.47-4.075-4a9.655,9.655,0,0,0-14.309-.715" transform="translate(-257.181 -33.036)" fill="#7351fa"/>
    <path id="Trazado_1055682" data-name="Trazado 1055682" d="M368.627,81.515a1.941,1.941,0,0,1-.157,2.424,64.977,64.977,0,0,1-5.918,5.919,1.87,1.87,0,0,1-2.7-.1c-.748-.563-4.6-4.494-4.722-5.185a1.549,1.549,0,0,1,.3-1.4c1.82-2.325,4.468,2.558,6.013,3.23.566-.1,4.168-4.567,5.223-5.122a1.749,1.749,0,0,1,1.961.24" transform="translate(-278.498 -63.595)" fill="#7351fa"/>
  </g>
</svg>
