<svg id="Grupo_1186033" data-name="Grupo 1186033" xmlns="http://www.w3.org/2000/svg" xmlns:xlink="http://www.w3.org/1999/xlink" width="109.488" height="121.037" viewBox="0 0 109.488 121.037">
  <defs>
    <clipPath id="clip-path">
      <rect id="Rectángulo_425726" data-name="Rectángulo 425726" width="109.488" height="121.037" fill="#7351fa"/>
    </clipPath>
  </defs>
  <g id="Grupo_1186032" data-name="Grupo 1186032" clip-path="url(#clip-path)">
    <rect id="Rectángulo_425724" data-name="Rectángulo 425724" width="0.259" height="64.295" transform="translate(109.229 54.927)" fill="#7351fa"/>
    <rect id="Rectángulo_425725" data-name="Rectángulo 425725" width="55.468" height="0.259" transform="translate(51.946 120.778)" fill="#7351fa"/>
    <path id="Trazado_1055654" data-name="Trazado 1055654" d="M117.448,464.871v.259h-8.294v-.259a56.441,56.441,0,0,0,8.294,0" transform="translate(-80.795 -344.093)" fill="#7351fa"/>
    <path id="Trazado_1055655" data-name="Trazado 1055655" d="M415.509,458.884V460.7h-2.074v-.259a1.686,1.686,0,0,0,1.814-1.555Z" transform="translate(-306.021 -339.662)" fill="#7351fa"/>
    <path id="Trazado_1055656" data-name="Trazado 1055656" d="M28.359,120.777c-2.181-.347-1.995-4.666-3.383-5.561a29.083,29.083,0,0,0-3.093-1.055,32.4,32.4,0,0,0-3.287-1.623c-1.134-.1-3.848,2.531-5.8,1.9a63.509,63.509,0,0,1-6.064-5.859c-1.381-2.176,1.753-4.638,1.614-6.3-.106-1.26-2.812-4.753-2.593-6.594C4.534,94.9.579,94.293.161,92.854a63.594,63.594,0,0,1-.038-8.486C.474,82.1,4.741,82.332,5.669,81.1A27.2,27.2,0,0,0,6.721,78c.384-.888,1.75-3.184,1.572-3.892-.382-1.528-2.282-3.524-1.848-5.191.231-.889,4.392-5.117,5.32-5.834,1.854-1.434,2.488-.748,4.41.136C15.064,49.014,25.281,35.562,39.5,33.667l-3.676-5.524a19.628,19.628,0,1,1,34.73,1.2L67.5,33.667A27.3,27.3,0,0,1,89.825,53.335l17.724.031a1.6,1.6,0,0,1,1.68,1.56v64.3a1.686,1.686,0,0,1-1.814,1.555H51.946c-2.853-.381-1.47-4.735-1.858-6.7-.923-.11-2.82-1.482-3.5-1.54-.733-.063-5.649,2.852-7.026,2.855-.588,1.42-1.21,5.115-2.911,5.383a56.437,56.437,0,0,1-8.294,0M53.443,4.182c-20.386.155-20.495,32.531,2,30.519,19.03-1.7,17.241-30.665-2-30.519M85.383,53.371C82.916,44.809,74.342,38.293,65.521,37.59c-4.579-.365-7.569,1.776-11.885,1.8S46.25,37.228,41.711,37.56c-9.419.688-18.081,8.028-20.478,17.109a32.257,32.257,0,0,0-.908,8.552c.179.189,4.721-1.52,4.919-1.689,1.016-.864,1.153-4.73,2.663-5.374.8-.34,7.189-.339,8.364-.2,2.749.322,2.226,4.507,3.5,5.574.265.222,3.107,1.108,3.8,1.386.949.382,2.295,1.461,3.259,1.3A20.2,20.2,0,0,0,50.1,62.54c.391-2.063-.618-6.879.547-8.458a6.125,6.125,0,0,1,.914-.711Zm19.958,4.148H54.279V64.13c0,.819,4.144,3.761,4.366,4.987.273,1.507-2.006,4.023-2.014,5.382A32.763,32.763,0,0,0,58.292,78c.417.957.625,2.918,1.5,3.428,1.9,1.111,4.872.614,5.129,3.425a47.956,47.956,0,0,1-.129,7.933c-.545,1.745-4.889,1.916-5.544,3.011-.368.614-.606,2.12-.954,2.935-.268.626-1.65,3.2-1.656,3.5-.024,1.37,2.245,3.91,2.006,5.384-.243,1.5-4.364,4.657-4.364,4.993v4.018h51.062ZM34.81,60.143l-4.611,0c-.365,1.08-1.078,4.093-1.849,4.761-.622.538-3.575,1.137-4.651,1.57-1.815.729-3.856,2.545-5.78,2.14-1.018-.214-2.631-1.422-3.555-1.654-.53-.133-3.23,2.522-3.336,2.934-.2.78,1.969,3.59,1.774,5.107-.116.9-1.957,3.817-2.452,5.084-.42,1.075-.63,2.778-1.06,3.606-.909,1.749-4.817,1.859-5.039,3a28.422,28.422,0,0,0,.047,3.98c.269.436,4.02,1.105,4.747,2.121.549.766,1.128,3.611,1.644,4.837.692,1.644,2.421,3.622,2.061,5.34-.2.955-1.4,2.57-1.655,3.559-.136.528,2.523,3.231,2.933,3.337.839.217,3.632-1.972,5.108-1.777.712.094,3.278,1.765,4.307,2.191,1.343.557,3.27.86,4.325,1.378,1.493.732,2.222,4.905,2.564,5l4.471-.052c.534-1.175,1.093-4.022,2.114-4.756.733-.528,3.04-.877,4.139-1.3,1.678-.654,4.367-2.779,5.975-2.336,1.126.31,3.312,2.019,4.278,1.452a27.726,27.726,0,0,0,2.671-2.778c.134-.7-2.017-3.44-1.765-5.13.121-.811,1.747-3.205,2.19-4.3.552-1.367,1.009-4.448,2.112-5.146.66-.418,4.157-1.37,4.252-1.765-.194-.973.3-3.521-.135-4.237-.407-.677-3.923-1.012-4.808-2.451-.545-.886-.731-2.676-1.162-3.764-.515-1.3-2.169-3.749-2.4-4.6-.562-2.109,2.213-4.847,1.517-5.9A27.8,27.8,0,0,0,51,66.893c-.456-.087-3.015,1.467-3.712,1.651-2.19.578-3.994-1.276-5.975-2.076-1.133-.458-3.732-.924-4.475-1.42-.782-.522-1.651-3.894-2.03-4.905" transform="translate(0 0.001)" fill="#7351fa"/>
    <path id="Trazado_1055657" data-name="Trazado 1055657" d="M326.275,244.326a5.407,5.407,0,0,1,.879.544,11.14,11.14,0,0,1,3.228,7.406c.163,2.147.564,5.33-2.188,5.583a129.935,129.935,0,0,1-17.649,0c-2.737-.252-2.356-3.379-2.188-5.583a11.29,11.29,0,0,1,2.84-7.009c.3-.353,1.312-.982,1.325-1.066.051-.328-1.017-2.836-1.03-3.882-.128-10.161,15.337-10.637,15.721-.407.042,1.1-1.054,4.218-.939,4.413m-7.884-7.677c-3.965.825-3.079,7.483,1.207,7.189,4.776-.328,4.328-8.34-1.207-7.189m7.847,17.05c-.164-1.669-.2-3.48-1.183-4.909-1.953-2.825-3.231-.776-5.685-.776-1.776,0-3.107-1.369-4.665-.276-1.826,1.28-2.133,3.9-2.2,5.961Z" transform="translate(-228.155 -172.069)" fill="#7351fa"/>
    <path id="Trazado_1055658" data-name="Trazado 1055658" d="M305.131,342.424a2.484,2.484,0,0,1,2.158,1.614c-.436,6.514.6,13.81.018,20.228-.256,2.827-3.482,2.842-4.144.233.412-6.337-.6-13.459-.027-19.7a2.3,2.3,0,0,1,2-2.374" transform="translate(-224.245 -253.458)" fill="#7351fa"/>
    <path id="Trazado_1055659" data-name="Trazado 1055659" d="M335.131,349.719a65.074,65.074,0,0,1,10.763,0c2.677.48,2.691,3.894-.48,4.323A59.711,59.711,0,0,1,335.39,354c-2.8-.465-2.69-3.849-.26-4.283" transform="translate(-246.706 -258.694)" fill="#7351fa"/>
    <path id="Trazado_1055660" data-name="Trazado 1055660" d="M235.591,279.857c3.522.277,8.212-.572,11.592-.039,2.24.353,2.182,3.732-.258,4.117a73.092,73.092,0,0,1-10.857,0,2.11,2.11,0,0,1-.478-4.078" transform="translate(-173.351 -206.985)" fill="#7351fa"/>
    <path id="Trazado_1055661" data-name="Trazado 1055661" d="M334.714,381.648a78.908,78.908,0,0,1,11.076-.04c2.361.374,2.507,3.761.257,4.117-3.375.534-8.073-.317-11.592-.039a2.12,2.12,0,0,1,.258-4.037" transform="translate(-246.555 -282.334)" fill="#7351fa"/>
    <path id="Trazado_1055662" data-name="Trazado 1055662" d="M240.186,371.705a69.345,69.345,0,0,1,10.039-.04c2.442.386,2.495,3.764.258,4.117a74.777,74.777,0,0,1-10.346.011c-1.863-.355-2.1-3.605.049-4.088" transform="translate(-176.651 -274.984)" fill="#7351fa"/>
    <path id="Trazado_1055663" data-name="Trazado 1055663" d="M242.3,402.72a68.194,68.194,0,0,1,9.739,0,2.063,2.063,0,0,1-.219,4.079,64.194,64.194,0,0,1-9.52-.041,2.112,2.112,0,0,1,0-4.037" transform="translate(-178.242 -297.961)" fill="#7351fa"/>
    <path id="Trazado_1055664" data-name="Trazado 1055664" d="M265.7,249.692c.96,1.052.6,3.145-.888,3.478a27.149,27.149,0,0,1-5.583.014,2.125,2.125,0,0,1-.7-3.7c.918-.658,6.357-.684,7.169.205" transform="translate(-190.765 -184.312)" fill="#7351fa"/>
    <path id="Trazado_1055665" data-name="Trazado 1055665" d="M364.462,417.3c-.813.889-6.25.863-7.168.2a2.125,2.125,0,0,1,.7-3.7,26.473,26.473,0,0,1,5.333,0,2.168,2.168,0,0,1,1.138,3.494" transform="translate(-263.87 -306.198)" fill="#7351fa"/>
    <path id="Trazado_1055666" data-name="Trazado 1055666" d="M262.008,310.067c1.6-.249,5.287-.4,5.719,1.677.623,3-3.923,2.889-5.793,2.667-2.824-.335-3.116-3.848.074-4.345" transform="translate(-192.239 -229.405)" fill="#7351fa"/>
    <path id="Trazado_1055667" data-name="Trazado 1055667" d="M264.6,340.838c1.526-.342,4.823-.359,5.406,1.489.982,3.112-4.292,3.434-6.09,2.456a2.163,2.163,0,0,1,.684-3.945" transform="translate(-194.582 -252.153)" fill="#7351fa"/>
    <path id="Trazado_1055668" data-name="Trazado 1055668" d="M69.666,267.386a19.023,19.023,0,0,1,19.677,24.608c-5.172,16.564-28.495,17.859-35.4,1.851a19,19,0,0,1,15.722-26.459m.518,4.149c-19.4,1.455-17.314,31.3,2.77,29.472,18.442-1.677,16.658-30.929-2.77-29.472" transform="translate(-38.767 -197.863)" fill="#7351fa"/>
    <path id="Trazado_1055669" data-name="Trazado 1055669" d="M96.147,323.109c-.962-1.8-6.945-6-4.424-8.127,2.371-2,4.487,2.308,6.017,3.546l7.776-8.808c1.843-1.5,3.936.527,3.1,2.583L99.564,322.95a2.389,2.389,0,0,1-3.417.159" transform="translate(-67.438 -228.866)" fill="#7351fa"/>
  </g>
</svg>
