<svg xmlns="http://www.w3.org/2000/svg" width="105" height="105" viewBox="0 0 105 105">
  <g id="Grupo_1186068" data-name="Grupo 1186068" transform="translate(1792.16 10135.905)">
    <path id="Trazado_1055802" data-name="Trazado 1055802" d="M52.5,0A52.5,52.5,0,1,1,0,52.5,52.5,52.5,0,0,1,52.5,0Z" transform="translate(-1792.16 -10135.905)" fill="#fff"/>
    <path id="Trazado_1055803" data-name="Trazado 1055803" d="M34.426,22.182q0,4.424-1.831,6.768a6.391,6.391,0,0,1-5.361,2.344,6.436,6.436,0,0,1-5.332-2.3,10.488,10.488,0,0,1-1.89-6.592V18.476q0-4.468,1.853-6.782A6.439,6.439,0,0,1,27.2,9.379a6.445,6.445,0,0,1,5.332,2.292,10.456,10.456,0,0,1,1.89,6.584Zm-4.233-4.316A7.81,7.81,0,0,0,29.467,14a2.45,2.45,0,0,0-2.263-1.21A2.407,2.407,0,0,0,25,13.943a7.309,7.309,0,0,0-.754,3.6v5.191a8.2,8.2,0,0,0,.71,3.878,2.418,2.418,0,0,0,2.278,1.268,2.377,2.377,0,0,0,2.241-1.217,8,8,0,0,0,.718-3.724Zm11.4.6h2.256a3.179,3.179,0,0,0,2.388-.806,2.952,2.952,0,0,0,.776-2.139,2.61,2.61,0,0,0-.769-2.007,2.98,2.98,0,0,0-2.117-.718,3.124,3.124,0,0,0-2.036.667,2.131,2.131,0,0,0-.82,1.736H37.033a5.206,5.206,0,0,1,.9-3,6,6,0,0,1,2.52-2.073,8.409,8.409,0,0,1,3.567-.747A7.975,7.975,0,0,1,49.323,11a5.523,5.523,0,0,1,1.919,4.46,4.488,4.488,0,0,1-.894,2.7A5.805,5.805,0,0,1,48,20.043a5.3,5.3,0,0,1,2.688,1.934,5.245,5.245,0,0,1,.886,3.047,5.614,5.614,0,0,1-2.073,4.556,8.334,8.334,0,0,1-5.486,1.714A7.9,7.9,0,0,1,38.8,29.608a5.5,5.5,0,0,1-2.029-4.453H41a2.453,2.453,0,0,0,.9,1.963,3.758,3.758,0,0,0,4.585-.037,2.756,2.756,0,0,0,.857-2.117q0-3.193-3.516-3.193H41.589Z" transform="translate(-1776.664 -10103.39)" fill="#8f85b2"/>
    <g id="Trazado_1055804" data-name="Trazado 1055804" transform="translate(-1766 -10111)" fill="none">
      <path d="M26,0A26,26,0,1,1,0,26,26,26,0,0,1,26,0Z" stroke="none"/>
      <path d="M 26 1 C 22.62458038330078 1 19.35065841674805 1.660858154296875 16.26918029785156 2.964210510253906 C 13.29232025146484 4.223320007324219 10.61861038208008 6.026050567626953 8.322330474853516 8.322330474853516 C 6.026050567626953 10.61861038208008 4.223320007324219 13.29232025146484 2.964210510253906 16.26918029785156 C 1.660858154296875 19.35065841674805 1 22.62458038330078 1 26 C 1 29.37541961669922 1.660858154296875 32.64933776855469 2.964210510253906 35.73081970214844 C 4.223320007324219 38.70767974853516 6.026050567626953 41.38138961791992 8.322330474853516 43.67766952514648 C 10.61861038208008 45.97394943237305 13.29232025146484 47.77667999267578 16.26918029785156 49.03578948974609 C 19.35065841674805 50.33914184570312 22.62458038330078 51 26 51 C 29.37541961669922 51 32.64933776855469 50.33914184570312 35.73081970214844 49.03578948974609 C 38.70767974853516 47.77667999267578 41.38138961791992 45.97394943237305 43.67766952514648 43.67766952514648 C 45.97394943237305 41.38138961791992 47.77667999267578 38.70767974853516 49.03578948974609 35.73081970214844 C 50.33914184570312 32.64933776855469 51 29.37541961669922 51 26 C 51 22.62458038330078 50.33914184570312 19.35065841674805 49.03578948974609 16.26918029785156 C 47.77667999267578 13.29232025146484 45.97394943237305 10.61861038208008 43.67766952514648 8.322330474853516 C 41.38138961791992 6.026050567626953 38.70767974853516 4.223320007324219 35.73081970214844 2.964210510253906 C 32.64933776855469 1.660858154296875 29.37541961669922 1 26 1 M 26 0 C 40.35939788818359 0 52 11.64059829711914 52 26 C 52 40.35939788818359 40.35939788818359 52 26 52 C 11.64059829711914 52 0 40.35939788818359 0 26 C 0 11.64059829711914 11.64059829711914 0 26 0 Z" stroke="none" fill="#8f85b2"/>
    </g>
  </g>
</svg>
