<svg xmlns="http://www.w3.org/2000/svg" width="105" height="105" viewBox="0 0 105 105">
  <g id="Grupo_1186067" data-name="Grupo 1186067" transform="translate(-1124.84 -1469.095)">
    <path id="Trazado_1055799" data-name="Trazado 1055799" d="M52.5,0A52.5,52.5,0,1,1,0,52.5,52.5,52.5,0,0,1,52.5,0Z" transform="translate(1124.84 1469.095)" fill="#fff"/>
    <path id="Trazado_1055801" data-name="Trazado 1055801" d="M34.426,22.182q0,4.424-1.831,6.768a6.391,6.391,0,0,1-5.361,2.344,6.436,6.436,0,0,1-5.332-2.3,10.488,10.488,0,0,1-1.89-6.592V18.476q0-4.468,1.853-6.782A6.439,6.439,0,0,1,27.2,9.379a6.445,6.445,0,0,1,5.332,2.292,10.456,10.456,0,0,1,1.89,6.584Zm-4.233-4.316A7.81,7.81,0,0,0,29.467,14a2.45,2.45,0,0,0-2.263-1.21A2.407,2.407,0,0,0,25,13.943a7.309,7.309,0,0,0-.754,3.6v5.191a8.2,8.2,0,0,0,.71,3.878,2.418,2.418,0,0,0,2.278,1.268,2.377,2.377,0,0,0,2.241-1.217,8,8,0,0,0,.718-3.724ZM51.9,31H37.282V28.1l6.9-7.354a17.021,17.021,0,0,0,2.1-2.71,4.354,4.354,0,0,0,.681-2.2,3.258,3.258,0,0,0-.718-2.234,2.591,2.591,0,0,0-2.051-.813,2.794,2.794,0,0,0-2.263.989,3.917,3.917,0,0,0-.828,2.6H36.857a6.992,6.992,0,0,1,.93-3.56,6.556,6.556,0,0,1,2.629-2.527,7.992,7.992,0,0,1,3.853-.916,7.567,7.567,0,0,1,5.12,1.582,5.6,5.6,0,0,1,1.824,4.468,7.171,7.171,0,0,1-.82,3.223,17.909,17.909,0,0,1-2.812,3.823l-4.849,5.112H51.9Z" transform="translate(1143.336 1505.61)" fill="#8f85b2"/>
    <g id="Trazado_1055800" data-name="Trazado 1055800" transform="translate(1154 1497)" fill="none">
      <path d="M26,0A26,26,0,1,1,0,26,26,26,0,0,1,26,0Z" stroke="none"/>
      <path d="M 26 1 C 22.62458038330078 1 19.35065841674805 1.660858154296875 16.26918029785156 2.964210510253906 C 13.29232025146484 4.223320007324219 10.61861038208008 6.026050567626953 8.322330474853516 8.322330474853516 C 6.026050567626953 10.61861038208008 4.223320007324219 13.29232025146484 2.964210510253906 16.26918029785156 C 1.660858154296875 19.35065841674805 1 22.62458038330078 1 26 C 1 29.37541961669922 1.660858154296875 32.64933776855469 2.964210510253906 35.73081970214844 C 4.223320007324219 38.70767974853516 6.026050567626953 41.38138961791992 8.322330474853516 43.67766952514648 C 10.61861038208008 45.97394943237305 13.29232025146484 47.77667999267578 16.26918029785156 49.03578948974609 C 19.35065841674805 50.33914184570312 22.62458038330078 51 26 51 C 29.37541961669922 51 32.64933776855469 50.33914184570312 35.73081970214844 49.03578948974609 C 38.70767974853516 47.77667999267578 41.38138961791992 45.97394943237305 43.67766952514648 43.67766952514648 C 45.97394943237305 41.38138961791992 47.77667999267578 38.70767974853516 49.03578948974609 35.73081970214844 C 50.33914184570312 32.64933776855469 51 29.37541961669922 51 26 C 51 22.62458038330078 50.33914184570312 19.35065841674805 49.03578948974609 16.26918029785156 C 47.77667999267578 13.29232025146484 45.97394943237305 10.61861038208008 43.67766952514648 8.322330474853516 C 41.38138961791992 6.026050567626953 38.70767974853516 4.223320007324219 35.73081970214844 2.964210510253906 C 32.64933776855469 1.660858154296875 29.37541961669922 1 26 1 M 26 0 C 40.35939788818359 0 52 11.64059829711914 52 26 C 52 40.35939788818359 40.35939788818359 52 26 52 C 11.64059829711914 52 0 40.35939788818359 0 26 C 0 11.64059829711914 11.64059829711914 0 26 0 Z" stroke="none" fill="#8f85b2"/>
    </g>
  </g>
</svg>
